<svg width="99" height="114" viewBox="0 0 99 114" fill="none" xmlns="http://www.w3.org/2000/svg">
<path d="M95.6491 69.5566L96.0832 68.5699C96.546 67.5177 96.5674 66.3501 96.1439 65.2818C95.7168 64.2046 94.8897 63.3584 93.8146 62.8993L90.6947 61.5662C88.4917 60.625 85.9203 61.6283 84.9638 63.8032L84.526 64.7982C78.9267 64.8686 73.9872 68.5237 72.3899 73.8524L69.3581 83.9674C69.2027 83.9187 69.0481 83.8703 68.8892 83.8208C64.0962 82.3243 56.8528 80.0626 56.8528 76.5203V72.6922C62.4019 71.9151 66.3545 70.1993 68.8363 67.5054C71.1429 65.0018 72.4326 59.5404 73.1529 54.0292C73.6962 54.3568 74.2761 54.5267 74.8771 54.5267C77.7936 54.5267 80.0781 50.4089 80.0781 45.1522C80.0781 39.8955 77.7936 35.7777 74.8771 35.7777C74.5864 35.7777 74.2943 35.8198 74.0074 35.8983C73.8171 29.0592 72.9195 15.362 68.8366 10.9303C66.1676 8.03301 61.6321 6.22734 55.3522 5.56148C53.5452 3.3054 49.6004 -1.0431 46.9514 0.264406C45.5845 0.939235 45.2238 2.89131 45.2884 5.00839C42.1885 1.64366 39.2459 0.142219 37.453 1.1307C35.8591 2.0091 35.7126 4.50977 35.9725 6.8154C25.0269 5.5144 22.9618 6.87459 22.4175 8.39665C21.8667 9.93665 23.1717 11.8242 26.6287 14.4349C21.7477 16.6751 17.3193 19.9504 18.103 22.5228C18.6525 24.3269 21.5355 25.0226 24.9094 25.084C24.8822 25.3048 24.8557 25.5268 24.8298 25.7487C24.3926 29.5168 24.2065 33.1335 24.1318 35.8974C23.8458 35.8194 23.5547 35.7774 23.2651 35.7774C20.3486 35.7774 18.0641 39.8952 18.0641 45.152C18.0641 50.4087 20.3486 54.5265 23.2651 54.5265C23.8661 54.5265 24.4459 54.3565 24.9891 54.029C25.6083 58.7671 26.6487 63.4674 28.3941 66.284C25.5595 65.3399 22.0766 64.6025 18.1037 64.6025C11.6816 64.6025 6.53551 66.5272 3.34921 68.1421C1.28343 69.1891 0 71.2562 0 73.5367C0 75.1554 0.639015 76.6766 1.79959 77.8204L12.4979 88.3643C13.3138 89.1685 13.7631 90.237 13.7631 91.373V99.6963C13.7631 101.559 12.5425 103.193 10.7258 103.76C7.69226 104.708 6.02137 106.174 6.02137 107.888C6.02137 111.224 12.2466 113.024 18.1039 113.024C23.9613 113.024 30.1865 111.224 30.1865 107.888C30.1865 106.174 28.5156 104.708 25.4821 103.761C23.6654 103.193 22.4447 101.559 22.4447 99.6963V91.373C22.4447 90.2373 22.8941 89.1685 23.7099 88.3643L24.5557 87.5308C24.655 87.466 24.7546 87.4016 24.8561 87.3393C25.737 86.7979 27.7067 86.1829 29.7921 85.5318C30.781 85.2231 31.8104 84.9012 32.8391 84.5573C33.3559 88.1601 34.496 91.586 36.2394 94.7548C39.7929 101.214 44.9444 104.968 48.6399 106.98C48.7744 107.053 48.9229 107.09 49.0714 107.09C49.2199 107.09 49.3684 107.053 49.503 106.98C53.1987 104.968 58.3497 101.214 61.9033 94.7548C63.6468 91.5853 64.7871 88.1596 65.3035 84.5573C66.3325 84.9012 67.3621 85.2231 68.3512 85.5321C68.5177 85.5841 68.6804 85.635 68.8431 85.6859L63.8637 102.298C63.1592 104.648 64.0332 107.215 66.038 108.685C67.4757 109.739 69.0353 110.629 70.6737 111.329C72.3338 112.038 74.081 112.556 75.8662 112.868C76.2039 112.927 76.5426 112.955 76.8787 112.955C78.9472 112.955 80.9212 111.869 81.9976 110.062L97.2359 84.4837C100.091 79.692 99.4234 73.6304 95.6491 69.5566ZM74.0567 39.2175C74.0567 38.8709 74.0544 38.3938 74.0468 37.8113C74.3188 37.6573 74.608 37.571 74.8768 37.571C76.4854 37.571 78.2778 40.6844 78.2778 45.152C78.2778 49.6195 76.4854 52.7329 74.8768 52.7329C74.2835 52.7329 73.7739 52.3271 73.4035 51.9043C73.9991 46.2898 74.0567 41.0158 74.0567 39.2175ZM23.2651 52.7331C21.6565 52.7331 19.8642 49.6197 19.8642 45.1522C19.8642 40.6846 21.6565 37.5712 23.2651 37.5712C23.5338 37.5712 23.8224 37.6573 24.094 37.8109C24.0877 38.3371 24.0853 38.809 24.0853 39.2177C24.0853 41.0158 24.1426 46.2898 24.7382 51.9045C24.3683 52.3273 23.8587 52.7331 23.2651 52.7331ZM60.7508 82.794L57.3066 88.904L50.6744 85.6356L56.8103 80.2603C57.8212 81.2389 59.1971 82.0685 60.7508 82.794ZM55.6906 78.8528L49.0712 84.6519L42.4518 78.8528C42.8586 78.1459 43.0897 77.3731 43.0897 76.5201V72.9069C44.9255 73.0879 46.9177 73.178 49.0712 73.178C51.2247 73.178 53.2169 73.0879 55.0527 72.9069V76.5201C55.0527 77.3731 55.284 78.1459 55.6906 78.8528ZM47.468 85.6356L40.8356 88.904L37.3914 82.794C38.9451 82.0687 40.321 81.2389 41.3321 80.2605L47.468 85.6356ZM49.0712 86.8465L52.028 88.3036L50.2444 91.7315H47.8978L46.1142 88.3036L49.0712 86.8465ZM19.8252 22.0017C19.5539 21.1101 22.386 18.0781 28.7687 15.4615C29.0723 15.3371 29.2838 15.0577 29.3205 14.7326C29.3571 14.4076 29.2133 14.0881 28.9451 13.8995C23.7432 10.2413 24.0952 9.04772 24.1127 8.99884C24.1795 8.81209 25.1059 7.22008 36.9128 8.73945C37.1974 8.77622 37.4794 8.67645 37.6769 8.47176C37.8747 8.26685 37.9631 7.981 37.9159 7.70075C37.4292 4.83396 37.7528 3.01551 38.324 2.70052C39.0909 2.27791 42.0605 3.51614 45.7733 8.39217C46.0231 8.72084 46.4661 8.83698 46.8463 8.67376C47.2264 8.51077 47.446 8.11036 47.3783 7.70367C46.8148 4.31271 47.1492 2.16783 47.75 1.87144C48.3231 1.58738 50.6467 2.46332 54.1716 6.96651C54.3233 7.16022 54.5483 7.28352 54.7938 7.30751C60.8174 7.8958 65.0959 9.52257 67.5104 12.1432C69.8165 14.6463 71.2266 21.6244 71.8602 29.341C71.2264 28.4406 70.4346 27.5297 69.4466 26.6729C66.6317 24.2311 63.5458 23.4075 61.6985 23.131C60.6907 21.2702 59.4185 20.1176 57.9128 19.7026C54.4068 18.7366 50.8825 22.0968 47.7734 25.0618C45.4522 27.2757 43.051 29.565 41.6377 29.0502C41.007 28.8211 39.9101 27.738 39.6471 23.0604C39.6264 22.6934 39.3829 22.3761 39.033 22.2598C38.682 22.143 38.297 22.2519 38.0597 22.5331C35.3778 25.7084 31.6427 28.8404 30.5787 28.2584C30.5697 28.2534 29.6834 27.725 30.1782 24.0782C30.2153 23.8038 30.1235 23.5278 29.9291 23.3303C29.7347 23.1328 29.46 23.036 29.1834 23.0673C23.0903 23.7666 20.0383 22.7001 19.8252 22.0017ZM25.8855 39.2175C25.8855 36.6218 25.9807 31.4473 26.6181 25.9543C26.6528 25.655 26.6888 25.3562 26.7264 25.0598C27.2405 25.038 27.758 25.0044 28.2735 24.9602C28.0721 27.5622 28.5554 29.1986 29.7144 29.8309C30.0481 30.0129 30.4135 30.0948 30.8023 30.0948C33.0742 30.0943 36.1248 27.2905 38.0457 25.2472C38.4759 28.3635 39.4565 30.1656 41.0207 30.7344C43.4875 31.6312 46.1736 29.0691 49.0179 26.3567C51.7805 23.7222 54.9096 20.7346 57.4329 21.4307C58.5345 21.7343 59.5009 22.7172 60.3055 24.3522C60.4405 24.6264 60.7062 24.8134 61.0109 24.8484C62.5567 25.0257 65.5546 25.6743 68.2644 28.025C70.5295 29.9901 71.6217 32.2769 72.1419 33.8828C72.2186 35.6752 72.2564 37.4677 72.2564 39.2173C72.2564 50.1296 70.7889 62.7332 67.5099 66.292C64.3972 69.6709 58.1936 71.3842 49.071 71.3842C39.9484 71.3842 33.7445 69.6709 30.6316 66.292C27.353 62.7336 25.8855 50.1298 25.8855 39.2175ZM22.4441 87.0893C21.2837 88.2332 20.6447 89.7546 20.6447 91.373V99.6963C20.6447 102.347 22.3723 104.668 24.9432 105.472C27.4846 106.266 28.3865 107.27 28.3865 107.888C28.3865 109.251 24.3807 111.23 18.1039 111.23C11.8272 111.23 7.82141 109.251 7.82141 107.888C7.82141 107.27 8.72323 106.266 11.2647 105.472C13.8358 104.668 15.5632 102.347 15.5632 99.6963V91.373C15.5632 89.7541 14.9242 88.2327 13.7636 87.0893L3.06547 76.5454C2.24938 75.7412 1.80004 74.6727 1.80004 73.5367C1.80004 71.9346 2.70636 70.4802 4.16552 69.7408C7.17632 68.215 12.0385 66.3961 18.1039 66.3961C24.1692 66.3961 29.212 68.2159 32.3254 69.8978C33.6174 70.6744 34.4078 72.0411 34.4078 73.5367C34.4078 74.6727 33.9585 75.7412 33.1426 76.5454L22.4441 87.0893ZM29.2536 83.8203C28.7816 83.9678 28.3237 84.1109 27.8833 84.2512L34.4083 77.8204C35.5689 76.6768 36.2079 75.1554 36.2079 73.5367C36.2079 72.8148 36.0785 72.1144 35.8371 71.4609C37.4449 71.998 39.2605 72.4079 41.2896 72.6919V76.5201C41.2896 80.0624 34.0465 82.3238 29.2536 83.8203ZM37.8176 93.8928C36.1221 90.8114 35.0313 87.4705 34.5703 83.9526C34.9613 83.8091 35.3483 83.6616 35.7302 83.5094L39.6844 90.5242C39.8487 90.8161 40.154 90.982 40.4697 90.982C40.604 90.982 40.7399 90.952 40.8682 90.889L44.5004 89.099L46.4024 92.7543L44.4095 101.921C42.076 99.9463 39.7058 97.325 37.8176 93.8928ZM49.0712 105.166C48.1122 104.624 47.0639 103.961 45.9812 103.163L48.0767 93.5253H50.0657L52.1612 103.163C51.0782 103.961 50.0299 104.624 49.0712 105.166ZM60.3246 93.8928C58.4364 97.3252 56.0662 99.9465 53.7329 101.921L51.74 92.7543L53.642 89.0988L57.2742 90.8888C57.4023 90.9518 57.5384 90.982 57.6727 90.9818C57.9884 90.9818 58.2937 90.8159 58.458 90.524L62.4122 83.5091C62.7938 83.6614 63.1811 83.8091 63.5721 83.9526C63.1111 87.4698 62.0203 90.8107 60.3246 93.8928ZM86.6124 64.5231C87.1741 63.2468 88.6863 62.6598 89.9855 63.2147L93.1054 64.5478C93.7359 64.8173 94.2203 65.3121 94.4699 65.9412C94.7158 66.5613 94.703 67.2393 94.4345 67.85L94.0205 68.7909C92.5859 68.6192 91.1891 68.2457 89.8595 67.6776C88.5344 67.1115 87.307 66.3651 86.2025 65.4549L86.6124 64.5231ZM80.4498 109.146C79.5777 110.61 77.8602 111.395 76.1769 111.101C74.5285 110.813 72.9157 110.335 71.383 109.68C69.8711 109.034 68.4318 108.214 67.1049 107.241C65.7103 106.218 65.101 104.438 65.5886 102.812L73.6596 75.8849C76.3896 78.7102 79.705 80.9986 83.3337 82.5491C86.9578 84.0977 90.9123 84.9166 94.8643 84.9509L80.4498 109.146ZM95.9261 83.1462C91.8668 83.2634 87.7685 82.4924 84.0427 80.9006C80.3218 79.3106 76.9532 76.8938 74.2671 73.8981C75.8041 69.5081 80.0322 66.5465 84.7706 66.5925C86.0808 67.7222 87.5507 68.643 89.1498 69.3259C90.7485 70.0092 92.4349 70.4372 94.1663 70.6074C97.4282 73.9833 98.1282 79.0436 95.9261 83.1462ZM81.4085 95.5352C81.2625 95.8751 80.9302 96.0787 80.581 96.0787C80.4626 96.0787 80.3422 96.0554 80.2268 96.0058L75.4916 93.9824C75.0348 93.7872 74.8231 93.2599 75.019 92.8047C75.2148 92.3494 75.744 92.1387 76.2008 92.3339L80.936 94.3573C81.3928 94.5528 81.6045 95.0801 81.4085 95.5352ZM83.1195 91.6461C82.9732 91.9862 82.6409 92.1898 82.2917 92.1898C82.1733 92.1898 82.0529 92.1665 81.9375 92.1169L77.202 90.0938C76.7453 89.8985 76.5336 89.3714 76.7293 88.9163C76.9251 88.461 77.4547 88.2502 77.9113 88.4455L82.6467 90.4686C83.1037 90.6637 83.3152 91.1908 83.1195 91.6461ZM32.9727 38.1716C32.6134 37.834 32.5916 37.2735 32.9275 36.9125C33.0027 36.8316 34.8119 34.9298 38.3186 34.9298C41.8254 34.9298 43.6344 36.8314 43.7098 36.9123C44.0477 37.2757 44.0259 37.843 43.6614 38.1797C43.4881 38.3396 43.2688 38.4187 43.0498 38.4187C42.808 38.4187 42.567 38.3221 42.3894 38.1315C42.339 38.0793 41.0023 36.7233 38.3184 36.7233C35.6346 36.7233 34.298 38.0795 34.2424 38.1373C33.9007 38.4925 33.3325 38.5093 32.9727 38.1716ZM31.8763 72.8966C32.0052 73.375 31.7206 73.8669 31.2404 73.9954C26.9597 75.1408 22.5399 75.7217 18.1039 75.7217C13.6677 75.7217 9.24817 75.1408 4.96767 73.9954C4.48751 73.8669 4.20288 73.375 4.3318 72.8966C4.46051 72.4182 4.95597 72.1348 5.43433 72.263C9.56273 73.3679 13.8252 73.9279 18.1039 73.9279C22.3824 73.9279 26.6449 73.3677 30.7738 72.263C31.2521 72.1346 31.7474 72.4182 31.8763 72.8966ZM43.6825 53.8402C43.69 53.8467 45.2614 55.2766 49.0712 55.2766C52.881 55.2766 54.4522 53.8469 54.4677 53.8324C54.821 53.484 55.3869 53.4911 55.7365 53.8431C56.086 54.1953 56.0788 54.767 55.7253 55.1152C55.6445 55.195 53.6888 57.07 49.0712 57.07C44.4534 57.07 42.4977 55.195 42.4169 55.1152C42.0634 54.767 42.0603 54.1992 42.4099 53.8469C42.7593 53.4952 43.3293 53.4918 43.6825 53.8402ZM54.4776 38.1714C54.1183 37.8335 54.0967 37.2733 54.4324 36.9121C54.5078 36.8312 56.3168 34.9295 59.8235 34.9295C63.3302 34.9295 65.1395 36.8314 65.2147 36.9123C65.5526 37.2755 65.5308 37.843 65.1663 38.1797C64.993 38.3396 64.7737 38.4187 64.5547 38.4187C64.3151 38.4187 64.0759 38.3239 63.8988 38.1364C63.8345 38.0698 62.4977 36.7231 59.8235 36.7231C57.1397 36.7231 55.8029 38.079 55.7473 38.1369C55.4053 38.4922 54.8374 38.509 54.4776 38.1714ZM61.9741 43.0326C61.9741 44.6715 60.6261 45.9999 58.9636 45.9999C57.3008 45.9999 55.953 44.6713 55.953 43.0326C55.953 41.394 57.301 40.0654 58.9636 40.0654C60.6261 40.0654 61.9741 41.3938 61.9741 43.0326ZM42.1894 43.0326C42.1894 44.6715 40.8414 45.9999 39.1788 45.9999C37.516 45.9999 36.1683 44.6713 36.1683 43.0326C36.1683 41.394 37.5163 40.0654 39.1788 40.0654C40.8416 40.0654 42.1894 41.3938 42.1894 43.0326Z" fill="black"/>
</svg>
