<svg width="99" height="113" viewBox="0 0 99 113" fill="none" xmlns="http://www.w3.org/2000/svg">
<path d="M39.3753 47.5885C37.8951 47.5885 36.6927 48.6323 36.6927 49.9173C36.6927 51.2024 37.8951 52.2462 39.3753 52.2462C40.8555 52.2462 42.0579 51.2024 42.0579 49.9173C42.0579 48.6323 40.8556 47.5885 39.3753 47.5885Z" fill="black"/>
<path d="M59.6447 52.241C61.125 52.241 62.3273 51.1973 62.3273 49.9122C62.3273 48.6272 61.125 47.5834 59.6447 47.5834C58.1645 47.5834 56.9622 48.6271 56.9622 49.9122C56.9622 51.1972 58.1645 52.241 59.6447 52.241Z" fill="black"/>
<path d="M49.5061 66.854C52.5814 66.854 55.5357 65.485 57.6202 63.0932L54.974 61.3519C53.4998 63.0407 51.5605 63.9691 49.5061 63.9691C47.4518 63.9691 45.5126 63.0407 44.0383 61.3519L41.3921 63.0932C43.4766 65.4849 46.4369 66.854 49.5061 66.854Z" fill="black"/>
<path d="M17.1109 30.2902C17.8359 30.736 18.6092 31.1346 19.4189 31.4703C19.153 31.7273 18.9899 32.0683 18.9899 32.4302V39.6787C18.9899 40.135 19.2376 40.5651 19.6605 40.8379C20.0835 41.1106 20.6272 41.1945 21.1287 41.0634C29.5086 38.8815 39.3208 37.7328 49.5134 37.7328C59.6997 37.7328 69.512 38.8867 77.8981 41.0634C78.0552 41.1054 78.2184 41.1264 78.3754 41.1264C78.7259 41.1264 79.0763 41.0267 79.3663 40.8431C79.7892 40.5704 80.0369 40.1403 80.0369 39.684V32.4354C80.0369 32.0682 79.8738 31.7326 79.6079 31.4756C80.4175 31.1399 81.1908 30.7413 81.9159 30.2954C85.9579 27.8092 88.6101 23.7182 88.6101 19.0974C88.6101 11.534 81.5232 5.38141 72.8107 5.38141C70.8653 5.38141 68.1285 6.13144 66.5575 6.61924C62.7513 2.5963 56.4799 0.104867 49.7914 0H49.2416C42.5535 0.104901 36.2821 2.5963 32.4756 6.61924C30.9048 6.13145 28.1678 5.38141 26.2224 5.38141C17.5102 5.38141 10.423 11.5338 10.423 19.0974C10.423 23.7182 13.0692 27.8094 17.1172 30.2954L17.1109 30.2902ZM76.7062 37.7696C68.5135 35.8499 59.1668 34.8428 49.5124 34.8428C39.858 34.8428 30.5114 35.8499 22.3186 37.7696V33.5474C30.6199 31.7221 39.991 30.7571 49.5124 30.7571C59.0338 30.7571 68.4113 31.7221 76.7062 33.5474V37.7696ZM26.2147 8.26047C27.9668 8.26047 31.2897 9.28851 32.4195 9.68189C33.1324 9.93365 33.9541 9.72385 34.4011 9.17311C37.5186 5.32325 43.3006 2.91574 49.5114 2.87385C55.7223 2.91581 61.4982 5.31801 64.6218 9.17311C65.0628 9.7186 65.8845 9.93365 66.6034 9.68189C67.7332 9.28851 71.0501 8.26047 72.8082 8.26047C79.6897 8.26047 85.2844 13.1174 85.2844 19.0914C85.2844 24.9186 79.9556 29.6811 73.3036 29.9119C69.8115 29.2825 66.1743 28.8 62.4527 28.4591C66.1866 25.6372 68.5247 21.6195 68.5247 17.1613H65.2018C65.2018 21.8346 61.9876 25.9204 57.2388 28.0814C54.6832 27.945 52.1034 27.8716 49.5114 27.8716C46.9195 27.8716 44.3396 27.9398 41.7841 28.0814C37.0353 25.9204 33.8211 21.8399 33.8211 17.1613H30.4982C30.4982 21.6195 32.8363 25.6372 36.5702 28.4591C32.8486 28.8 29.2114 29.2878 25.7193 29.9119C19.0673 29.6864 13.7385 24.9186 13.7385 19.0914C13.7385 13.1174 19.3332 8.26047 26.2147 8.26047Z" fill="black"/>
<path d="M31.4115 112.999H99C99 94.4376 87.4361 83.4541 70.7189 78.7814L70.2839 78.6503V69.0729C70.2839 68.5536 69.9637 68.0763 69.4501 67.8193C69.2447 67.7144 69.0151 67.6567 68.7855 67.6357C70.5195 65.5955 71.9695 63.3191 72.9422 60.8696H73.3047C77.7997 60.8696 81.461 57.6911 81.461 53.7889C81.461 51.2187 79.8781 48.9687 77.5157 47.7256C77.7635 46.5455 78.0172 45.0768 78.1864 43.4195C77.8299 43.409 77.4734 43.3566 77.123 43.2674C73.7517 42.3915 70.1268 41.6886 66.3385 41.1589V42.2866C66.3385 44.8461 68.2598 47.0123 70.912 47.7676C70.912 47.7676 70.8999 54.3186 70.9301 54.434C70.7972 61.4676 65.7161 66.7808 62.665 69.3409C57.6684 73.5317 52.3699 75.4462 49.5423 75.4567H49.5302H49.5H49.4577C46.6302 75.4462 41.3316 73.5317 36.335 69.3409C33.2899 66.7814 28.2029 61.4734 28.0699 54.434C28.1001 54.3186 28.088 47.7676 28.088 47.7676C30.7402 47.0123 32.6615 44.8461 32.6615 42.2866V41.1589C28.8734 41.6834 25.2543 42.3863 21.877 43.2674C21.5265 43.3566 21.1701 43.4038 20.8136 43.4195C20.9888 45.077 21.2426 46.5455 21.4842 47.7256C19.122 48.9687 17.539 51.2189 17.539 53.7889C17.539 57.6911 21.2003 60.8696 25.6952 60.8696H26.0578C27.0305 63.319 28.4744 65.5901 30.2145 67.6357C29.9849 67.6567 29.7553 67.7144 29.5499 67.8193C29.0303 68.0763 28.7161 68.5536 28.7161 69.0729V78.6555L28.2811 78.7761C11.563 83.4495 0 94.4323 0 112.994H28.7405V85.7731C28.7405 85.1384 29.3326 84.6192 30.0697 84.6192L36.8304 84.6087L41.3376 86.9112L31.3989 86.9269V113L31.4115 112.999ZM74.2299 49.6764C76.4532 50.0541 78.1388 51.7535 78.1388 53.7938C78.1388 55.9495 76.2537 57.7328 73.8372 57.9636C74.109 56.731 74.2601 55.4617 74.2601 54.161C74.2601 54.0456 74.2299 49.6764 74.2299 49.6764ZM20.8755 53.7938C20.8755 51.7535 22.561 50.054 24.7844 49.6764C24.7844 49.6764 24.7542 54.0403 24.7542 54.1609C24.7542 55.4617 24.9052 56.731 25.1771 57.9635C22.7604 57.7327 20.8755 55.9495 20.8755 53.7938ZM59.4219 108.641C57.6033 108.641 56.1231 107.362 56.1231 105.778C56.1231 104.199 57.5973 102.914 59.4219 102.914C61.2405 102.914 62.7207 104.194 62.7207 105.778C62.7207 107.356 61.2465 108.641 59.4219 108.641ZM59.4219 97.7632C57.6033 97.7632 56.1231 96.4835 56.1231 94.8995C56.1231 93.3207 57.5973 92.0357 59.4219 92.0357C61.2405 92.0357 62.7207 93.3155 62.7207 94.8995C62.7207 96.4783 61.2465 97.7632 59.4219 97.7632ZM55.102 77.6586L66.962 71.6006V78.8283L55.102 84.8862V77.6586ZM47.2358 78.1254C48.0333 78.2723 48.7885 78.3457 49.4832 78.3457H49.5316C50.2264 78.3457 50.9816 78.2723 51.7791 78.1254V86.9004L47.2357 86.9056L47.2358 78.1254ZM32.0529 78.823V71.5954L43.9129 77.6481V84.8757L32.0529 78.823ZM39.593 92.0405C41.4116 92.0405 42.8917 93.3203 42.8917 94.9043C42.8917 96.4831 41.4176 97.7681 39.593 97.7681C37.7744 97.7681 36.2942 96.4883 36.2942 94.9043C36.2942 93.3255 37.7684 92.0405 39.593 92.0405ZM39.593 102.919C41.4116 102.919 42.8917 104.199 42.8917 105.783C42.8917 107.361 41.4176 108.646 39.593 108.646C37.7744 108.646 36.2942 107.367 36.2942 105.783C36.2942 104.204 37.7684 102.919 39.593 102.919Z" fill="black"/>
</svg>
