<?xml version="1.0" standalone="no"?>
<!DOCTYPE svg PUBLIC "-//W3C//DTD SVG 20010904//EN"
 "http://www.w3.org/TR/2001/REC-SVG-20010904/DTD/svg10.dtd">
<svg version="1.0" xmlns="http://www.w3.org/2000/svg"
 width="200.000000pt" height="100.000000pt" viewBox="0 0 220.000000 113.000000"
 preserveAspectRatio="xMidYMid meet">

<g transform="translate(0.000000,113.000000) scale(0.100000,-0.100000)"
fill="#000000" stroke="none">
<path d="M735 1080 c-4 -7 -47 -8 -123 -4 -95 5 -129 3 -175 -10 -68 -20 -121
-63 -137 -112 -13 -40 -5 -103 13 -105 7 -1 59 -1 117 0 173 3 304 -44 411
-148 67 -65 73 -65 118 -17 31 33 39 106 16 159 -21 50 -82 115 -151 163 -37
26 -51 41 -44 48 18 18 11 36 -14 36 -14 0 -28 -5 -31 -10z"/>
<path d="M370 763 c-33 -23 -47 -43 -54 -76 -13 -66 38 -106 92 -71 34 23 92
26 99 7 3 -8 15 -18 27 -22 23 -9 76 5 76 20 0 5 13 8 28 7 31 -2 52 8 52 24
0 7 -5 6 -15 -2 -8 -7 -21 -10 -29 -7 -12 5 -12 12 1 51 20 61 13 76 -35 76
-48 0 -86 -28 -103 -75 -12 -32 -43 -55 -56 -41 -3 3 0 26 7 50 7 25 10 52 7
61 -8 21 -66 20 -97 -2z m60 -2 c0 -6 -5 -13 -11 -17 -7 -4 -9 -24 -6 -55 5
-37 3 -49 -9 -53 -25 -10 -34 2 -34 43 0 24 8 48 21 65 21 26 39 34 39 17z
m180 -16 c-8 -10 -11 -32 -8 -60 4 -30 1 -48 -8 -56 -21 -17 -34 -1 -34 44 0
46 22 87 47 87 13 0 13 -3 3 -15z"/>
<path d="M159 541 c-47 -38 -26 -123 44 -175 39 -29 137 -28 197 2 27 13 46
18 48 12 10 -28 57 -69 100 -88 27 -12 55 -29 63 -38 34 -41 114 -55 174 -30
34 15 35 15 35 -10 0 -19 5 -24 24 -24 20 0 26 7 31 32 4 18 9 41 11 51 6 18
62 52 72 43 3 -3 -5 -28 -18 -55 -36 -77 -11 -108 61 -76 39 18 40 18 55 -3
19 -27 54 -28 87 -2 30 24 37 25 37 6 0 -7 6 -19 14 -25 17 -15 55 2 99 43 15
14 29 26 31 26 2 0 -5 -35 -15 -78 -24 -102 -24 -104 8 -100 25 3 29 9 39 53
10 48 11 50 41 47 59 -6 113 51 113 121 0 18 -5 38 -12 45 -15 15 -64 16 -73
2 -3 -5 -11 -10 -16 -10 -6 0 -7 5 -4 10 3 6 -4 10 -17 10 -18 0 -33 -14 -58
-52 -37 -54 -85 -97 -97 -85 -6 7 -1 32 25 121 4 16 1 17 -26 12 -18 -4 -33
-3 -37 3 -20 33 -101 -7 -140 -69 -25 -40 -50 -58 -62 -47 -3 4 4 29 16 58 27
62 22 83 -19 77 -35 -5 -38 2 -11 26 25 22 41 69 31 86 -11 18 -76 4 -101 -23
-18 -20 -66 -112 -82 -160 -14 -38 -97 -53 -134 -24 -21 15 -15 25 18 32 45
10 107 70 119 115 11 40 6 64 -18 93 -28 32 -125 17 -161 -27 -11 -13 -17 -11
-46 19 -37 40 -76 45 -126 19 -29 -15 -31 -14 -54 10 -35 38 -73 34 -136 -14
-59 -44 -93 -50 -109 -20 -13 24 3 60 26 60 8 0 12 5 9 10 -9 15 -30 12 -56
-9z m629 -63 c18 -18 14 -56 -8 -78 -24 -24 -88 -28 -96 -6 -7 19 23 64 55 81
32 18 34 18 49 3z m202 -47 c0 -10 -18 -38 -40 -62 l-41 -44 22 45 c19 41 47
80 56 80 1 0 3 -8 3 -19z m193 -150 c-2 -50 -63 -105 -76 -68 -5 13 17 73 35
94 20 25 43 10 41 -26z m266 0 c11 -20 0 -73 -20 -97 -6 -8 -20 -14 -32 -14
-17 0 -19 5 -14 40 5 42 30 90 47 90 5 0 14 -8 19 -19z"/>
<path d="M2090 397 c-20 -10 -26 -23 -32 -66 -6 -56 -36 -100 -58 -86 -11 7
-9 36 6 117 5 27 5 27 -25 17 -25 -9 -32 -18 -36 -47 -9 -59 -19 -84 -37 -96
-27 -17 -32 -1 -22 69 6 36 7 65 4 65 -3 0 -15 -6 -25 -14 -14 -10 -24 -11
-36 -3 -35 22 -129 -48 -129 -96 0 -15 -54 -67 -70 -67 -4 0 -18 8 -31 19
l-23 18 30 18 c16 10 39 27 51 38 47 41 -21 79 -75 41 -47 -33 -68 -117 -36
-148 24 -25 87 -20 121 8 28 24 29 24 41 5 18 -29 59 -24 92 11 l27 29 11 -24
c15 -32 33 -31 70 0 26 22 31 23 42 10 19 -23 51 -18 83 13 26 25 29 26 38 10
15 -27 48 -22 80 13 37 39 41 74 5 40 -36 -34 -46 -20 -39 54 3 36 4 65 2 65
-2 0 -15 -6 -29 -13z m-263 -73 c8 -20 -13 -88 -32 -104 -23 -19 -47 5 -38 39
16 68 55 104 70 65z m-197 -21 c0 -18 -28 -53 -42 -53 -11 0 -10 27 2 51 13
23 40 25 40 2z"/>
</g>
</svg>
