<svg width="51" height="52" viewBox="0 0 51 52" fill="none" xmlns="http://www.w3.org/2000/svg">
<path d="M34.8691 1.54466C33.6708 2.43791 33.4312 2.4597 29.7928 1.95861C16.7645 0.237473 8.00635 4.18083 8.00635 11.8061C8.00635 15.5752 8.44208 15.8148 14.7384 15.5316C26.1545 14.9869 34.4987 17.8192 40.9911 24.4205C44.7166 28.2113 45.5445 28.3856 47.8103 25.8802C52.6251 20.5425 50.185 13.7233 40.8604 6.6427C37.1131 3.76689 36.8081 3.44009 37.4181 2.76471C38.1371 1.95861 38.2896 1.02179 37.6796 1.02179C37.4617 1.02179 37.0042 0.934641 36.6992 0.825708C36.3724 0.69499 35.5445 1.02179 34.8691 1.54466Z" fill="black"/>
<path d="M12.0151 21.3486C9.16109 22.7647 7.5271 26.3377 8.44214 29.1481C9.33538 31.8497 12.4073 32.4161 14.5424 30.281C15.4792 29.3442 15.9585 29.1481 16.5031 29.4531C17.0042 29.7364 17.636 29.6928 18.3986 29.366C19.27 28.9521 19.575 28.9521 19.7058 29.366C20.4901 31.7189 23.7145 32.22 25.7842 30.3028C26.8081 29.3442 27.2657 29.1699 27.9846 29.4967C29.0739 29.976 31.1001 28.8431 31.1001 27.732C31.1001 27.1002 31.0129 27.1002 30.2504 27.7974C29.2918 28.6688 27.7885 28.5381 27.8975 27.5795C27.941 27.2309 28.2243 25.8148 28.5075 24.4423C29.2047 21.1307 28.7254 20.4553 25.806 20.7385C23.2787 20.9782 20.9912 22.5904 20.2504 24.6383C19.1611 27.6013 18.6818 28.2549 17.5707 28.2549C16.3724 28.2549 16.3724 28.2113 17.1785 24.4423C17.9846 20.695 15.8931 19.4531 12.0151 21.3486ZM14.9563 21.8279C14.9563 22.0022 14.6731 22.525 14.3027 23.0043C13.5184 24.0501 13.5184 25.7277 14.3027 27.1656C14.9563 28.3638 14.2156 29.7799 12.9302 29.7799C11.1001 29.7799 11.1872 24.3987 13.0391 22.525C14.0413 21.5229 14.9999 21.1743 14.9563 21.8279ZM26.2853 21.8279C26.2853 22.0022 26.002 22.525 25.6317 23.0043C24.8474 24.0501 24.8474 25.7277 25.6317 27.1656C26.2853 28.342 25.5445 29.7799 24.3027 29.7799C22.2983 29.7799 22.4073 24.5076 24.4334 22.2636C25.1306 21.5011 26.3288 21.2179 26.2853 21.8279Z" fill="black"/>
<path d="M1.75386 36.3159C-0.5773 39.0828 0.424879 43.0044 4.23752 46.0762C6.63403 48.0152 12.9739 48.1024 16.7212 46.2505C18.7691 45.2266 19.1613 45.1612 19.4663 45.7277C24.1068 54.0065 37.963 54.0283 41.9499 45.7712C43.78 41.9804 41.9281 36.7298 39.1177 37.7974C38.2244 38.146 38.3769 38.6688 39.4881 39.1481C41.4271 39.9978 41.0131 43.7015 38.8127 45.0523C36.0022 46.7734 33.78 45.8584 30.9478 41.7625C27.7451 37.2309 24.8911 36.1634 21.2963 38.1895L19.5534 39.1699L17.9848 37.5359C15.5447 34.9651 12.9739 35.4009 8.87804 39.1481C6.28545 41.5011 4.15037 41.61 3.23534 39.4096C2.58174 37.841 3.19176 36.4466 4.62967 36.2288C6.08937 36.0327 5.82793 35.2484 4.2593 35.0959C3.16998 34.9869 2.6471 35.2484 1.75386 36.3159Z" fill="black"/>
</svg>
