<?xml version="1.0" standalone="no"?>
<!DOCTYPE svg PUBLIC "-//W3C//DTD SVG 20010904//EN"
 "http://www.w3.org/TR/2001/REC-SVG-20010904/DTD/svg10.dtd">
<svg version="1.0" xmlns="http://www.w3.org/2000/svg"
 width="55pt" height="50pt" viewBox="0 0 162.000000 153.000000"
 preserveAspectRatio="xMidYMid meet">
<metadata>
Created by potrace 1.10, written by Peter Selinger 2001-2011
</metadata>
<g transform="translate(0.000000,153.000000) scale(0.050000,-0.050000)"
fill="#000000" stroke="none">
<path d="M2073 2576 c-55 -41 -66 -42 -233 -19 -598 79 -1000 -102 -1000 -452
0 -173 20 -184 309 -171 524 25 907 -105 1205 -408 171 -174 209 -182 313 -67
221 245 109 558 -319 883 -172 132 -186 147 -158 178 33 37 40 80 12 80 -10 0
-31 4 -45 9 -15 6 -53 -9 -84 -33z"/>
<path d="M1024 1667 c-131 -65 -206 -229 -164 -358 41 -124 182 -150 280 -52
43 43 65 52 90 38 23 -13 52 -11 87 4 40 19 54 19 60 0 36 -108 184 -131 279
-43 47 44 68 52 101 37 50 -22 143 30 143 81 0 29 -4 29 -39 -3 -44 -40 -113
-34 -108 10 2 16 15 81 28 144 32 152 10 183 -124 170 -116 -11 -221 -85 -255
-179 -50 -136 -72 -166 -123 -166 -55 0 -55 2 -18 175 37 172 -59 229 -237
142z m135 -22 c0 -8 -13 -32 -30 -54 -36 -48 -36 -125 0 -191 30 -55 -4 -120
-63 -120 -84 0 -80 247 5 333 46 46 90 62 88 32z m520 0 c0 -8 -13 -32 -30
-54 -36 -48 -36 -125 0 -191 30 -54 -4 -120 -61 -120 -92 0 -87 242 6 345 32
35 87 48 85 20z"/>
<path d="M553 980 c-107 -127 -61 -307 114 -448 110 -89 401 -93 573 -8 94 47
112 50 126 24 213 -380 849 -381 1032 -2 84 174 -1 415 -130 366 -41 -16 -34
-40 17 -62 89 -39 70 -209 -31 -271 -129 -79 -231 -37 -361 151 -147 208 -278
257 -443 164 l-80 -45 -72 75 c-112 118 -230 98 -418 -74 -119 -108 -217 -113
-259 -12 -30 72 -2 136 64 146 67 9 55 45 -17 52 -50 5 -74 -7 -115 -56z"/>
</g>
</svg>
