<svg width="51" height="52" viewBox="0 0 51 52" fill="none" xmlns="http://www.w3.org/2000/svg">
<path d="M34.8693 1.54466C33.6711 2.43791 33.4314 2.4597 29.7931 1.95861C16.7648 0.237473 8.00659 4.18083 8.00659 11.8061C8.00659 15.5752 8.44232 15.8148 14.7386 15.5316C26.1547 14.9869 34.499 17.8192 40.9913 24.4205C44.7168 28.2113 45.5447 28.3856 47.8105 25.8802C52.6253 20.5425 50.1852 13.7233 40.8606 6.6427C37.1133 3.76689 36.8083 3.44009 37.4184 2.76471C38.1373 1.95861 38.2898 1.02179 37.6798 1.02179C37.4619 1.02179 37.0044 0.934641 36.6994 0.825708C36.3726 0.694989 35.5447 1.02179 34.8693 1.54466Z" fill="black"/>
<path d="M12.0153 21.3486C9.16127 22.7647 7.52729 26.3377 8.44232 29.1482C9.33556 31.8497 12.4075 32.4161 14.5425 30.281C15.4794 29.3442 15.9587 29.1482 16.5033 29.4532C17.0044 29.7364 17.6362 29.6928 18.3987 29.366C19.2702 28.9521 19.5752 28.9521 19.7059 29.366C20.4902 31.719 23.7147 32.22 25.7844 30.3028C26.8083 29.3442 27.2658 29.1699 27.9848 29.4967C29.0741 29.976 31.1003 28.8431 31.1003 27.732C31.1003 27.1002 31.0131 27.1002 30.2506 27.7974C29.292 28.6688 27.7887 28.5381 27.8977 27.5795C27.9412 27.2309 28.2245 25.8148 28.5077 24.4423C29.2048 21.1307 28.7255 20.4553 25.8062 20.7386C23.2789 20.9782 20.9913 22.5904 20.2506 24.6383C19.1613 27.6013 18.682 28.2549 17.5709 28.2549C16.3726 28.2549 16.3726 28.2113 17.1787 24.4423C17.9848 20.695 15.8933 19.4532 12.0153 21.3486ZM14.9565 21.8279C14.9565 22.0022 14.6733 22.5251 14.3029 23.0044C13.5186 24.0501 13.5186 25.7277 14.3029 27.1656C14.9565 28.3638 14.2157 29.78 12.9303 29.78C11.1003 29.78 11.1874 24.3987 13.0393 22.5251C14.0414 21.5229 15.0001 21.1743 14.9565 21.8279ZM26.2855 21.8279C26.2855 22.0022 26.0022 22.5251 25.6319 23.0044C24.8475 24.0501 24.8475 25.7277 25.6319 27.1656C26.2855 28.3421 25.5447 29.78 24.3029 29.78C22.2985 29.78 22.4075 24.5076 24.4336 22.2636C25.1308 21.5011 26.329 21.2179 26.2855 21.8279Z" fill="black"/>
<path d="M1.75386 36.3159C-0.5773 39.0828 0.424879 43.0044 4.23752 46.0763C6.63403 48.0153 12.9739 48.1024 16.7212 46.2506C18.7691 45.2266 19.1613 45.1612 19.4663 45.7277C24.1068 54.0065 37.963 54.0283 41.9499 45.7713C43.78 41.9804 41.9281 36.7299 39.1177 37.7974C38.2244 38.146 38.3769 38.6689 39.4881 39.1482C41.4271 39.9978 41.0131 43.7015 38.8127 45.0523C36.0022 46.7734 33.78 45.8584 30.9478 41.7625C27.7451 37.2309 24.8911 36.1634 21.2963 38.1896L19.5534 39.1699L17.9848 37.536C15.5447 34.9652 12.9739 35.4009 8.87804 39.1482C6.28545 41.5011 4.15037 41.61 3.23534 39.4096C2.58174 37.841 3.19176 36.4466 4.62967 36.2288C6.08937 36.0327 5.82793 35.2484 4.2593 35.0959C3.16998 34.9869 2.6471 35.2484 1.75386 36.3159Z" fill="black"/>
</svg>
