<svg width="99" height="113" viewBox="0 0 99 113" fill="none" xmlns="http://www.w3.org/2000/svg">
<path d="M67.509 71.3636C65.8889 80.1939 62.6282 88.4018 58.0202 95.3934C56.685 97.4194 53.9861 96.4459 53.7215 93.8715L52.5939 82.956L54.8409 77.5007C55.2276 76.5569 54.6659 75.4451 53.7947 75.4451H45.2014C44.3344 75.4451 43.7685 76.5569 44.1553 77.5007L46.4022 82.956L45.2787 93.8715C45.0141 96.446 42.3152 97.4194 40.9801 95.3934C36.372 88.4063 33.1113 80.1983 31.4912 71.3686C31.2184 69.8812 30.038 68.9177 28.7923 69.1104C11.8008 71.7342 0 80.0259 0 105.489C0 109.635 2.77221 113 6.1875 113H92.8125C96.2278 113 99 109.635 99 105.489C99 80.026 87.1992 71.734 70.2077 69.1104C68.962 68.9127 67.7818 69.8763 67.509 71.3636Z" fill="black"/>
<path d="M49.5004 0C37.1379 0 27.116 12.1657 27.116 27.1721C27.116 51.2361 37.1381 67.929 49.5004 67.929C61.8627 67.929 71.8848 51.2323 71.8848 27.1721C71.8848 12.1655 61.8627 0 49.5004 0Z" fill="black"/>
</svg>
