<svg xmlns="http://www.w3.org/2000/svg" viewBox="0 0 162 153" fill="black">
  <path d="M 30 101 L 26 105 L 26 106 L 25 107 L 25 116 L 26 117 L 26 118 L 27 119 L 27 120 L 33 126 L 34 126 L 36 128 L 38 128 L 39 129 L 54 129 L 55 128 L 57 128 L 58 127 L 60 127 L 61 126 L 62 126 L 63 125 L 64 125 L 66 123 L 67 123 L 68 124 L 68 125 L 70 127 L 70 128 L 76 134 L 77 134 L 78 135 L 79 135 L 80 136 L 81 136 L 82 137 L 83 137 L 84 138 L 87 138 L 88 139 L 101 139 L 102 138 L 104 138 L 105 137 L 107 137 L 108 136 L 109 136 L 111 134 L 112 134 L 117 129 L 117 128 L 119 126 L 119 125 L 120 124 L 120 122 L 121 121 L 121 114 L 120 113 L 120 112 L 119 111 L 119 110 L 117 108 L 116 108 L 115 107 L 113 107 L 112 108 L 112 109 L 114 109 L 117 112 L 117 119 L 116 120 L 116 121 L 113 124 L 112 124 L 111 125 L 110 125 L 109 126 L 104 126 L 103 125 L 102 125 L 101 124 L 100 124 L 96 120 L 96 119 L 94 117 L 94 116 L 92 114 L 92 113 L 87 108 L 86 108 L 85 107 L 84 107 L 83 106 L 76 106 L 75 107 L 74 107 L 73 108 L 72 108 L 71 109 L 70 109 L 68 111 L 66 109 L 66 108 L 62 104 L 61 104 L 60 103 L 54 103 L 53 104 L 52 104 L 51 105 L 50 105 L 47 108 L 46 108 L 41 113 L 40 113 L 39 114 L 38 114 L 37 115 L 34 115 L 33 114 L 32 114 L 31 113 L 31 112 L 30 111 L 30 110 L 29 109 L 29 107 L 30 106 L 30 105 L 32 103 L 35 103 L 36 102 L 35 101 Z M 54 68 L 53 69 L 51 69 L 49 71 L 48 71 L 45 74 L 45 75 L 44 76 L 44 77 L 43 78 L 43 81 L 42 82 L 42 85 L 43 86 L 43 88 L 44 89 L 44 90 L 45 91 L 46 91 L 47 92 L 53 92 L 54 91 L 55 91 L 58 88 L 58 87 L 59 86 L 60 87 L 61 87 L 62 88 L 64 88 L 65 87 L 66 87 L 67 86 L 68 86 L 69 87 L 69 88 L 70 89 L 70 90 L 71 91 L 72 91 L 73 92 L 79 92 L 81 90 L 82 90 L 84 88 L 84 87 L 85 86 L 86 87 L 87 87 L 88 88 L 90 88 L 91 87 L 92 87 L 94 85 L 94 83 L 91 86 L 88 86 L 86 84 L 86 83 L 87 82 L 87 80 L 88 79 L 88 75 L 89 74 L 89 70 L 87 68 L 80 68 L 79 69 L 77 69 L 75 71 L 74 71 L 71 74 L 71 75 L 70 76 L 70 77 L 69 78 L 69 81 L 68 82 L 68 83 L 65 86 L 62 86 L 60 84 L 60 83 L 61 82 L 61 80 L 62 79 L 62 75 L 63 74 L 63 70 L 61 68 Z M 106 22 L 104 24 L 103 24 L 101 26 L 94 26 L 93 25 L 87 25 L 86 24 L 70 24 L 69 25 L 64 25 L 63 26 L 61 26 L 60 27 L 58 27 L 57 28 L 56 28 L 55 29 L 54 29 L 53 30 L 52 30 L 51 31 L 50 31 L 45 36 L 45 37 L 44 38 L 44 39 L 43 40 L 43 41 L 42 42 L 42 52 L 43 53 L 43 54 L 45 56 L 51 56 L 52 55 L 74 55 L 75 56 L 80 56 L 81 57 L 85 57 L 86 58 L 88 58 L 89 59 L 91 59 L 92 60 L 94 60 L 95 61 L 96 61 L 97 62 L 99 62 L 100 63 L 101 63 L 103 65 L 104 65 L 105 66 L 106 66 L 107 67 L 108 67 L 111 70 L 112 70 L 121 79 L 121 80 L 124 83 L 129 83 L 135 77 L 135 76 L 136 75 L 136 74 L 137 73 L 137 70 L 138 69 L 138 64 L 137 63 L 137 60 L 136 59 L 136 57 L 135 56 L 135 55 L 134 54 L 134 53 L 133 52 L 133 51 L 131 49 L 131 48 L 124 41 L 123 41 L 119 37 L 118 37 L 115 34 L 114 34 L 111 31 L 110 31 L 107 28 L 110 25 L 110 23 L 108 23 L 107 22 Z " />
</svg>
