<svg width="18" height="24" viewBox="0 0 18 24" fill="none" xmlns="http://www.w3.org/2000/svg">
<path d="M4.68391 13.3274C4.64396 13.284 4.59489 13.2482 4.53951 13.2219C4.48413 13.1957 4.42354 13.1795 4.36121 13.1744C4.29888 13.1693 4.23603 13.1752 4.17628 13.192C4.11652 13.2088 4.06103 13.236 4.01299 13.2721C3.1915 13.9394 5.77969 15.2501 6.41537 15.2898C6.52828 15.288 6.63681 15.2502 6.72172 15.1832C6.80662 15.1162 6.86243 15.0243 6.87923 14.9239C6.89604 14.8234 6.87277 14.7208 6.81354 14.6343C6.75431 14.5478 6.66294 14.4829 6.55565 14.4512C5.82367 14.2482 5.17327 13.8576 4.68391 13.3274Z" fill="white"/>
<path d="M10.6074 7.39917C9.89126 7.39992 9.2047 7.65624 8.69832 8.11189C8.19194 8.56754 7.90708 9.18532 7.90625 9.82971C7.90625 9.94341 7.95645 10.0525 8.0458 10.1329C8.13514 10.2133 8.25633 10.2584 8.38269 10.2584C8.50905 10.2584 8.63023 10.2133 8.71958 10.1329C8.80893 10.0525 8.85913 9.94341 8.85913 9.82971C8.85963 9.41263 9.04399 9.01277 9.37174 8.71785C9.69949 8.42293 10.1439 8.25705 10.6074 8.25659C10.7326 8.25496 10.852 8.20907 10.9398 8.12885C11.0277 8.04863 11.077 7.94052 11.077 7.82788C11.077 7.71524 11.0277 7.60713 10.9398 7.52691C10.852 7.44669 10.7326 7.4008 10.6074 7.39917Z" fill="white"/>
<path d="M6.80835 5.41436C6.80873 5.10346 6.94616 4.80539 7.19048 4.58555C7.4348 4.36571 7.76606 4.24204 8.11157 4.24169C8.23793 4.24169 8.35912 4.19653 8.44847 4.11613C8.53782 4.03573 8.58801 3.92669 8.58801 3.81299C8.58801 3.69929 8.53782 3.59024 8.44847 3.50984C8.35912 3.42944 8.23793 3.38428 8.11157 3.38428C7.51341 3.38485 6.93993 3.59892 6.51697 3.97951C6.09401 4.3601 5.85611 4.87613 5.85547 5.41436C5.85547 5.52807 5.90567 5.63711 5.99501 5.71751C6.08436 5.79791 6.20555 5.84307 6.33191 5.84307C6.45827 5.84307 6.57945 5.79791 6.6688 5.71751C6.75815 5.63711 6.80835 5.52807 6.80835 5.41436Z" fill="white"/>
<path d="M17.9999 1.66778C18.0139 -0.0206524 15.2011 -0.701579 14.4397 0.936639L12.3582 5.54888C12.3273 5.53883 12.2955 5.53095 12.2643 5.52145C12.2787 5.02228 12.1823 4.52554 11.9806 4.06033C11.779 3.59512 11.4762 3.1708 11.09 2.81223C10.7038 2.45367 10.2419 2.16806 9.73146 1.97215C9.22102 1.77625 8.67226 1.67398 8.11733 1.67133C7.47092 1.59848 4.85697 2.24053 5.47966 3.06817C5.55778 3.15755 5.67216 3.21534 5.79763 3.22885C5.9231 3.24236 6.0494 3.21048 6.14875 3.14021C8.10547 1.68386 11.2975 3.00808 11.3086 5.30743C10.5577 5.20899 9.79169 5.26504 9.06828 5.47137C8.34487 5.6777 7.68286 6.02894 7.13206 6.49868C6.47363 6.2611 5.75839 6.17976 5.05498 6.26248C4.83702 5.62688 4.86828 4.9432 5.14352 4.32585C5.1668 4.2736 5.1784 4.21773 5.17767 4.16144C5.17694 4.10514 5.16388 4.04953 5.13925 3.99778C5.11462 3.94603 5.0789 3.89916 5.03413 3.85984C4.98936 3.82051 4.93641 3.78952 4.87832 3.76862C3.8118 3.46064 3.87232 5.93752 4.13063 6.46558C3.57789 6.6502 3.0754 6.939 2.65684 7.31263C2.23828 7.68627 1.91332 8.1361 1.70374 8.63197C0.0727667 9.18354 -0.598653 10.1561 0.63829 11.0794L1.1801 12.7661C1.5065 13.7893 2.1259 14.7175 2.9763 15.4576C3.82671 16.1977 4.87826 16.7238 6.02568 16.9832V17.4308C6.02586 17.7235 6.12671 18.0091 6.31439 18.2482C6.50207 18.4873 6.76739 18.6684 7.07394 18.7664V20.3479C2.62638 21.1801 4.31127 24.0759 8.55586 23.9985C10.8952 23.9985 12.6593 23.187 12.6593 22.1106C12.6593 21.2829 11.6432 20.611 10.0373 20.3467V18.7681C10.3434 18.669 10.6083 18.4875 10.7958 18.2482C10.9834 18.009 11.0845 17.7236 11.0855 17.4308V16.9829C12.5767 16.6425 13.895 15.8561 14.8242 14.7528C14.8977 14.662 14.9286 14.5489 14.9103 14.4377C14.8921 14.3266 14.8261 14.2264 14.7265 14.1586C14.627 14.0908 14.5018 14.0608 14.378 14.0752C14.2542 14.0896 14.1416 14.1471 14.0644 14.2354C13.519 14.884 12.8138 15.41 12.0043 15.7717C11.1947 16.1335 10.3028 16.3213 9.39891 16.3203C8.86038 16.2903 7.45113 16.3639 6.9409 16.2794C5.81611 16.1435 4.75939 15.7166 3.89917 15.0505C3.03896 14.3844 2.41228 13.5078 2.09529 12.5272L1.80947 11.6377C3.82339 12.3064 6.5309 12.4938 8.89202 12.4805C11.4276 12.4312 13.386 12.2468 15.3016 11.6402C15.2237 11.8717 14.9979 12.6165 14.905 12.8312C14.8618 12.9368 14.8665 13.0536 14.9182 13.1561C14.9698 13.2587 15.0642 13.3388 15.181 13.3792C15.2978 13.4197 15.4276 13.4171 15.5423 13.3721C15.657 13.3272 15.7475 13.2434 15.7941 13.1389C15.9033 12.8989 16.3751 11.3701 16.4699 11.0923C17.7241 10.1403 17.041 9.23606 15.522 8.67205C15.3561 8.0986 15.0644 7.56081 14.664 7.09032L17.7689 2.42536C17.9199 2.19597 17.9996 1.93435 17.9999 1.66778ZM1.32506 10.4779C0.77144 10.108 0.866006 10.0397 1.44995 9.68251C1.41205 9.97656 1.42319 10.2741 1.48302 10.5651C1.4285 10.5389 1.37576 10.5097 1.32506 10.4779ZM11.7064 22.1106C11.7064 22.5307 10.4791 23.1411 8.55585 23.1411C6.66173 23.1411 5.40503 22.5209 5.40503 22.1106C5.40503 21.8595 5.93913 21.441 7.07393 21.2213C7.0824 21.4717 7.00034 21.8871 7.30986 22.0218C7.68295 22.2475 8.12297 22.3669 8.57254 22.3643C9.02211 22.3616 9.46038 22.2372 9.83021 22.0072C10.1122 21.8649 10.0252 21.4574 10.0373 21.2213C11.1285 21.4338 11.7064 21.8483 11.7064 22.1106ZM8.02684 21.4024V18.8582H9.0844V21.4043C8.91804 21.4714 8.73772 21.506 8.5554 21.5057C8.37307 21.5053 8.19291 21.4701 8.02684 21.4024ZM6.97858 17.1433C7.46445 17.2 8.885 17.1716 9.39893 17.1777C9.644 17.1775 9.88889 17.1661 10.1327 17.1434V17.4308C10.1338 17.5729 10.0758 17.7103 9.96993 17.8159C9.86407 17.9214 9.71811 17.9874 9.56084 18.0008H7.6167C7.44856 17.9999 7.28751 17.9397 7.16818 17.8331C7.04885 17.7265 6.98077 17.5821 6.97858 17.4308V17.1433ZM15.691 9.83001C15.6911 9.78359 15.6847 9.73786 15.6832 9.69158C16.0392 9.88123 16.1566 10.0393 16.1566 10.1149C16.1801 10.1807 15.9792 10.3764 15.7473 10.5084C15.4906 10.7243 15.7516 9.99713 15.691 9.83001ZM6.34056 7.35797C6.17835 7.586 6.03972 7.82695 5.92644 8.07778C5.88242 8.03501 5.82909 8.00086 5.76978 7.97744C5.71046 7.95401 5.64642 7.94183 5.58164 7.94164C4.98348 7.94221 4.41 8.15628 3.98704 8.53687C3.56407 8.91746 3.32617 9.43349 3.32554 9.97172C3.32554 10.0854 3.37573 10.1945 3.46508 10.2749C3.55443 10.3553 3.67562 10.4004 3.80198 10.4004C3.92833 10.4004 4.04952 10.3553 4.13887 10.2749C4.22822 10.1945 4.27841 10.0854 4.27841 9.97172C4.2788 9.66082 4.41623 9.36275 4.66055 9.1429C4.90487 8.92306 5.23612 8.7994 5.58164 8.79905C5.61335 8.79635 5.64466 8.79066 5.67504 8.78207C5.42015 9.69023 5.49837 10.6482 5.89803 11.5131C4.77346 11.437 3.66102 11.2539 2.5793 10.967C2.42448 10.5836 2.36147 10.1751 2.3944 9.76827C2.42733 9.36144 2.55545 8.96548 2.77037 8.60633C2.98528 8.24718 3.28213 7.93297 3.64145 7.68429C4.00078 7.43561 4.41446 7.25808 4.85538 7.16334C5.14593 7.08121 6.7352 6.98958 6.34056 7.35797ZM14.5301 10.9694C12.5442 11.5334 9.48383 11.7203 6.98346 11.5799C6.57251 10.8984 6.41039 10.1177 6.52009 9.34865C6.62978 8.57957 7.00573 7.86108 7.59463 7.29502C10.6071 4.42511 15.8611 7.21801 14.5301 10.9694ZM16.9501 1.98699L13.9957 6.42582C13.7556 6.23507 13.4958 6.06532 13.22 5.91887L15.3225 1.25958C15.361 1.17647 15.4183 1.1015 15.4907 1.03943C15.5632 0.977366 15.6492 0.929575 15.7434 0.899109C16.4308 0.634998 17.3603 1.36355 16.9501 1.98699Z" fill="white"/>
</svg>
