<svg width="99" height="113" viewBox="0 0 99 113" fill="none" xmlns="http://www.w3.org/2000/svg">
<path d="M40.0419 34.7327C39.6087 34.3971 39.5791 33.8363 39.9791 33.4733C40.0729 33.3881 42.3268 31.3889 46.7045 31.3889C51.0822 31.3889 53.336 33.3879 53.4298 33.4731C53.8323 33.8383 53.8027 34.4056 53.3635 34.7401C53.1565 34.8979 52.8956 34.976 52.6352 34.976C52.3435 34.976 52.0526 34.878 51.84 34.6852C51.7758 34.6289 50.0894 33.1825 46.7045 33.1825C43.3196 33.1825 41.6332 34.6291 41.5631 34.6908C41.1558 35.0482 40.4751 35.0681 40.0419 34.7327ZM73.6609 31.3889C69.2835 31.3889 67.0294 33.3879 66.9358 33.4731C66.5358 33.8361 66.5655 34.3968 66.9984 34.7325C67.4316 35.0679 68.1122 35.0479 68.5195 34.6903C68.5896 34.6289 70.276 33.1823 73.6609 33.1823C77.0337 33.1823 78.7201 34.6184 78.8015 34.6897C79.014 34.8798 79.3021 34.976 79.5916 34.976C79.852 34.976 80.113 34.8979 80.32 34.7401C80.7591 34.4056 80.7888 33.8383 80.3863 33.4731C80.2922 33.3884 78.0387 31.3889 73.6609 31.3889ZM66.9771 51.3742C66.9577 51.3897 64.9793 52.9127 60.1824 52.9127C55.3855 52.9127 53.4072 51.3897 53.3972 51.3818C52.9759 51.0314 52.2934 51.0314 51.8723 51.3818C51.4512 51.732 51.4512 52.2999 51.8723 52.6499C51.9734 52.734 54.4111 54.7063 60.1827 54.7063C65.9544 54.7063 68.392 52.734 68.4931 52.6499C68.9104 52.3026 68.9099 51.7448 68.4974 51.3935C68.085 51.0415 67.4046 51.0354 66.9771 51.3742ZM47.7827 36.7698C47.2482 36.7698 46.7406 36.8633 46.2796 37.0301C46.2268 36.8891 46.1807 36.7441 46.1438 36.5925C46.026 36.1071 45.4572 35.7936 44.8736 35.8907C44.2897 35.9887 43.9121 36.4618 44.0299 36.9472C44.146 37.4265 44.3229 37.8725 44.5563 38.2861C44.4197 38.4738 44.3056 38.6738 44.2183 38.8843C43.6325 38.713 43.1036 38.4382 42.702 38.0115C42.3351 37.6212 41.6574 37.5523 41.1884 37.8577C40.7193 38.1628 40.6366 38.7265 41.0035 39.1166C41.7585 39.9193 42.8292 40.4612 44.1425 40.7264C44.5757 42.0627 46.0389 43.0474 47.7825 43.0474C49.8667 43.0474 51.5564 41.6421 51.5564 39.9085C51.5564 38.1749 49.867 36.7698 47.7827 36.7698ZM79.1768 37.8579C78.7077 37.5528 78.0298 37.6214 77.6632 38.0117C77.2618 38.4386 76.7326 38.7135 76.1469 38.8848C76.0592 38.674 75.9455 38.474 75.8086 38.2864C76.042 37.8727 76.2188 37.4268 76.335 36.9474C76.4528 36.4618 76.0749 35.9889 75.4913 35.891C74.9085 35.7939 74.3392 36.1073 74.2214 36.5927C74.1847 36.7443 74.1383 36.8893 74.0855 37.0304C73.6248 36.8638 73.117 36.7701 72.5827 36.7701C70.4984 36.7701 68.8088 38.1754 68.8088 39.909C68.8088 41.6425 70.4984 43.0478 72.5827 43.0478C74.3262 43.0478 75.7894 42.0631 76.2226 40.7266C77.5357 40.4614 78.6066 39.9195 79.3617 39.1171C79.7286 38.7267 79.6458 38.1631 79.1768 37.8579ZM90.585 51.5879V84.7298C91.0109 84.8888 91.387 85.0484 91.6989 85.2101C96.4753 87.6871 98.9997 91.4728 98.9997 96.1583V112.103C98.9997 112.598 98.5169 113 97.9215 113C97.326 113 96.8432 112.598 96.8432 112.103V96.1583C96.8432 92.0663 94.7285 88.8949 90.5578 86.7322C89.4485 86.1571 86.9772 85.5056 84.3608 84.8161C80.3203 83.7514 75.4449 82.4667 72.0433 80.6293V87.5098C72.0433 88.4106 71.4405 89.2189 70.4701 89.6189C70.0682 89.7846 69.6377 89.8664 69.2096 89.8664C68.6042 89.8664 68.0044 89.7029 67.4995 89.3837L62.1149 85.9775C61.5203 86.1686 60.8674 86.2746 60.1827 86.2746C59.4977 86.2746 58.8451 86.1686 58.2505 85.9775L52.8659 89.3837C52.361 89.7032 51.761 89.8664 51.1558 89.8664C50.728 89.8664 50.2972 89.7848 49.8953 89.6189C48.9249 89.2189 48.3221 88.4106 48.3221 87.5098V80.6284C44.9205 82.4662 40.0484 83.7505 36.0036 84.8164L35.9149 84.8397V88.8785C40.9528 89.439 50.4787 90.9939 50.4787 94.7301C50.4787 97.7067 44.1266 99.679 35.9707 100.579C36.5379 101.329 36.833 102.141 36.833 102.981C36.833 106.492 31.7404 109.241 25.2393 109.241C24.6544 109.241 24.0815 109.218 23.5219 109.175V112.103C23.5219 112.598 23.0391 113 22.4437 113C21.8482 113 21.3654 112.598 21.3654 112.103V108.895C16.8251 108.052 13.6456 105.755 13.6456 102.982C13.6456 102.141 13.9408 101.33 14.508 100.579C6.35202 99.6795 0 97.7071 0 94.7305C0 90.9944 9.52614 89.4393 14.5638 88.879V70.8766C14.5638 68.4592 20.0974 67.3581 25.2391 67.3581C26.7705 67.3581 28.3358 67.4565 29.7801 67.6576V51.5881C29.1623 51.8697 28.5091 52.0161 27.8347 52.0161C24.2069 52.0161 21.3651 47.6829 21.3651 42.151C21.3651 38.4516 22.637 35.2907 24.5641 33.6009C24.026 31.0239 21.7479 18.7421 25.6898 12.2935C27.8096 8.82543 32.6133 5.66323 39.2162 3.38865C45.5599 1.20332 53.0058 0 60.1827 0C67.3596 0 74.8055 1.20332 81.1489 3.38843C87.7519 5.663 92.5555 8.82521 94.6754 12.2932C98.6172 18.7416 96.3391 31.0237 95.8011 33.6007C97.7279 35.2905 99 38.4516 99 42.1508C99 47.6826 96.1583 52.0159 92.5305 52.0159C91.856 52.0159 91.2029 51.8695 90.585 51.5879ZM67.7305 71.4548C65.4158 71.6489 62.9021 71.746 60.1827 71.746C57.4633 71.746 54.9497 71.6489 52.6349 71.4548V75.438C52.7128 75.4782 52.7915 75.5172 52.8657 75.564L58.2502 78.9702C58.8449 78.7792 59.4977 78.6731 60.1824 78.6731C60.8674 78.6731 61.5203 78.7792 62.1149 78.9702L67.4995 75.564C67.5736 75.5172 67.6523 75.4782 67.7302 75.438V71.4548H67.7305ZM83.3291 64.5526C87.4508 60.7772 89.2957 47.4279 89.2957 35.873C89.2957 35.2502 89.2895 34.6089 89.2779 33.9664C89.1134 33.0538 86.3714 19.1122 72.8218 15.4317C58.7901 11.6193 48.5281 17.7975 48.4259 17.8605C48.2105 17.993 47.9412 18.0549 47.6752 18.0331C47.6078 18.0275 40.7234 17.5119 35.9998 20.8395C31.4725 24.0286 31.1094 33.2388 31.0867 34.0347C31.0759 34.6545 31.0697 35.2726 31.0697 35.8732C31.0697 47.4282 32.9146 60.7772 37.0363 64.5528C40.9477 68.1356 48.7354 69.9526 60.1827 69.9526C71.6303 69.9524 79.4178 68.1354 83.3291 64.5526ZM96.8435 42.1508C96.8435 37.394 94.5705 34.0794 92.5305 34.0794C92.1768 34.0794 91.7959 34.1769 91.4398 34.3522C91.4471 34.8648 91.4522 35.3751 91.4522 35.873C91.4522 37.777 91.38 43.368 90.6314 49.3135C91.1042 49.7743 91.7611 50.2222 92.5305 50.2222C94.5705 50.2222 96.8435 46.9076 96.8435 42.1508ZM26.5324 32.4781C26.9521 32.3521 27.3875 32.2857 27.8347 32.2857C28.2323 32.2857 28.6323 32.3395 29.0235 32.4391C29.3003 29.2879 30.3832 22.4451 34.6059 19.4705C39.3842 16.1045 45.7855 16.148 47.4768 16.2233C49.4648 15.1034 59.6565 9.96844 73.4908 13.7266C79.8202 15.446 84.9309 19.4687 88.2705 25.3604C89.9316 28.291 90.7664 30.9763 91.147 32.4938C91.5997 32.359 92.0663 32.2857 92.5302 32.2857C92.9777 32.2857 93.413 32.3523 93.8325 32.4781C94.4972 28.8912 96.0391 18.4822 92.7528 13.106C88.8757 6.76274 74.5688 1.79365 60.1827 1.79365C45.7966 1.79365 31.4897 6.76274 27.6123 13.106C24.326 18.4822 25.8677 28.8915 26.5324 32.4781ZM29.734 49.3135C28.9855 43.368 28.9132 37.7768 28.9132 35.873C28.9132 35.3751 28.9181 34.8645 28.9256 34.3522C28.5698 34.1771 28.1886 34.0794 27.835 34.0794C25.7949 34.0794 23.5219 37.394 23.5219 42.1508C23.5219 46.9076 25.7949 50.2222 27.835 50.2222C28.6043 50.2222 29.261 49.7743 29.734 49.3135ZM16.7205 70.8772C16.8149 71.3922 19.8235 72.6014 25.2391 72.6014C30.6533 72.6014 33.6619 71.3929 33.7576 70.8757C33.6632 70.3607 30.6546 69.1515 25.2391 69.1515C19.8249 69.1515 16.8165 70.36 16.7205 70.8772ZM25.2391 74.3948C22.093 74.3948 18.8024 73.9816 16.7203 73.1079V90.1653C16.7203 91.9351 20.1435 93.8301 25.2391 93.8301C30.3346 93.8301 33.7578 91.9351 33.7578 90.1653V73.1079C31.6757 73.9818 28.3851 74.3948 25.2391 74.3948ZM33.4495 100.819C30.7977 101.033 28.0148 101.141 25.2391 101.141C22.4634 101.141 19.6804 101.033 17.0287 100.819C16.4106 101.334 15.8019 102.072 15.8019 102.982C15.8019 105.403 20.1235 107.448 25.2391 107.448C30.3546 107.448 34.6762 105.403 34.6762 102.982C34.6762 102.072 34.0676 101.334 33.4495 100.819ZM35.8672 90.6836C35.3717 93.4925 30.8827 95.6238 25.2391 95.6238C19.5955 95.6238 15.1064 93.4922 14.6109 90.6836C5.5657 91.7073 2.15652 93.6822 2.15652 94.7305C2.15652 96.613 11.1486 99.3472 25.2391 99.3472C39.3295 99.3472 48.3216 96.613 48.3216 94.7305C48.3219 93.6822 44.9127 91.7073 35.8672 90.6836ZM48.3219 78.4148V77.438C48.3219 76.5369 48.9246 75.7288 49.8951 75.3288C50.084 75.2508 50.28 75.1972 50.4784 75.1562V71.238C43.5099 70.4199 38.5496 68.6076 35.4397 65.7584C33.9641 64.4066 32.8219 62.2352 31.9369 59.6575V68.0621C34.2673 68.6325 35.9146 69.5584 35.9146 70.8768V82.9586C40.2592 81.8113 45.4278 80.3979 48.3219 78.4148ZM56.3659 84.9161C55.636 84.255 55.1944 83.4032 55.1944 82.4736C55.1944 81.5441 55.6362 80.6925 56.3659 80.0314L51.5604 76.9913C51.2601 76.8014 50.9655 76.8889 50.8531 76.9353C50.7404 76.9817 50.4784 77.1236 50.4784 77.4375V87.5095C50.4784 87.8234 50.7404 87.9653 50.8531 88.0117C50.9655 88.0582 51.2599 88.1456 51.5604 87.9557L56.3659 84.9161ZM60.1827 84.4809C61.7443 84.4809 63.0148 83.5805 63.0148 82.4739C63.0148 81.3672 61.7443 80.467 60.1827 80.467C58.6214 80.467 57.3509 81.3674 57.3509 82.4739C57.3507 83.5805 58.6211 84.4809 60.1827 84.4809ZM69.887 77.438C69.887 77.1241 69.625 76.9821 69.5126 76.9357C69.3999 76.8891 69.1058 76.8017 68.805 76.9918L63.9995 80.0318C64.7295 80.6928 65.1713 81.5445 65.1713 82.4741C65.1713 83.4036 64.7295 84.2554 63.9995 84.9166L68.805 87.9566C69.1058 88.1467 69.3997 88.0591 69.5126 88.0126C69.625 87.9662 69.887 87.8243 69.887 87.5104V77.438ZM88.4285 84.0337V59.6568C87.5435 62.2347 86.4014 64.4064 84.9255 65.7581C81.8155 68.6074 76.8553 70.4196 69.8868 71.2378V75.1562C70.0852 75.1972 70.2814 75.2508 70.4701 75.3288C71.4405 75.7288 72.0433 76.5373 72.0433 77.438V78.4162C75.0646 80.4851 80.5653 81.9346 85.012 83.1063C86.2431 83.4305 87.4009 83.7359 88.4285 84.0337ZM83.9044 95.155C83.3089 95.155 82.8261 95.5565 82.8261 96.0518V112.103C82.8261 112.598 83.3089 113 83.9044 113C84.4999 113 84.9827 112.598 84.9827 112.103V96.0518C84.9827 95.5565 84.4999 95.155 83.9044 95.155ZM80.458 100.768V104.879C80.458 105.374 79.9752 105.776 79.3797 105.776H64.093C63.4975 105.776 63.0148 105.374 63.0148 104.879V100.768C63.0148 100.272 63.4975 99.8709 64.093 99.8709H79.3797C79.9752 99.8709 80.458 100.272 80.458 100.768ZM78.3015 101.665H65.1713V103.982H78.3015V101.665ZM21.0654 78.0644C20.4699 78.0644 19.9871 78.4659 19.9871 78.9612V89.3388C19.9871 89.8341 20.4699 90.2357 21.0654 90.2357C21.6609 90.2357 22.1437 89.8341 22.1437 89.3388V78.9612C22.1437 78.4659 21.6606 78.0644 21.0654 78.0644ZM29.413 90.2357C30.0085 90.2357 30.4913 89.8341 30.4913 89.3388V78.9612C30.4913 78.4659 30.0085 78.0644 29.413 78.0644C28.8175 78.0644 28.3347 78.4659 28.3347 78.9612V89.3388C28.3347 89.8341 28.8175 90.2357 29.413 90.2357Z" fill="black"/>
</svg>
