<svg width="99" height="113" viewBox="0 0 99 113" fill="none" xmlns="http://www.w3.org/2000/svg">
<path d="M47.7829 36.7698C47.2491 36.7698 46.7429 36.8649 46.2825 37.0315C46.2294 36.8884 46.1811 36.7418 46.1434 36.5896C46.0237 36.1046 45.4544 35.7916 44.8703 35.8916C44.2869 35.9911 43.9111 36.4653 44.0308 36.9505C44.1052 37.2514 44.2034 37.5444 44.3249 37.8263C44.3942 37.9841 44.4718 38.137 44.5562 38.2863C44.4209 38.4722 44.309 38.6706 44.2219 38.8794C43.5882 38.6957 43.0741 38.4065 42.7013 38.0108C42.3342 37.6211 41.6565 37.5523 41.1875 37.8579C40.7187 38.163 40.6365 38.7269 41.0036 39.1168C41.6735 39.828 42.5776 40.3363 43.6877 40.6266C43.8357 40.6658 43.9896 40.6981 44.144 40.7295C44.5786 42.0642 46.0412 43.0478 47.7832 43.0478C49.8669 43.0478 51.557 41.642 51.557 39.9089C51.557 38.1758 49.8666 36.7698 47.7829 36.7698Z" fill="black"/>
<path d="M91.6991 85.211C91.3932 85.0522 91.0204 84.893 90.5842 84.7305V51.5874C91.2023 51.8695 91.8558 52.0159 92.5305 52.0159C96.1583 52.0159 99 47.6826 99 42.1508C99 38.513 97.7875 35.2999 95.8049 33.5807C96.3502 30.9624 98.6075 18.725 94.6751 12.2926C92.5553 8.82454 87.7514 5.66256 81.1487 3.38821C74.8053 1.20332 67.3594 0 60.1828 0C53.0062 0 45.5603 1.20332 39.2169 3.38821C32.6145 5.66256 27.8106 8.82454 25.6908 12.2926C21.7581 18.7253 24.0157 30.9631 24.5608 33.581C22.5779 35.3008 21.3656 38.5135 21.3656 42.1508C21.3656 47.6826 24.2074 52.0159 27.8352 52.0159C28.5096 52.0159 29.163 51.8692 29.7814 51.5867V67.6572C28.3813 67.4608 26.8364 67.3583 25.2393 67.3583C20.0979 67.3583 14.5645 68.4592 14.5645 70.8761V88.8785C9.52665 89.439 0 90.9946 0 94.7317C0 98.427 9.43635 99.9976 14.5122 100.574C13.9418 101.326 13.6453 102.139 13.6453 102.983C13.6453 105.756 16.8251 108.053 21.3656 108.896V112.103C21.3656 112.598 21.8484 113 22.4439 113C23.0393 113 23.5221 112.598 23.5221 112.103V109.176C24.0815 109.219 24.6546 109.242 25.2393 109.242C31.7406 109.242 36.8332 106.493 36.8332 102.982C36.8332 102.139 36.5367 101.326 35.9663 100.574C41.043 99.9974 50.4785 98.4268 50.4785 94.7314C50.4785 90.9944 40.9519 89.439 35.914 88.8785V84.839L36.0137 84.8128C40.055 83.748 44.9225 82.4649 48.322 80.6284V87.5098C48.322 88.4115 48.9256 89.2204 49.8973 89.6202C50.2987 89.7852 50.7284 89.8666 51.1551 89.8666C51.7608 89.8666 52.3606 89.7032 52.8644 89.3832L58.25 85.978C58.8582 86.1721 59.5143 86.2746 60.1825 86.2746C60.8508 86.2746 61.5069 86.1721 62.1153 85.978L67.4977 89.3828C68.0031 89.7029 68.6037 89.8666 69.21 89.8666C69.6375 89.8666 70.068 89.785 70.4696 89.6193C71.4403 89.2193 72.0434 88.4108 72.0434 87.5098V80.6295C75.4417 82.4647 80.3101 83.7485 84.3454 84.8125C86.151 85.2888 87.8562 85.7383 89.1073 86.1571C89.7313 86.3636 90.2195 86.5573 90.5583 86.7329C94.7288 88.8945 96.8432 92.0652 96.8432 96.1574V112.103C96.8432 112.598 97.326 113 97.9215 113C98.5169 113 98.9997 112.598 98.9997 112.103V96.1576C99 91.4715 96.4753 87.6864 91.6991 85.211ZM91.4401 34.3516C91.7959 34.1769 92.1768 34.0794 92.5305 34.0794C93.0011 34.0794 93.4756 34.2468 93.9419 34.5782C95.6774 35.8075 96.8435 38.8509 96.8435 42.1508C96.8435 46.9076 94.5705 50.2222 92.5305 50.2222C91.7584 50.2222 91.0988 49.7704 90.6252 49.3075C91.343 43.6801 91.4522 38.4947 91.4522 35.873C91.4522 35.354 91.4474 34.8475 91.4401 34.3516ZM27.8352 50.2222C25.7951 50.2222 23.5221 46.9076 23.5221 42.1508C23.5221 38.8507 24.6883 35.8075 26.4248 34.5776C26.8901 34.2468 27.3648 34.0794 27.8352 34.0794C28.1891 34.0794 28.57 34.1769 28.9258 34.3516C28.918 34.8719 28.9134 35.3827 28.9134 35.873C28.9134 38.5025 29.0223 43.6983 29.7377 49.3093C29.2638 49.7713 28.6048 50.2222 27.8352 50.2222ZM25.2393 69.152C27.1944 69.152 29.0512 69.3156 30.6111 69.6257C32.9216 70.0811 33.7251 70.7019 33.7572 70.8754C33.6623 71.3922 30.6551 72.6 25.2393 72.6C19.8218 72.6 16.8146 71.3913 16.7213 70.8766C16.8159 70.3602 19.8232 69.152 25.2393 69.152ZM25.2393 74.3939C28.3851 74.3939 31.6754 73.9809 33.7575 73.1072V90.1648C33.7575 91.9351 30.3346 93.8306 25.2393 93.8306C20.144 93.8306 16.721 91.9351 16.721 90.1648V73.1072C18.8029 73.9807 22.0932 74.3939 25.2393 74.3939ZM25.2393 107.449C20.1237 107.449 15.8018 105.403 15.8018 102.982C15.8018 102.071 16.4127 101.333 17.0318 100.818C19.6499 101.032 22.407 101.142 25.2393 101.142C28.0718 101.142 30.8292 101.032 33.4464 100.818C34.0656 101.333 34.6764 102.071 34.6764 102.982C34.6767 105.403 30.3548 107.449 25.2393 107.449ZM56.3588 84.9206L51.5576 87.9564C51.2594 88.1463 50.9659 88.0588 50.8537 88.0126C50.7411 87.9662 50.4785 87.8243 50.4785 87.51V77.4386C50.4785 77.2131 50.6138 77.0765 50.7276 77.0019C50.8826 76.8999 51.0802 76.855 51.2648 76.8806C51.2789 76.8839 51.2929 76.8869 51.3069 76.8895C51.3956 76.9073 51.4794 76.9411 51.5592 76.9911L56.3593 80.0278C55.6134 80.7011 55.1935 81.5589 55.1935 82.4743C55.1935 83.3897 55.6132 84.2473 56.3588 84.9206ZM52.635 75.4324V71.449C54.9379 71.6456 57.4688 71.746 60.1828 71.746C62.8976 71.746 65.4288 71.6454 67.7306 71.449V75.4315C67.6516 75.4721 67.574 75.5161 67.4982 75.5636L62.1153 78.9709C61.5072 78.7767 60.8511 78.6742 60.1831 78.6742C59.5148 78.6742 58.8587 78.7767 58.2506 78.9709L52.8609 75.5611C52.7871 75.5147 52.7119 75.4721 52.635 75.4324ZM61.7271 84.1554C60.8104 84.5814 59.555 84.5814 58.6385 84.1554C57.8314 83.7805 57.3497 83.1521 57.3497 82.4743C57.3497 81.7968 57.8314 81.1683 58.6385 80.7934C59.0967 80.5804 59.6307 80.4679 60.1828 80.4679C60.7349 80.4679 61.2689 80.5804 61.7271 80.7934C62.5342 81.1683 63.0159 81.7968 63.0159 82.4743C63.0159 83.1521 62.5342 83.7805 61.7271 84.1554ZM69.8871 87.51C69.8871 87.8241 69.6251 87.966 69.5124 88.0124C69.3995 88.0586 69.1051 88.1465 68.8037 87.9555L64.0066 84.9208C64.7525 84.2473 65.1724 83.3897 65.1724 82.4741C65.1724 81.5586 64.7525 80.7008 64.0063 80.0275L68.7997 76.9936C68.883 76.9413 68.9668 76.9075 69.0558 76.89C69.0709 76.8869 69.0857 76.8839 69.1005 76.8804C69.2852 76.8548 69.483 76.8996 69.6378 77.0017C69.7515 77.0763 69.8868 77.2129 69.8868 77.4384V87.51H69.8871ZM88.4342 49.479C87.4141 57.2148 85.649 62.4269 83.3297 64.5517C80.4734 67.1698 75.5436 68.8533 68.6749 69.556C66.1488 69.8192 63.2917 69.9526 60.1828 69.9526C57.0739 69.9526 54.2168 69.8192 51.6883 69.5558C44.822 68.8531 39.8922 67.1695 37.0356 64.5517C34.7195 62.4296 32.9544 57.2228 31.9314 49.4944C31.9298 49.4823 31.9279 49.4707 31.9258 49.4586C31.1813 43.8016 31.0699 38.52 31.0699 35.8732C31.0699 35.3011 31.0777 34.598 31.0885 33.9859C31.2009 30.3091 32.3617 23.4024 35.9989 20.8384C40.7238 17.5116 47.6082 18.028 47.6753 18.0331C47.9441 18.0547 48.2118 17.9935 48.4274 17.8598C48.529 17.7968 58.7439 11.6076 72.8224 15.433C86.3688 19.1111 89.1124 33.0478 89.2779 33.9655C89.2895 34.5784 89.2957 35.2192 89.2957 35.8732C89.2957 38.5148 89.1838 43.7956 88.4342 49.479Z" fill="black"/>
<path d="M41.5692 34.6852C41.5859 34.6702 43.3192 33.1826 46.7046 33.1826C50.0903 33.1826 51.7759 34.6289 51.8401 34.6852C52.0528 34.8782 52.3436 34.9762 52.6353 34.9762C52.8954 34.9762 53.1566 34.8982 53.3634 34.7406C53.8025 34.4061 53.8322 33.8388 53.43 33.4736C53.3362 33.3884 51.0831 31.3889 46.7046 31.3889C42.3261 31.3889 40.0728 33.3884 39.9793 33.4736C39.5771 33.8388 39.6067 34.4061 40.0459 34.7406C40.4847 35.0749 41.1667 35.0507 41.5692 34.6852Z" fill="black"/>
<path d="M73.6609 31.3889C69.2824 31.3889 67.0291 33.3884 66.9356 33.4736C66.5334 33.8388 66.563 34.4061 67.0022 34.7406C67.441 35.0749 68.123 35.0507 68.5255 34.6852C68.5422 34.6702 70.2755 33.1826 73.6609 33.1826C77.0353 33.1826 78.7209 34.6193 78.8015 34.6899C79.0136 34.88 79.3021 34.9762 79.5916 34.9762C79.8517 34.9762 80.1129 34.8982 80.3197 34.7406C80.7588 34.4061 80.7885 33.8388 80.3863 33.4736C80.2925 33.3884 78.0394 31.3889 73.6609 31.3889Z" fill="black"/>
<path d="M66.9772 51.3742C66.9578 51.3897 64.9794 52.9127 60.1825 52.9127C55.3857 52.9127 53.4073 51.3897 53.3974 51.3818C52.976 51.0314 52.2935 51.0314 51.8724 51.3818C51.4514 51.7321 51.4514 52.3 51.8724 52.65C51.9735 52.734 54.4112 54.7064 60.1828 54.7064C65.9544 54.7064 68.3921 52.734 68.4932 52.65C68.9105 52.3027 68.9099 51.7448 68.4975 51.3935C68.0851 51.0415 67.4047 51.0354 66.9772 51.3742Z" fill="black"/>
<path d="M79.1781 37.8577C78.7094 37.5516 78.0317 37.6207 77.6643 38.0106C77.2925 38.4052 76.779 38.694 76.1434 38.8789C76.0563 38.6704 75.9442 38.4718 75.8089 38.2857C75.8941 38.135 75.9725 37.9808 76.0426 37.8214C76.1623 37.544 76.2604 37.2508 76.3345 36.9499C76.4539 36.4647 76.0782 35.9909 75.4948 35.8912C74.912 35.7943 74.3416 36.1046 74.222 36.5898C74.1842 36.7427 74.136 36.8893 74.0831 37.0315C73.6227 36.8649 73.1165 36.7698 72.5827 36.7698C70.499 36.7698 68.8088 38.1756 68.8088 39.9087C68.8088 41.6418 70.499 43.0476 72.5827 43.0476C74.3244 43.0476 75.7873 42.064 76.2218 40.7293C76.3755 40.6982 76.5286 40.6661 76.6758 40.6271C77.7896 40.3347 78.6932 39.8267 79.362 39.1166C79.7291 38.7267 79.6466 38.1628 79.1781 37.8577Z" fill="black"/>
<path d="M83.9044 95.1554C83.309 95.1554 82.8262 95.5569 82.8262 96.0522V112.103C82.8262 112.598 83.309 113 83.9044 113C84.4999 113 84.9827 112.598 84.9827 112.103V96.0522C84.9827 95.5569 84.4999 95.1554 83.9044 95.1554Z" fill="black"/>
<path d="M79.3784 99.8705H64.0941C63.4987 99.8705 63.0159 100.272 63.0159 100.767V104.879C63.0159 105.375 63.4987 105.776 64.0941 105.776H79.3784C79.9739 105.776 80.4566 105.375 80.4566 104.879V100.767C80.4566 100.272 79.9739 99.8705 79.3784 99.8705Z" fill="black"/>
<path d="M21.0663 90.2363C21.6618 90.2363 22.1445 89.8348 22.1445 89.3395V78.961C22.1445 78.4657 21.6618 78.0641 21.0663 78.0641C20.4708 78.0641 19.988 78.4657 19.988 78.961V89.3395C19.988 89.8348 20.4708 90.2363 21.0663 90.2363Z" fill="black"/>
<path d="M29.4122 90.2363C30.0077 90.2363 30.4905 89.8348 30.4905 89.3395V78.961C30.4905 78.4657 30.0077 78.0641 29.4122 78.0641C28.8168 78.0641 28.334 78.4657 28.334 78.961V89.3395C28.334 89.8348 28.8168 90.2363 29.4122 90.2363Z" fill="black"/>
</svg>
