<svg width="99" height="113" viewBox="0 0 99 113" fill="none" xmlns="http://www.w3.org/2000/svg">
<path d="M23.1498 30.0515C21.9896 30.0515 21.0435 31.1316 21.0435 32.456V38.4671C21.0435 39.7915 21.9897 40.8715 23.1498 40.8715C24.31 40.8715 25.2562 39.7914 25.2562 38.4671V32.456C25.2562 31.1316 24.31 30.0515 23.1498 30.0515Z" fill="black"/>
<path d="M44.2137 40.8715C45.3739 40.8715 46.3201 39.7914 46.3201 38.4671V32.456C46.3201 31.1316 45.3738 30.0515 44.2137 30.0515C43.0535 30.0515 42.1073 31.1316 42.1073 32.456V38.4671C42.1073 39.7915 43.0535 40.8715 44.2137 40.8715Z" fill="black"/>
<path d="M41.0541 50.4893C41.0541 49.165 40.1079 48.0849 38.9477 48.0849C37.7876 48.0849 36.8414 49.165 36.8414 50.4893C36.8414 52.4711 35.4179 54.096 33.6818 54.096C31.9457 54.096 30.5222 52.4711 30.5222 50.4893C30.5222 49.165 29.576 48.0849 28.4158 48.0849C27.2557 48.0849 26.3094 49.165 26.3094 50.4893C26.3094 55.1292 29.6171 58.9049 33.6818 58.9049C37.7465 58.9049 41.0541 55.1292 41.0541 50.4893Z" fill="black"/>
<path d="M93.7137 96.5213V92.5671C93.7137 82.1087 86.794 73.4769 77.9159 72.2843V68.5227C77.9159 67.1983 76.9696 66.1183 75.8095 66.1183C74.6493 66.1183 73.7031 67.1984 73.7031 68.5227V72.2843C67.7625 73.0921 62.7067 77.2154 59.999 82.9822C58.7977 81.456 57.473 80.0377 56.0166 78.7744C52.6678 75.8768 48.7389 73.8199 44.6411 72.8338H44.6288C43.4604 72.5567 42.2591 72.3641 41.0496 72.2561V69.5511C50.4213 65.9679 56.8475 55.9323 56.8475 44.4823V28.8534H60.0071C61.1673 28.8534 62.1134 27.7733 62.1134 26.4489V21.64C62.1134 9.70232 53.6057 0 43.156 0H27.3581C25.7372 0 24.2603 0.709121 23.1454 1.85034C22.0305 0.709169 20.5536 0 18.9326 0C11.3792 0 5.2411 7.00669 5.2411 15.6289V26.4489C5.2411 27.7733 6.18733 28.8534 7.34749 28.8534H10.5071V44.4823C10.5071 55.9269 16.9332 65.9673 26.3049 69.5511V72.2561C25.0954 72.3641 23.9024 72.5426 22.7258 72.8338C18.6405 73.82 14.6993 75.8768 11.3629 78.7744C4.13862 85.025 0 94.5344 0 104.862V105.787C0 109.764 2.83456 113 6.31915 113H91.6277C95.6924 113 99 109.224 99 104.584C99 100.785 96.7784 97.5637 93.734 96.5164L93.7137 96.5213ZM75.8095 76.9383C83.3629 76.9383 89.501 83.945 89.501 92.5672V96.1739H62.118V92.5672C62.118 83.945 68.2561 76.9383 75.8095 76.9383ZM57.9052 92.5672V96.5214C57.535 96.6435 57.1894 96.8079 56.852 96.9911V86.157C57.3663 86.8191 57.8641 87.5048 58.3248 88.2139C58.0615 89.6227 57.9052 91.0644 57.9052 92.5532L57.9052 92.5672ZM25.2563 77.2148C25.7212 77.1443 26.1819 77.0833 26.6468 77.0457C27.5848 80.4598 30.3865 82.9489 33.6818 82.9489C36.9772 82.9489 39.7705 80.4599 40.7168 77.0457C41.1817 77.0833 41.6425 77.1397 42.1074 77.2148V87.7577C42.1074 89.0821 41.1611 90.1621 40.001 90.1621H27.3627C26.2025 90.1621 25.2563 89.082 25.2563 87.7577V77.2148ZM33.6818 70.9265C34.735 70.9265 35.8005 70.842 36.8414 70.673V74.5332C36.8414 76.5149 35.4179 78.1398 33.6818 78.1398C31.9457 78.1398 30.5346 76.5291 30.5222 74.5332V70.673C31.5631 70.842 32.6286 70.9265 33.6818 70.9265ZM27.3627 4.80418H43.1605C51.2899 4.80418 57.9052 12.3556 57.9052 21.6353V24.0398H31.5754C28.0908 24.0398 25.2563 20.8041 25.2563 16.8264V7.20863C25.2563 5.88425 26.2025 4.80418 27.3627 4.80418ZM9.45842 15.6242C9.45842 9.66008 13.7124 4.80418 18.9371 4.80418C20.0973 4.80418 21.0435 5.8843 21.0435 7.20863V16.8264C21.0435 20.8041 18.209 24.0398 14.7244 24.0398H9.45842V15.6242ZM14.7244 44.4776V28.8487C18.1678 28.8487 21.2246 26.9374 23.1499 24.0023C25.0752 26.9374 28.132 28.8487 31.5754 28.8487H52.6393V44.4776C52.6393 54.3584 46.7932 62.981 38.4212 65.4324C35.3233 66.3341 32.028 66.3341 28.9301 65.4324C20.5581 62.9809 14.7121 54.3588 14.7121 44.4776H14.7244ZM4.19246 105.791V104.866C4.19246 97.8216 6.45514 91.2183 10.5116 86.1377V108.201H6.29884C5.13865 108.201 4.19246 107.121 4.19246 105.796V105.791ZM14.7244 108.196V81.9245C16.6827 80.3606 18.8014 79.1584 21.0435 78.3178V87.7666C21.0435 91.7443 23.8781 94.9799 27.3627 94.9799H40.001C43.4856 94.9799 46.3201 91.7443 46.3201 87.7666V78.3178C48.5623 79.1584 50.681 80.3606 52.6393 81.9245V108.196H14.7244ZM91.6074 108.196H60.0116C58.2755 108.196 56.852 106.571 56.852 104.589C56.852 102.607 58.2755 100.982 60.0116 100.982H91.6074C93.3434 100.982 94.7669 102.607 94.7669 104.589C94.7669 106.571 93.3434 108.196 91.6074 108.196Z" fill="black"/>
</svg>
