<svg width="25" height="25" viewBox="0 0 25 25" fill="none" xmlns="http://www.w3.org/2000/svg">
<path d="M21.9198 0.833313H3.04773C1.63232 0.833313 0.5 1.68666 0.5 2.75333V24.0869C0.5 24.3714 0.719682 24.6436 1.06616 24.7625C1.41264 24.8814 1.82104 24.8458 2.12035 24.6558L5.15611 22.7002L8.19187 24.6558C8.55309 24.8925 9.10452 24.8925 9.46573 24.6558L12.4838 22.688L15.5195 24.6436C15.7083 24.7625 15.9279 24.8214 16.1638 24.8214C16.3997 24.8214 16.6194 24.7625 16.8081 24.6436L19.8439 22.688L22.8796 24.6436C23.1789 24.8336 23.5873 24.8802 23.9338 24.7502C24.2803 24.6314 24.5 24.3714 24.5 24.0747L24.4985 2.75333C24.4838 1.68666 23.3352 0.833313 21.9198 0.833313ZM22.5169 22.4747L20.4719 21.1469C20.1107 20.9102 19.5593 20.9102 19.198 21.1469L16.1623 23.1024L13.1265 21.1469C12.9378 21.028 12.7181 20.9691 12.4822 20.9691C12.2463 20.9691 12.0267 21.028 11.838 21.1469L8.80219 23.1024L5.76643 21.1469C5.40521 20.9102 4.85378 20.9102 4.49257 21.1469L2.4476 22.4747L2.45054 2.75333C2.45054 2.50444 2.71741 2.30334 3.04766 2.30334H21.9197C22.25 2.30334 22.5168 2.50445 22.5168 2.75333L22.5169 22.4747Z" fill="white"/>
<path d="M18.775 4.98114H10.9121C10.3769 4.98114 9.92133 5.31337 9.92133 5.72782C9.91985 6.14226 10.3769 6.46226 10.9106 6.46226H18.7735C19.3087 6.46226 19.7643 6.13002 19.7643 5.71558C19.7657 5.30114 19.3087 4.98114 18.775 4.98114Z" fill="white"/>
<path d="M6.97992 4.96893C6.42999 4.96893 5.98914 5.30117 5.98914 5.71561C5.98914 6.13005 6.42999 6.46228 6.97992 6.46228C7.52985 6.46228 7.9707 6.13005 7.9707 5.71561C7.9707 5.30117 7.52985 4.96893 6.97992 4.96893Z" fill="white"/>
<path d="M18.775 10.3023H10.9121C10.3769 10.3023 9.92133 10.6345 9.92133 11.049C9.92133 11.4634 10.3622 11.7957 10.9121 11.7957H18.775C19.3102 11.7957 19.7657 11.4634 19.7657 11.049C19.7657 10.6345 19.3087 10.3023 18.775 10.3023Z" fill="white"/>
<path d="M6.97992 10.3023C6.42999 10.3023 5.98914 10.6345 5.98914 11.049C5.98914 11.4634 6.42999 11.7957 6.97992 11.7957C7.52985 11.7957 7.9707 11.4634 7.9707 11.049C7.9707 10.6345 7.52985 10.3023 6.97992 10.3023Z" fill="white"/>
<path d="M6.97992 15.6357C6.42999 15.6357 5.98914 15.9679 5.98914 16.3824C5.98914 16.7968 6.42999 17.129 6.97992 17.129C7.52985 17.129 7.9707 16.7968 7.9707 16.3824C7.9707 15.9679 7.52985 15.6357 6.97992 15.6357Z" fill="white"/>
<path d="M18.775 15.6357H10.9121C10.3769 15.6357 9.92133 15.9679 9.92133 16.3824C9.92133 16.7968 10.3622 17.129 10.9121 17.129H18.775C19.3102 17.129 19.7657 16.7968 19.7657 16.3824C19.7657 15.9679 19.3087 15.6357 18.775 15.6357Z" fill="white"/>
</svg>
