<svg width="26" height="25" viewBox="0 0 26 25" fill="none" xmlns="http://www.w3.org/2000/svg">
<path d="M22.4198 0.833252H3.54773C2.13232 0.833252 1 1.6866 1 2.75327V24.0868C1 24.3713 1.21968 24.6435 1.56616 24.7624C1.91264 24.8813 2.32104 24.8457 2.62035 24.6557L5.65611 22.7001L8.69187 24.6557C9.05309 24.8924 9.60452 24.8924 9.96573 24.6557L12.9838 22.6879L16.0195 24.6435C16.2083 24.7624 16.4279 24.8213 16.6638 24.8213C16.8997 24.8213 17.1194 24.7624 17.3081 24.6435L20.3439 22.6879L23.3796 24.6435C23.6789 24.8335 24.0873 24.8801 24.4338 24.7501C24.7803 24.6313 25 24.3713 25 24.0746L24.9985 2.75327C24.9838 1.6866 23.8352 0.833252 22.4198 0.833252ZM23.0169 22.4746L20.9719 21.1468C20.6107 20.9101 20.0593 20.9101 19.698 21.1468L16.6623 23.1023L13.6265 21.1468C13.4378 21.0279 13.2181 20.969 12.9822 20.969C12.7463 20.969 12.5267 21.0279 12.338 21.1468L9.30219 23.1023L6.26643 21.1468C5.90521 20.9101 5.35378 20.9101 4.99257 21.1468L2.9476 22.4746L2.95054 2.75327C2.95054 2.50438 3.21741 2.30328 3.54766 2.30328H22.4197C22.75 2.30328 23.0168 2.50439 23.0168 2.75327L23.0169 22.4746Z" fill="black"/>
<path d="M19.2751 4.9812H11.4122C10.877 4.9812 10.4214 5.31343 10.4214 5.72788C10.4199 6.14232 10.877 6.46232 11.4107 6.46232H19.2736C19.8088 6.46232 20.2644 6.13008 20.2644 5.71564C20.2658 5.3012 19.8088 4.9812 19.2751 4.9812Z" fill="black"/>
<path d="M7.47992 4.96887C6.92999 4.96887 6.48914 5.30111 6.48914 5.71555C6.48914 6.12999 6.92999 6.46222 7.47992 6.46222C8.02985 6.46222 8.4707 6.12999 8.4707 5.71555C8.4707 5.30111 8.02985 4.96887 7.47992 4.96887Z" fill="black"/>
<path d="M19.2751 10.3022H11.4122C10.877 10.3022 10.4214 10.6344 10.4214 11.0489C10.4214 11.4633 10.8623 11.7956 11.4122 11.7956H19.2751C19.8103 11.7956 20.2658 11.4633 20.2658 11.0489C20.2658 10.6344 19.8088 10.3022 19.2751 10.3022Z" fill="black"/>
<path d="M7.47992 10.3022C6.92999 10.3022 6.48914 10.6344 6.48914 11.0489C6.48914 11.4633 6.92999 11.7956 7.47992 11.7956C8.02985 11.7956 8.4707 11.4633 8.4707 11.0489C8.4707 10.6344 8.02985 10.3022 7.47992 10.3022Z" fill="black"/>
<path d="M7.47992 15.6357C6.92999 15.6357 6.48914 15.9679 6.48914 16.3824C6.48914 16.7968 6.92999 17.129 7.47992 17.129C8.02985 17.129 8.4707 16.7968 8.4707 16.3824C8.4707 15.9679 8.02985 15.6357 7.47992 15.6357Z" fill="black"/>
<path d="M19.2751 15.6357H11.4122C10.877 15.6357 10.4214 15.9679 10.4214 16.3824C10.4214 16.7968 10.8623 17.129 11.4122 17.129H19.2751C19.8103 17.129 20.2658 16.7968 20.2658 16.3824C20.2658 15.9679 19.8088 15.6357 19.2751 15.6357Z" fill="black"/>
</svg>
