<svg width="24" height="24" viewBox="0 0 16 16" fill="none" xmlns="http://www.w3.org/2000/svg">
<path d="M8 0C5.87827 0 3.84339 0.842865 2.34318 2.34318C0.842865 3.8435 0 5.87834 0 8C0 10.1217 0.842865 12.1566 2.34318 13.6568C3.8435 15.1571 5.87834 16 8 16C10.1217 16 12.1566 15.1571 13.6568 13.6568C15.1571 12.1565 16 10.1217 16 8C16 5.87834 15.1571 3.84339 13.6568 2.34318C12.1565 0.842865 10.1217 0 8 0ZM12.2793 4.96081L7.83467 11.183C7.68273 11.3956 7.44495 11.531 7.18453 11.5528C7.15968 11.5545 7.13542 11.5554 7.11116 11.5554C6.8753 11.5556 6.64925 11.4618 6.48274 11.295L3.81604 8.62833C3.59476 8.40317 3.50964 8.07758 3.59223 7.77297C3.67497 7.46835 3.91292 7.23041 4.21753 7.14782C4.52215 7.06523 4.84775 7.15035 5.0729 7.37148L6.99775 9.29592L10.8321 3.92787C11.0166 3.66938 11.325 3.52889 11.6411 3.55956C11.9572 3.59006 12.2331 3.78694 12.3647 4.07594C12.4964 4.36508 12.4638 4.70229 12.2793 4.96081Z" fill="#00B27F"/>
</svg>
