<svg width="16" height="16" viewBox="0 0 16 16" fill="none" xmlns="http://www.w3.org/2000/svg">
<path d="M0.139342 13.4883L2.51129 15.8602C2.69959 16.0461 3.00508 16.0461 3.19338 15.8602L7.99988 11.0522L12.8064 15.8602C12.9001 15.9539 13.0244 16 13.1486 16C13.2728 16 13.3947 15.9539 13.4908 15.8602L15.8605 13.4883C16.0465 13.3 16.0465 12.9945 15.8605 12.8062L11.054 7.9998L15.8605 3.19342C16.0465 3.00513 16.0465 2.69964 15.8605 2.51135L13.4886 0.139459C13.3003 -0.0464863 12.9948 -0.0464863 12.8065 0.139459L8 4.94745L3.1935 0.139459C3.0052 -0.0464863 2.6997 -0.0464863 2.51141 0.139459L0.139462 2.51135C-0.0464874 2.69964 -0.0464874 3.00513 0.139462 3.19342L4.94597 7.9998L0.139462 12.8062C-0.0464874 12.9937 -0.0466074 13.3 0.139342 13.4883Z" fill="#CC0023"/>
</svg>
