<svg width="24" height="25" viewBox="0 0 24 25" fill="none" xmlns="http://www.w3.org/2000/svg">
<mask id="path-1-inside-1_6845_1780" fill="white">
<path d="M0 0.833313H24V24.8333H0V0.833313Z"/>
</mask>
<path d="M24 24.8333V24.3333H0V24.8333V25.3333H24V24.8333Z" fill="white" mask="url(#path-1-inside-1_6845_1780)"/>
<path d="M17.7021 9.53877C17.3353 9.53877 17.0378 9.28675 17.0378 8.97669C17.0378 8.66589 17.3353 8.41387 17.7021 8.41387H19.9873C21.0913 8.41387 22.0947 8.79594 22.8214 9.41239C23.5482 10.0281 24 10.8782 24 11.8136V17.3007V21.4344C24 22.3697 23.549 23.2198 22.8214 23.8355C22.0947 24.4512 21.0913 24.8333 19.9873 24.8333H4.01185C2.90786 24.8333 1.90446 24.4512 1.17771 23.8355C0.450965 23.2198 0 22.3697 0 21.4344V17.3007V11.8136C0 10.8782 0.450965 10.0281 1.17771 9.41239C1.90446 8.79668 2.90786 8.41387 4.01185 8.41387H6.29703C6.66387 8.41387 6.96134 8.66589 6.96134 8.97669C6.96134 9.28749 6.66387 9.53877 6.29703 9.53877H4.01185C3.2747 9.53877 2.60345 9.7952 2.11693 10.2074C1.63041 10.6196 1.32774 11.1883 1.32774 11.8128V16.7371H5.61451C6.27882 16.7371 6.88068 16.9664 7.3169 17.3359C7.75313 17.7055 8.02371 18.2162 8.02371 18.7782V19.0633C8.02371 19.3153 8.14512 19.5439 8.34111 19.7099C8.53711 19.876 8.80682 19.9788 9.10429 19.9788H14.894C15.1914 19.9788 15.4612 19.876 15.6572 19.7099C15.8531 19.5439 15.9746 19.3146 15.9746 19.0633V18.7782C15.9746 18.2162 16.2451 17.7055 16.6814 17.3359C17.1176 16.9664 17.7203 16.7371 18.3838 16.7371H22.6705V11.8128C22.6705 11.1883 22.3687 10.6196 21.8813 10.2074C21.3948 9.7952 20.7236 9.53877 19.9864 9.53877H17.7012H17.7021ZM10.2412 12.6791C10.2412 12.9899 9.94378 13.2412 9.57693 13.2412C9.21009 13.2412 8.91349 12.9892 8.91349 12.6791V6.9429H6.79396C6.42712 6.9429 6.13052 6.69088 6.13052 6.38008C6.13052 6.21991 6.20944 6.07516 6.33692 5.9723L11.5039 1.02229C11.7459 0.790847 12.1639 0.768804 12.438 0.973799C12.4605 0.990698 12.4813 1.00833 12.4995 1.0267L17.6995 6.0083C17.9415 6.23975 17.9163 6.5939 17.6423 6.79889C17.5165 6.89367 17.3595 6.93996 17.2043 6.93996V6.94217H15.0848V12.6784C15.0848 12.9892 14.7873 13.2404 14.4213 13.2404C14.0545 13.2404 13.757 12.9884 13.757 12.6784V6.37935C13.757 6.06855 14.0545 5.81727 14.4213 5.81727H15.7343L11.9991 2.23904L8.26393 5.81727H9.57693C9.94378 5.81727 10.2412 6.06929 10.2412 6.37935V12.6784V12.6791ZM1.32688 17.8627V21.4336C1.32688 22.0582 1.62868 22.6269 2.11607 23.0391C2.60259 23.4513 3.27383 23.7077 4.01099 23.7077H19.9864C20.7236 23.7077 21.3948 23.452 21.8813 23.0391C22.3679 22.6269 22.6705 22.0582 22.6705 21.4336V17.8627H18.3838C18.0863 17.8627 17.8157 17.9656 17.6197 18.1324C17.4237 18.2985 17.3023 18.527 17.3023 18.779V19.0641C17.3023 19.6261 17.0317 20.1368 16.5955 20.5064C16.1593 20.876 15.5566 21.1052 14.8931 21.1052H9.10342C8.43998 21.1052 7.83725 20.876 7.40103 20.5064C6.96481 20.1368 6.69423 19.6261 6.69423 19.0641V18.779C6.69423 18.527 6.57281 18.2985 6.37682 18.1324C6.18082 17.9663 5.91024 17.8627 5.61278 17.8627H1.32601H1.32688Z" fill="white"/>
</svg>
