<svg width="25" height="25" viewBox="0 0 25 25" fill="none" xmlns="http://www.w3.org/2000/svg">
<g clip-path="url(#clip0_139_141)">
<mask id="mask0_139_141" style="mask-type:luminance" maskUnits="userSpaceOnUse" x="0" y="0" width="25" height="25">
<path d="M0.5 0.833252H24.5V24.8332H0.5V0.833252Z" fill="white"/>
</mask>
<g mask="url(#mask0_139_141)">
<path d="M24.5 24.8333V24.3333H0.5V24.8333V25.3333H24.5V24.8333Z" fill="black"/>
</g>
<path d="M18.2021 9.53871C17.8353 9.53871 17.5378 9.28669 17.5378 8.97663C17.5378 8.66583 17.8353 8.41381 18.2021 8.41381H20.4873C21.5913 8.41381 22.5947 8.79588 23.3214 9.41233C24.0482 10.028 24.5 10.8781 24.5 11.8135V17.3006V21.4343C24.5 22.3696 24.049 23.2197 23.3214 23.8354C22.5947 24.4511 21.5913 24.8332 20.4873 24.8332H4.51185C3.40786 24.8332 2.40446 24.4511 1.67771 23.8354C0.950965 23.2197 0.5 22.3696 0.5 21.4343V17.3006V11.8135C0.5 10.8781 0.950965 10.028 1.67771 9.41233C2.40446 8.79662 3.40786 8.41381 4.51185 8.41381H6.79703C7.16387 8.41381 7.46134 8.66583 7.46134 8.97663C7.46134 9.28743 7.16387 9.53871 6.79703 9.53871H4.51185C3.7747 9.53871 3.10345 9.79514 2.61693 10.2073C2.13041 10.6195 1.82774 11.1882 1.82774 11.8127V16.737H6.11451C6.77882 16.737 7.38068 16.9663 7.8169 17.3358C8.25313 17.7054 8.52371 18.2161 8.52371 18.7781V19.0632C8.52371 19.3152 8.64512 19.5438 8.84111 19.7098C9.03711 19.8759 9.30682 19.9787 9.60429 19.9787H15.394C15.6914 19.9787 15.9612 19.8759 16.1572 19.7098C16.3531 19.5438 16.4746 19.3145 16.4746 19.0632V18.7781C16.4746 18.2161 16.7451 17.7054 17.1814 17.3358C17.6176 16.9663 18.2203 16.737 18.8838 16.737H23.1705V11.8127C23.1705 11.1882 22.8687 10.6195 22.3813 10.2073C21.8948 9.79514 21.2236 9.53871 20.4864 9.53871H18.2021ZM10.7412 12.679C10.7412 12.9898 10.4438 13.2411 10.0769 13.2411C9.71009 13.2411 9.41349 12.9891 9.41349 12.679V6.94284H7.29396C6.92712 6.94284 6.63052 6.69082 6.63052 6.38002C6.63052 6.21985 6.70944 6.0751 6.83692 5.97224L12.0039 1.02223C12.2459 0.790786 12.6639 0.768743 12.938 0.973738C12.9605 0.990637 12.9813 1.00827 12.9995 1.02664L18.1995 6.00824C18.4415 6.23969 18.4163 6.59384 18.1423 6.79883C18.0165 6.89361 17.8595 6.9399 17.7043 6.9399V6.94211H15.5848V12.6783C15.5848 12.9891 15.2873 13.2403 14.9213 13.2403C14.5545 13.2403 14.257 12.9883 14.257 12.6783V6.37929C14.257 6.06849 14.5545 5.81721 14.9213 5.81721H16.2343L12.4991 2.23898L8.76393 5.81721H10.0769C10.4438 5.81721 10.7412 6.06923 10.7412 6.37929V12.679ZM1.82688 17.8626V21.4335C1.82688 22.0581 2.12868 22.6268 2.61607 23.039C3.10259 23.4512 3.77383 23.7076 4.51099 23.7076H20.4864C21.2236 23.7076 21.8948 23.4519 22.3813 23.039C22.8679 22.6268 23.1705 22.0581 23.1705 21.4335V17.8626H18.8838C18.5863 17.8626 18.3157 17.9655 18.1197 18.1323C17.9237 18.2984 17.8023 18.5269 17.8023 18.7789V19.064C17.8023 19.626 17.5317 20.1367 17.0955 20.5063C16.6593 20.8759 16.0566 21.1051 15.3931 21.1051H9.60342C8.93998 21.1051 8.33725 20.8759 7.90103 20.5063C7.46481 20.1367 7.19423 19.626 7.19423 19.064V18.7789C7.19423 18.5269 7.07281 18.2984 6.87682 18.1323C6.68082 17.9662 6.41024 17.8626 6.11278 17.8626H1.82688Z" fill="black"/>
</g>
<defs>
<clipPath id="clip0_139_141">
<rect width="24" height="25" fill="white" transform="translate(0.5)"/>
</clipPath>
</defs>
</svg>
