<svg width="31" height="25" viewBox="0 0 31 25" fill="none" xmlns="http://www.w3.org/2000/svg">
<g clip-path="url(#clip0_139_131)">
<path d="M15.4999 17.5733C14.6675 17.5733 13.9281 16.8185 13.6576 15.6934C13.559 15.2647 13.721 14.8017 14.0196 14.6569C14.3182 14.5099 14.6436 14.7333 14.7492 15.158C14.8449 15.5606 15.0914 15.8524 15.3844 15.9128C15.6787 15.9752 15.9717 15.796 16.145 15.4498C16.3182 15.1057 16.3407 14.6508 16.2055 14.2724C16.0689 13.896 15.7971 13.6585 15.4999 13.6585C14.7703 13.6585 14.1027 13.0748 13.7689 12.1489C13.4351 11.2211 13.4914 10.106 13.9154 9.25659C14.3393 8.40924 15.0605 7.97045 15.7816 8.12142C16.5041 8.27237 17.1055 8.9869 17.3421 9.97316C17.3942 10.1825 17.3858 10.41 17.3182 10.6092C17.252 10.8085 17.1323 10.9595 16.9858 11.0319C16.8393 11.1024 16.6802 11.0883 16.5421 10.9896C16.4041 10.891 16.2985 10.7179 16.2506 10.5086C16.1548 10.1061 15.9097 9.81615 15.6154 9.75381C15.321 9.69141 15.028 9.87054 14.8548 10.2168C14.6816 10.561 14.659 11.0158 14.7942 11.3942C14.9309 11.7706 15.2027 12.0081 15.4999 12.0081C16.5745 12.0081 17.4463 13.254 17.4463 14.7917C17.4463 16.3275 16.5745 17.5733 15.4999 17.5733Z" fill="black"/>
<path d="M15.5 18.5053C15.1817 18.5053 14.9225 18.137 14.9225 17.6801V16.7502C14.9225 16.2933 15.1817 15.9249 15.5 15.9249C15.8183 15.9249 16.0775 16.2933 16.0775 16.7502V17.6821C16.0761 18.1369 15.8183 18.5053 15.5 18.5053Z" fill="black"/>
<path d="M15.5 9.74175C15.1817 9.74175 14.9225 9.37342 14.9225 8.91651V7.98662C14.9225 7.52973 15.1817 7.16138 15.5 7.16138C15.8183 7.16138 16.0775 7.52971 16.0775 7.98662V8.91651C16.0775 9.1359 16.0155 9.34522 15.9085 9.5002C15.8 9.65518 15.6535 9.74175 15.5 9.74175Z" fill="black"/>
<path d="M15.5001 20.6004C12.5029 20.6004 10.0649 17.1163 10.0649 12.8333C10.0649 8.55032 12.503 5.06628 15.5001 5.06628C18.4972 5.06628 20.9352 8.55032 20.9352 12.8333C20.9352 17.1163 18.4972 20.6004 15.5001 20.6004ZM15.5001 6.71455C13.7677 6.71455 12.2072 8.20397 11.5436 10.4924C10.8817 12.7789 11.2479 15.4096 12.4718 17.1604C13.6971 18.9095 15.538 19.4328 17.1379 18.4868C18.7393 17.5388 19.7815 15.3087 19.7815 12.8329C19.7787 9.45548 17.8635 6.71867 15.5001 6.71455Z" fill="black"/>
<path d="M29.9225 24.8331H1.07748C0.759169 24.8331 0.5 24.4648 0.5 24.0079V1.65849C0.5 1.2016 0.759155 0.833252 1.07748 0.833252H29.9225C30.0761 0.833252 30.2225 0.9198 30.331 1.07478C30.438 1.22976 30.5 1.43909 30.5 1.65847V24.0078C30.5 24.2272 30.438 24.4366 30.331 24.5915C30.2225 24.7465 30.0761 24.8331 29.9225 24.8331ZM1.6551 23.1847H29.3453V2.48157H1.6551V23.1847Z" fill="black"/>
<path d="M2.80868 7.4293C1.53402 7.42729 0.50165 5.95194 0.500244 4.13246C0.500244 3.67557 0.759399 3.30722 1.07772 3.30722C1.39605 3.30722 1.6552 3.67555 1.6552 4.13246C1.6552 4.79869 1.93548 5.40046 2.36648 5.65608C2.79747 5.90969 3.29465 5.76879 3.62424 5.29782C3.95383 4.82684 4.05241 4.11632 3.87494 3.50043C3.69607 2.88454 3.27493 2.48197 2.80875 2.48197C2.49045 2.48197 2.23128 2.11364 2.23128 1.65874C2.23128 1.20384 2.49043 0.833496 2.80875 0.833496C4.08342 0.833496 5.11578 2.31085 5.11578 4.13235C5.11578 5.9539 4.08331 7.4293 2.80868 7.4293Z" fill="black"/>
<path d="M28.1914 7.42919C26.9167 7.42919 25.8844 5.95385 25.8844 4.13235C25.8844 2.3108 26.9168 0.833496 28.1914 0.833496C28.5097 0.833496 28.7689 1.20384 28.7689 1.65874C28.7689 2.11363 28.5097 2.48197 28.1914 2.48197C27.7252 2.48197 27.3041 2.88452 27.1252 3.50043C26.9477 4.11632 27.0463 4.82682 27.3759 5.29781C27.7055 5.76881 28.2027 5.90969 28.6337 5.65608C29.0647 5.40046 29.345 4.79864 29.345 4.13246C29.345 3.67556 29.6041 3.30722 29.9224 3.30722C30.2408 3.30722 30.4999 3.67554 30.4999 4.13246C30.4985 5.95194 29.466 7.42718 28.1914 7.42919Z" fill="black"/>
<path d="M2.80851 24.8332C2.4902 24.8332 2.23103 24.4649 2.23103 24.0079C2.23103 23.5531 2.49019 23.1847 2.80851 23.1847C3.27472 23.1847 3.69582 22.7822 3.8747 22.1662C4.05216 21.5504 3.95357 20.8419 3.62399 20.3689C3.29442 19.8979 2.79722 19.757 2.36624 20.0126C1.93526 20.2682 1.65496 20.868 1.65496 21.5362C1.65496 21.9911 1.3958 22.3595 1.07748 22.3595C0.759155 22.3595 0.5 21.9911 0.5 21.5362C0.5 20.2018 1.06338 18.9982 1.92534 18.4889C2.78731 17.9777 3.78026 18.2595 4.43944 19.2034C5.09999 20.1474 5.29719 21.5644 4.93944 22.7982C4.5831 24.03 3.74093 24.8332 2.80851 24.8332Z" fill="black"/>
<path d="M28.1915 24.8332C27.2592 24.8332 26.4169 24.0301 26.0605 22.7983C25.7028 21.5645 25.9 20.1476 26.5605 19.2036C27.2197 18.2596 28.2126 17.9778 29.0746 18.4891C29.9366 18.9983 30.5 20.2019 30.5 21.5364C30.5 21.9912 30.2408 22.3596 29.9225 22.3596C29.6042 22.3596 29.345 21.9913 29.345 21.5364C29.345 20.8681 29.0647 20.2684 28.6337 20.0127C28.2027 19.7571 27.7056 19.898 27.376 20.369C27.0464 20.842 26.9478 21.5505 27.1253 22.1664C27.3041 22.7823 27.7253 23.1848 28.1915 23.1848C28.5098 23.1848 28.7689 23.5532 28.7689 24.0081C28.7689 24.465 28.5099 24.8332 28.1915 24.8332Z" fill="black"/>
</g>
<defs>
<clipPath id="clip0_139_131">
<rect width="30" height="25" fill="white" transform="translate(0.5)"/>
</clipPath>
</defs>
</svg>
