<svg width="30" height="25" viewBox="0 0 30 25" fill="none" xmlns="http://www.w3.org/2000/svg">
<path d="M14.9999 17.5732C14.1675 17.5732 13.4281 16.8184 13.1576 15.6933C13.059 15.2646 13.221 14.8016 13.5196 14.6568C13.8182 14.5098 14.1436 14.7332 14.2492 15.1579C14.3449 15.5605 14.5914 15.8523 14.8844 15.9127C15.1787 15.9751 15.4717 15.7959 15.645 15.4497C15.8182 15.1056 15.8407 14.6507 15.7055 14.2723C15.5689 13.8959 15.2971 13.6584 14.9999 13.6584C14.2703 13.6584 13.6027 13.0747 13.2689 12.1488C12.9351 11.221 12.9914 10.1059 13.4154 9.25653C13.8393 8.40918 14.5605 7.97039 15.2816 8.12136C16.0041 8.27231 16.6055 8.98684 16.8421 9.9731C16.8942 10.1824 16.8858 10.4099 16.8182 10.6091C16.752 10.8084 16.6323 10.9594 16.4858 11.0318C16.3393 11.1023 16.1802 11.0882 16.0421 10.9895C15.9041 10.8909 15.7985 10.7178 15.7506 10.5085C15.6548 10.106 15.4097 9.81609 15.1154 9.75375C14.821 9.69135 14.528 9.87048 14.3548 10.2167C14.1816 10.5609 14.159 11.0157 14.2942 11.3941C14.4309 11.7705 14.7027 12.008 14.9999 12.008C16.0745 12.008 16.9463 13.2539 16.9463 14.7916C16.9463 16.3274 16.0745 17.5732 14.9999 17.5732Z" fill="white"/>
<path d="M15 18.5053C14.6817 18.5053 14.4225 18.137 14.4225 17.6801V16.7502C14.4225 16.2933 14.6817 15.9249 15 15.9249C15.3183 15.9249 15.5775 16.2933 15.5775 16.7502V17.6821C15.5761 18.1369 15.3183 18.5053 15 18.5053Z" fill="white"/>
<path d="M15 9.74175C14.6817 9.74175 14.4225 9.37342 14.4225 8.91651V7.98662C14.4225 7.52973 14.6817 7.16138 15 7.16138C15.3183 7.16138 15.5775 7.52971 15.5775 7.98662V8.91651C15.5775 9.1359 15.5155 9.34522 15.4085 9.5002C15.3 9.65518 15.1535 9.74175 15 9.74175Z" fill="white"/>
<path d="M15.0001 20.6004C12.0029 20.6004 9.56497 17.1163 9.56497 12.8333C9.56497 8.55032 12.003 5.06628 15.0001 5.06628C17.9972 5.06628 20.4352 8.55032 20.4352 12.8333C20.4352 17.1163 17.9972 20.6004 15.0001 20.6004ZM15.0001 6.71254V6.71455C13.2677 6.71455 11.7072 8.20397 11.0436 10.4924C10.3817 12.7789 10.7479 15.4096 11.9718 17.1604C13.1971 18.9095 15.038 19.4328 16.6379 18.4868C18.2393 17.5388 19.2815 15.3087 19.2815 12.8329C19.2787 9.45548 17.3632 6.71826 14.9998 6.71414L15.0001 6.71254Z" fill="white"/>
<path d="M29.4225 24.8332H0.577478C0.259169 24.8332 0 24.4649 0 24.008V1.65855C0 1.20166 0.259155 0.833313 0.577478 0.833313H29.4225C29.5761 0.833313 29.7225 0.919861 29.831 1.07484C29.938 1.22982 30 1.43915 30 1.65853V24.0079C30 24.2273 29.938 24.4367 29.831 24.5916C29.7225 24.7466 29.5761 24.8332 29.4225 24.8332ZM1.1551 23.1848H28.8453V2.48163H1.1551V23.1848Z" fill="white"/>
<path d="M2.30868 7.42936C1.03402 7.42735 0.00165034 5.952 0.000244141 4.13252C0.000244141 3.67563 0.259399 3.30728 0.577723 3.30728C0.896046 3.30728 1.1552 3.67561 1.1552 4.13252C1.1552 4.79875 1.43548 5.40052 1.86648 5.65614C2.29747 5.90975 2.79465 5.76885 3.12424 5.29788C3.45383 4.8269 3.55241 4.11638 3.37494 3.50049C3.19607 2.8846 2.77493 2.48203 2.30875 2.48203C1.99045 2.48203 1.73128 2.1137 1.73128 1.6588C1.73128 1.2039 1.99043 0.833557 2.30875 0.833557C3.58342 0.833557 4.61578 2.31091 4.61578 4.13241C4.61578 5.95396 3.58331 7.42936 2.30868 7.42936Z" fill="white"/>
<path d="M27.6914 7.42919C26.4167 7.42919 25.3844 5.95385 25.3844 4.13235C25.3844 2.3108 26.4168 0.833496 27.6914 0.833496C28.0097 0.833496 28.2689 1.20384 28.2689 1.65874C28.2689 2.11363 28.0097 2.48197 27.6914 2.48197C27.2252 2.48197 26.8041 2.88452 26.6252 3.50043C26.4477 4.11632 26.5463 4.82682 26.8759 5.29781C27.2055 5.76881 27.7027 5.90969 28.1337 5.65608C28.5647 5.40046 28.845 4.79864 28.845 4.13246C28.845 3.67556 29.1041 3.30722 29.4224 3.30722C29.7408 3.30722 29.9999 3.67554 29.9999 4.13246C29.9985 5.95194 28.966 7.42718 27.6914 7.42919Z" fill="white"/>
<path d="M2.30851 24.8332C1.9902 24.8332 1.73103 24.4649 1.73103 24.0079C1.73103 23.5531 1.99019 23.1847 2.30851 23.1847C2.77472 23.1847 3.19582 22.7822 3.3747 22.1662C3.55216 21.5504 3.45357 20.8419 3.12399 20.3689C2.79442 19.8979 2.29722 19.757 1.86624 20.0126C1.43526 20.2682 1.15496 20.868 1.15496 21.5362C1.15496 21.9911 0.895801 22.3595 0.577478 22.3595C0.259155 22.3595 0 21.9911 0 21.5362C0 20.2018 0.56338 18.9982 1.42534 18.4889C2.28731 17.9777 3.28026 18.2595 3.93944 19.2034C4.59999 20.1474 4.79719 21.5644 4.43944 22.7982C4.0831 24.03 3.24093 24.8332 2.30851 24.8332Z" fill="white"/>
<path d="M27.6915 24.8332C26.7592 24.8332 25.9169 24.0301 25.5605 22.7983C25.2028 21.5645 25.4 20.1476 26.0605 19.2036C26.7197 18.2596 27.7126 17.9778 28.5746 18.4891C29.4366 18.9983 30 20.2019 30 21.5364C30 21.9912 29.7408 22.3596 29.4225 22.3596C29.1042 22.3596 28.845 21.9913 28.845 21.5364C28.845 20.8681 28.5647 20.2684 28.1337 20.0127C27.7027 19.7571 27.2056 19.898 26.876 20.369C26.5464 20.842 26.4478 21.5505 26.6253 22.1664C26.8041 22.7823 27.2253 23.1848 27.6915 23.1848C28.0098 23.1848 28.2689 23.5532 28.2689 24.0081C28.2689 24.465 28.0099 24.8332 27.6915 24.8332Z" fill="white"/>
</svg>
