<svg width="16" height="16" viewBox="0 0 16 16" fill="none" xmlns="http://www.w3.org/2000/svg">
<path fill-rule="evenodd" clip-rule="evenodd" d="M1.33946 12.6784C1.24502 12.5798 1.24502 12.4192 1.33946 12.32C1.43321 12.2207 1.58599 12.2207 1.68044 12.32L2.7235 13.4164L5.8387 10.1418C5.93245 10.0425 6.08522 10.0425 6.17968 10.1418C6.27412 10.2403 6.27412 10.4009 6.17968 10.5002L2.89363 13.9544C2.79988 14.053 2.64711 14.053 2.55265 13.9544L1.33946 12.6791V12.6784ZM0.758218 9.66799C0.158218 10.5046 -0.101498 11.5571 0.0359956 12.5952C0.174189 13.6333 0.699196 14.5713 1.49502 15.2027C2.29086 15.8334 3.29289 16.1072 4.28044 15.9619C5.26794 15.8166 6.16026 15.2648 6.76026 14.4282C7.36096 13.5916 7.62067 12.5383 7.48249 11.5002C7.34429 10.4622 6.81998 9.52419 6.02416 8.89348C5.22762 8.26204 4.22629 7.98903 3.23873 8.13429C2.25118 8.27955 1.35893 8.83071 0.758218 9.66799ZM13.0103 1.96082L7.02773 5.59183L9.77778 7.26132L15.7604 3.6303L13.0103 1.96155V1.96082ZM6.54649 5.29975L3.79573 3.63027L9.7776 0L12.5276 1.66948L6.54649 5.29975ZM10.0194 14.9596V7.6985L16 4.06898V11.3301L10.0194 14.9596ZM3.55555 7.59478C5.01806 7.52105 6.41315 8.2452 7.24658 9.51101C8.07991 10.7768 8.23408 12.4046 7.65353 13.818L9.5369 14.9611L9.53621 7.69853L3.55559 4.06901L3.55555 7.59478Z" fill="white"/>
</svg>
