<svg width="20" height="20" viewBox="0 0 20 20" fill="none" xmlns="http://www.w3.org/2000/svg">
<g clip-path="url(#clip0_138_59)">
<path d="M19.9995 7.12447C20.0103 6.42646 19.8425 5.74345 19.5221 5.18217C18.1056 2.87246 15.5065 3.78034 15.3966 3.82102C14.7519 4.1516 14.0578 4.28849 13.3663 4.22141C11.5306 4.06778 9.78917 2.73057 8.91458 1.94741C8.83667 1.88038 8.74158 1.85566 8.64975 1.87855C8.55792 1.90144 8.47667 1.97012 8.4235 2.06982C8.37033 2.16951 8.34942 2.29227 8.36533 2.41168C8.38133 2.53111 8.43275 2.63766 8.50867 2.70843C9.933 4.08898 13.253 6.0687 15.6052 4.70665C15.8088 4.63988 17.8879 4.00494 18.9697 5.76874C19.6998 7.05818 19.084 9.13017 17.9141 10.6046C17.2506 11.4134 16.4933 12.0823 15.6697 12.5867C13.26 14.1295 8.22228 16.151 4.04265 13.3781C4.01389 13.3599 1.16198 11.5293 0.814986 7.70291C0.809012 7.68077 0.245487 4.04256 1.96638 2.44495C2.70184 1.62265 3.61308 1.11003 4.57888 0.975325C5.54468 0.840608 6.51923 1.09018 7.37288 1.69083C7.45733 1.74385 7.55449 1.75166 7.64335 1.71258C7.73222 1.6735 7.80564 1.59067 7.84774 1.48199C7.88985 1.37332 7.89726 1.24753 7.86837 1.13183C7.83948 1.01613 7.77661 0.919825 7.69335 0.863717C6.71232 0.169131 5.59005 -0.11721 4.47906 0.043606C3.36806 0.204422 2.32221 0.804597 1.48363 1.76257C0.178548 3.05633 -0.0247627 5.14349 0.00221983 6.50877C0.00742992 7.27853 0.0778963 10.7205 0.101851 11.7913C0.128155 15.8249 3.49977 18.4959 3.71023 18.5138C7.62778 21.2334 12.9562 19.8114 16.2998 17.5185C16.3811 17.4584 16.4409 17.3593 16.4664 17.2427C16.4919 17.1261 16.481 17.0011 16.4362 16.8948C16.3913 16.7883 16.3159 16.7091 16.2264 16.6739C16.1369 16.6388 16.0402 16.6505 15.9574 16.7068C13.5089 18.4005 8.28204 20.5127 4.04338 17.6961C3.33968 17.2426 0.527321 14.9315 0.790307 10.564C1.48218 12.1049 2.49381 13.3634 3.71017 14.1964C8.3525 17.5087 16.7247 14.8584 19.2854 9.87283L19.2853 11.0231C19.2805 11.761 19.156 12.4894 18.9199 13.161C18.6838 13.8326 18.3413 14.4323 17.9148 14.9213C17.6728 15.2288 17.4115 15.5098 17.1337 15.7613C17.0957 15.7969 17.0634 15.8418 17.0388 15.8935C17.0142 15.9452 16.9977 16.0027 16.9902 16.0626C16.9827 16.1226 16.9844 16.1838 16.9952 16.243C17.006 16.3021 17.0257 16.3578 17.0531 16.4071C17.0805 16.4563 17.1152 16.4982 17.1551 16.5301C17.1949 16.5619 17.2393 16.5833 17.2856 16.5931C17.3318 16.6028 17.3792 16.6005 17.4248 16.5866C17.4703 16.5726 17.5134 16.5471 17.5514 16.5115C17.8661 16.2277 18.161 15.9086 18.4327 15.558C18.9227 14.9847 19.315 14.2853 19.5848 13.5044C19.8546 12.7237 19.9958 11.8785 19.9995 11.0231V7.12447Z" fill="#FF9F40"/>
<path d="M2.43661 3.35268C1.16449 4.65423 1.63607 7.37737 1.65612 7.62449C1.93757 10.7245 4.30267 12.328 4.41059 12.3994C6.17299 13.8545 9.54804 13.7882 10.9105 13.4016C13.3985 12.9718 16.2437 11.2491 17.313 9.84146C19.0725 7.40698 18.7432 5.72274 16.7056 5.63515C16.4126 5.63149 16.1205 5.67537 15.8359 5.76575C12.9184 7.31083 9.14312 4.92894 7.19922 2.80398C6.46577 2.21805 5.60585 1.95493 4.74762 2.0538C3.88939 2.15269 3.07878 2.60827 2.43661 3.35268ZM4.72864 11.571C4.6284 11.5321 2.47429 9.93138 2.33622 7.28773C2.23337 6.60523 2.15328 4.65553 2.94889 4.01099C3.16742 3.73209 3.42367 3.50768 3.70487 3.34895C4.55077 6.18112 5.5084 9.38888 6.41416 12.4078C5.82322 12.2395 5.25507 11.9575 4.72864 11.571ZM16.0615 6.64429C16.4435 6.49929 17.5014 6.52253 17.7145 6.97063C17.8537 7.76316 16.9459 9.40188 15.4476 10.4397C15.1377 9.39921 14.7733 8.17269 14.459 7.12182C15.0065 7.04994 15.5448 6.88952 16.0615 6.64429ZM13.7101 7.17834C14.052 8.33379 14.475 9.73563 14.8124 10.8775C13.7836 11.524 12.6967 12.0017 11.5766 12.2992L11.0045 10.387C10.556 8.88913 10.1 7.36494 9.66087 5.89556C10.9226 6.69937 12.3045 7.13713 13.7101 7.17834ZM10.3385 10.7219L10.8623 12.4724C9.66446 12.7282 8.44529 12.7714 7.23842 12.6007C6.32347 9.55363 5.31535 6.17733 4.45541 3.29791L4.38104 3.04871C4.59701 2.98272 4.81801 2.94838 5.03989 2.94633C6.6531 2.99541 6.97632 3.97436 8.70212 5.24956C9.22829 7.01193 9.78971 8.88763 10.3385 10.7219Z" fill="#FF9F40"/>
</g>
<defs>
<clipPath id="clip0_138_59">
<rect width="20" height="20" fill="white"/>
</clipPath>
</defs>
</svg>
