<svg width="20" height="20" viewBox="0 0 20 20" fill="none" xmlns="http://www.w3.org/2000/svg">
<g clip-path="url(#clip0_138_50)">
<path d="M8.50693 17.6523L3.34027 18.6825C3.11689 18.7291 2.98093 18.863 3.01007 19.0027C3.04891 19.1423 3.25286 19.2471 3.48594 19.2471H17.0824C17.3252 19.2471 17.5194 19.1423 17.5583 19.0027C17.5971 18.863 17.4611 18.7233 17.2281 18.6825L12.0614 17.6523C11.8672 17.6115 11.7312 17.501 11.7312 17.3787V12.7807C13.8581 12.5886 15.8101 11.9949 17.3155 11.0403C19.1704 9.87043 20.1125 8.34547 19.9765 6.70992L18.5489 0.295811C18.51 0.1503 18.3061 0.0455322 18.0633 0.0455322H2.52448C2.28168 0.0455322 2.07774 0.1503 2.03889 0.295811L0.854053 5.52255V5.52838L0.582128 6.7332C0.446163 8.34546 1.39791 9.87043 3.25286 11.0403C4.76789 11.9949 6.71027 12.5886 8.83713 12.7807V17.3787C8.83713 17.501 8.70113 17.6174 8.50693 17.6523ZM2.95179 0.627575H17.6457L18.6945 5.23735C15.1401 5.69134 12.2265 5.70881 10.4881 5.2781C8.24467 4.72515 4.70962 4.92305 1.91264 5.22571L2.95179 0.627575Z" fill="#00B23B"/>
</g>
<defs>
<clipPath id="clip0_138_50">
<rect width="20" height="20" fill="white"/>
</clipPath>
</defs>
</svg>
