<svg width="24" height="24" viewBox="0 0 24 24" fill="none" xmlns="http://www.w3.org/2000/svg">
<g clip-path="url(#clip0_138_67)">
<path d="M6.82069 13.3274C6.77275 13.284 6.71387 13.2482 6.64741 13.2219C6.58095 13.1957 6.50825 13.1795 6.43345 13.1744C6.35865 13.1693 6.28323 13.1752 6.21153 13.192C6.13982 13.2088 6.07323 13.236 6.01559 13.2721C5.0298 13.9394 8.13563 15.2501 8.89844 15.2898C9.03393 15.288 9.16417 15.2502 9.26606 15.1832C9.36794 15.1162 9.43491 15.0243 9.45507 14.9239C9.47525 14.8234 9.44732 14.7208 9.37625 14.6343C9.30517 14.5478 9.19553 14.4829 9.06678 14.4512C8.1884 14.2482 7.40792 13.8576 6.82069 13.3274Z" fill="#8716D9"/>
<path d="M13.9289 7.39917C13.0695 7.39992 12.2456 7.65624 11.638 8.11189C11.0303 8.56754 10.6885 9.18532 10.6875 9.82971C10.6875 9.94341 10.7477 10.0525 10.855 10.1329C10.9622 10.2133 11.1076 10.2584 11.2592 10.2584C11.4109 10.2584 11.5563 10.2133 11.6635 10.1329C11.7707 10.0525 11.831 9.94341 11.831 9.82971C11.8316 9.41263 12.0528 9.01277 12.4461 8.71785C12.8394 8.42293 13.3727 8.25705 13.9289 8.25659C14.0791 8.25496 14.2224 8.20907 14.3278 8.12885C14.4332 8.04863 14.4924 7.94052 14.4924 7.82788C14.4924 7.71524 14.4332 7.60713 14.3278 7.52691C14.2224 7.44669 14.0791 7.4008 13.9289 7.39917Z" fill="#8716D9"/>
<path d="M9.37002 5.41436C9.37047 5.10346 9.53539 4.80539 9.82857 4.58555C10.1218 4.36571 10.5193 4.24204 10.9339 4.24169C11.0855 4.24169 11.2309 4.19653 11.3382 4.11613C11.4454 4.03573 11.5056 3.92669 11.5056 3.81299C11.5056 3.69929 11.4454 3.59024 11.3382 3.50984C11.2309 3.42944 11.0855 3.38428 10.9339 3.38428C10.2161 3.38485 9.52791 3.59892 9.02036 3.97951C8.51281 4.3601 8.22733 4.87613 8.22656 5.41436C8.22656 5.52807 8.2868 5.63711 8.39401 5.71751C8.50123 5.79791 8.64666 5.84307 8.79829 5.84307C8.94992 5.84307 9.09534 5.79791 9.20256 5.71751C9.30978 5.63711 9.37002 5.52807 9.37002 5.41436Z" fill="#8716D9"/>
<path d="M22.7998 1.66778C22.8166 -0.0206524 19.4413 -0.701579 18.5276 0.936639L16.0298 5.54888C15.9927 5.53883 15.9546 5.53095 15.9171 5.52145C15.9344 5.02228 15.8187 4.52554 15.5767 4.06033C15.3348 3.59512 14.9714 3.1708 14.508 2.81223C14.0445 2.45367 13.4902 2.16806 12.8777 1.97215C12.2652 1.77625 11.6067 1.67398 10.9407 1.67133C10.1651 1.59848 7.02832 2.24053 7.77554 3.06817C7.86929 3.15755 8.00654 3.21534 8.15711 3.22885C8.30767 3.24236 8.45923 3.21048 8.57845 3.14021C10.9265 1.68386 14.757 3.00808 14.7703 5.30743C13.8692 5.20899 12.95 5.26504 12.0819 5.47137C11.2138 5.6777 10.4194 6.02894 9.75842 6.49868C8.96831 6.2611 8.11002 6.17976 7.26593 6.26248C7.00438 5.62688 7.04189 4.9432 7.37218 4.32585C7.40011 4.2736 7.41403 4.21773 7.41316 4.16144C7.41228 4.10514 7.39661 4.04953 7.36705 3.99778C7.3375 3.94603 7.29463 3.89916 7.24091 3.85984C7.18718 3.82051 7.12364 3.78952 7.05394 3.76862C5.77411 3.46064 5.84674 5.93752 6.15671 6.46558C5.49342 6.6502 4.89043 6.939 4.38816 7.31263C3.88589 7.68627 3.49594 8.1361 3.24444 8.63197C1.28727 9.18354 0.481567 10.1561 1.9659 11.0794L2.61607 12.7661C3.00775 13.7893 3.75103 14.7175 4.77151 15.4576C5.792 16.1977 7.05386 16.7238 8.43077 16.9832V17.4308C8.43098 17.7235 8.552 18.0091 8.77722 18.2482C9.00244 18.4873 9.32082 18.6684 9.68868 18.7664V20.3479C4.35161 21.1801 6.37348 24.0759 11.467 23.9985C14.2742 23.9985 16.3911 23.187 16.3911 22.1106C16.3911 21.2829 15.1718 20.611 13.2447 20.3467V18.7681C13.612 18.669 13.9299 18.4875 14.1549 18.2482C14.38 18.009 14.5014 17.7236 14.5026 17.4308V16.9829C16.292 16.6425 17.874 15.8561 18.989 14.7528C19.0772 14.662 19.1143 14.5489 19.0923 14.4377C19.0705 14.3266 18.9913 14.2264 18.8718 14.1586C18.7524 14.0908 18.6021 14.0608 18.4536 14.0752C18.305 14.0896 18.1699 14.1471 18.0772 14.2354C17.4228 14.884 16.5765 15.41 15.6051 15.7717C14.6336 16.1335 13.5633 16.3213 12.4786 16.3203C11.8324 16.2903 10.1413 16.3639 9.52903 16.2794C8.17928 16.1435 6.91122 15.7166 5.87896 15.0505C4.8467 14.3844 4.09469 13.5078 3.7143 12.5272L3.37132 11.6377C5.78802 12.3064 9.03703 12.4938 11.8704 12.4805C14.9131 12.4312 17.2632 12.2468 19.5619 11.6402C19.4684 11.8717 19.1974 12.6165 19.086 12.8312C19.0341 12.9368 19.0398 13.0536 19.1018 13.1561C19.1637 13.2587 19.277 13.3388 19.4172 13.3792C19.5573 13.4197 19.7131 13.4171 19.8507 13.3721C19.9884 13.3272 20.097 13.2434 20.1529 13.1389C20.2839 12.8989 20.8501 11.3701 20.9638 11.0923C22.4689 10.1403 21.6492 9.23606 19.8264 8.67205C19.6273 8.0986 19.2772 7.56081 18.7968 7.09032L22.5226 2.42536C22.7038 2.19597 22.7995 1.93435 22.7998 1.66778ZM2.79002 10.4779C2.12568 10.108 2.23916 10.0397 2.93989 9.68251C2.89441 9.97656 2.90778 10.2741 2.97958 10.5651C2.91415 10.5389 2.85086 10.5097 2.79002 10.4779ZM15.2476 22.1106C15.2476 22.5307 13.7749 23.1411 11.467 23.1411C9.19403 23.1411 7.68599 22.5209 7.68599 22.1106C7.68599 21.8595 8.32691 21.441 9.68867 21.2213C9.69883 21.4717 9.60036 21.8871 9.97178 22.0218C10.4195 22.2475 10.9475 22.3669 11.487 22.3643C12.0265 22.3616 12.5524 22.2372 12.9962 22.0072C13.3346 21.8649 13.2302 21.4574 13.2447 21.2213C14.5542 21.4338 15.2476 21.8483 15.2476 22.1106ZM10.8322 21.4024V18.8582H12.1012V21.4043C11.9016 21.4714 11.6852 21.506 11.4664 21.5057C11.2476 21.5053 11.0314 21.4701 10.8322 21.4024ZM9.57425 17.1433C10.1573 17.2 11.862 17.1716 12.4787 17.1777C12.7728 17.1775 13.0666 17.1661 13.3592 17.1434V17.4308C13.3605 17.5729 13.2909 17.7103 13.1639 17.8159C13.0368 17.9214 12.8617 17.9874 12.673 18.0008H10.34C10.1382 17.9999 9.94496 17.9397 9.80177 17.8331C9.65857 17.7265 9.57688 17.5821 9.57425 17.4308V17.1433ZM20.0292 9.83001C20.0293 9.78359 20.0216 9.73786 20.0198 9.69158C20.447 9.88123 20.5879 10.0393 20.5879 10.1149C20.6161 10.1807 20.375 10.3764 20.0967 10.5084C19.7887 10.7243 20.1019 9.99713 20.0292 9.83001ZM8.80862 7.35797C8.61397 7.586 8.44762 7.82695 8.31168 8.07778C8.25886 8.03501 8.19486 8.00086 8.12369 7.97744C8.0525 7.95401 7.97566 7.94183 7.89792 7.94164C7.18013 7.94221 6.49195 8.15628 5.9844 8.53687C5.47684 8.91746 5.19136 9.43349 5.1906 9.97172C5.1906 10.0854 5.25083 10.1945 5.35805 10.2749C5.46527 10.3553 5.6107 10.4004 5.76233 10.4004C5.91395 10.4004 6.05938 10.3553 6.1666 10.2749C6.27382 10.1945 6.33404 10.0854 6.33404 9.97172C6.33451 9.66082 6.49943 9.36275 6.79261 9.1429C7.0858 8.92306 7.4833 8.7994 7.89792 8.79905C7.93597 8.79635 7.97354 8.79066 8.01 8.78207C7.70413 9.69023 7.798 10.6482 8.27759 11.5131C6.9281 11.437 5.59318 11.2539 4.29511 10.967C4.10933 10.5836 4.03372 10.1751 4.07323 9.76827C4.11275 9.36144 4.26649 8.96548 4.5244 8.60633C4.78229 8.24718 5.13851 7.93297 5.56969 7.68429C6.00089 7.43561 6.4973 7.25808 7.02641 7.16334C7.37507 7.08121 9.28219 6.98958 8.80862 7.35797ZM18.6361 10.9694C16.253 11.5334 12.5805 11.7203 9.5801 11.5799C9.08696 10.8984 8.89242 10.1177 9.02406 9.34865C9.15569 8.57957 9.60683 7.86108 10.3135 7.29502C13.9285 4.42511 20.2333 7.21801 18.6361 10.9694ZM21.5401 1.98699L17.9948 6.42582C17.7067 6.23507 17.3949 6.06532 17.064 5.91887L19.587 1.25958C19.6332 1.17647 19.7019 1.1015 19.7888 1.03943C19.8758 0.977366 19.979 0.929575 20.092 0.899109C20.9169 0.634998 22.0323 1.36355 21.5401 1.98699Z" fill="#8716D9"/>
</g>
<defs>
<clipPath id="clip0_138_67">
<rect width="24" height="24" fill="white"/>
</clipPath>
</defs>
</svg>
