<svg width="20" height="20" viewBox="0 0 20 20" fill="none" xmlns="http://www.w3.org/2000/svg">
<g clip-path="url(#clip0_138_67)">
<path d="M5.68391 11.1062C5.64396 11.07 5.59489 11.0402 5.53951 11.0182C5.48413 10.9964 5.42354 10.9829 5.36121 10.9787C5.29888 10.9744 5.23603 10.9793 5.17628 10.9933C5.11652 11.0073 5.06103 11.03 5.01299 11.0601C4.1915 11.6162 6.77969 12.7084 7.41537 12.7415C7.52828 12.74 7.63681 12.7085 7.72172 12.6527C7.80662 12.5968 7.86243 12.5202 7.87923 12.4366C7.89604 12.3528 7.87277 12.2673 7.81354 12.1952C7.75431 12.1232 7.66294 12.0691 7.55565 12.0427C6.82367 11.8735 6.17327 11.548 5.68391 11.1062Z" fill="#8716D9"/>
<path d="M11.6074 6.16602C10.8913 6.16664 10.2047 6.38024 9.69832 6.75995C9.19194 7.13966 8.90708 7.65447 8.90625 8.19147C8.90625 8.28622 8.95645 8.37712 9.0458 8.44412C9.13514 8.51112 9.25633 8.54871 9.38269 8.54871C9.50905 8.54871 9.63023 8.51112 9.71958 8.44412C9.80893 8.37712 9.85913 8.28622 9.85913 8.19147C9.85963 7.8439 10.044 7.51068 10.3717 7.26492C10.6995 7.01915 11.1439 6.88092 11.6074 6.88053C11.7326 6.87917 11.852 6.84093 11.9398 6.77408C12.0277 6.70723 12.077 6.61714 12.077 6.52327C12.077 6.42941 12.0277 6.33932 11.9398 6.27247C11.852 6.20562 11.7326 6.16737 11.6074 6.16602Z" fill="#8716D9"/>
<path d="M7.80835 4.51192C7.80873 4.25284 7.94616 4.00445 8.19048 3.82125C8.4348 3.63805 8.76606 3.53499 9.11157 3.5347C9.23793 3.5347 9.35912 3.49707 9.44847 3.43007C9.53782 3.36307 9.58801 3.2722 9.58801 3.17745C9.58801 3.0827 9.53782 2.99182 9.44847 2.92482C9.35912 2.85782 9.23793 2.82019 9.11157 2.82019C8.51341 2.82067 7.93993 2.99906 7.51697 3.31622C7.09401 3.63337 6.85611 4.0634 6.85547 4.51192C6.85547 4.60668 6.90567 4.69755 6.99501 4.76455C7.08436 4.83155 7.20555 4.86918 7.33191 4.86918C7.45827 4.86918 7.57945 4.83155 7.6688 4.76455C7.75815 4.69755 7.80835 4.60668 7.80835 4.51192Z" fill="#8716D9"/>
<path d="M18.9999 1.38982C19.0139 -0.0172103 16.2011 -0.584649 15.4397 0.780532L13.3582 4.62407C13.3273 4.61569 13.2955 4.60912 13.2643 4.60121C13.2787 4.18523 13.1823 3.77128 12.9806 3.38361C12.779 2.99593 12.4762 2.64233 12.09 2.34353C11.7038 2.04473 11.2419 1.80672 10.7315 1.64346C10.221 1.48021 9.67226 1.39498 9.11733 1.39277C8.47092 1.33207 5.85697 1.86711 6.47966 2.55681C6.55778 2.63129 6.67216 2.67945 6.79763 2.69071C6.9231 2.70197 7.0494 2.6754 7.14875 2.61684C9.10547 1.40322 12.2975 2.50673 12.3086 4.42286C11.5577 4.34082 10.7917 4.38753 10.0683 4.55948C9.34487 4.73142 8.68286 5.02412 8.13206 5.41557C7.47363 5.21758 6.75839 5.1498 6.05498 5.21873C5.83702 4.68907 5.86828 4.11933 6.14352 3.60487C6.1668 3.56133 6.1784 3.51477 6.17767 3.46787C6.17694 3.42095 6.16388 3.37461 6.13925 3.33148C6.11462 3.28836 6.0789 3.2493 6.03413 3.21653C5.98936 3.18376 5.93641 3.15793 5.87832 3.14052C4.8118 2.88387 4.87232 4.94793 5.13063 5.38798C4.57789 5.54183 4.0754 5.7825 3.65684 6.09386C3.23828 6.40522 2.91332 6.78008 2.70374 7.19331C1.07277 7.65295 0.401347 8.46342 1.63829 9.23283L2.1801 10.6384C2.5065 11.4911 3.1259 12.2646 3.9763 12.8813C4.82671 13.4981 5.87826 13.9365 7.02568 14.1527V14.5257C7.02586 14.7696 7.12671 15.0076 7.31439 15.2068C7.50207 15.4061 7.76739 15.557 8.07394 15.6387V16.9566C3.62638 17.6501 5.31127 20.0633 9.55586 19.9988C11.8952 19.9988 13.6593 19.3225 13.6593 18.4255C13.6593 17.7357 12.6432 17.1758 11.0373 16.9556V15.6401C11.3434 15.5575 11.6083 15.4062 11.7958 15.2068C11.9834 15.0075 12.0845 14.7697 12.0855 14.5257V14.1524C13.5767 13.8688 14.895 13.2134 15.8242 12.294C15.8977 12.2183 15.9286 12.1241 15.9103 12.0314C15.8921 11.9388 15.8261 11.8553 15.7265 11.7988C15.627 11.7423 15.5018 11.7173 15.378 11.7293C15.2542 11.7413 15.1416 11.7892 15.0644 11.8628C14.519 12.4033 13.8138 12.8417 13.0043 13.1431C12.1947 13.4446 11.3028 13.6011 10.3989 13.6002C9.86038 13.5752 8.45113 13.6366 7.9409 13.5662C6.81611 13.4529 5.75939 13.0972 4.89917 12.5421C4.03896 11.987 3.41228 11.2565 3.09529 10.4393L2.80947 9.69808C4.82339 10.2553 7.5309 10.4115 9.89202 10.4004C12.4276 10.3593 14.386 10.2057 16.3016 9.70017C16.2237 9.89308 15.9979 10.5137 15.905 10.6927C15.8618 10.7807 15.8665 10.878 15.9182 10.9634C15.9698 11.0489 16.0642 11.1157 16.181 11.1493C16.2978 11.1831 16.4276 11.1809 16.5423 11.1434C16.657 11.106 16.7475 11.0362 16.7941 10.9491C16.9033 10.7491 17.3751 9.47508 17.4699 9.24358C18.7241 8.45025 18.041 7.69672 16.522 7.22671C16.3561 6.74883 16.0644 6.30067 15.664 5.9086L18.7689 2.02113C18.9199 1.82997 18.9996 1.61196 18.9999 1.38982ZM2.32506 8.73158C1.77144 8.42333 1.86601 8.36642 2.44995 8.06876C2.41205 8.3138 2.42319 8.56175 2.48302 8.80425C2.4285 8.78242 2.37576 8.75808 2.32506 8.73158ZM12.7064 18.4255C12.7064 18.7756 11.4791 19.2842 9.55585 19.2842C7.66173 19.2842 6.40503 18.7674 6.40503 18.4255C6.40503 18.2162 6.93913 17.8675 8.07393 17.6844C8.0824 17.8931 8.00034 18.2392 8.30986 18.3515C8.68295 18.5396 9.12297 18.6391 9.57254 18.6369C10.0221 18.6347 10.4604 18.531 10.8302 18.3393C11.1122 18.2207 11.0252 17.8812 11.0373 17.6844C12.1285 17.8615 12.7064 18.2069 12.7064 18.4255ZM9.02684 17.8353V15.7152H10.0844V17.8369C9.91804 17.8928 9.73772 17.9217 9.5554 17.9214C9.37307 17.9211 9.19291 17.8917 9.02684 17.8353ZM7.97858 14.2861C8.46445 14.3333 9.885 14.3097 10.3989 14.3147C10.644 14.3146 10.8889 14.3051 11.1327 14.2862V14.5257C11.1338 14.6441 11.0758 14.7586 10.9699 14.8466C10.8641 14.9345 10.7181 14.9895 10.5608 15.0007H8.6167C8.44856 14.9999 8.28751 14.9497 8.16818 14.8609C8.04885 14.7721 7.98077 14.6517 7.97858 14.5257V14.2861ZM16.691 8.19168C16.6911 8.15299 16.6847 8.11488 16.6832 8.07632C17.0392 8.23436 17.1566 8.36608 17.1566 8.42908C17.1801 8.48392 16.9792 8.647 16.7473 8.757C16.4906 8.93692 16.7516 8.33094 16.691 8.19168ZM7.34056 6.13164C7.17835 6.32167 7.03972 6.52246 6.92644 6.73148C6.88242 6.69584 6.82909 6.66738 6.76978 6.64787C6.71046 6.62834 6.64642 6.61819 6.58164 6.61803C5.98348 6.61851 5.41 6.7969 4.98704 7.11406C4.56407 7.43122 4.32617 7.86124 4.32554 8.30977C4.32554 8.4045 4.37573 8.49542 4.46508 8.56242C4.55443 8.62942 4.67562 8.667 4.80198 8.667C4.92833 8.667 5.04952 8.62942 5.13887 8.56242C5.22822 8.49542 5.27841 8.4045 5.27841 8.30977C5.2788 8.05068 5.41623 7.80229 5.66055 7.61908C5.90487 7.43588 6.23612 7.33283 6.58164 7.33254C6.61335 7.33029 6.64466 7.32555 6.67504 7.31839C6.42015 8.07519 6.49837 8.8735 6.89803 9.59425C5.77346 9.53083 4.66102 9.37825 3.5793 9.13917C3.42448 8.81967 3.36147 8.47925 3.3944 8.14022C3.42733 7.8012 3.55545 7.47123 3.77037 7.17194C3.98528 6.87265 4.28213 6.61081 4.64145 6.40357C5.00078 6.19634 5.41446 6.0484 5.85538 5.96945C6.14593 5.90101 7.7352 5.82465 7.34056 6.13164ZM15.5301 9.14117C13.5442 9.61117 10.4838 9.76692 7.98346 9.64992C7.57251 9.082 7.41039 8.43142 7.52009 7.79054C7.62978 7.14964 8.00573 6.5509 8.59463 6.07918C11.6071 3.68759 16.8611 6.01501 15.5301 9.14117ZM17.9501 1.65582L14.9957 5.35485C14.7556 5.19589 14.4958 5.05443 14.22 4.93239L16.3225 1.04965C16.361 0.980392 16.4183 0.917917 16.4907 0.866192C16.5632 0.814472 16.6492 0.774646 16.7434 0.749257C17.4308 0.529165 18.3603 1.13629 17.9501 1.65582Z" fill="#8716D9"/>
</g>
<defs>
<clipPath id="clip0_138_67">
<rect width="20" height="20" fill="white"/>
</clipPath>
</defs>
</svg>
