<svg width="16" height="16" viewBox="0 0 16 16" fill="none" xmlns="http://www.w3.org/2000/svg">
<g clip-path="url(#clip0_138_48)">
<path d="M6.80552 14.1218L2.67219 14.946C2.49349 14.9832 2.38472 15.0903 2.40803 15.2021C2.43911 15.3138 2.60226 15.3977 2.78873 15.3977H13.6659C13.8601 15.3977 14.0155 15.3138 14.0466 15.2021C14.0777 15.0903 13.9689 14.9786 13.7824 14.946L9.6491 14.1218C9.49374 14.0892 9.38494 14.0007 9.38494 13.9029V10.2245C11.0864 10.0708 12.6481 9.59587 13.8523 8.83223C15.3363 7.89629 16.09 6.67632 15.9812 5.36789L14.8391 0.2366C14.808 0.120191 14.6448 0.036377 14.4506 0.036377H2.01956C1.82532 0.036377 1.66217 0.120191 1.63109 0.2366L0.683218 4.41799V4.42265L0.465678 5.38651C0.356906 6.67632 1.11831 7.89629 2.60226 8.83223C3.81429 9.59587 5.36819 10.0708 7.06968 10.2245V13.9029C7.06968 14.0007 6.96088 14.0939 6.80552 14.1218ZM2.36141 0.502011H14.1165L14.9556 4.18983C12.112 4.55303 9.7812 4.567 8.39048 4.22243C6.59571 3.78007 3.76767 3.93839 1.53009 4.18052L2.36141 0.502011Z" fill="#FF9F40"/>
</g>
<defs>
<clipPath id="clip0_138_48">
<rect width="16" height="16" fill="white"/>
</clipPath>
</defs>
</svg>
