<svg width="24" height="24" viewBox="0 0 24 24" fill="none" xmlns="http://www.w3.org/2000/svg">
<g clip-path="url(#clip0_138_84)">
<path d="M23.9994 8.54936C24.0124 7.71175 23.811 6.89214 23.4265 6.2186C21.7267 3.44695 18.6078 4.53641 18.4759 4.58522C17.7023 4.98192 16.8693 5.14619 16.0396 5.06569C13.8367 4.88133 11.747 3.27668 10.6975 2.33689C10.604 2.25646 10.4899 2.22679 10.3797 2.25426C10.2695 2.28173 10.172 2.36414 10.1082 2.48378C10.0444 2.60341 10.0193 2.75072 10.0384 2.89402C10.0576 3.03733 10.1193 3.16519 10.2104 3.25011C11.9196 4.90677 15.9036 7.28244 18.7262 5.64798C18.9706 5.56785 21.4655 4.80593 22.7636 6.92249C23.6397 8.46981 22.9008 10.9562 21.4969 12.7255C20.7007 13.6961 19.7919 14.4987 18.8036 15.104C15.912 16.9554 9.86673 19.3812 4.85118 16.0537C4.81667 16.0319 1.39437 13.8351 0.977983 9.24349C0.970814 9.21692 0.294584 4.85107 2.35966 2.93394C3.24221 1.94718 4.3357 1.33204 5.49465 1.17039C6.65361 1.00873 7.82307 1.30822 8.84745 2.029C8.94879 2.09262 9.06539 2.10199 9.17202 2.05509C9.27866 2.0082 9.36677 1.9088 9.41729 1.77839C9.46782 1.64798 9.47671 1.49704 9.44204 1.3582C9.40737 1.21936 9.33193 1.10379 9.23202 1.03646C8.05478 0.202957 6.70806 -0.140652 5.37487 0.0523272C4.04167 0.245307 2.78665 0.965516 1.78035 2.11509C0.214258 3.6676 -0.0297152 6.17219 0.0026638 7.81052C0.00891591 8.73424 0.0934756 12.8646 0.122221 14.1496C0.153786 18.9899 4.19972 22.1951 4.45227 22.2166C9.15333 25.4801 15.5474 23.7737 19.5598 21.0222C19.6573 20.9501 19.7291 20.8312 19.7597 20.6912C19.7903 20.5513 19.7772 20.4013 19.7234 20.2737C19.6695 20.146 19.5791 20.0509 19.4717 20.0087C19.3643 19.9665 19.2483 19.9806 19.1489 20.0481C16.2107 22.0806 9.93845 24.6152 4.85205 21.2353C4.00762 20.6911 0.632785 17.9178 0.948368 12.6768C1.77862 14.5259 2.99257 16.0361 4.4522 17.0357C10.023 21.0104 20.0696 17.8301 23.1425 11.8474L23.1424 13.2277C23.1366 14.1132 22.9872 14.9873 22.7039 15.7932C22.4205 16.5991 22.0096 17.3187 21.4977 17.9055C21.2073 18.2745 20.8938 18.6117 20.5604 18.9136C20.5148 18.9563 20.4761 19.0101 20.4465 19.0722C20.417 19.1342 20.3972 19.2032 20.3882 19.2751C20.3792 19.3471 20.3813 19.4206 20.3942 19.4916C20.4072 19.5625 20.4308 19.6294 20.4637 19.6885C20.4966 19.7476 20.5382 19.7978 20.5861 19.8361C20.6339 19.8743 20.6871 19.9 20.7427 19.9117C20.7982 19.9233 20.855 19.9206 20.9097 19.9039C20.9644 19.8871 21.0161 19.8565 21.0617 19.8138C21.4393 19.4732 21.7932 19.0903 22.1192 18.6696C22.7072 17.9816 23.178 17.1423 23.5018 16.2053C23.8255 15.2684 23.995 14.2542 23.9994 13.2277V8.54936Z" fill="#00B23B"/>
<path d="M2.92398 4.02326C1.39744 5.58512 1.96334 8.85289 1.9874 9.14943C2.32514 12.8695 5.16325 14.7936 5.29276 14.8793C7.40764 16.6255 11.4577 16.5459 13.0926 16.082C16.0782 15.5662 19.4925 13.499 20.7757 11.8098C22.887 8.88842 22.4919 6.86733 20.0468 6.76223C19.6952 6.75784 19.3446 6.81049 19.0031 6.91895C15.5021 8.77304 10.9718 5.91477 8.63911 3.36482C7.75897 2.66171 6.72707 2.34596 5.6972 2.46461C4.66732 2.58327 3.69459 3.12997 2.92398 4.02326ZM5.67442 13.8852C5.55413 13.8386 2.9692 11.9177 2.80351 8.74532C2.68009 7.92632 2.58399 5.58668 3.53872 4.81324C3.80095 4.47856 4.10846 4.20926 4.4459 4.01879C5.46097 7.41739 6.61013 11.2667 7.69704 14.8894C6.98791 14.6874 6.30614 14.349 5.67442 13.8852ZM19.2739 7.9732C19.7322 7.79919 21.0017 7.82708 21.2574 8.3648C21.4245 9.31584 20.3351 11.2823 18.5372 12.5277C18.1653 11.2791 17.728 9.80728 17.3509 8.54623C18.0078 8.45998 18.6538 8.26747 19.2739 7.9732ZM16.4522 8.61405C16.8625 10.0006 17.3701 11.6828 17.7749 13.053C16.5404 13.8289 15.2361 14.4021 13.892 14.7591L13.2055 12.4644C12.6673 10.667 12.12 8.83798 11.5931 7.07472C13.1072 8.03929 14.7654 8.5646 16.4522 8.61405ZM12.4062 12.8663L13.0348 14.9669C11.5974 15.2739 10.1344 15.3257 8.68616 15.1209C7.58821 11.4644 6.37847 7.41284 5.34654 3.95754L5.2573 3.6585C5.51646 3.57931 5.78166 3.5381 6.04792 3.53564C7.98377 3.59454 8.37164 4.76928 10.4426 6.29952C11.074 8.41436 11.7477 10.6652 12.4062 12.8663Z" fill="#00B23B"/>
</g>
<defs>
<clipPath id="clip0_138_84">
<rect width="24" height="24" fill="white"/>
</clipPath>
</defs>
</svg>
