<svg width="24" height="24" viewBox="0 0 24 24" fill="none" xmlns="http://www.w3.org/2000/svg">
<g clip-path="url(#clip0_138_79)">
<path d="M10.2083 21.1827L4.00834 22.4189C3.7403 22.4748 3.57714 22.6355 3.6121 22.8031C3.65872 22.9707 3.90346 23.0965 4.18315 23.0965H20.4989C20.7903 23.0965 21.0233 22.9707 21.0699 22.8031C21.1166 22.6355 20.9534 22.4679 20.6737 22.4189L14.4737 21.1827C14.2407 21.1338 14.0775 21.0011 14.0775 20.8544V15.3367C16.6297 15.1062 18.9722 14.3938 20.7786 13.2483C23.0045 11.8444 24.135 10.0145 23.9718 8.05183L22.2587 0.3549C22.212 0.180286 21.9673 0.0545654 21.6759 0.0545654H3.0294C2.73804 0.0545654 2.49331 0.180286 2.44669 0.3549L1.02489 6.62699V6.63398L0.698578 8.07977C0.53542 10.0145 1.67752 11.8444 3.90346 13.2483C5.72149 14.3938 8.05234 15.1062 10.6046 15.3367V20.8544C10.6046 21.0011 10.4414 21.1408 10.2083 21.1827ZM3.54218 0.753017H21.1748L22.4335 6.28475C18.1681 6.82954 14.6719 6.8505 12.5858 6.33364C9.89362 5.67011 5.65157 5.90759 2.29519 6.27078L3.54218 0.753017Z" fill="#8716D9"/>
</g>
<defs>
<clipPath id="clip0_138_79">
<rect width="24" height="24" fill="white"/>
</clipPath>
</defs>
</svg>
