<svg width="16" height="16" viewBox="0 0 16 16" fill="none" xmlns="http://www.w3.org/2000/svg">
<g clip-path="url(#clip0_138_81)">
<path d="M15.9996 5.69957C16.0083 5.14117 15.874 4.59476 15.6177 4.14573C14.4845 2.29797 12.4052 3.02427 12.3173 3.05681C11.8015 3.32128 11.2462 3.43079 10.6931 3.37713C9.22447 3.25422 7.83133 2.18445 7.13167 1.55793C7.06933 1.50431 6.99327 1.48453 6.9198 1.50284C6.84633 1.52115 6.78133 1.57609 6.7388 1.65585C6.69627 1.73561 6.67953 1.83381 6.69227 1.92935C6.70507 2.02489 6.7462 2.11013 6.80693 2.16674C7.9464 3.27118 10.6024 4.85496 12.4841 3.76532C12.6471 3.7119 14.3103 3.20395 15.1757 4.61499C15.7598 5.64654 15.2672 7.30413 14.3313 8.48367C13.8005 9.13073 13.1946 9.6658 12.5357 10.0693C10.608 11.3036 6.57782 12.9208 3.23412 10.7025C3.21111 10.6879 0.92958 9.2234 0.651989 6.16233C0.647209 6.14461 0.196389 3.23405 1.57311 1.95596C2.16147 1.29812 2.89047 0.888027 3.6631 0.78026C4.43574 0.672487 5.21538 0.872147 5.8983 1.35267C5.96586 1.39508 6.04359 1.40133 6.11468 1.37006C6.18577 1.3388 6.24451 1.27253 6.27819 1.18559C6.31188 1.09865 6.31781 0.998027 6.29469 0.905467C6.27158 0.812907 6.22129 0.73586 6.15468 0.690973C5.36985 0.135305 4.47204 -0.0937681 3.58325 0.0348848C2.69445 0.163538 1.85777 0.643677 1.1869 1.41006C0.142839 2.44507 -0.0198101 4.11479 0.00177587 5.20701C0.00594394 5.82283 0.0623171 8.5764 0.0814807 9.43307C0.102524 12.6599 2.79981 14.7967 2.96818 14.8111C6.10222 16.9867 10.3649 15.8491 13.0399 14.0148C13.1049 13.9667 13.1527 13.8875 13.1731 13.7941C13.1935 13.7009 13.1848 13.6009 13.1489 13.5158C13.113 13.4307 13.0527 13.3673 12.9811 13.3391C12.9095 13.311 12.8322 13.3204 12.7659 13.3654C10.8071 14.7204 6.62563 16.4101 3.2347 14.1569C2.67175 13.7941 0.421857 11.9452 0.632245 8.4512C1.18575 9.68393 1.99505 10.6907 2.96813 11.3571C6.682 14.0069 13.3797 11.8867 15.4283 7.89827L15.4283 8.81847C15.4244 9.4088 15.3248 9.99153 15.1359 10.5288C14.947 11.0661 14.6731 11.5458 14.3318 11.937C14.1382 12.183 13.9292 12.4078 13.7069 12.6091C13.6765 12.6375 13.6507 12.6734 13.631 12.7148C13.6113 12.7561 13.5981 12.8021 13.5921 12.8501C13.5861 12.8981 13.5875 12.9471 13.5961 12.9944C13.6048 13.0417 13.6205 13.0863 13.6425 13.1257C13.6644 13.1651 13.6921 13.1985 13.7241 13.2241C13.7559 13.2495 13.7914 13.2667 13.8285 13.2745C13.8655 13.2822 13.9033 13.2804 13.9398 13.2693C13.9763 13.2581 14.0107 13.2377 14.0411 13.2092C14.2929 12.9821 14.5288 12.7269 14.7461 12.4464C15.1381 11.9877 15.452 11.4282 15.6679 10.8035C15.8837 10.1789 15.9967 9.5028 15.9996 8.81847V5.69957Z" fill="#8716D9"/>
<path d="M1.94936 2.68222C0.931666 3.72346 1.30893 5.90197 1.32497 6.09966C1.55013 8.57971 3.44221 9.86244 3.52855 9.91958C4.93847 11.0837 7.63851 11.0306 8.72844 10.7214C10.7188 10.3775 12.995 8.99938 13.8505 7.87324C15.258 5.92566 14.9946 4.57826 13.3646 4.5082C13.1302 4.50527 12.8964 4.54037 12.6688 4.61268C10.3348 5.84874 7.31457 3.94322 5.75945 2.24326C5.17269 1.77452 4.48475 1.56402 3.79817 1.64312C3.11159 1.72222 2.4631 2.08669 1.94936 2.68222ZM3.78299 9.25684C3.70279 9.22578 1.97951 7.94518 1.86905 5.83026C1.78677 5.28426 1.7227 3.7245 2.35919 3.20887C2.53401 2.98575 2.73901 2.80622 2.96397 2.67924C3.64069 4.94497 4.40679 7.51118 5.1314 9.92631C4.65865 9.79164 4.20413 9.56604 3.78299 9.25684ZM12.8493 5.31551C13.1548 5.1995 14.0012 5.2181 14.1716 5.57658C14.283 6.2106 13.5568 7.52158 12.3582 8.35184C12.1102 7.51944 11.8187 6.53823 11.5673 5.69753C12.0052 5.64003 12.4359 5.51169 12.8493 5.31551ZM10.9682 5.74274C11.2417 6.66711 11.5801 7.78858 11.85 8.70204C11.027 9.21931 10.1574 9.60144 9.26137 9.83944L8.80371 8.30964C8.44491 7.11138 8.08004 5.89203 7.72877 4.71652C8.73817 5.35957 9.84364 5.70978 10.9682 5.74274ZM8.27084 8.57758L8.68991 9.97798C7.73164 10.1826 6.75631 10.2172 5.79081 10.0806C5.05885 7.64298 4.25235 4.94194 3.5644 2.6384L3.50491 2.43904C3.67768 2.38625 3.85448 2.35878 4.03199 2.35714C5.32255 2.3964 5.58113 3.17956 6.96177 4.19972C7.38271 5.60962 7.83184 7.11018 8.27084 8.57758Z" fill="#8716D9"/>
</g>
<defs>
<clipPath id="clip0_138_81">
<rect width="16" height="16" fill="white"/>
</clipPath>
</defs>
</svg>
