<svg width="20" height="20" viewBox="0 0 20 20" fill="none" xmlns="http://www.w3.org/2000/svg">
<g clip-path="url(#clip0_138_72)">
<path d="M19.9591 11.4519C19.7144 11.1853 19.3397 9.17601 18.7074 9.56443L15.6939 11.2313C15.6115 11.2798 15.5512 11.3588 15.5257 11.4517C15.5002 11.5445 15.5115 11.6437 15.5574 11.7282C15.6032 11.8126 15.6799 11.8757 15.7712 11.9039C15.8624 11.9322 15.9609 11.9234 16.0458 11.8794L18.7082 10.407L19.1352 11.3949L14.0009 13.4138C13.95 13.307 13.8992 13.2003 13.8554 13.0905L14.7599 12.5932C14.8436 12.5454 14.9053 12.4664 14.9318 12.3731C14.9582 12.2798 14.9473 12.1798 14.9013 12.0945C14.8552 12.0093 14.7779 11.9458 14.6858 11.9177C14.5938 11.8896 14.4945 11.8991 14.4094 11.9443L13.6295 12.3731C13.4952 11.8273 13.4388 11.2649 13.4622 10.703C13.0588 8.9736 10.6865 9.98826 11.3032 12.3103C10.2559 11.4636 8.59242 11.9459 7.87544 13.0463C7.67195 11.8004 5.67422 12.3828 5.69721 13.4131L5.68502 13.9053C5.61264 14.3511 5.91738 14.9871 5.5002 14.6193C3.80083 13.6124 1.64163 15.3778 1.7978 17.2271C0.119803 17.5546 0.593019 20.0593 2.28033 19.4691L2.69457 19.2863C3.00579 19.5555 3.79053 20.29 4.09583 19.6999C4.11392 19.6549 4.12306 19.6068 4.12271 19.5583C4.12237 19.5098 4.11255 19.4618 4.09383 19.417C4.07509 19.3723 4.04782 19.3318 4.01356 19.2977C3.9793 19.2636 3.93872 19.2367 3.89415 19.2184C2.19722 18.5551 2.04698 15.9269 3.75689 15.224C4.89498 14.7208 5.75287 15.522 6.19961 16.6316C6.48203 17.252 6.78132 18.92 5.13105 19.3088C3.93156 20.6901 7.13218 19.8483 7.13423 18.1307C8.33289 20.1666 10.6478 18.9539 9.68508 17.5846C10.9742 17.9017 12.5614 17.0288 12.7072 15.6629C13.3609 16.8029 15.1452 17.388 15.5117 15.7383C15.4936 15.0256 14.6397 14.6683 14.367 14.0628C14.5305 13.8182 20.5501 12.0797 19.9591 11.4519ZM1.48354 18.5935C1.33484 18.2675 1.65627 18.0628 1.92241 17.9787C1.99306 18.2268 2.09598 18.4644 2.22848 18.6853C1.98817 18.8262 1.61952 18.92 1.48354 18.5935ZM9.04042 18.3878C7.55964 19.3093 5.07036 12.7132 7.15297 13.1463C7.11299 14.0823 7.27574 15.0159 7.62988 15.8819C7.98401 16.7479 8.521 17.5256 9.20342 18.1608C9.1925 18.2076 9.17242 18.2518 9.14442 18.2908C9.1165 18.3297 9.08108 18.3627 9.04042 18.3878ZM11.053 16.7296C8.14578 18.0025 6.82024 12.8231 10.0133 12.6068C11.6891 12.7445 12.9973 15.7593 11.053 16.7296ZM14.7802 15.6983C14.753 15.9668 14.1882 16.1484 14.0683 16.0092C13.3967 15.4656 12.8596 14.7717 12.4996 13.9823C12.1396 13.193 11.9666 12.33 11.9942 11.4615L12.0063 10.969C11.9811 10.8028 12.5231 10.4523 12.7297 10.6848C12.6918 11.6204 12.8555 12.5533 13.2095 13.4188C13.5635 14.2844 14.0994 15.0621 14.7802 15.6983Z" fill="#8716D9"/>
<path d="M9.74458 13.227C9.41466 13.1254 8.09481 14.8482 9.14158 15.2503C9.1915 15.2503 9.24091 15.24 9.28675 15.22C9.33266 15.2 9.37391 15.1707 9.40816 15.1341C9.44241 15.0973 9.46891 15.054 9.486 15.0066C9.50308 14.9592 9.51033 14.9089 9.5075 14.8586C9.47241 14.6724 9.49975 14.4798 9.58525 14.3111C9.67075 14.1424 9.8095 14.0072 9.9795 13.927C10.0696 13.8941 10.1433 13.8268 10.1848 13.7396C10.2263 13.6526 10.2324 13.5524 10.2017 13.4608C10.1709 13.3692 10.1058 13.2935 10.0204 13.2497C9.93491 13.2061 9.83591 13.1979 9.74458 13.227Z" fill="#8716D9"/>
<path d="M4.08868 15.6926C3.75876 15.591 2.43893 17.3138 3.48571 17.716C3.53565 17.7159 3.58506 17.7056 3.6309 17.6856C3.67674 17.6656 3.71806 17.6363 3.75231 17.5996C3.78656 17.563 3.81304 17.5196 3.83011 17.4722C3.84718 17.4248 3.85449 17.3745 3.85159 17.3241C3.81649 17.1381 3.84385 16.9454 3.92933 16.7767C4.01482 16.6081 4.15356 16.473 4.32362 16.3927C4.41381 16.3599 4.48764 16.2926 4.52925 16.2055C4.57086 16.1183 4.57694 16.0181 4.54619 15.9264C4.51543 15.8347 4.45029 15.7589 4.36475 15.7152C4.27921 15.6715 4.18009 15.6633 4.08868 15.6926Z" fill="#8716D9"/>
<path d="M6.7866 8.008C6.82024 8.0987 6.88782 8.17244 6.97479 8.21337C7.06176 8.25428 7.16117 8.25911 7.25162 8.22679C7.34208 8.19448 7.41636 8.12762 7.45846 8.04059C7.50057 7.95357 7.50714 7.85333 7.47676 7.76147C7.39211 7.59238 7.3656 7.39967 7.40141 7.2137C7.43721 7.02773 7.53329 6.85907 7.67453 6.73428C7.75319 6.67826 7.80687 6.59324 7.82392 6.49761C7.84099 6.40198 7.82008 6.3034 7.76572 6.2232C7.2232 5.58611 6.35197 7.00966 6.7866 8.008Z" fill="white"/>
<path d="M2.37491 12.2059C2.43337 12.2055 2.4909 12.1911 2.54272 12.1637C2.59455 12.1364 2.63917 12.097 2.67291 12.0488C2.70664 12.0006 2.72851 11.945 2.73669 11.8866C2.74488 11.8281 2.73916 11.7686 2.71999 11.7129C2.63527 11.5438 2.60872 11.3511 2.64452 11.1651C2.68033 10.9791 2.77646 10.8104 2.91775 10.6856C2.99472 10.6286 3.04658 10.5435 3.06226 10.4484C3.07794 10.3533 3.0562 10.2558 3.00168 10.1766C2.94717 10.0975 2.86417 10.043 2.77041 10.0246C2.67663 10.0064 2.5795 10.0258 2.49969 10.0787C2.17551 10.1215 1.39544 11.8452 2.37491 12.2059Z" fill="#8716D9"/>
<path d="M1.09038 14.473C1.50067 14.5016 1.85838 14.1756 2.14777 13.9217C3.80267 14.9406 6.39316 13.6172 6.09092 11.5652C7.70057 13.1232 9.724 11.5126 8.40558 10.336C9.71042 10.2711 11.0139 8.99058 10.7716 7.63798C11.7047 8.546 13.5887 8.6205 13.4878 6.92647C13.2754 6.24715 12.3573 6.14272 11.9293 5.63802L14.6167 3.5628C14.6921 3.50263 14.741 3.41498 14.7529 3.31874C14.7648 3.2225 14.7388 3.12539 14.6804 3.04834C14.622 2.9713 14.536 2.92049 14.4408 2.90688C14.3458 2.89328 14.2491 2.91795 14.1718 2.9756L11.3991 5.11691C11.3208 5.02882 11.2428 4.94078 11.1706 4.84766L15.0941 0.91105L15.7764 1.73866L15.3326 2.08118C15.2585 2.14178 15.2107 2.22916 15.1993 2.32477C15.1881 2.42038 15.2142 2.51666 15.2721 2.59314C15.3301 2.66963 15.4153 2.72028 15.5097 2.73433C15.604 2.74838 15.7001 2.72473 15.7775 2.66838C15.9991 2.42638 16.9727 2.01193 16.5835 1.56179C16.2741 1.37361 15.3633 -0.444888 14.8613 0.102213L10.7561 4.22154C10.269 3.63567 10.3813 2.57296 9.71017 2.15148C8.9415 1.77568 7.86663 2.74494 8.10121 3.51212L8.2249 3.98888C8.58442 5.17524 8.60917 4.64293 7.61622 4.66684C7.52018 4.67304 7.43043 4.71714 7.36636 4.78961C7.30229 4.86208 7.26907 4.95709 7.27387 5.0541C7.27867 5.1511 7.32111 5.2423 7.39202 5.30796C7.46293 5.37363 7.55659 5.40847 7.65276 5.40497C8.85033 5.25717 11.1364 7.72185 9.47725 9.12725C7.43958 10.7769 4.79887 7.84887 6.57674 5.94597C6.61056 5.91147 6.63731 5.87058 6.65547 5.82564C6.67362 5.78071 6.68283 5.7326 6.68257 5.68407C6.6823 5.63554 6.67256 5.58753 6.65391 5.54281C6.63525 5.49807 6.60805 5.45749 6.57385 5.42337C6.03745 4.9798 5.561 6.10261 5.41328 6.48147C4.85864 5.34001 3.13164 6.43228 3.41947 7.43846C3.52059 7.88086 3.65471 8.31491 3.82067 8.73692C1.83592 7.97158 0.0254541 10.3342 0.719646 12.1951C-0.358244 12.7357 -0.217733 14.4462 1.09038 14.473ZM9.1375 2.86513C9.18017 2.837 9.22942 2.82073 9.28025 2.81798C9.33108 2.81522 9.38183 2.82607 9.42717 2.84942C9.64542 3.75992 10.058 4.61134 10.636 5.34422C11.2141 6.0771 11.9438 6.67376 12.774 7.09251C12.0431 9.10733 7.69498 3.75897 9.1375 2.86513ZM4.45613 6.79167C4.49854 6.76337 4.54762 6.74693 4.59838 6.74402C4.64914 6.74111 4.69976 6.75183 4.74507 6.77508C4.96363 7.6856 5.37635 8.53708 5.95444 9.27C6.53253 10.003 7.26208 10.5999 8.09223 11.0191C7.35993 13.0328 3.01198 7.68666 4.45613 6.79167ZM2.05197 9.72208C3.56684 8.31769 6.62162 11.2374 4.79462 13.053C2.6483 14.7721 -0.0150069 11.5365 2.05197 9.72208ZM0.70667 13.3122C0.708714 13.1237 0.920183 12.9913 1.0456 12.8825C1.18158 13.1012 1.34572 13.3007 1.53371 13.4757C1.29131 13.8166 0.689974 13.8254 0.70667 13.3122Z" fill="#8716D9"/>
</g>
<defs>
<clipPath id="clip0_138_72">
<rect width="20" height="20" fill="white"/>
</clipPath>
</defs>
</svg>
