<svg width="16" height="16" viewBox="0 0 16 16" fill="none" xmlns="http://www.w3.org/2000/svg">
<g clip-path="url(#clip0_138_67)">
<path d="M4.54713 8.88492C4.51517 8.85599 4.47591 8.83212 4.43161 8.81459C4.3873 8.79712 4.33883 8.78632 4.28897 8.78292C4.2391 8.77952 4.18882 8.78345 4.14102 8.79465C4.09321 8.80585 4.04882 8.82399 4.01039 8.84805C3.3532 9.29292 5.42375 10.1667 5.93229 10.1932C6.02262 10.192 6.10945 10.1668 6.17737 10.1221C6.24529 10.0775 6.28994 10.0162 6.30338 9.94925C6.31683 9.88225 6.29821 9.81385 6.25083 9.75619C6.20345 9.69852 6.13035 9.65525 6.04452 9.63412C5.45893 9.49879 4.93861 9.23839 4.54713 8.88492Z" fill="#8716D9"/>
<path d="M9.28592 4.93274C8.71301 4.93324 8.16376 5.10412 7.75866 5.40789C7.35355 5.71165 7.12566 6.12351 7.125 6.5531C7.125 6.6289 7.16516 6.70163 7.23664 6.75523C7.30811 6.80883 7.40506 6.83889 7.50615 6.83889C7.60724 6.83889 7.70418 6.80883 7.77566 6.75523C7.84714 6.70163 7.8873 6.6289 7.8873 6.5531C7.8877 6.27505 8.03519 6.00847 8.29739 5.81186C8.55959 5.61525 8.91512 5.50466 9.28592 5.50435C9.38608 5.50327 9.4816 5.47267 9.55184 5.41919C9.62216 5.36571 9.6616 5.29364 9.6616 5.21855C9.6616 5.14345 9.62216 5.07138 9.55184 5.0179C9.4816 4.96442 9.38608 4.93383 9.28592 4.93274Z" fill="#8716D9"/>
<path d="M6.24668 3.60961C6.24698 3.40235 6.35693 3.20363 6.55238 3.05707C6.74784 2.91051 7.01285 2.82807 7.28926 2.82783C7.39034 2.82783 7.48729 2.79773 7.55877 2.74413C7.63025 2.69053 7.67041 2.61783 7.67041 2.54203C7.67041 2.46623 7.63025 2.39353 7.55877 2.33993C7.48729 2.28633 7.39034 2.25623 7.28926 2.25623C6.81073 2.25661 6.35194 2.39932 6.01357 2.65305C5.67521 2.90677 5.48489 3.25079 5.48438 3.60961C5.48438 3.68542 5.52453 3.75811 5.59601 3.81171C5.66749 3.86531 5.76444 3.89542 5.86553 3.89542C5.96661 3.89542 6.06356 3.86531 6.13504 3.81171C6.20652 3.75811 6.24668 3.68542 6.24668 3.60961Z" fill="#8716D9"/>
<path d="M15.2 1.11185C15.2112 -0.0137683 12.9609 -0.467719 12.3518 0.624426L10.6866 3.69925C10.6619 3.69255 10.6364 3.6873 10.6115 3.68097C10.623 3.34819 10.5459 3.01703 10.3845 2.70689C10.2232 2.39675 9.98101 2.11387 9.67205 1.87482C9.36309 1.63578 8.99357 1.44537 8.58522 1.31477C8.17686 1.18417 7.73786 1.11599 7.29391 1.11422C6.77678 1.06565 4.68562 1.49369 5.18378 2.04545C5.24627 2.10503 5.33778 2.14356 5.43815 2.15257C5.53853 2.16157 5.63957 2.14032 5.71905 2.09347C7.28442 1.12257 9.83805 2.00539 9.84693 3.53829C9.24621 3.47266 8.6334 3.51003 8.05467 3.64758C7.47594 3.78513 6.94634 4.01929 6.5057 4.33245C5.97895 4.17407 5.40676 4.11984 4.84403 4.17499C4.66966 3.75125 4.69467 3.29547 4.91486 2.8839C4.93349 2.84907 4.94277 2.81182 4.94218 2.77429C4.9416 2.73676 4.93115 2.69969 4.91145 2.66519C4.89174 2.63069 4.86317 2.59944 4.82735 2.57323C4.79154 2.54701 4.74918 2.52635 4.7027 2.51241C3.84949 2.30709 3.8979 3.95835 4.10455 4.31039C3.66236 4.43347 3.26037 4.626 2.92552 4.87509C2.59067 5.12418 2.3307 5.42407 2.16304 5.75465C0.858262 6.12236 0.321126 6.77073 1.31068 7.38627L1.74413 8.51073C2.00525 9.19287 2.50077 9.81167 3.18109 10.3051C3.86142 10.7985 4.70266 11.1492 5.62059 11.3221V11.6205C5.62074 11.8157 5.70142 12.0061 5.85156 12.1655C6.0017 12.3249 6.21396 12.4456 6.4592 12.5109V13.5653C2.90115 14.1201 4.24906 16.0506 7.64474 15.999C9.51621 15.999 10.9275 15.458 10.9275 14.7404C10.9275 14.1886 10.1146 13.7407 8.82989 13.5645V12.5121C9.07477 12.446 9.28669 12.325 9.43669 12.1655C9.58677 12.006 9.66765 11.8157 9.66845 11.6205V11.3219C10.8614 11.095 11.916 10.5707 12.6594 9.8352C12.7182 9.77467 12.7429 9.69927 12.7283 9.62513C12.7137 9.55107 12.6609 9.48427 12.5812 9.43907C12.5016 9.39387 12.4015 9.37387 12.3024 9.38347C12.2034 9.39307 12.1133 9.4314 12.0516 9.49027C11.6152 9.92267 11.0511 10.2733 10.4035 10.5145C9.75581 10.7557 9.04229 10.8809 8.31918 10.8802C7.88835 10.8602 6.76095 10.9093 6.35277 10.8529C5.45294 10.7623 4.60756 10.4777 3.91938 10.0337C3.23122 9.5896 2.72987 9.0052 2.47628 8.35147L2.24762 7.75847C3.85876 8.20427 6.02477 8.3292 7.91366 8.32033C9.94213 8.28747 11.5088 8.16453 13.0413 7.76013C12.979 7.91447 12.7984 8.411 12.724 8.55413C12.6895 8.62453 12.6932 8.7024 12.7346 8.77073C12.7759 8.83913 12.8514 8.89253 12.9448 8.91947C13.0383 8.94647 13.1421 8.94473 13.2339 8.91473C13.3256 8.8848 13.398 8.82893 13.4353 8.75927C13.5227 8.59927 13.9001 7.58007 13.976 7.39487C14.9793 6.7602 14.4328 6.15737 13.2176 5.78137C13.0849 5.39907 12.8516 5.04054 12.5312 4.72688L15.0152 1.61691C15.136 1.46398 15.1997 1.28957 15.2 1.11185ZM1.8601 6.98527C1.4172 6.73867 1.49285 6.69313 1.96001 6.45501C1.92969 6.65104 1.9386 6.8494 1.98646 7.0434C1.94285 7.02593 1.90066 7.00647 1.8601 6.98527ZM10.1652 14.7404C10.1652 15.0205 9.18333 15.4274 7.64473 15.4274C6.12943 15.4274 5.12407 15.0139 5.12407 14.7404C5.12407 14.573 5.55135 14.294 6.45919 14.1475C6.46597 14.3145 6.40032 14.5914 6.64794 14.6812C6.94641 14.8317 7.29842 14.9113 7.65808 14.9095C8.01774 14.9077 8.36835 14.8248 8.66422 14.6715C8.88981 14.5766 8.82021 14.3049 8.82989 14.1475C9.70285 14.2892 10.1652 14.5655 10.1652 14.7404ZM7.22152 14.2683V12.5721H8.06757V14.2695C7.93448 14.3143 7.79022 14.3373 7.64437 14.3371C7.4985 14.3369 7.35438 14.3134 7.22152 14.2683ZM6.38291 11.4289C6.77161 11.4667 7.90805 11.4477 8.31919 11.4518C8.51525 11.4517 8.71116 11.4441 8.90621 11.4289V11.6205C8.90709 11.7153 8.86069 11.8069 8.77599 11.8773C8.6913 11.9476 8.57454 11.9916 8.44872 12.0005H6.89341C6.7589 11.9999 6.63006 11.9598 6.53459 11.8887C6.43913 11.8177 6.38466 11.7214 6.38291 11.6205V11.4289ZM13.3528 6.55334C13.3529 6.52239 13.3478 6.49191 13.3466 6.46105C13.6314 6.58749 13.7253 6.69287 13.7253 6.74327C13.7441 6.78713 13.5834 6.9176 13.3979 7.0056C13.1925 7.14953 13.4013 6.66475 13.3528 6.55334ZM5.8725 4.90531C5.74273 5.05733 5.63182 5.21797 5.5412 5.38519C5.50598 5.35667 5.46332 5.33391 5.41587 5.31829C5.36842 5.30267 5.31718 5.29455 5.26536 5.29443C4.78683 5.29481 4.32805 5.43752 3.98968 5.69125C3.6513 5.94497 3.46098 6.28899 3.46048 6.64781C3.46048 6.7236 3.50063 6.79633 3.57211 6.84993C3.64359 6.90353 3.74054 6.9336 3.84163 6.9336C3.94271 6.9336 4.03966 6.90353 4.11114 6.84993C4.18262 6.79633 4.22278 6.7236 4.22278 6.64781C4.22309 6.44055 4.33303 6.24183 4.52849 6.09527C4.72394 5.94871 4.98894 5.86627 5.26536 5.86603C5.29073 5.86423 5.31578 5.86044 5.34008 5.85471C5.13617 6.46015 5.19874 7.0988 5.51847 7.6754C4.61882 7.62467 3.72886 7.5026 2.86349 7.31133C2.73963 7.05573 2.68922 6.7834 2.71557 6.51218C2.74191 6.24096 2.84441 5.97699 3.01634 5.73755C3.18827 5.49812 3.42575 5.28865 3.71321 5.12286C4.00067 4.95707 4.33162 4.83872 4.68435 4.77556C4.91679 4.72081 6.18821 4.65972 5.8725 4.90531ZM12.4241 7.31293C10.8354 7.68893 8.38711 7.81353 6.38682 7.71993C6.05806 7.2656 5.92836 6.74513 6.01612 6.23243C6.10387 5.71971 6.40463 5.24072 6.87575 4.86335C9.28573 2.95007 13.4889 4.81201 12.4241 7.31293ZM14.3601 1.32466L11.9966 4.28388C11.8045 4.15671 11.5967 4.04355 11.376 3.94591L13.058 0.83972C13.0888 0.784313 13.1347 0.734333 13.1926 0.692953C13.2506 0.651577 13.3194 0.619717 13.3948 0.599406C13.9447 0.423332 14.6883 0.909033 14.3601 1.32466Z" fill="#8716D9"/>
</g>
<defs>
<clipPath id="clip0_138_67">
<rect width="16" height="16" fill="white"/>
</clipPath>
</defs>
</svg>
