<svg width="16" height="16" viewBox="0 0 16 16" fill="none" xmlns="http://www.w3.org/2000/svg">
<g clip-path="url(#clip0_138_92)">
<path d="M15.9673 9.16154C15.7715 8.94828 15.4717 7.34081 14.9659 7.65154L12.5551 8.98501C12.4892 9.02381 12.4409 9.08708 12.4205 9.16134C12.4001 9.23561 12.4092 9.31494 12.4459 9.38254C12.4826 9.45008 12.5439 9.50054 12.6169 9.52314C12.6899 9.54574 12.7687 9.53874 12.8367 9.50354L14.9665 8.32561L15.3081 9.11594L11.2007 10.731C11.16 10.6456 11.1194 10.5603 11.0843 10.4724L11.8079 10.0745C11.8749 10.0363 11.9243 9.97314 11.9455 9.89848C11.9666 9.82381 11.9579 9.74381 11.9211 9.67561C11.8842 9.60748 11.8223 9.55661 11.7487 9.53414C11.6751 9.51168 11.5956 9.51928 11.5275 9.55541L10.9036 9.89848C10.7961 9.46181 10.7511 9.01194 10.7697 8.56241C10.4471 7.17888 8.5492 7.99061 9.04253 9.84828C8.20473 9.17088 6.87393 9.55674 6.30035 10.4371C6.13756 9.44034 4.53937 9.90628 4.55777 10.7305L4.54801 11.1243C4.49011 11.4809 4.7339 11.9897 4.40016 11.6954C3.04066 10.8899 1.3133 12.3022 1.43824 13.7817C0.0958423 14.0437 0.474415 16.0475 1.82426 15.5753L2.15565 15.429C2.40463 15.6444 3.03242 16.232 3.27666 15.7599C3.29113 15.7239 3.29845 15.6855 3.29817 15.6466C3.29789 15.6078 3.29004 15.5694 3.27506 15.5336C3.26007 15.4978 3.23825 15.4654 3.21085 15.4381C3.18344 15.4109 3.15097 15.3893 3.11532 15.3747C1.75777 14.8441 1.63758 12.7415 3.00551 12.1792C3.91599 11.7766 4.60229 12.4176 4.95969 13.3053C5.18563 13.8016 5.42505 15.136 4.10484 15.4471C3.14525 16.5521 5.70574 15.8787 5.70739 14.5045C6.66631 16.1333 8.51827 15.1631 7.74807 14.0677C8.77933 14.3213 10.0491 13.623 10.1657 12.5303C10.6887 13.4423 12.1162 13.9104 12.4093 12.5907C12.3949 12.0205 11.7117 11.7347 11.4936 11.2503C11.6244 11.0545 16.4401 9.66374 15.9673 9.16154ZM1.18683 14.8748C1.06787 14.614 1.32501 14.4503 1.53793 14.3829C1.59445 14.5815 1.67678 14.7715 1.78278 14.9483C1.59053 15.0609 1.29561 15.136 1.18683 14.8748ZM7.23233 14.7102C6.04771 15.4475 4.05629 10.1705 5.72237 10.5171C5.69039 11.2659 5.82059 12.0127 6.1039 12.7055C6.38721 13.3983 6.8168 14.0205 7.36273 14.5286C7.354 14.5661 7.33793 14.6014 7.31553 14.6326C7.2932 14.6637 7.26487 14.6901 7.23233 14.7102ZM8.8424 13.3837C6.51663 14.402 5.45619 10.2585 8.01067 10.0855C9.35127 10.1956 10.3979 12.6074 8.8424 13.3837ZM11.8242 12.5586C11.8024 12.7735 11.3505 12.9187 11.2547 12.8073C10.7173 12.3725 10.2877 11.8173 9.99967 11.1859C9.71167 10.5544 9.57327 9.86401 9.59533 9.16921L9.60507 8.77521C9.58487 8.64221 10.0185 8.36181 10.1838 8.54781C10.1535 9.29634 10.2844 10.0426 10.5676 10.7351C10.8508 11.4275 11.2795 12.0497 11.8242 12.5586Z" fill="#FF9F40"/>
<path d="M7.79566 10.5816C7.53173 10.5003 6.47585 11.8786 7.31326 12.2002C7.3532 12.2002 7.39273 12.192 7.4294 12.176C7.46613 12.16 7.49913 12.1366 7.52653 12.1072C7.55393 12.0778 7.57513 12.0432 7.5888 12.0053C7.60246 11.9674 7.60826 11.9271 7.606 11.8868C7.57793 11.7379 7.5998 11.5838 7.6682 11.4488C7.7366 11.3139 7.8476 11.2058 7.9836 11.1416C8.05566 11.1152 8.11466 11.0614 8.14786 10.9917C8.18106 10.922 8.18593 10.8419 8.16133 10.7686C8.13673 10.6954 8.08466 10.6348 8.01633 10.5998C7.94793 10.5648 7.86873 10.5583 7.79566 10.5816Z" fill="#FF9F40"/>
<path d="M3.27087 12.554C3.00693 12.4727 1.95107 13.851 2.78849 14.1727C2.82844 14.1726 2.86797 14.1644 2.90464 14.1484C2.94132 14.1324 2.97437 14.109 3.00178 14.0796C3.02918 14.0503 3.05036 14.0156 3.06402 13.9777C3.07767 13.9398 3.08352 13.8995 3.0812 13.8592C3.05312 13.7104 3.075 13.5562 3.14339 13.4213C3.21178 13.2864 3.32277 13.1783 3.45882 13.1141C3.53098 13.0878 3.59004 13.034 3.62332 12.9643C3.65662 12.8946 3.66148 12.8144 3.63688 12.741C3.61227 12.6677 3.56016 12.607 3.49172 12.5721C3.42329 12.5371 3.344 12.5306 3.27087 12.554Z" fill="#FF9F40"/>
<path d="M5.42935 6.40633C5.45627 6.47889 5.51033 6.53788 5.57991 6.57062C5.64948 6.60335 5.72901 6.60721 5.80137 6.58136C5.87374 6.55551 5.93316 6.50202 5.96684 6.4324C6.00053 6.36278 6.00579 6.28259 5.98148 6.2091C5.91376 6.07383 5.89255 5.91966 5.9212 5.77089C5.94984 5.62211 6.02671 5.48718 6.13969 5.38735C6.20263 5.34253 6.24557 5.27452 6.25921 5.19801C6.27287 5.12151 6.25614 5.04265 6.21265 4.97849C5.77863 4.46881 5.08165 5.60765 5.42935 6.40633Z" fill="#FF9F40"/>
<path d="M1.89985 9.76464C1.94663 9.7643 1.99265 9.75277 2.03411 9.7309C2.07557 9.70904 2.11127 9.6775 2.13825 9.63897C2.16524 9.60044 2.18273 9.5559 2.18928 9.50917C2.19583 9.46244 2.19125 9.41477 2.17592 9.37024C2.10814 9.23497 2.0869 9.08077 2.11555 8.93197C2.14419 8.78317 2.22109 8.64824 2.33413 8.54844C2.39571 8.50277 2.43719 8.4347 2.44973 8.35864C2.46228 8.28257 2.44489 8.20457 2.40127 8.14124C2.35766 8.0779 2.29127 8.0343 2.21625 8.01964C2.14123 8.00504 2.06353 8.02057 1.99968 8.0629C1.74033 8.0971 1.11628 9.4761 1.89985 9.76464Z" fill="#FF9F40"/>
<path d="M0.872306 11.5784C1.20053 11.6013 1.48671 11.3405 1.71822 11.1373C3.04214 11.9525 5.11453 10.8937 4.87273 9.2522C6.16045 10.4986 7.7792 9.21007 6.72447 8.2688C7.76833 8.21687 8.81113 7.19247 8.61727 6.11039C9.36373 6.8368 10.8709 6.8964 10.7903 5.54117C10.6203 4.99772 9.8858 4.91418 9.5434 4.51042L11.6933 2.85024C11.7537 2.80211 11.7928 2.73198 11.8023 2.65499C11.8119 2.578 11.791 2.50031 11.7443 2.43867C11.6976 2.37704 11.6288 2.33639 11.5527 2.32551C11.4766 2.31462 11.3993 2.33436 11.3375 2.38048L9.11927 4.09353C9.05667 4.02306 8.99427 3.95262 8.93647 3.87813L12.0753 0.72884L12.6211 1.39093L12.2661 1.66495C12.2068 1.71342 12.1685 1.78333 12.1595 1.85981C12.1505 1.9363 12.1713 2.01333 12.2177 2.07451C12.2641 2.13571 12.3322 2.17623 12.4077 2.18747C12.4832 2.19871 12.5601 2.17978 12.622 2.13471C12.7993 1.94111 13.5781 1.60955 13.2668 1.24943C13.0193 1.09889 12.2907 -0.355911 11.889 0.0817701L8.60487 3.37723C8.2152 2.90853 8.305 2.05837 7.76813 1.72119C7.1532 1.42055 6.29331 2.19595 6.48097 2.80969L6.57992 3.1911C6.86753 4.14019 6.88733 3.71434 6.09297 3.73347C6.01615 3.73843 5.94434 3.77371 5.89309 3.83169C5.84183 3.88967 5.81525 3.96567 5.81909 4.04328C5.82293 4.12088 5.85689 4.19384 5.91361 4.24637C5.97034 4.2989 6.04527 4.32678 6.12221 4.32398C7.08027 4.20574 8.90913 6.17748 7.5818 7.3018C5.95166 8.62153 3.8391 6.2791 5.26139 4.75677C5.28845 4.72917 5.30985 4.69647 5.32437 4.66051C5.3389 4.62457 5.34627 4.58608 5.34605 4.54725C5.34584 4.50843 5.33805 4.47003 5.32313 4.43425C5.3082 4.39846 5.28644 4.36599 5.25908 4.3387C4.82996 3.98384 4.4488 4.88209 4.33062 5.18517C3.88691 4.27201 2.50531 5.14582 2.73558 5.95077C2.81647 6.30469 2.92377 6.65193 3.05653 6.98953C1.46873 6.37727 0.0203633 8.2674 0.575716 9.75607C-0.286596 10.1886 -0.174186 11.5569 0.872306 11.5784ZM7.31 2.2921C7.34413 2.2696 7.38353 2.25659 7.4242 2.25438C7.46487 2.25217 7.50547 2.26085 7.54173 2.27953C7.71633 3.00793 8.0464 3.68907 8.5088 4.27537C8.97127 4.86168 9.555 5.33901 10.2192 5.67401C9.63447 7.28587 6.15598 3.00717 7.31 2.2921ZM3.56491 5.43334C3.59883 5.4107 3.6381 5.39755 3.67871 5.39522C3.71931 5.39289 3.75981 5.40146 3.79606 5.42007C3.97091 6.14848 4.30108 6.82967 4.76355 7.416C5.22603 8.0024 5.80967 8.47993 6.47378 8.81527C5.88794 10.4263 2.40959 6.14933 3.56491 5.43334ZM1.64157 7.77767C2.85347 6.65415 5.2973 8.98993 3.8357 10.4424C2.11864 11.8177 -0.0120055 9.2292 1.64157 7.77767ZM0.565336 10.6498C0.566971 10.4989 0.736146 10.3931 0.83648 10.306C0.945266 10.4809 1.07657 10.6405 1.22697 10.7806C1.03305 11.0533 0.551979 11.0603 0.565336 10.6498Z" fill="#FF9F40"/>
</g>
<defs>
<clipPath id="clip0_138_92">
<rect width="16" height="16" fill="white"/>
</clipPath>
</defs>
</svg>
