<svg width="12" height="10" viewBox="0 0 30 25" fill="#8716D9" xmlns="http://www.w3.org/2000/svg">
<path d="M12.7604 22.0654L5.0104 23.3531C4.67534 23.4113 4.47139 23.5787 4.5151 23.7533C4.57337 23.9279 4.87929 24.0589 5.22891 24.0589H25.6236C25.9878 24.0589 26.2791 23.9279 26.3374 23.7533C26.3957 23.5787 26.1917 23.4041 25.8421 23.3531L18.0921 22.0654C17.8008 22.0144 17.5968 21.8762 17.5968 21.7234V15.9758C20.7871 15.7357 23.7152 14.9936 25.9732 13.8004C28.7556 12.338 30.1687 10.4318 29.9647 8.38737L27.8233 0.369733C27.765 0.187844 27.4591 0.0568848 27.0949 0.0568848H3.78672C3.42252 0.0568848 3.11661 0.187844 3.05833 0.369733L1.28108 6.90316V6.91044L0.873192 8.41647C0.669245 10.4318 2.09687 12.338 4.87929 13.8004C7.15183 14.9936 10.0654 15.7357 13.2557 15.9758V21.7234C13.2557 21.8762 13.0517 22.0217 12.7604 22.0654ZM4.42769 0.784438H26.4685L28.0418 6.54666C22.7101 7.11415 18.3398 7.13598 15.7322 6.59759C12.367 5.90641 7.06443 6.15378 2.86896 6.53211L4.42769 0.784438Z" fill="#8716D9"/>
</svg>
