<svg width="16" height="16" viewBox="0 0 16 16" fill="none" xmlns="http://www.w3.org/2000/svg">
<path d="M11.8014 5.80364C11.5568 5.80364 11.3585 5.63563 11.3585 5.42892C11.3585 5.22172 11.5568 5.05371 11.8014 5.05371H13.3249C14.0609 5.05371 14.7298 5.30842 15.2143 5.71939C15.6988 6.12987 16 6.6966 16 7.32016V10.9782V13.734C16 14.3576 15.6994 14.9243 15.2143 15.3348C14.7298 15.7453 14.0609 16 13.3249 16H2.67457C1.93857 16 1.26964 15.7453 0.785141 15.3348C0.300643 14.9243 0 14.3576 0 13.734V10.9782V7.32016C0 6.6966 0.300643 6.12987 0.785141 5.71939C1.26964 5.30891 1.93857 5.05371 2.67457 5.05371H4.19802C4.44258 5.05371 4.64089 5.22172 4.64089 5.42892C4.64089 5.63612 4.44258 5.80364 4.19802 5.80364H2.67457C2.18313 5.80364 1.73564 5.97459 1.41129 6.24939C1.08694 6.52418 0.885163 6.90331 0.885163 7.31967V10.6025H3.74301C4.18588 10.6025 4.58712 10.7554 4.87794 11.0017C5.16875 11.2481 5.34914 11.5886 5.34914 11.9633V12.1533C5.34914 12.3214 5.43008 12.4737 5.56074 12.5844C5.69141 12.6951 5.87121 12.7637 6.06952 12.7637H9.92932C10.1276 12.7637 10.3074 12.6951 10.4381 12.5844C10.5688 12.4737 10.6497 12.3209 10.6497 12.1533V11.9633C10.6497 11.5886 10.8301 11.2481 11.1209 11.0017C11.4117 10.7554 11.8135 10.6025 12.2558 10.6025H15.1137V7.31967C15.1137 6.90331 14.9125 6.52418 14.5876 6.24939C14.2632 5.97459 13.8157 5.80364 13.3243 5.80364H11.8008H11.8014ZM6.82749 7.89718C6.82749 8.10438 6.62918 8.27191 6.38462 8.27191C6.14006 8.27191 5.94233 8.10389 5.94233 7.89718V4.07306H4.52931C4.28474 4.07306 4.08701 3.90505 4.08701 3.69785C4.08701 3.59106 4.13963 3.49457 4.22462 3.42599L7.66929 0.125986C7.8306 -0.0283109 8.10927 -0.0430059 8.29197 0.0936575C8.307 0.104924 8.32088 0.11668 8.33302 0.128925L11.7997 3.44999C11.961 3.60429 11.9442 3.84039 11.7615 3.97705C11.6777 4.04024 11.573 4.0711 11.4695 4.0711V4.07257H10.0565V7.89669C10.0565 8.10389 9.85821 8.27142 9.61422 8.27142C9.36966 8.27142 9.17135 8.1034 9.17135 7.89669V3.69736C9.17135 3.49016 9.36966 3.32264 9.61422 3.32264H10.4896L7.99942 0.93715L5.50929 3.32264H6.38462C6.62918 3.32264 6.82749 3.49065 6.82749 3.69736V7.89669V7.89718ZM0.884585 11.353V13.7335C0.884585 14.1499 1.08578 14.529 1.41071 14.8038C1.73506 15.0786 2.18255 15.2496 2.67399 15.2496H13.3243C13.8157 15.2496 14.2632 15.0791 14.5876 14.8038C14.9119 14.529 15.1137 14.1499 15.1137 13.7335V11.353H12.2558C12.0575 11.353 11.8771 11.4215 11.7465 11.5327C11.6158 11.6434 11.5349 11.7958 11.5349 11.9638V12.1538C11.5349 12.5286 11.3545 12.869 11.0637 13.1154C10.7729 13.3618 10.371 13.5146 9.92874 13.5146H6.06895C5.62665 13.5146 5.22483 13.3618 4.93402 13.1154C4.6432 12.869 4.46282 12.5286 4.46282 12.1538V11.9638C4.46282 11.7958 4.38187 11.6434 4.25121 11.5327C4.12055 11.422 3.94016 11.353 3.74185 11.353H0.884007H0.884585Z" fill="black"/>
</svg>
