<svg width="15" height="16" viewBox="0 0 15 16" fill="none" xmlns="http://www.w3.org/2000/svg">
<path d="M4.82025 9.98823C4.83883 10.0559 4.798 10.1256 4.72905 10.1439C4.08038 10.3156 3.41066 10.4027 2.73852 10.4027C2.06637 10.4027 1.39666 10.3156 0.747985 10.1439C0.679028 10.1256 0.638197 10.0559 0.656786 9.98823C0.675407 9.92048 0.746595 9.88052 0.815293 9.89868C1.44205 10.0646 2.0891 10.1487 2.73852 10.1487C3.38793 10.1487 4.03502 10.0646 4.66174 9.89868C4.7306 9.88048 4.80162 9.92048 4.82025 9.98823ZM14.4904 9.48683C15.0634 10.0955 15.1657 11.0035 14.7337 11.721L12.4226 15.5591C12.2607 15.828 11.9637 15.9898 11.6524 15.9898C11.6018 15.9898 11.5508 15.9855 11.4999 15.9767C11.2297 15.93 10.9652 15.8524 10.7139 15.7462C10.4659 15.6413 10.2298 15.5081 10.0123 15.3503C9.7109 15.1316 9.57946 14.7499 9.68533 14.4005L10.4428 11.9003C10.4157 11.892 10.3886 11.8836 10.3609 11.875C10.2084 11.8279 10.0496 11.7787 9.89101 11.7262C9.81342 12.269 9.64033 12.7852 9.37495 13.2624C8.83693 14.23 8.05688 14.7924 7.49724 15.0939C7.47784 15.1043 7.45644 15.1096 7.43504 15.1096C7.41364 15.1096 7.39224 15.1043 7.37284 15.0939C6.81317 14.7924 6.03315 14.23 5.4951 13.2624C5.22972 12.7852 5.05666 12.269 4.97908 11.7262C4.82047 11.7787 4.66161 11.8279 4.50912 11.875C4.19243 11.9728 3.89332 12.0653 3.75897 12.1469C3.74332 12.1565 3.72799 12.1662 3.7127 12.1761L3.58387 12.3017C3.45867 12.4239 3.38968 12.5861 3.38968 12.7587V14.0077C3.38968 14.2907 3.57689 14.5387 3.8555 14.6248C4.31227 14.766 4.56378 14.9834 4.56378 15.237C4.56378 15.7326 3.62335 16 2.73852 16C1.85368 16 0.913248 15.7326 0.913248 15.237C0.913248 14.9834 1.1648 14.766 1.62153 14.6248C1.90014 14.5386 2.08736 14.2907 2.08736 14.0077V12.7587C2.08736 12.5861 2.01837 12.4239 1.89313 12.3017L0.270622 10.7196C0.0961127 10.5495 0 10.3232 0 10.0824C0 9.74315 0.193066 9.43559 0.50384 9.27975C0.98505 9.03848 1.76148 8.75115 2.73024 8.7495V4.63319C2.73024 3.41481 3.20466 2.26299 4.06609 1.38997C4.93032 0.514129 6.08478 0.0208255 7.31682 0.000952385C7.39518 -0.000317462 7.4748 -0.000317462 7.55317 0.000952385C8.78518 0.0208255 9.93963 0.514129 10.8039 1.38997C11.6653 2.26299 12.1397 3.41478 12.1397 4.63319V8.90531C12.352 8.82534 12.5805 8.78092 12.8167 8.7787L12.885 8.62508C13.0285 8.30229 13.4142 8.1534 13.745 8.29324L14.2182 8.49327C14.3791 8.5613 14.5031 8.68651 14.5672 8.84588C14.6309 9.00439 14.6278 9.17769 14.5584 9.33391L14.4904 9.48683ZM13.0575 8.87194C13.2266 9.01064 13.4149 9.12426 13.6184 9.21026C13.8222 9.29642 14.0364 9.35286 14.2564 9.37839L14.3213 9.23226C14.363 9.13845 14.3649 9.03439 14.3266 8.93918C14.288 8.84315 14.2131 8.76759 14.1159 8.72648L13.6427 8.52645C13.4424 8.44175 13.2087 8.53153 13.122 8.72664L13.0575 8.87194ZM2.98887 4.63319V4.79056C3.12746 4.56208 3.31364 4.42408 3.52122 4.42408C3.56748 4.42408 3.614 4.431 3.65962 4.44415C3.67077 4.02846 3.6989 3.48205 3.76569 2.91258C3.77568 2.82741 3.78651 2.74242 3.79782 2.65998C3.80736 2.59045 3.87276 2.5416 3.94327 2.55112C4.01404 2.56049 4.06369 2.62446 4.05412 2.69395C4.043 2.77474 4.0324 2.85808 4.0226 2.94163C3.98268 3.28224 3.95678 3.61455 3.94013 3.9149C4.60012 2.64131 5.94628 1.80102 7.43498 1.80102C8.92367 1.80102 10.2699 2.64134 10.9298 3.9149C10.9132 3.61455 10.8873 3.2822 10.8473 2.94163C10.8376 2.85811 10.8269 2.77477 10.8158 2.69395C10.8063 2.62446 10.8559 2.56049 10.9267 2.55112C10.9977 2.54157 11.0626 2.59049 11.0721 2.65998C11.0835 2.74242 11.0943 2.82741 11.1043 2.91258C11.1711 3.48205 11.1991 4.02846 11.2103 4.44415C11.2559 4.431 11.3024 4.42408 11.3487 4.42408C11.5563 4.42408 11.7425 4.56208 11.8811 4.79056V4.63319C11.8811 2.25753 9.93769 0.29343 7.5489 0.25489C7.47332 0.253684 7.3966 0.253684 7.32102 0.25489C4.93226 0.29343 2.98887 2.25753 2.98887 4.63319ZM7.89346 12.2948L7.43498 12.0712L6.97649 12.2947L7.2528 12.8201H7.61711L7.89346 12.2948ZM5.65329 11.468L6.18312 12.398L7.20522 11.8997L6.261 11.0813C6.10637 11.231 5.89375 11.3576 5.65329 11.468ZM8.6868 12.398L9.21666 11.468C8.97624 11.3576 8.76361 11.231 8.60892 11.0813L7.66473 11.8997L8.6868 12.398ZM8.34936 10.5301V9.97953C8.06897 10.0072 7.7645 10.021 7.43501 10.021C7.10552 10.021 6.80105 10.0072 6.52066 9.97953V10.5301C6.52066 10.6588 6.48481 10.7753 6.42174 10.8818L7.43504 11.7601L8.44831 10.8818C8.38518 10.7753 8.34936 10.6588 8.34936 10.5301ZM10.2366 9.00067C10.7353 8.46511 10.9585 6.57161 10.9585 4.93269C10.9585 4.85888 10.958 4.77113 10.9565 4.67186C10.5082 3.13033 9.06259 2.05496 7.43498 2.05496C5.80736 2.05496 4.36173 3.13033 3.91346 4.67186C3.91198 4.77113 3.91143 4.85888 3.91143 4.93269C3.91143 6.57161 4.13462 8.46511 4.63329 9.00067C5.10677 9.50918 6.04941 9.76702 7.43494 9.76702C8.82048 9.76702 9.76315 9.50918 10.2366 9.00067ZM3.65283 4.93269C3.65283 4.87018 3.65319 4.79783 3.65422 4.71703C3.61087 4.69199 3.56441 4.67805 3.52122 4.67805C3.27388 4.67805 2.99824 5.14834 2.99824 5.8232C2.99824 6.49806 3.27384 6.96835 3.52122 6.96835C3.61491 6.96835 3.6947 6.90463 3.75211 6.83908C3.66156 5.99574 3.65283 5.20272 3.65283 4.93269ZM2.98887 6.85581V8.75648C3.49575 8.78238 3.94401 8.88327 4.31641 9.00766C4.04404 8.58626 3.88314 7.86698 3.78826 7.14298C3.7043 7.19514 3.61442 7.22225 3.52122 7.22225C3.31364 7.22228 3.12746 7.08428 2.98887 6.85581ZM11.1178 6.83904C11.1752 6.90457 11.255 6.96831 11.3487 6.96831C11.596 6.96831 11.8717 6.49803 11.8717 5.82317C11.8717 5.14831 11.5961 4.67802 11.3487 4.67802C11.3055 4.67802 11.2591 4.69199 11.2157 4.717C11.2167 4.7978 11.2171 4.87018 11.2171 4.93266C11.2172 5.20272 11.2084 5.99574 11.1178 6.83904ZM3.40161 12.1216L5.02411 10.5394C5.14935 10.4173 5.21834 10.255 5.21834 10.0824C5.21834 9.85531 5.0972 9.64788 4.89916 9.52997C4.89706 9.52877 4.89499 9.52753 4.89289 9.52632C4.88067 9.51921 4.86829 9.51239 4.85552 9.50598C4.3982 9.27667 3.65972 9.00334 2.73852 9.00334C1.81731 9.00334 1.0788 9.27667 0.621516 9.50598C0.397673 9.6182 0.258628 9.83906 0.258628 10.0824C0.258628 10.255 0.327617 10.4173 0.452858 10.5394L2.07536 12.1216C2.24987 12.2917 2.34598 12.518 2.34598 12.7588V14.0078C2.34598 14.4022 2.08606 14.7475 1.69919 14.8671C1.37884 14.9662 1.17184 15.1113 1.17184 15.237C1.17184 15.4496 1.76785 15.7461 2.73848 15.7461C3.70911 15.7461 4.30512 15.4496 4.30512 15.237C4.30512 15.1114 4.09816 14.9662 3.77778 14.8671C3.39091 14.7475 3.13098 14.4022 3.13098 14.0078V12.7588C3.13102 12.5181 3.2271 12.2918 3.40161 12.1216ZM6.262 10.5301V9.94902C5.94592 9.90556 5.66389 9.84236 5.41519 9.7589C5.45518 9.86036 5.47697 9.96953 5.47697 10.0824C5.47697 10.3232 5.38085 10.5495 5.20635 10.7197L4.19398 11.7069C4.26972 11.6828 4.34922 11.6583 4.4315 11.6328C5.20399 11.3941 6.262 11.0673 6.262 10.5301ZM6.73241 14.3549L7.03785 12.9649L6.74483 12.4077L6.1879 12.6793C6.16944 12.6882 6.14982 12.6925 6.13049 12.6925C6.08507 12.6925 6.04113 12.669 6.01753 12.6275L5.41477 11.5695C5.35334 11.5939 5.29098 11.6174 5.22794 11.6402C5.29748 12.1713 5.46342 12.6757 5.72205 13.1408C6.01136 13.661 6.37509 14.0574 6.73241 14.3549ZM7.91172 14.5312L7.59151 13.0741H7.27844L6.95826 14.5312C7.12543 14.6535 7.28723 14.7546 7.43498 14.8371C7.58272 14.7546 7.74455 14.6535 7.91172 14.5312ZM9.64204 11.6402C9.579 11.6174 9.51661 11.5938 9.45518 11.5695L8.85239 12.6275C8.82879 12.669 8.78485 12.6925 8.73943 12.6925C8.72007 12.6925 8.70048 12.6883 8.68202 12.6793L8.12509 12.4077L7.83207 12.9649L8.13754 14.3549C8.49487 14.0574 8.85859 13.661 9.14787 13.1408C9.40656 12.6756 9.57251 12.1713 9.64204 11.6402ZM10.5165 11.6569L10.9784 10.1321C11.1243 9.65055 11.4554 9.26032 11.8811 9.0247V6.85584C11.7425 7.08431 11.5563 7.22231 11.3487 7.22231C11.2556 7.22231 11.1657 7.1952 11.0817 7.14304C10.973 7.97241 10.7778 8.79585 10.4275 9.17207C10.0513 9.5761 9.45114 9.83312 8.60798 9.94906V10.5301C8.60798 11.0673 9.666 11.3941 10.4385 11.6328C10.4649 11.6409 10.4907 11.6489 10.5165 11.6569ZM14.393 11.7877C13.7902 11.7843 13.1866 11.6614 12.6339 11.4277C12.0808 11.1939 11.5758 10.8479 11.1608 10.4206L9.93319 14.4729C9.85832 14.7202 9.95185 14.9908 10.166 15.1461C10.3676 15.2923 10.5863 15.4158 10.8162 15.513C11.0491 15.6114 11.2942 15.6833 11.5447 15.7266C11.8029 15.7712 12.0662 15.652 12.1999 15.4298L14.393 11.7877ZM14.2774 9.63553C14.0146 9.61026 13.7587 9.54607 13.5161 9.4435C13.2735 9.34093 13.0505 9.20261 12.8519 9.03286C12.1279 9.02562 11.4811 9.4735 11.2479 10.1383C11.6565 10.5903 12.1695 10.9548 12.7362 11.1944C13.3034 11.4342 13.9275 11.5502 14.5454 11.5318C14.8838 10.9117 14.777 10.1455 14.2774 9.63553ZM12.5245 12.6301L11.8063 12.3265C11.7407 12.2988 11.6646 12.3286 11.6364 12.3929C11.6081 12.4574 11.6384 12.5321 11.704 12.5598L12.4222 12.8634C12.4389 12.8704 12.4562 12.8737 12.4733 12.8737C12.5234 12.8737 12.571 12.845 12.5921 12.7969C12.6204 12.7326 12.59 12.6579 12.5245 12.6301ZM12.265 13.2137L11.5468 12.9101C11.4812 12.8823 11.4051 12.9121 11.3769 12.9765C11.3487 13.0409 11.379 13.1156 11.4446 13.1433L12.1627 13.4469C12.1794 13.454 12.1968 13.4573 12.2138 13.4573C12.2639 13.4573 12.3116 13.4286 12.3326 13.3805C12.3609 13.3161 12.3306 13.2415 12.265 13.2137ZM5.18433 4.7671C5.1928 4.75827 5.39676 4.55081 5.80617 4.55081C6.21561 4.55081 6.4196 4.75827 6.42736 4.76637C6.45287 4.7938 6.48782 4.80773 6.52289 4.80773C6.55402 4.80773 6.58525 4.79675 6.61005 4.77453C6.66278 4.72723 6.66649 4.64691 6.61836 4.59513C6.60701 4.58294 6.3349 4.29687 5.80617 4.29687C5.27747 4.29687 5.00536 4.58297 4.99401 4.59516C4.94617 4.64665 4.94988 4.72605 5.0019 4.77348C5.05398 4.82088 5.13558 4.8178 5.18433 4.7671ZM9.06378 4.29684C8.53505 4.29684 8.26294 4.58291 8.25159 4.5951C8.20375 4.64659 8.20747 4.72599 8.25948 4.77342C8.31153 4.82084 8.39313 4.8178 8.44191 4.7671C8.45038 4.75827 8.65434 4.55081 9.06378 4.55081C9.47161 4.55081 9.6756 4.75669 9.68552 4.767C9.71097 4.79405 9.74566 4.80773 9.78047 4.80773C9.81161 4.80773 9.84284 4.79675 9.86763 4.77453C9.92036 4.72726 9.92408 4.64691 9.87594 4.59513C9.86463 4.58294 9.59252 4.29684 9.06378 4.29684ZM8.25657 7.15924C8.25425 7.16143 8.01505 7.37984 7.43501 7.37984C6.85497 7.37984 6.61577 7.16146 6.61451 7.16028C6.56414 7.1106 6.48229 7.11044 6.43163 7.15993C6.38107 7.20943 6.3809 7.28984 6.43127 7.33952C6.44346 7.35152 6.73778 7.63381 7.43501 7.63381C8.13224 7.63381 8.42656 7.35152 8.43874 7.33952C8.48872 7.29025 8.48847 7.21124 8.43891 7.16158C8.38931 7.1119 8.30775 7.1112 8.25657 7.15924ZM5.93648 5.06612C5.87154 5.06612 5.80985 5.0797 5.75393 5.10386C5.74752 5.08364 5.74196 5.06285 5.7375 5.0411C5.72341 4.97234 5.65523 4.92767 5.58524 4.94164C5.51521 4.95545 5.46989 5.0224 5.48392 5.09113C5.49792 5.15951 5.51922 5.22316 5.54728 5.28221C5.53021 5.3098 5.51602 5.33926 5.50525 5.37034C5.43446 5.34574 5.37048 5.30628 5.32189 5.24507C5.27795 5.18974 5.19674 5.1798 5.1404 5.22294C5.08408 5.26605 5.07399 5.34583 5.11789 5.40116C5.20887 5.51583 5.33792 5.59329 5.4962 5.63126C5.54799 5.82348 5.72522 5.96533 5.93648 5.96533C6.18836 5.96533 6.39254 5.76402 6.39254 5.5157C6.39254 5.26739 6.18839 5.06612 5.93648 5.06612ZM9.72956 5.22297C9.67324 5.17986 9.592 5.18977 9.54806 5.24507C9.49947 5.30628 9.43553 5.34577 9.3647 5.37037C9.35393 5.33929 9.33974 5.30983 9.32267 5.28224C9.35076 5.2232 9.37204 5.15954 9.38603 5.09116C9.4001 5.0224 9.35474 4.95548 9.28472 4.94167C9.21473 4.9277 9.14654 4.9724 9.13245 5.04113C9.12802 5.06285 9.12243 5.08367 9.11603 5.10389C9.0601 5.07977 8.99842 5.06615 8.93347 5.06615C8.6816 5.06615 8.47741 5.26745 8.47741 5.51574C8.47741 5.76402 8.6816 5.96536 8.93347 5.96536C9.14473 5.96536 9.32196 5.82352 9.37375 5.63129C9.532 5.59329 9.66105 5.51586 9.75206 5.4012C9.79596 5.34586 9.78587 5.26608 9.72956 5.22297Z" fill="white"/>
</svg>
