<svg width="15" height="16" viewBox="0 0 15 16" fill="none" xmlns="http://www.w3.org/2000/svg">
<path d="M6.06696 4.91791C6.00132 4.87038 5.99683 4.79098 6.05744 4.73959C6.07166 4.72752 6.41314 4.44444 7.07644 4.44444C7.73973 4.44444 8.08122 4.72749 8.09543 4.73956C8.15641 4.79127 8.15192 4.87159 8.08538 4.91895C8.05402 4.9413 8.01448 4.95235 7.97503 4.95235C7.93083 4.95235 7.88676 4.93848 7.85454 4.91117C7.84482 4.90321 7.5893 4.69841 7.07644 4.69841C6.56357 4.69841 6.30806 4.90324 6.29744 4.91197C6.23572 4.96257 6.13259 4.9654 6.06696 4.91791ZM11.1607 4.44444C10.4975 4.44444 10.156 4.72749 10.1418 4.73956C10.0812 4.79095 10.0857 4.87035 10.1513 4.91787C10.2169 4.96537 10.32 4.96254 10.3817 4.91191C10.3924 4.90321 10.6479 4.69838 11.1607 4.69838C11.6718 4.69838 11.9273 4.90171 11.9396 4.91181C11.9718 4.93873 12.0155 4.95235 12.0593 4.95235C12.0988 4.95235 12.1383 4.9413 12.1697 4.91895C12.2362 4.87159 12.2407 4.79127 12.1797 4.73956C12.1655 4.72756 11.824 4.44444 11.1607 4.44444ZM10.148 7.27422C10.1451 7.27641 9.84535 7.49206 9.11855 7.49206C8.39175 7.49206 8.092 7.27641 8.09049 7.2753C8.02665 7.22568 7.92324 7.22568 7.85944 7.2753C7.79564 7.32489 7.79564 7.4053 7.85944 7.45486C7.87476 7.46676 8.2441 7.74603 9.11859 7.74603C9.99308 7.74603 10.3624 7.46676 10.3777 7.45486C10.441 7.40568 10.4409 7.3267 10.3784 7.27695C10.3159 7.22711 10.2128 7.22625 10.148 7.27422ZM7.23981 5.20635C7.15882 5.20635 7.08191 5.21959 7.01207 5.24321C7.00406 5.22324 6.99708 5.2027 6.99148 5.18124C6.97363 5.11251 6.88746 5.06813 6.79903 5.08187C6.71056 5.09575 6.65334 5.16273 6.67119 5.23146C6.68879 5.29933 6.71559 5.36248 6.75096 5.42105C6.73025 5.44762 6.71297 5.47594 6.69974 5.50575C6.61099 5.48149 6.53085 5.44257 6.47 5.38216C6.41441 5.32689 6.31173 5.31714 6.24066 5.36038C6.1696 5.40359 6.15706 5.4834 6.21265 5.53864C6.32705 5.65229 6.48928 5.72902 6.68826 5.76657C6.7539 5.95578 6.97559 6.09521 7.23977 6.09521C7.55557 6.09521 7.81157 5.89622 7.81157 5.65076C7.81157 5.4053 7.55561 5.20635 7.23981 5.20635ZM11.9965 5.36041C11.9254 5.31721 11.8227 5.32692 11.7671 5.38219C11.7063 5.44264 11.6262 5.48156 11.5374 5.50581C11.5241 5.47597 11.5069 5.44765 11.4861 5.42108C11.5215 5.36251 11.5483 5.29937 11.5659 5.23149C11.5838 5.16273 11.5265 5.09578 11.4381 5.08191C11.3498 5.06816 11.2635 5.11254 11.2457 5.18127C11.2401 5.20273 11.2331 5.22327 11.2251 5.24324C11.1553 5.21965 11.0783 5.20638 10.9974 5.20638C10.6816 5.20638 10.4256 5.40537 10.4256 5.65083C10.4256 5.89629 10.6816 6.09527 10.9974 6.09527C11.2615 6.09527 11.4832 5.95584 11.5489 5.7666C11.7478 5.72905 11.9101 5.65232 12.0245 5.5387C12.0801 5.48343 12.0675 5.40362 11.9965 5.36041ZM13.725 7.30448V11.9971C13.7895 12.0197 13.8465 12.0423 13.8938 12.0651C14.6175 12.4159 15 12.9519 15 13.6153V15.873C15 15.9431 14.9268 16 14.8366 16C14.7464 16 14.6732 15.9431 14.6732 15.873V13.6153C14.6732 13.0359 14.3528 12.5869 13.7209 12.2807C13.5528 12.1992 13.1784 12.107 12.7819 12.0094C12.1697 11.8586 11.431 11.6767 10.9156 11.4165V12.3908C10.9156 12.5183 10.8243 12.6328 10.6773 12.6894C10.6164 12.7129 10.5512 12.7244 10.4863 12.7244C10.3946 12.7244 10.3037 12.7013 10.2272 12.6561L9.41136 12.1738C9.32126 12.2009 9.22233 12.2159 9.11859 12.2159C9.01481 12.2159 8.91593 12.2009 8.82583 12.1738L8.00999 12.6561C7.93349 12.7013 7.84257 12.7244 7.75088 12.7244C7.68606 12.7244 7.62079 12.7129 7.5599 12.6894C7.41286 12.6328 7.32154 12.5183 7.32154 12.3908V11.4164C6.80614 11.6766 6.06794 11.8585 5.45509 12.0094L5.44165 12.0127V12.5846C6.20497 12.6639 7.64828 12.8841 7.64828 13.4131C7.64828 13.8346 6.68585 14.1138 5.4501 14.2413C5.53604 14.3475 5.58076 14.4624 5.58076 14.5814C5.58076 15.0784 4.80915 15.4678 3.82414 15.4678C3.73551 15.4678 3.64872 15.4645 3.56393 15.4584V15.873C3.56393 15.9431 3.49078 16 3.40056 16C3.31033 16 3.23718 15.9431 3.23718 15.873V15.4188C2.54926 15.2994 2.06752 14.9741 2.06752 14.5815C2.06752 14.4624 2.11224 14.3476 2.19818 14.2413C0.962427 14.1139 0 13.8346 0 13.4132C0 12.8842 1.44335 12.664 2.20663 12.5846V10.0356C2.20663 9.69333 3.04506 9.53743 3.8241 9.53743C4.05613 9.53743 4.29331 9.55137 4.51214 9.57984V7.30451C4.41853 7.34438 4.31957 7.36511 4.21738 7.36511C3.66771 7.36511 3.23714 6.75156 3.23714 5.96829C3.23714 5.44448 3.42984 4.99692 3.72183 4.75765C3.64031 4.39276 3.29514 2.65375 3.89239 1.74067C4.21358 1.24962 4.9414 0.801873 5.94186 0.47981C6.90302 0.170381 8.03119 0 9.11859 0C10.206 0 11.3342 0.170381 12.2953 0.479778C13.2957 0.801841 14.0236 1.24959 14.3448 1.74064C14.942 2.65368 14.5968 4.39273 14.5153 4.75762C14.8073 4.99689 15 5.44448 15 5.96825C15 6.75152 14.5694 7.36508 14.0198 7.36508C13.9176 7.36508 13.8186 7.34435 13.725 7.30448ZM10.2622 10.1175C9.91148 10.145 9.53062 10.1587 9.11859 10.1587C8.70657 10.1587 8.3257 10.145 7.97499 10.1175V10.6815C7.98679 10.6872 7.99871 10.6927 8.00995 10.6993L8.82579 11.1816C8.91589 11.1546 9.01481 11.1396 9.11855 11.1396C9.22233 11.1396 9.32126 11.1546 9.41136 11.1816L10.2272 10.6993C10.2384 10.6927 10.2504 10.6872 10.2622 10.6815V10.1175H10.2622ZM12.6256 9.14019C13.2501 8.60562 13.5296 6.71546 13.5296 5.07937C13.5296 4.99117 13.5287 4.90038 13.527 4.8094C13.502 4.68019 13.0866 2.70616 11.0336 2.18502C8.9076 1.64521 7.35274 2.52 7.33726 2.52892C7.30463 2.54768 7.26382 2.55644 7.22351 2.55337C7.2133 2.55257 6.17021 2.47956 5.45452 2.95073C4.76856 3.40229 4.71354 4.70638 4.71011 4.81908C4.70848 4.90683 4.70754 4.99435 4.70754 5.0794C4.70754 6.71549 4.98707 8.60562 5.61156 9.14022C6.20419 9.64752 7.38415 9.90479 9.11859 9.90479C10.8531 9.90476 12.033 9.64749 12.6256 9.14019ZM14.6733 5.96825C14.6733 5.29473 14.3289 4.8254 14.0198 4.8254C13.9662 4.8254 13.9085 4.83921 13.8545 4.86403C13.8556 4.9366 13.8564 5.00886 13.8564 5.07937C13.8564 5.34895 13.8454 6.1406 13.732 6.98245C13.8037 7.04768 13.9032 7.11111 14.0198 7.11111C14.3289 7.11111 14.6733 6.64178 14.6733 5.96825ZM4.02006 4.59867C4.08366 4.58083 4.14962 4.57143 4.21738 4.57143C4.27762 4.57143 4.33823 4.57905 4.3975 4.59314C4.43944 4.14695 4.60351 3.17806 5.24332 2.75689C5.9673 2.28029 6.9372 2.28644 7.19345 2.29711C7.49467 2.13854 9.03887 1.41146 11.135 1.94359C12.094 2.18705 12.8683 2.75664 13.3743 3.59086C13.626 4.00581 13.7525 4.38603 13.8102 4.60089C13.8787 4.58181 13.9494 4.57143 14.0197 4.57143C14.0875 4.57143 14.1535 4.58086 14.217 4.59867C14.3178 4.09079 14.5514 2.61695 14.0535 1.85571C13.466 0.957556 11.2983 0.253968 9.11859 0.253968C6.93888 0.253968 4.77117 0.957556 4.18368 1.85571C3.68576 2.61695 3.91935 4.09083 4.02006 4.59867ZM4.50516 6.98245C4.39174 6.1406 4.38079 5.34892 4.38079 5.07937C4.38079 5.00886 4.38153 4.93657 4.38267 4.86403C4.32876 4.83924 4.27101 4.8254 4.21742 4.8254C3.90832 4.8254 3.56393 5.29473 3.56393 5.96825C3.56393 6.64178 3.90832 7.11111 4.21742 7.11111C4.33399 7.11111 4.43348 7.04768 4.50516 6.98245ZM2.53342 10.0357C2.54771 10.1086 3.00356 10.2798 3.8241 10.2798C4.64443 10.2798 5.10028 10.1087 5.11478 10.0355C5.10049 9.96257 4.64464 9.79137 3.8241 9.79137C3.00377 9.79137 2.54796 9.96248 2.53342 10.0357ZM3.8241 10.5338C3.34742 10.5338 2.84885 10.4753 2.53338 10.3516V12.7668C2.53338 13.0174 3.05204 13.2857 3.8241 13.2857C4.59616 13.2857 5.11482 13.0174 5.11482 12.7668V10.3516C4.79935 10.4753 4.30078 10.5338 3.8241 10.5338ZM5.0681 14.2753C4.66633 14.3055 4.24466 14.3208 3.8241 14.3208C3.40354 14.3208 2.98187 14.3055 2.5801 14.2753C2.48645 14.3482 2.39422 14.4527 2.39422 14.5815C2.39422 14.9243 3.04902 15.2139 3.8241 15.2139C4.59918 15.2139 5.25398 14.9243 5.25398 14.5815C5.25398 14.4527 5.16175 14.3482 5.0681 14.2753ZM5.43442 12.8402C5.35935 13.2379 4.67919 13.5397 3.8241 13.5397C2.96901 13.5397 2.28885 13.2378 2.21378 12.8402C0.843288 12.9851 0.326745 13.2647 0.326745 13.4132C0.326745 13.6797 1.68919 14.0669 3.8241 14.0669C5.95901 14.0669 7.32145 13.6797 7.32145 13.4132C7.32149 13.2647 6.80495 12.9851 5.43442 12.8402ZM7.3215 11.103V10.9647C7.3215 10.8371 7.41282 10.7227 7.55986 10.666C7.58849 10.655 7.61818 10.6474 7.64824 10.6416V10.0868C6.5924 9.97095 5.84085 9.71435 5.36964 9.31092C5.14607 9.11952 4.97302 8.81206 4.83893 8.44708V9.63711C5.19202 9.71787 5.44161 9.84898 5.44161 10.0357V11.7464C6.09988 11.5839 6.883 11.3838 7.3215 11.103ZM8.54029 12.0235C8.42969 11.9299 8.36279 11.8093 8.36279 11.6777C8.36279 11.5461 8.42973 11.4255 8.54029 11.3319L7.81218 10.9014C7.76668 10.8745 7.72204 10.8869 7.70501 10.8935C7.68794 10.9001 7.64824 10.9202 7.64824 10.9646V12.3907C7.64824 12.4352 7.68794 12.4553 7.70501 12.4618C7.72204 12.4684 7.76664 12.4808 7.81218 12.4539L8.54029 12.0235ZM9.11859 11.9619C9.3552 11.9619 9.54769 11.8344 9.54769 11.6777C9.54769 11.521 9.3552 11.3936 9.11859 11.3936C8.88203 11.3936 8.68954 11.521 8.68954 11.6777C8.68949 11.8344 8.88199 11.9619 9.11859 11.9619ZM10.5889 10.9647C10.5889 10.9202 10.5492 10.9001 10.5322 10.8936C10.5151 10.887 10.4706 10.8746 10.425 10.9015L9.69689 11.3319C9.80749 11.4255 9.87443 11.5461 9.87443 11.6777C9.87443 11.8094 9.80749 11.93 9.69689 12.0236L10.425 12.454C10.4706 12.481 10.5151 12.4685 10.5322 12.462C10.5492 12.4554 10.5889 12.4353 10.5889 12.3909V10.9647ZM13.3983 11.8986V8.44698C13.2642 8.812 13.0911 9.11949 12.8675 9.31089C12.3963 9.71432 11.6447 9.97092 10.5889 10.0868V10.6416C10.619 10.6474 10.6487 10.655 10.6773 10.666C10.8243 10.7227 10.9156 10.8371 10.9156 10.9647V11.1032C11.3734 11.3961 12.2069 11.6014 12.8806 11.7673C13.0671 11.8132 13.2426 11.8564 13.3983 11.8986ZM12.7128 13.4733C12.6226 13.4733 12.5494 13.5301 12.5494 13.6003V15.873C12.5494 15.9431 12.6226 16 12.7128 16C12.803 16 12.8762 15.9431 12.8762 15.873V13.6003C12.8762 13.5301 12.803 13.4733 12.7128 13.4733ZM12.1906 14.268V14.8501C12.1906 14.9203 12.1175 14.9771 12.0272 14.9771H9.71106C9.62084 14.9771 9.54769 14.9203 9.54769 14.8501V14.268C9.54769 14.1979 9.62084 14.141 9.71106 14.141H12.0272C12.1175 14.141 12.1906 14.1979 12.1906 14.268ZM11.8639 14.395H9.87443V14.7231H11.8639V14.395ZM3.19173 11.0534C3.1015 11.0534 3.02835 11.1102 3.02835 11.1803V12.6497C3.02835 12.7199 3.1015 12.7767 3.19173 12.7767C3.28195 12.7767 3.3551 12.7199 3.3551 12.6497V11.1803C3.3551 11.1102 3.28191 11.0534 3.19173 11.0534ZM4.45651 12.7767C4.54674 12.7767 4.61989 12.7199 4.61989 12.6497V11.1803C4.61989 11.1102 4.54674 11.0534 4.45651 11.0534C4.36629 11.0534 4.29314 11.1102 4.29314 11.1803V12.6497C4.29314 12.7199 4.36629 12.7767 4.45651 12.7767Z" fill="white"/>
</svg>
