<svg width="15" height="16" viewBox="0 0 15 16" fill="none" xmlns="http://www.w3.org/2000/svg">
<path d="M11.1494 10.1587V10.4127H10.5626C10.4816 10.4127 10.4159 10.4696 10.4159 10.5397V15.2381C10.4159 15.3082 10.4816 15.3651 10.5626 15.3651H14.0835C14.1645 15.3651 14.2302 15.3082 14.2302 15.2381V10.5397C14.2302 10.4696 14.1645 10.4127 14.0835 10.4127H13.4967V10.1587C13.4967 10.0886 13.431 10.0317 13.35 10.0317H11.2961C11.2151 10.0317 11.1494 10.0886 11.1494 10.1587ZM13.4967 10.9206V10.6667H13.9368V15.1111H10.7093V10.6667H11.1494V10.9206C11.1494 10.9908 11.2151 11.0476 11.2961 11.0476H13.35C13.431 11.0476 13.4967 10.9908 13.4967 10.9206ZM11.4428 10.2857H13.2033V10.7937H11.4428V10.2857ZM0.730103 16H3.96442C4.36698 16 4.69449 15.7165 4.69449 15.368V13.1829C4.92793 13.5244 5.18312 13.8557 5.45746 14.1716C5.92782 14.7131 6.46087 15.2184 7.04174 15.6748V15.873C7.04174 15.9431 7.10742 16 7.18844 16C7.26946 16 7.33514 15.9431 7.33514 15.873V15.6748C7.91601 15.2184 8.44909 14.7131 8.91942 14.1716C9.19376 13.8557 9.44895 13.5244 9.68239 13.1829V15.2319C9.68239 15.6554 10.0805 16 10.5697 16H14.1127C14.6019 16 15 15.6554 15 15.2319V10.1649C15 9.7414 14.6019 9.39683 14.1127 9.39683H13.4931C13.6945 9.12962 13.9386 8.68937 13.9368 8.12664C13.9354 7.72222 13.8112 7.33495 13.5676 6.97552C13.3611 6.67095 13.2725 6.33121 13.3113 5.99295C13.44 4.87025 13.3813 2.76813 11.5422 1.3034C9.90563 0 7.86049 0 7.18844 0C6.51639 0 4.47125 0 2.83474 1.3034C0.992958 2.77022 0.936258 4.8754 1.06638 5.99971C1.10592 6.34137 1.01317 6.69267 0.805179 6.98883C0.570527 7.32298 0.4477 7.66238 0.440109 7.99752C0.426465 8.60073 0.774444 9.03718 1.11098 9.45924C1.35575 9.76625 1.58846 10.0584 1.69677 10.4127H0.730103C0.327514 10.4127 0 10.6962 0 11.0447V15.3681C0 15.7165 0.327514 16 0.730103 16ZM10.5697 9.39683C10.5288 9.39683 10.4885 9.39946 10.449 9.40413C10.4858 9.37391 10.5213 9.34292 10.5549 9.31086C10.9494 8.93479 11.169 8.11105 11.2911 7.282C11.3885 7.3367 11.4891 7.36502 11.5896 7.36502C11.8307 7.36502 12.0462 7.21829 12.2037 6.97711C12.368 7.18279 12.4514 7.3874 12.4514 7.5873C12.4514 7.94286 12.1921 8.20857 11.9174 8.48991C11.6576 8.75606 11.3906 9.03073 11.3285 9.39683H10.5697ZM9.68239 10.1649V11.507C9.13068 11.3226 8.50877 11.0489 8.50877 10.6666V10.0867C9.01874 10.0244 9.44953 9.9213 9.80463 9.77657C9.7271 9.89057 9.68239 10.0233 9.68239 10.1649ZM7.52355 12.8254H6.85333L6.64285 12.2907L7.18844 12.076L7.73403 12.2907L7.52355 12.8254ZM7.18844 10.1587C7.55842 10.1587 7.90043 10.145 8.21536 10.1175V10.6666C8.21536 10.7604 8.23733 10.8477 8.27679 10.9292L7.18844 11.7666L6.10009 10.9292C6.13955 10.8477 6.16152 10.7604 6.16152 10.6666V10.1174C6.47645 10.145 6.81846 10.1587 7.18844 10.1587ZM5.94198 11.1474L6.92239 11.9017L5.66236 12.3975L5.33188 11.5392C5.57408 11.4295 5.79084 11.3009 5.94198 11.1474ZM7.45449 11.9017L8.4349 11.1474C8.58604 11.3009 8.80276 11.4295 9.045 11.5392L8.71452 12.3975L7.45449 11.9017ZM11.5895 7.11108C11.5123 7.11108 11.422 7.06467 11.3315 6.97937C11.433 6.13867 11.4428 5.3486 11.4428 5.07933C11.4428 5.00813 11.4422 4.93641 11.4412 4.86441C11.4828 4.84295 11.5336 4.82537 11.5895 4.82537C11.8671 4.82537 12.1763 5.29473 12.1763 5.96822C12.1763 6.64171 11.8671 7.11108 11.5895 7.11108ZM11.1494 5.07933C11.1494 6.71543 10.8984 8.60556 10.3376 9.14016C9.80547 9.64749 8.74591 9.90473 7.18844 9.90473C5.63097 9.90473 4.57141 9.64749 4.03924 9.14016C3.47847 8.60552 3.22746 6.7154 3.22746 5.07933C3.22746 5.02333 3.22783 4.9587 3.22875 4.88673C3.47612 4.79949 3.70366 4.68435 3.90622 4.54343C4.61718 4.04873 4.82469 3.38321 5.00778 2.796C5.15397 2.32705 5.28028 1.92203 5.64094 1.76413C5.97726 1.61686 6.47363 1.7014 7.11637 2.01537C7.16112 2.03721 7.21584 2.03721 7.26058 2.01537C7.90329 1.7014 8.39969 1.61683 8.73601 1.76413C9.09668 1.92206 9.22299 2.32705 9.36918 2.796C9.55226 3.38321 9.75977 4.0487 10.4707 4.54343C10.6733 4.68435 10.9008 4.79949 11.1482 4.88673C11.1491 4.9587 11.1494 5.02333 11.1494 5.07933ZM3.04537 6.97933C2.95489 7.06464 2.86459 7.11105 2.78735 7.11105C2.50979 7.11105 2.20054 6.64168 2.20054 5.96819C2.20054 5.2947 2.50979 4.82533 2.78735 4.82533C2.84328 4.82533 2.89412 4.84292 2.93563 4.86438C2.93464 4.93638 2.93406 5.0081 2.93406 5.0793C2.93406 5.34857 2.94385 6.13867 3.04537 6.97933ZM2.78735 7.36505C2.88781 7.36505 2.98841 7.33673 3.08578 7.28203C3.20791 8.11108 3.42753 8.93483 3.82201 9.31089C4.24514 9.71429 4.92001 9.97089 5.86811 10.0867V10.6666C5.86811 11.0489 5.2462 11.3226 4.69449 11.507V11.0447C4.69449 10.6962 4.36698 10.4127 3.96439 10.4127H2.67439C2.93182 10.1304 3.06242 9.84302 3.06242 9.55556C3.06242 9.10759 2.75592 8.79359 2.45947 8.48991C2.18485 8.20857 1.92547 7.94286 1.92547 7.5873C1.92547 7.3874 2.00888 7.18279 2.17326 6.97711C2.33074 7.21829 2.54621 7.36505 2.78735 7.36505ZM4.69449 12.6661V11.7784C4.81769 11.739 4.94264 11.6963 5.0651 11.6497L5.43552 12.6116C5.44869 12.6457 5.47796 12.6734 5.51606 12.6878C5.53477 12.6949 5.55472 12.6984 5.57471 12.6984C5.59543 12.6984 5.61612 12.6946 5.63541 12.687L6.37446 12.3963L6.59855 12.9656L6.34684 14.7086C6.11725 14.4865 5.89823 14.2564 5.69196 14.0189C5.32146 13.5924 4.98617 13.1373 4.69449 12.6661ZM7.18844 15.4475C6.98848 15.2886 6.79465 15.1236 6.6072 14.9533L6.87783 13.0794H7.49905L7.76968 14.9533C7.58223 15.1236 7.3884 15.2886 7.18844 15.4475ZM8.68492 14.0189C8.47865 14.2564 8.25959 14.4865 8.03004 14.7086L7.77833 12.9656L8.00242 12.3963L8.74147 12.687C8.76076 12.6946 8.78145 12.6984 8.80217 12.6984C8.82212 12.6984 8.84211 12.6949 8.86082 12.6878C8.89896 12.6734 8.92819 12.6457 8.94136 12.6116L9.31178 11.6497C9.43424 11.6963 9.55919 11.739 9.68239 11.7784V12.6661C9.39074 13.1372 9.05545 13.5923 8.68492 14.0189ZM14.7066 10.1649V15.2319C14.7066 15.5154 14.4401 15.746 14.1127 15.746H10.5697C10.2422 15.746 9.97579 15.5154 9.97579 15.2319V10.1649C9.97579 9.88143 10.2422 9.65079 10.5697 9.65079H14.1127C14.4401 9.65079 14.7066 9.88143 14.7066 10.1649ZM1.35245 9.31498C1.02809 8.90813 0.721668 8.52384 0.733478 8.00248C0.740043 7.71276 0.848529 7.4161 1.05593 7.12073C1.29682 6.77768 1.4042 6.37057 1.35836 5.97438C1.2337 4.89724 1.28552 2.88235 3.03341 1.49025C4.58567 0.253968 6.54471 0.253968 7.18844 0.253968C7.83217 0.253968 9.79121 0.253968 11.3435 1.49025C13.0889 2.88032 13.1426 4.89229 13.0193 5.96784C12.9744 6.35991 13.0765 6.75279 13.3145 7.10403C13.5315 7.42416 13.6422 7.76848 13.6434 8.12733C13.6454 8.74359 13.3153 9.19489 13.1331 9.39683H11.6258C11.6885 9.11819 11.9093 8.89168 12.1415 8.65381C12.4381 8.34997 12.7448 8.03578 12.7448 7.5873C12.7448 7.29302 12.6084 6.99825 12.3391 6.71022C12.4221 6.49644 12.4697 6.24286 12.4697 5.96822C12.4697 5.18495 12.0831 4.5714 11.5895 4.5714C11.5377 4.5714 11.4861 4.57819 11.4353 4.59114C11.4204 4.10114 11.3838 3.60686 11.3285 3.16108C11.3199 3.09137 11.2477 3.04086 11.167 3.04838C11.0865 3.05584 11.0282 3.11844 11.0368 3.18819C11.1025 3.718 11.1307 4.22187 11.1422 4.60721C10.9661 4.53597 10.8026 4.44854 10.6546 4.34549C10.0181 3.90264 9.82385 3.27956 9.65242 2.72984C9.49476 2.22416 9.34585 1.74654 8.86841 1.53749C8.45335 1.35578 7.88847 1.43051 7.18844 1.75962C6.48845 1.43048 5.92357 1.35571 5.50847 1.53749C5.03103 1.74654 4.88212 2.22416 4.72446 2.72984C4.55307 3.27956 4.35876 3.90264 3.72233 4.34549C3.57427 4.44851 3.41077 4.53597 3.23472 4.60721C3.2462 4.22187 3.27441 3.718 3.34006 3.18819C3.34871 3.11844 3.2904 3.05587 3.20986 3.04838C3.12925 3.04089 3.05699 3.09137 3.04834 3.16108C2.9931 3.60686 2.95647 4.10114 2.94158 4.59114C2.89078 4.57822 2.8391 4.5714 2.78735 4.5714C2.29377 4.5714 1.90714 5.18495 1.90714 5.96822C1.90714 6.24286 1.95482 6.49644 2.03781 6.71022C1.76854 6.99825 1.63207 7.29302 1.63207 7.5873C1.63207 8.03578 1.93875 8.34997 2.23535 8.65381C2.50979 8.93495 2.76902 9.20051 2.76902 9.55556C2.76902 9.83518 2.60599 10.1234 2.28515 10.4127H1.99864C1.88583 9.98454 1.61516 9.64448 1.35245 9.31498ZM0.293406 11.0447C0.293406 10.8362 0.489291 10.6667 0.730103 10.6667H1.87824C1.87831 10.6667 1.87838 10.6667 1.87842 10.6667C1.87849 10.6667 1.87857 10.6667 1.87864 10.6667H3.96442C4.2052 10.6667 4.40112 10.8362 4.40112 11.0447V15.3681C4.40112 15.5765 4.20524 15.7461 3.96442 15.7461H0.730103C0.489291 15.746 0.293406 15.5765 0.293406 15.368V11.0447ZM0.733514 11.9365H3.96098C4.04199 11.9365 4.10768 11.8797 4.10768 11.8095V11.0476C4.10768 10.9775 4.04199 10.9206 3.96098 10.9206H0.733514C0.652498 10.9206 0.586811 10.9775 0.586811 11.0476V11.8095C0.586811 11.8797 0.652498 11.9365 0.733514 11.9365ZM0.880217 11.1746H3.81427V11.6825H0.880217V11.1746ZM0.733514 15.2487H3.96098C4.04199 15.2487 4.10768 15.1918 4.10768 15.1217V12.5608C4.10768 12.4907 4.04199 12.4338 3.96098 12.4338H0.733514C0.652498 12.4338 0.586811 12.4907 0.586811 12.5608V15.1217C0.586811 15.1918 0.652498 15.2487 0.733514 15.2487ZM0.880217 14.4339H1.66262V14.9947H0.880217V14.4339ZM2.73847 13.5026V14.1799H1.95603V13.5026H2.73847ZM1.95603 13.2487V12.6878H2.73843V13.2487H1.95603ZM3.03187 13.5026H3.81427V14.1799H3.03187V13.5026ZM2.73847 14.4339V14.9947H1.95603V14.4339H2.73847ZM1.66262 14.1799H0.880217V13.5027H1.66262V14.1799ZM3.03187 14.9947V14.4338H3.81427V14.9947H3.03187ZM3.81427 13.2487H3.03187V12.6878H3.81427V13.2487ZM1.66262 12.6878V13.2487H0.880217V12.6878H1.66262ZM4.44821 4.91791C4.38928 4.87038 4.38524 4.79098 4.43967 4.73959C4.4524 4.72752 4.75908 4.44444 5.35465 4.44444C5.95023 4.44444 6.25691 4.72752 6.26964 4.73956C6.3244 4.79124 6.32036 4.87159 6.26065 4.91895C6.23249 4.9413 6.19699 4.95235 6.16156 4.95235C6.12187 4.95235 6.0823 4.93848 6.0534 4.91117C6.04463 4.90321 5.81523 4.69841 5.35465 4.69841C4.89412 4.69841 4.66467 4.90324 4.65514 4.91197C4.59976 4.96257 4.50712 4.96546 4.44821 4.91791ZM9.93725 4.73959C9.99201 4.79127 9.98797 4.87162 9.92823 4.91902C9.90006 4.94137 9.86456 4.95238 9.82913 4.95238C9.78974 4.95238 9.7505 4.93873 9.72163 4.91184C9.71063 4.90181 9.48119 4.69841 9.02223 4.69841C8.56165 4.69841 8.33225 4.90321 8.32271 4.91194C8.26733 4.96254 8.17472 4.96543 8.11575 4.91791C8.05685 4.87035 8.05278 4.79098 8.10724 4.73959C8.11997 4.72752 8.42665 4.44444 9.02223 4.44444C9.6178 4.44444 9.92449 4.72752 9.93725 4.73959ZM8.3197 7.27695C8.37582 7.3267 8.37589 7.40571 8.31912 7.45489C8.30536 7.46676 7.9737 7.74603 7.18844 7.74603C6.40318 7.74603 6.07152 7.46676 6.05776 7.45489C6.00048 7.40527 6.00048 7.32489 6.05776 7.2753C6.11509 7.22571 6.20795 7.22571 6.26524 7.2753C6.26663 7.27641 6.5358 7.49206 7.18844 7.49206C7.84108 7.49206 8.11025 7.27641 8.11289 7.27422C8.17106 7.22625 8.26359 7.22717 8.3197 7.27695ZM6.01482 5.65079C6.01482 5.89625 5.78493 6.09524 5.50136 6.09524C5.26414 6.09524 5.06506 5.95581 5.00612 5.7666C4.82748 5.72905 4.68176 5.65232 4.57904 5.53867C4.52912 5.48343 4.54038 5.40362 4.6042 5.36041C4.66801 5.31717 4.76018 5.32695 4.81013 5.38219C4.86474 5.44264 4.93673 5.48156 5.01643 5.50581C5.02835 5.47597 5.04383 5.44765 5.06246 5.42108C5.0307 5.36251 5.00664 5.29937 4.99083 5.23149C4.9748 5.16273 5.02619 5.09578 5.10563 5.08191C5.18492 5.0681 5.26241 5.11251 5.27844 5.18127C5.28343 5.20273 5.28974 5.22327 5.29693 5.24324C5.35961 5.21965 5.4287 5.20638 5.50139 5.20638C5.78493 5.20635 6.01482 5.40533 6.01482 5.65079ZM9.79784 5.53864C9.69512 5.65229 9.5494 5.72902 9.37076 5.76657C9.31182 5.95581 9.11274 6.09524 8.87552 6.09524C8.59195 6.09524 8.36206 5.89625 8.36206 5.65079C8.36206 5.40533 8.59195 5.20635 8.87552 5.20635C8.94825 5.20635 9.01731 5.21959 9.07999 5.24321C9.08718 5.22324 9.09345 5.2027 9.09847 5.18124C9.1145 5.11251 9.19189 5.06797 9.27129 5.08187C9.35073 5.09575 9.40211 5.1627 9.38609 5.23146C9.37028 5.29933 9.34622 5.36248 9.31446 5.42105C9.33305 5.44762 9.34857 5.47594 9.36049 5.50578C9.44018 5.48152 9.51214 5.44257 9.56679 5.38213C9.6167 5.32692 9.70891 5.31714 9.77272 5.36035C9.8365 5.40359 9.84776 5.48343 9.79784 5.53864Z" fill="white"/>
</svg>
