<svg width="15" height="16" viewBox="0 0 15 16" fill="none" xmlns="http://www.w3.org/2000/svg">
<path d="M7.26073 4.55951C6.76113 4.55951 6.5056 4.76275 6.50315 4.76482C6.47099 4.79186 6.4273 4.80555 6.38344 4.80555C6.34382 4.80555 6.30408 4.79437 6.27273 4.77177C6.20666 4.72412 6.20266 4.64377 6.26385 4.59231C6.27774 4.58059 6.61211 4.30555 7.26073 4.30555C7.90936 4.30555 8.24372 4.58056 8.25762 4.59228C8.3188 4.64374 8.31481 4.72409 8.24874 4.7717C8.18266 4.81936 8.07954 4.81624 8.01836 4.76478C8.00894 4.75716 7.76018 4.55951 7.26073 4.55951ZM10.4897 4.76558C10.5 4.75716 10.7488 4.55951 11.2482 4.55951C11.7457 4.55951 11.9945 4.75564 12.0066 4.76548C12.0386 4.79209 12.082 4.80555 12.1255 4.80555C12.1651 4.80555 12.2048 4.79437 12.2362 4.77177C12.3022 4.72412 12.3062 4.64377 12.2451 4.59231C12.2312 4.58059 11.8968 4.30555 11.2482 4.30555C10.5995 4.30555 10.2652 4.58056 10.2513 4.59228C10.1905 4.64342 10.1945 4.72278 10.2596 4.77059C10.3249 4.81837 10.4278 4.81593 10.4897 4.76558ZM10.4857 7.2291C10.5497 7.17973 10.5509 7.09881 10.4875 7.04897C10.4241 6.99913 10.3216 6.99821 10.2577 7.04754C10.2548 7.04964 9.96273 7.25789 9.25447 7.25789C8.54621 7.25789 8.25412 7.04964 8.25269 7.04862C8.18874 6.99929 8.08549 6.99967 8.02211 7.04951C7.95876 7.09932 7.95925 7.17973 8.02325 7.2291C8.03821 7.24065 8.39971 7.51189 9.25447 7.51189C10.1092 7.51189 10.4707 7.24065 10.4857 7.2291ZM7.42023 5.04761C7.11192 5.04761 6.86197 5.24037 6.86197 5.47818C6.86197 5.71596 7.11192 5.90872 7.42023 5.90872C7.72855 5.90872 7.97849 5.71596 7.97849 5.47818C7.97849 5.24037 7.72855 5.04761 7.42023 5.04761ZM11.0887 5.04761C10.7804 5.04761 10.5304 5.24037 10.5304 5.47818C10.5304 5.71596 10.7804 5.90872 11.0887 5.90872C11.397 5.90872 11.647 5.71596 11.647 5.47818C11.647 5.24037 11.397 5.04761 11.0887 5.04761ZM9.89605 12.9206C9.89605 13.1941 9.60823 13.4166 9.25451 13.4166C8.90079 13.4166 8.61298 13.1941 8.61298 12.9206C8.61298 12.6471 8.90079 12.4246 9.25451 12.4246C9.60823 12.4246 9.89605 12.6471 9.89605 12.9206ZM9.56996 12.9206C9.56996 12.7871 9.42844 12.6785 9.25451 12.6785C9.08058 12.6785 8.93906 12.7871 8.93906 12.9206C8.93906 13.0541 9.08058 13.1627 9.25451 13.1627C9.42844 13.1627 9.56996 13.0541 9.56996 12.9206ZM8.46355 12.3313C8.39372 12.3672 8.31338 12.3853 8.2328 12.3853C8.16469 12.3853 8.09637 12.3724 8.03409 12.3463C7.89925 12.2898 7.81549 12.1809 7.81549 12.0622V11.3187C7.81549 11.2 7.89925 11.0912 8.03409 11.0346C8.17011 10.9776 8.3347 10.9833 8.46359 11.0496L8.98447 11.3175H9.52451L10.0454 11.0496C10.1742 10.9834 10.3389 10.9776 10.4749 11.0346C10.6098 11.0912 10.6935 11.2 10.6935 11.3187V12.0622C10.6935 12.1809 10.6098 12.2898 10.4749 12.3463C10.4126 12.3724 10.3443 12.3853 10.2762 12.3853C10.1956 12.3853 10.1153 12.3672 10.0454 12.3313L9.52451 12.0635H8.98447L8.46355 12.3313ZM9.73655 11.8682L10.2251 12.1194C10.2669 12.1409 10.3057 12.1288 10.3204 12.1227C10.3346 12.1167 10.3674 12.099 10.3674 12.0622V11.3188C10.3674 11.282 10.3346 11.2642 10.3204 11.2583C10.3057 11.2521 10.2669 11.2401 10.2251 11.2616L9.73655 11.5128V11.8682ZM9.09852 11.8095H9.41042V11.5714H9.09852V11.8095ZM8.28387 12.1194L8.77243 11.8682V11.5128L8.28391 11.2616C8.24213 11.2401 8.20333 11.2521 8.18857 11.2583C8.17443 11.2642 8.14154 11.2819 8.14154 11.3187V12.0622C8.14154 12.0989 8.17443 12.1167 8.18857 12.1226C8.20329 12.1288 8.24213 12.1408 8.28387 12.1194ZM2.67188 10.5019C2.59671 10.4207 2.55196 10.3216 2.55196 10.2143C2.55196 9.94074 2.83977 9.71823 3.19349 9.71823C3.54726 9.71823 3.83503 9.94074 3.83503 10.2143C3.83503 10.3215 3.79027 10.4207 3.71511 10.5019C4.33174 10.6105 4.89143 10.9083 5.2727 11.3436C5.30462 11.38 5.33397 11.4167 5.36177 11.4535C5.43257 11.4359 5.50565 11.418 5.58094 11.3996C6.52394 11.1692 7.81541 10.8536 7.81541 10.3373V9.77909C6.78567 9.66661 6.05238 9.41785 5.59227 9.02703C5.16432 8.66351 4.92534 7.86938 4.79209 7.06868C4.69052 7.11748 4.58197 7.14284 4.46943 7.14284C3.93082 7.14284 3.5089 6.54672 3.5089 5.7857C3.5089 5.02469 3.93082 4.42856 4.46943 4.42856C4.52454 4.42856 4.57997 4.43485 4.63435 4.44682C4.65563 3.84488 4.7252 2.88809 4.94507 2.07184C4.8556 2.03723 4.77073 1.99688 4.69154 1.95133C4.09802 1.60968 3.82936 0.995649 3.99037 0.348825C4.0008 0.306888 4.03761 0.271872 4.08827 0.255587C4.13898 0.239301 4.19682 0.244 4.24211 0.267999C4.56334 0.438221 4.91935 0.555904 5.30018 0.617713C5.46538 0.644538 5.63486 0.660316 5.80492 0.664697C6.49296 0.217523 7.62249 0 9.25447 0C11.0674 0 12.2654 0.26892 12.9166 0.822157C13.6738 1.46533 13.8395 3.45609 13.8745 4.44682C13.9288 4.43482 13.9843 4.42856 14.0394 4.42856C14.578 4.42856 15 5.02469 15 5.7857C15 6.54672 14.5781 7.14284 14.0395 7.14284C13.927 7.14284 13.8184 7.11748 13.7168 7.06868C13.5836 7.86938 13.3446 8.66351 12.9166 9.02703C12.4566 9.41785 11.7233 9.66661 10.6935 9.77909V10.3373C10.6935 10.8536 11.985 11.1692 12.928 11.3996C13.3526 11.5034 13.7192 11.593 13.9177 11.6884C14.6257 12.0289 15 12.5494 15 13.1938V15.873C15 15.9431 14.927 16 14.837 16C14.7469 16 14.6739 15.9431 14.6739 15.873V13.1938C14.6739 12.6342 14.3618 12.2004 13.7464 11.9045C13.5827 11.8258 13.2172 11.7365 12.8304 11.6419C12.5829 11.5814 12.3219 11.5176 12.0659 11.447L10.5091 13.7777H12.4502C12.502 13.7777 12.5521 13.7831 12.6004 13.7922V13.1666C12.6004 13.0965 12.6734 13.0397 12.7635 13.0397C12.8535 13.0397 12.9265 13.0965 12.9265 13.1666V13.9448C13.0254 14.0315 13.086 14.1449 13.086 14.2693V15.873C13.086 15.9431 13.013 16 12.9229 16C12.8329 16 12.7599 15.9431 12.7599 15.873V14.2693C12.7599 14.1383 12.621 14.0317 12.4502 14.0317H7.65375C7.483 14.0317 7.34405 14.1383 7.34405 14.2693V15.873C7.34405 15.9431 7.27105 16 7.18101 16C7.09096 16 7.01796 15.9431 7.01796 15.873V14.4008H6.54946C6.4599 14.4008 6.38707 14.4564 6.38707 14.5248V15.873C6.38707 15.9431 6.31406 16 6.22402 16C6.13398 16 6.06098 15.9431 6.06098 15.873V14.659C5.91791 14.6757 5.78307 14.7084 5.65855 14.7565C4.90789 15.047 4.8011 15.7994 4.79144 15.8843C4.78386 15.9503 4.71273 16 4.62921 16C4.62436 16 4.61947 15.9998 4.61458 15.9995C4.5249 15.9933 4.45867 15.9316 4.46666 15.8617C4.47803 15.7624 4.60394 14.8811 5.51352 14.5291C5.69083 14.4605 5.88395 14.4175 6.08878 14.4004C6.15546 14.253 6.33656 14.1468 6.5495 14.1468H7.03883C7.10955 13.935 7.35803 13.7778 7.65383 13.7778H7.99997L6.44319 11.447C6.18717 11.5176 5.92614 11.5815 5.67872 11.642C5.62101 11.6561 5.56451 11.6699 5.50936 11.6835C5.58518 11.829 5.62594 11.9704 5.62969 12.0985C6.25207 12.2898 6.38719 12.5153 6.38719 12.6746C6.38719 13.0446 5.70542 13.2996 4.79156 13.4324C4.78137 13.9284 4.39064 14.354 3.83519 14.5427V15.873C3.83519 15.9431 3.76219 16 3.67215 16C3.58211 16 3.5091 15.9431 3.5091 15.873V14.6225C3.40708 14.6383 3.30163 14.6467 3.19365 14.6467C2.3208 14.6467 1.60957 14.1037 1.59579 13.4324C0.681766 13.2995 0 13.0445 0 12.6746C0 12.5152 0.135122 12.2897 0.7575 12.0984C0.764185 11.8712 0.888139 11.6018 1.11432 11.3435C1.4956 10.9083 2.05529 10.6105 2.67188 10.5019ZM13.7623 6.76659C13.8316 6.82884 13.9275 6.88887 14.0395 6.88887C14.3396 6.88887 14.6739 6.43583 14.6739 5.7857C14.6739 5.13558 14.3396 4.68253 14.0395 4.68253C13.9883 4.68253 13.9332 4.69548 13.8817 4.71866C13.8832 4.80409 13.8836 4.87389 13.8836 4.92459C13.8835 5.18561 13.8728 5.95154 13.7623 6.76659ZM4.74669 6.76659C4.63614 5.95154 4.62546 5.18561 4.62546 4.92459C4.62546 4.87189 4.62591 4.80202 4.6273 4.71866C4.57569 4.69548 4.52067 4.68253 4.46951 4.68253C4.16943 4.68253 3.83507 5.13558 3.83507 5.7857C3.83507 6.43583 4.16943 6.88887 4.46951 6.88887C4.58152 6.88887 4.67735 6.82881 4.74669 6.76659ZM5.19334 1.88038C5.26757 1.90358 5.30923 1.96536 5.29166 2.02612C5.11826 2.62523 5.03283 3.31879 4.99096 3.88939C5.18458 3.87158 5.42303 3.82361 5.65969 3.70945C6.16321 3.46663 6.33465 3.08009 6.38495 2.92514C6.39701 2.88799 6.42999 2.85704 6.4747 2.84101C6.51937 2.82495 6.57102 2.82545 6.61512 2.84241C7.43063 3.15574 8.3433 3.32136 9.25447 3.32136C10.1656 3.32136 11.0783 3.15574 11.8938 2.84241C11.938 2.82545 11.9896 2.82495 12.0343 2.84101C12.079 2.85707 12.112 2.88799 12.124 2.92517C12.1743 3.08006 12.3457 3.46656 12.8493 3.70945C13.0865 3.82387 13.3255 3.87177 13.5193 3.88948C13.4254 2.61777 13.1547 1.40019 12.6763 0.993744C12.0984 0.502888 10.9471 0.253968 9.25447 0.253968C7.68807 0.253968 6.58357 0.467301 5.97163 0.887998C5.9413 0.908855 5.90397 0.920538 5.86162 0.919776C5.65031 0.917681 5.43905 0.899712 5.2337 0.866379C4.89567 0.81149 4.57524 0.716983 4.27806 0.584697C4.23159 1.05816 4.45753 1.50079 4.88539 1.74708C4.97886 1.80089 5.08247 1.84571 5.19334 1.88038ZM9.25447 9.59522C10.9471 9.59522 12.0984 9.3463 12.6763 8.85538C13.2849 8.33833 13.5574 6.50859 13.5574 4.92459C13.5574 4.66932 13.5503 4.40767 13.5359 4.14618C13.2952 4.12923 12.9857 4.07402 12.6776 3.92542C12.1979 3.69409 11.9698 3.35599 11.866 3.13377C11.0506 3.42304 10.1518 3.57539 9.25447 3.57539C8.35712 3.57539 7.45838 3.42307 6.64292 3.13377C6.5391 3.35599 6.31092 3.69409 5.83133 3.92542C5.52379 4.07374 5.21486 4.12904 4.97438 4.14609C4.95489 4.49605 4.95155 4.77704 4.95155 4.92459C4.95155 6.50859 5.22399 8.33833 5.83268 8.85538C6.41063 9.3463 7.56188 9.59522 9.25447 9.59522ZM9.25447 9.84919C8.85363 9.84919 8.48299 9.83598 8.14154 9.80954V10.2772C8.32557 10.3899 8.71516 10.5793 9.25447 10.5793C9.44674 10.5793 9.92841 10.5484 10.3674 10.2768V9.80954C10.026 9.83598 9.65531 9.84919 9.25447 9.84919ZM6.75086 11.3574L8.36743 13.7777H10.1415L11.7581 11.3574C11.1294 11.1636 10.5824 10.917 10.4183 10.5618C9.94394 10.8039 9.4597 10.8333 9.25447 10.8333C8.73986 10.8333 8.34073 10.6871 8.09116 10.5607C7.9277 10.9164 7.38024 11.1634 6.75086 11.3574ZM4.46323 13.4738C4.06052 13.5175 3.62633 13.5397 3.19349 13.5397C2.76069 13.5397 2.32651 13.5175 1.92379 13.4738C1.965 13.9859 2.51857 14.3928 3.19349 14.3928C3.86841 14.3928 4.42202 13.9858 4.46323 13.4738ZM3.19353 13.0175C2.25033 13.0175 1.06223 12.844 0.810897 12.3556C0.457622 12.4727 0.326087 12.5942 0.326087 12.6746C0.326087 12.9298 1.41697 13.2857 3.19353 13.2857C4.9701 13.2857 6.06098 12.9298 6.06098 12.6746C6.06098 12.5944 5.93014 12.4732 5.57613 12.3557C5.32463 12.844 4.13666 13.0175 3.19353 13.0175ZM2.87808 10.2143C2.87808 10.3478 3.01961 10.4563 3.19353 10.4563C3.3675 10.4563 3.50898 10.3478 3.50898 10.2143C3.50898 10.0808 3.36746 9.9722 3.19353 9.9722C3.01961 9.9722 2.87808 10.0808 2.87808 10.2143ZM1.38371 11.4867C1.13295 11.773 1.02391 12.0834 1.11236 12.2592C1.25939 12.5514 2.13465 12.7635 3.19357 12.7635C4.25246 12.7635 5.12772 12.5514 5.27474 12.2592C5.36319 12.0834 5.25416 11.773 5.0034 11.4867C4.57757 11.0005 3.90102 10.7103 3.19357 10.7103C2.48613 10.7103 1.80954 11.0005 1.38371 11.4867ZM8.74765 14.9841V15.873C8.74765 15.9431 8.82065 16 8.91069 16C9.00073 16 9.07374 15.9431 9.07374 15.873V14.9841C9.07374 14.914 9.00073 14.8571 8.91069 14.8571C8.82065 14.8571 8.74765 14.914 8.74765 14.9841ZM11.0303 14.9841V15.873C11.0303 15.9431 11.1033 16 11.1933 16C11.2833 16 11.3563 15.9431 11.3563 15.873V14.9841C11.3563 14.914 11.2833 14.8571 11.1933 14.8571C11.1033 14.8571 11.0303 14.914 11.0303 14.9841Z" fill="white"/>
</svg>
