<svg width="15" height="16" viewBox="0 0 15 16" fill="none" xmlns="http://www.w3.org/2000/svg">
<path d="M8.25505 13.1018C8.49546 13.1018 8.69106 12.8932 8.69106 12.6368C8.69106 12.3803 8.49546 12.1717 8.25505 12.1717C8.01463 12.1717 7.81903 12.3803 7.81903 12.6368C7.81903 12.8932 8.01463 13.1018 8.25505 13.1018ZM8.25505 12.4256C8.36418 12.4256 8.45296 12.5203 8.45296 12.6367C8.45296 12.7531 8.36418 12.8478 8.25505 12.8478C8.14591 12.8478 8.05713 12.7531 8.05713 12.6367C8.05713 12.5203 8.14591 12.4256 8.25505 12.4256ZM8.25505 14.6797C8.49546 14.6797 8.69106 14.471 8.69106 14.2146C8.69106 13.9581 8.49546 13.7495 8.25505 13.7495C8.01463 13.7495 7.81903 13.9581 7.81903 14.2146C7.81903 14.471 8.01463 14.6797 8.25505 14.6797ZM8.25505 14.0034C8.36418 14.0034 8.45296 14.0981 8.45296 14.2145C8.45296 14.331 8.36418 14.4257 8.25505 14.4257C8.14591 14.4257 8.05713 14.331 8.05713 14.2145C8.05713 14.0981 8.14591 14.0034 8.25505 14.0034ZM6.78924 14.2145C6.78924 13.9581 6.59365 13.7495 6.35323 13.7495C6.11281 13.7495 5.91722 13.9581 5.91722 14.2145C5.91722 14.471 6.11281 14.6796 6.35323 14.6796C6.59365 14.6796 6.78924 14.471 6.78924 14.2145ZM6.15528 14.2145C6.15528 14.0981 6.24406 14.0034 6.3532 14.0034C6.46234 14.0034 6.55112 14.0981 6.55112 14.2145C6.55112 14.331 6.46234 14.4257 6.3532 14.4257C6.24406 14.4257 6.15528 14.331 6.15528 14.2145ZM13.1229 7.21349L12.6545 8.47279C12.6359 8.5226 12.5911 8.55298 12.5438 8.55298C12.5292 8.55298 12.5143 8.5501 12.4999 8.544C12.4388 8.51813 12.4089 8.44432 12.4331 8.37914L12.9016 7.11984C12.9258 7.05467 12.995 7.02286 13.0561 7.04864C13.1172 7.07451 13.1471 7.14832 13.1229 7.21349ZM12.3391 6.87041L11.969 8.17137C11.9534 8.22619 11.9062 8.26152 11.8551 8.26152C11.8437 8.26152 11.832 8.25975 11.8205 8.25603C11.7576 8.23568 11.7221 8.16476 11.7411 8.09765L12.1112 6.7967C12.1303 6.72962 12.1967 6.69162 12.2597 6.71203C12.3226 6.73241 12.3581 6.80333 12.3391 6.87041ZM14.5437 6.70648L12.1931 5.71171C11.9893 5.62543 11.7629 5.64187 11.5718 5.75667C11.3808 5.87152 11.2503 6.06968 11.214 6.30035L10.9793 7.78876C10.9687 7.78381 10.9583 7.77851 10.9477 7.77375C10.7029 7.66314 10.4439 7.59197 10.176 7.56083C10.2132 7.36546 10.2438 7.16102 10.2688 6.95587C10.3336 6.99552 10.4025 7.01603 10.4738 7.01603C10.8368 7.01603 11.1212 6.46521 11.1212 5.76206C11.1212 5.05892 10.8368 4.50806 10.4738 4.50806C10.441 4.50806 10.4081 4.51295 10.3756 4.52159C10.3667 4.16879 10.345 3.71406 10.296 3.238C10.6451 3.00937 10.8962 2.65692 11.0072 2.23714C11.1136 1.83406 11.0725 1.41175 10.8942 1.07841C10.6979 0.711397 10.3406 0.450254 9.91392 0.362C9.48811 0.273841 9.04906 0.372825 8.69269 0.633778C8.50139 0.427968 8.01767 0 7.30412 0C6.59058 0 6.10686 0.427968 5.91561 0.633714C5.55921 0.372762 5.12016 0.273905 4.69439 0.361937C4.26772 0.450191 3.9104 0.711333 3.71409 1.07835C3.53582 1.41165 3.49466 1.83397 3.60115 2.23708C3.7121 2.65686 3.96323 3.00933 4.31231 3.23797C4.26326 3.71403 4.24168 4.16876 4.23266 4.52156C4.20016 4.51292 4.16725 4.50803 4.13445 4.50803C3.77147 4.50803 3.48713 5.05886 3.48713 5.76203C3.48713 6.46521 3.77147 7.016 4.13445 7.016C4.20579 7.016 4.27469 6.99549 4.33951 6.95584C4.36454 7.16102 4.39507 7.36546 4.43234 7.56083C4.16448 7.59197 3.90543 7.66314 3.66064 7.77375C3.07629 8.03775 2.69481 8.47346 2.47766 8.79245C2.40213 8.90337 2.37481 9.044 2.40266 9.17825C2.4307 9.31346 2.51189 9.42959 2.62537 9.49683L3.88814 10.2451C3.95734 10.2861 4.03266 10.3057 4.10716 10.3057C4.25683 10.3057 4.40308 10.2267 4.48903 10.0841L5.14653 8.99311C5.44198 9.20794 5.83775 9.3527 6.33981 9.42959V9.93194C6.33981 10.3974 5.45353 10.6969 4.86707 10.8951C4.81912 10.9113 4.7729 10.927 4.72769 10.9425C4.3301 10.6854 3.76626 10.4812 3.18329 10.4812C2.34981 10.4812 1.55486 10.8985 1.23004 11.2913C1.13626 11.4046 1.07936 11.5191 1.06129 11.6283C0.332275 11.7729 0.0134355 11.9391 0.000399812 12.1786C-0.00403471 12.2604 0.0284355 12.3412 0.0970368 12.4187C0.332275 12.6846 1.09787 12.9727 2.00856 13.1184C2.02728 13.6713 2.54683 14.1162 3.18326 14.1162C3.28829 14.1162 3.39007 14.1039 3.48704 14.0812V15.873C3.48704 15.9431 3.54034 16 3.60609 16C3.67183 16 3.72513 15.9431 3.72513 15.873V13.9999C4.09153 13.8326 4.34501 13.5016 4.35799 13.1183C4.73975 13.0572 5.09594 12.9712 5.39829 12.8722L5.20371 15.8642C5.19915 15.9342 5.24865 15.9948 5.31421 15.9997C5.31704 15.9999 5.31981 16 5.32257 16C5.38457 16 5.43686 15.9488 5.44121 15.8818L5.64263 12.7847C5.74368 12.7452 5.83627 12.7043 5.91838 12.6628C5.93118 12.9071 6.121 13.1018 6.35317 13.1018C6.59359 13.1018 6.78918 12.8932 6.78918 12.6367C6.78918 12.3847 6.60019 12.1794 6.36555 12.1723C6.35118 11.9863 6.14987 11.8446 5.71171 11.7228L5.72707 11.4869C6.23326 11.2871 6.76338 11.1859 7.30406 11.1859C7.84475 11.1859 8.3749 11.2871 8.88109 11.4869L9.16692 15.8818C9.17127 15.9488 9.22356 16 9.28555 16C9.28832 16 9.29112 15.9999 9.29389 15.9997C9.35948 15.9948 9.40897 15.9342 9.40442 15.8642L9.11332 11.3882C9.11014 11.3392 9.08067 11.2965 9.0377 11.2786C8.83853 11.1961 8.63567 11.1283 8.42993 11.0751L8.51615 10.8611C8.54034 10.8011 8.55388 10.7381 8.55746 10.6749C8.87847 10.8697 9.29692 11.0114 9.66918 11.1372C9.92475 11.2235 10.1661 11.3051 10.2734 11.3764C10.4433 11.4895 10.5787 11.6263 10.6781 11.7836C10.6003 11.8544 10.537 11.9456 10.4968 12.0538L9.87228 13.733C9.80841 13.9046 9.81103 14.0926 9.87969 14.2621C9.94835 14.4317 10.0748 14.5626 10.2358 14.6307C10.3145 14.664 10.3959 14.6801 10.4761 14.6802V15.873C10.4761 15.9431 10.5295 16 10.5952 16C10.6609 16 10.7142 15.9431 10.7142 15.873V14.6316C10.7934 14.598 10.8666 14.5477 10.9291 14.4819C11.1006 14.6066 11.3076 14.6797 11.5303 14.6797C12.1203 14.6797 12.6003 14.1677 12.6003 13.5384C12.6003 12.9853 12.2295 12.523 11.7391 12.419C11.7518 12.3364 11.7504 12.2524 11.7345 12.1703L12.6917 9.59695L12.9707 9.71505C13.3098 9.85851 13.703 9.72781 13.9056 9.40419L14.878 7.85105C14.9998 7.65654 15.0323 7.41689 14.967 7.19359C14.9017 6.97029 14.7475 6.79273 14.5437 6.70648ZM10.8548 8.00759C10.8828 8.02022 10.9107 8.03356 10.9385 8.04743L10.9236 8.14213C10.8631 8.52587 11.0653 8.90857 11.4044 9.0521L11.6834 9.17016L11.5815 9.44416L11.0327 9.76933L10.5181 8.91543C10.4825 8.85648 10.4089 8.83937 10.3536 8.87727C10.2983 8.91521 10.2822 8.99375 10.3178 9.05276L10.8242 9.89292L10.6045 10.0231C10.5056 10.0817 10.3806 10.048 10.3195 9.9467L9.64912 8.83445C9.68046 8.80346 9.71034 8.77146 9.73859 8.73825C9.90707 8.54032 10.0314 8.20394 10.1233 7.81006C10.3777 7.83683 10.6233 7.90302 10.8548 8.00759ZM7.30412 9.24143C6.18633 9.24143 5.42659 9.0147 5.04594 8.56752C4.68296 8.14108 4.50129 6.73206 4.46981 5.39464C4.61275 5.32905 4.7907 5.21524 4.94418 5.01981C5.16171 4.74279 5.22296 4.4401 5.23737 4.2426C5.6182 4.09794 6.06225 3.97391 6.56008 3.90895C6.61528 4.46041 6.92603 4.8747 7.30412 4.8747C7.6821 4.8747 7.99284 4.4606 8.04817 3.90937C8.44531 3.96127 8.89534 4.06143 9.37085 4.2419C9.38517 4.43937 9.4463 4.74248 9.66406 5.01984C9.81758 5.2153 9.99552 5.32911 10.1385 5.3947C10.107 6.73216 9.92531 8.14114 9.56234 8.56759C9.18168 9.0147 8.42189 9.24143 7.30412 9.24143ZM4.51192 3.68648C5.12507 3.34695 6.09144 2.95876 7.30412 2.95876C8.51683 2.95876 9.48323 3.34695 10.0964 3.68648C10.1128 3.90841 10.1236 4.11924 10.1307 4.30946C9.03192 3.73178 7.99519 3.60641 7.30412 3.60641C6.10106 3.60641 5.12775 3.96829 4.47754 4.30937C4.48466 4.11917 4.49552 3.90838 4.51192 3.68648ZM10.1435 4.97311C10.1435 5.02016 10.1433 5.06746 10.1429 5.11492C10.0465 5.05886 9.94076 4.97667 9.84656 4.85673C9.70978 4.68251 9.64915 4.49527 9.6232 4.34464C9.79311 4.41825 9.96549 4.50254 10.1393 4.59873C10.1425 4.7467 10.1435 4.87384 10.1435 4.97311ZM7.81138 3.88324C7.76915 4.2993 7.55472 4.62073 7.30412 4.62073C7.05347 4.62073 6.839 4.29921 6.79686 3.88305C6.96082 3.86854 7.12987 3.86041 7.30412 3.86041C7.45677 3.86038 7.62698 3.86673 7.81138 3.88324ZM4.98496 4.34511C4.95894 4.49565 4.89832 4.68267 4.76165 4.85673C4.66749 4.97667 4.56171 5.05886 4.46537 5.11492C4.46498 5.06746 4.46478 5.02016 4.46478 4.97311C4.46478 4.87378 4.46576 4.74651 4.46897 4.59841C4.62031 4.51473 4.79299 4.42822 4.98496 4.34511ZM10.4738 4.76197C10.6674 4.76197 10.8831 5.17267 10.8831 5.762C10.8831 6.3513 10.6674 6.762 10.4738 6.762C10.4053 6.762 10.3455 6.71114 10.3015 6.65733C10.3745 5.91159 10.3816 5.2119 10.3816 4.97308C10.3816 4.91971 10.3813 4.85838 10.3806 4.79019C10.4114 4.7721 10.4437 4.76197 10.4738 4.76197ZM3.83028 2.16819C3.74097 1.83016 3.77397 1.47883 3.92088 1.20422C4.08275 0.901556 4.38123 0.685429 4.73972 0.61127C4.82653 0.593302 4.91397 0.584476 5.001 0.584476C5.30856 0.584476 5.61031 0.694889 5.85674 0.902794C5.90698 0.945175 5.97966 0.937556 6.02118 0.885587C6.10546 0.780095 6.56353 0.253968 7.30412 0.253968C8.04475 0.253968 8.50278 0.780095 8.58707 0.885587C8.62865 0.937556 8.70127 0.945206 8.7515 0.902794C9.06767 0.636064 9.47484 0.529778 9.86853 0.61127C10.227 0.685429 10.5255 0.901556 10.6874 1.20422C10.8343 1.47879 10.8673 1.83016 10.778 2.16819C10.6772 2.54937 10.4406 2.86562 10.1116 3.05864C10.0692 3.08352 10.0451 3.13333 10.0507 3.1846C10.0582 3.25311 10.0651 3.32127 10.0714 3.38883C9.43145 3.05543 8.47903 2.70483 7.30409 2.70483C6.12915 2.70483 5.17674 3.05546 4.5368 3.38886C4.54314 3.32127 4.55004 3.25311 4.55751 3.18464C4.56311 3.13333 4.53906 3.08352 4.49665 3.05867C4.16766 2.86562 3.93103 2.54937 3.83028 2.16819ZM4.13442 6.76203C3.94085 6.76203 3.72519 6.35133 3.72519 5.76203C3.72519 5.1727 3.94085 4.762 4.13442 4.762C4.16451 4.762 4.19689 4.77213 4.22772 4.79022C4.22698 4.85841 4.22671 4.91975 4.22671 4.97311C4.22671 5.21194 4.23376 5.91162 4.30677 6.65737C4.26275 6.71118 4.20299 6.76203 4.13442 6.76203ZM4.28873 9.94673C4.22769 10.0481 4.1024 10.0816 4.00373 10.0231L3.78409 9.89295L4.29043 9.05279C4.326 8.99381 4.30998 8.91524 4.25469 8.8773C4.1993 8.83937 4.1257 8.85645 4.09019 8.91546L3.57555 9.76937L3.17981 9.53486L3.60216 8.8341C3.63772 8.77511 3.62171 8.69654 3.56641 8.6586C3.51115 8.62067 3.43742 8.63775 3.40192 8.69676L2.97129 9.41127L2.741 9.27479C2.68704 9.24283 2.64847 9.18762 2.6351 9.12333C2.62177 9.05908 2.63427 8.99454 2.67031 8.94162C2.86969 8.64867 3.21948 8.24879 3.75353 8.00756C3.98498 7.90298 4.23061 7.83683 4.48495 7.81006C4.57686 8.20394 4.70124 8.54032 4.86972 8.73825C4.89796 8.77143 4.92784 8.80346 4.95918 8.83441L4.28873 9.94673ZM6.31076 10.7609C6.27257 10.6661 6.28121 10.5624 6.33439 10.4762C6.3876 10.3901 6.47359 10.3406 6.57031 10.3406C6.68335 10.3406 6.78522 10.4122 6.82987 10.523L6.99888 10.9425C6.80255 10.9558 6.60781 10.9817 6.41537 11.0205L6.31076 10.7609ZM1.40861 11.4593C1.70305 11.1033 2.44734 10.7351 3.18332 10.7351C3.9193 10.7351 4.66365 11.1033 4.95805 11.4593C5.04004 11.5584 5.08076 11.6507 5.07269 11.7193C5.05582 11.8627 4.81246 12.0134 4.42171 12.1225C4.064 12.2224 3.58951 12.2844 3.18335 12.2844C2.77719 12.2844 2.30266 12.2224 1.94501 12.1225C1.55427 12.0134 1.31088 11.8627 1.294 11.7193C1.28588 11.6508 1.32659 11.5584 1.40861 11.4593ZM3.18332 13.8622C2.69308 13.8622 2.28981 13.5496 2.24942 13.153C2.55335 13.192 2.86897 13.2145 3.18332 13.2145C3.49769 13.2145 3.81332 13.192 4.11725 13.153C4.07686 13.5496 3.67359 13.8622 3.18332 13.8622ZM6.55115 12.6368C6.55115 12.7532 6.46237 12.8479 6.35323 12.8479C6.24409 12.8479 6.15531 12.7532 6.15531 12.6368C6.15531 12.5204 6.24409 12.4257 6.35323 12.4257C6.46237 12.4257 6.55115 12.5204 6.55115 12.6368ZM6.12853 12.1929C6.12478 12.2553 5.89406 12.4597 5.23275 12.6607C4.60597 12.8513 3.85897 12.9606 3.18332 12.9606C2.50766 12.9606 1.76067 12.8513 1.13388 12.6607C0.472602 12.4597 0.241888 12.2553 0.238049 12.1941C0.239596 12.1878 0.284477 12.0423 1.09489 11.8799C1.34412 12.4133 2.69326 12.5383 3.18332 12.5383C3.67341 12.5383 5.02257 12.4133 5.27177 11.8799C6.08219 12.0423 6.12707 12.1877 6.12853 12.1929ZM5.57049 11.2787C5.52752 11.2965 5.49805 11.3392 5.49487 11.3883L5.47689 11.6643C5.42246 11.6521 5.36522 11.6401 5.30528 11.6282C5.28725 11.5191 5.23034 11.4046 5.13656 11.2913C5.091 11.2362 5.03585 11.1806 4.97293 11.1257C5.33656 11.0028 5.73936 10.8639 6.05067 10.675C6.05424 10.7381 6.06778 10.8011 6.09198 10.8611L6.1782 11.0752C5.97252 11.1284 5.76966 11.1961 5.57049 11.2787ZM7.25397 10.9326L7.04859 10.4227C6.9663 10.2186 6.77859 10.0867 6.57031 10.0867C6.56659 10.0867 6.56293 10.087 6.55921 10.0871C6.57112 10.0376 6.57793 9.98606 6.57793 9.93197V9.46032C6.80115 9.48375 7.04302 9.49543 7.30412 9.49543C7.56525 9.49543 7.80713 9.48375 8.03034 9.46032V9.93194C8.03034 9.98603 8.03716 10.0375 8.04906 10.087C8.04534 10.087 8.04168 10.0867 8.03796 10.0867C7.82966 10.0867 7.64189 10.2186 7.55969 10.4227L7.3543 10.9325C7.33758 10.9323 7.32088 10.9319 7.30415 10.9319C7.2874 10.9319 7.2707 10.9324 7.25397 10.9326ZM7.60942 10.9425L7.77844 10.523C7.82308 10.4122 7.92496 10.3406 8.03799 10.3406C8.13472 10.3406 8.2207 10.3901 8.27392 10.4762C8.3271 10.5624 8.33573 10.6661 8.29755 10.7609L8.19296 11.0205C8.00046 10.9817 7.80576 10.9558 7.60942 10.9425ZM10.3995 11.161C10.2667 11.0727 10.0232 10.9904 9.74121 10.8951C9.15475 10.6969 8.26847 10.3974 8.26847 9.93194V9.42959C8.77052 9.35267 9.1663 9.20794 9.46174 8.99311L10.1192 10.084C10.2052 10.2267 10.3514 10.3057 10.5011 10.3057C10.5756 10.3057 10.6509 10.2861 10.7201 10.2451L11.4429 9.81679L10.803 11.5371C10.6947 11.3941 10.5601 11.2678 10.3995 11.161ZM10.3237 14.3947C10.2218 14.3516 10.1418 14.2688 10.0984 14.1615C10.0549 14.0542 10.0533 13.9353 10.0937 13.8266L10.7182 12.1475C10.8016 11.9233 11.0404 11.8132 11.2508 11.9022C11.3526 11.9453 11.4326 12.0281 11.4761 12.1354C11.51 12.2193 11.5181 12.3102 11.5008 12.3978C10.9245 12.4147 10.4605 12.9196 10.4605 13.5383C10.4605 13.8382 10.5696 14.1112 10.7475 14.3151C10.6975 14.363 10.6378 14.3961 10.5742 14.4129C10.5702 14.4137 10.5664 14.415 10.5625 14.4161C10.4851 14.4341 10.4023 14.428 10.3237 14.3947ZM12.3623 13.5384C12.3623 14.0276 11.9891 14.4257 11.5304 14.4257C11.0717 14.4257 10.6986 14.0276 10.6986 13.5384C10.6986 13.0491 11.0717 12.651 11.5304 12.651C11.9891 12.651 12.3623 13.0491 12.3623 13.5384ZM14.6801 7.71003L13.7077 9.26318C13.567 9.48787 13.294 9.57867 13.0586 9.47899L12.6689 9.31406C12.6396 9.30159 12.6068 9.30216 12.5778 9.31549C12.5488 9.32886 12.526 9.35394 12.5144 9.38524L11.5936 11.8608C11.5257 11.7754 11.4388 11.7086 11.3385 11.6661C11.2363 11.6229 11.1299 11.6095 11.0276 11.6218L11.9486 9.14578C11.9728 9.0806 11.9429 9.00679 11.8818 8.98092L11.4921 8.816C11.2567 8.71638 11.1163 8.45067 11.1583 8.18425L11.4487 6.34244C11.4731 6.18778 11.5605 6.05489 11.6886 5.97791C11.8167 5.90092 11.9686 5.88991 12.1053 5.94775L14.4558 6.94251C14.5925 7.00035 14.696 7.1194 14.7397 7.26914C14.7835 7.41889 14.7618 7.57959 14.6801 7.71003ZM13.9059 7.55622L13.3391 8.7739C13.3183 8.81857 13.2761 8.84445 13.2324 8.84445C13.2146 8.84445 13.1965 8.84019 13.1795 8.83118C13.1206 8.8 13.0966 8.72378 13.1258 8.66099L13.6926 7.4433C13.7219 7.38048 13.7932 7.35476 13.8522 7.38603C13.9111 7.41721 13.9352 7.4934 13.9059 7.55622ZM5.33418 4.83695C5.28644 4.7894 5.28314 4.71016 5.32731 4.65879C5.33662 4.64797 5.56004 4.39371 5.99228 4.39371C6.42451 4.39371 6.64793 4.64794 6.65725 4.65876C6.70168 4.71044 6.69841 4.79079 6.64996 4.83816C6.6271 4.86051 6.59829 4.87156 6.56954 4.87156C6.53734 4.87156 6.50525 4.85768 6.48177 4.83038C6.47582 4.82375 6.31499 4.64768 5.99231 4.64768C5.66963 4.64768 5.50879 4.82375 5.5021 4.83124C5.45701 4.88171 5.38186 4.88451 5.33418 4.83695ZM9.28094 4.65879C9.32537 4.71048 9.3221 4.79083 9.27365 4.83819C9.25076 4.86054 9.22198 4.87156 9.19323 4.87156C9.16133 4.87156 9.12948 4.85794 9.10606 4.83111C9.09796 4.82206 8.93713 4.64765 8.61597 4.64765C8.29261 4.64765 8.12808 4.82851 8.12653 4.83035C8.08213 4.88203 8.00677 4.88552 7.95835 4.83813C7.9099 4.79073 7.90662 4.71041 7.95106 4.65873C7.96037 4.64791 8.1838 4.39368 8.616 4.39368C9.04817 4.39371 9.27162 4.64797 9.28094 4.65879ZM8.12353 6.89308C8.17005 6.94267 8.16945 7.02368 8.12293 7.07327C8.11293 7.08391 7.87165 7.33435 7.30409 7.33435C6.73659 7.33435 6.49528 7.08391 6.48528 7.07327C6.43877 7.02365 6.43877 6.94327 6.48528 6.89368C6.53174 6.8441 6.60719 6.8441 6.65362 6.89368C6.65433 6.89435 6.84403 7.08038 7.30406 7.08038C7.76409 7.08038 7.95383 6.89435 7.9557 6.89248C8.00222 6.84292 8.07704 6.84352 8.12353 6.89308ZM6.46454 5.47225C6.46454 5.68864 6.30007 5.86406 6.09722 5.86406C5.93314 5.86406 5.79427 5.74927 5.74713 5.59089C5.61278 5.55775 5.50326 5.48759 5.42629 5.38267C5.38579 5.32743 5.3949 5.24762 5.44671 5.20441C5.49847 5.16121 5.57332 5.17095 5.61382 5.22619C5.65109 5.27695 5.7004 5.30978 5.75516 5.33032C5.76094 5.31451 5.76737 5.29908 5.77493 5.28435C5.74981 5.22924 5.73034 5.17 5.71817 5.10559C5.70516 5.03683 5.74689 4.96987 5.81132 4.95603C5.876 4.942 5.93856 4.98667 5.95156 5.0554C5.95496 5.0734 5.95921 5.0907 5.96406 5.10746C6.0054 5.09029 6.05019 5.08051 6.09722 5.08051C6.30007 5.08044 6.46454 5.25584 6.46454 5.47225ZM9.18195 5.38264C9.10499 5.48756 8.99543 5.55771 8.86112 5.59086C8.81397 5.74924 8.67511 5.86403 8.51103 5.86403C8.30817 5.86403 8.14371 5.6886 8.14371 5.47222C8.14371 5.25584 8.30817 5.08041 8.51103 5.08041C8.55805 5.08041 8.60284 5.09019 8.64418 5.10737C8.64906 5.09057 8.65329 5.0733 8.65671 5.05527C8.66972 4.98654 8.73246 4.94187 8.79695 4.95594C8.86141 4.96981 8.90311 5.03679 8.89011 5.10552C8.87793 5.16991 8.85844 5.22914 8.83335 5.28425C8.84091 5.29898 8.84734 5.31441 8.85311 5.33022C8.90787 5.30968 8.95719 5.27689 8.99442 5.2261C9.03496 5.17086 9.10981 5.16114 9.16153 5.20432C9.21332 5.24759 9.22246 5.3274 9.18195 5.38264Z" fill="white"/>
</svg>
