<svg width="15" height="16" viewBox="0 0 15 16" fill="none" xmlns="http://www.w3.org/2000/svg">
<path d="M5.35467 4.69839C4.89413 4.69839 4.66469 4.90322 4.65515 4.91195C4.59977 4.96255 4.50713 4.96547 4.44822 4.91792C4.38929 4.87039 4.38525 4.791 4.43968 4.7396C4.45241 4.7275 4.75909 4.44443 5.35467 4.44443C5.95025 4.44443 6.25693 4.7275 6.26966 4.73954C6.32441 4.79122 6.32038 4.87157 6.26067 4.91893C6.2325 4.94128 6.197 4.95233 6.16157 4.95233C6.12189 4.95233 6.08232 4.93846 6.05341 4.91115C6.04465 4.90319 5.81524 4.69839 5.35467 4.69839ZM8.32273 4.91192C8.33227 4.90322 8.56171 4.69839 9.02225 4.69839C9.48121 4.69839 9.71065 4.90179 9.72166 4.91182C9.75052 4.93871 9.78976 4.95236 9.82915 4.95236C9.86458 4.95236 9.90008 4.94131 9.92825 4.919C9.98796 4.8716 9.99199 4.79128 9.93727 4.73957C9.92451 4.7275 9.61783 4.44443 9.02225 4.44443C8.42667 4.44443 8.11999 4.7275 8.10726 4.73954C8.05283 4.79093 8.05687 4.87033 8.11577 4.91785C8.17474 4.96541 8.26735 4.96252 8.32273 4.91192ZM8.31914 7.45486C8.37591 7.40568 8.37584 7.32667 8.31972 7.27692C8.26361 7.22715 8.17108 7.22622 8.11291 7.27422C8.11027 7.27638 7.8411 7.49203 7.18846 7.49203C6.53581 7.49203 6.26665 7.27638 6.26529 7.27524C6.20797 7.22565 6.1151 7.22565 6.05782 7.27524C6.00053 7.32486 6.00053 7.40524 6.05782 7.45483C6.07153 7.46673 6.40319 7.746 7.18846 7.746C7.97372 7.746 8.30538 7.46673 8.31914 7.45486ZM5.50137 5.20633C5.21779 5.20633 4.98791 5.40531 4.98791 5.65077C4.98791 5.89623 5.21779 6.09521 5.50137 6.09521C5.78495 6.09521 6.01483 5.89623 6.01483 5.65077C6.01483 5.40531 5.78495 5.20633 5.50137 5.20633ZM8.87554 5.20633C8.59197 5.20633 8.36208 5.40531 8.36208 5.65077C8.36208 5.89623 8.59197 6.09521 8.87554 6.09521C9.15912 6.09521 9.38901 5.89623 9.38901 5.65077C9.38901 5.40531 9.15912 5.20633 8.87554 5.20633ZM10.4159 15.2381V10.5397C10.4159 10.4695 10.4816 10.4127 10.5626 10.4127H11.1494V10.1587C11.1494 10.0886 11.2151 10.0317 11.2961 10.0317H13.35C13.431 10.0317 13.4967 10.0886 13.4967 10.1587V10.4127H14.0835C14.1645 10.4127 14.2302 10.4695 14.2302 10.5397V15.2381C14.2302 15.3082 14.1645 15.365 14.0835 15.365H10.5626C10.4816 15.365 10.4159 15.3082 10.4159 15.2381ZM11.4429 10.7936H13.2033V10.2857H11.4429V10.7936ZM10.7093 15.1111H13.9368V10.6667H13.4967V10.9206C13.4967 10.9907 13.431 11.0476 13.35 11.0476H11.2961C11.2151 11.0476 11.1494 10.9907 11.1494 10.9206V10.6667H10.7093V15.1111ZM0 15.368V11.0447C0 10.6962 0.327515 10.4127 0.730105 10.4127H3.96443C4.36702 10.4127 4.69454 10.6962 4.69454 11.0447V11.5069C5.24625 11.3226 5.86817 11.0488 5.86817 10.6666V10.0867C4.92006 9.97088 4.24519 9.71425 3.82206 9.31088C3.42761 8.93482 3.20796 8.11111 3.08583 7.28207C2.98842 7.33673 2.88785 7.36505 2.78736 7.36505C2.29378 7.36505 1.90714 6.7515 1.90714 5.96823C1.90714 5.18496 2.29378 4.57141 2.78736 4.57141C2.83933 4.57141 2.89123 4.57808 2.94221 4.59112C2.974 3.57065 3.12562 1.51174 3.82202 0.847838C4.42046 0.277332 5.52162 0 7.18846 0C8.8553 0 9.95645 0.277332 10.5549 0.847838C11.2513 1.51174 11.4029 3.57062 11.4347 4.59112C11.4857 4.5782 11.5378 4.57144 11.5896 4.57144C12.0831 4.57144 12.4698 5.185 12.4698 5.96826C12.4698 6.75153 12.0831 7.36508 11.5896 7.36508C11.4851 7.36508 11.3845 7.33835 11.2904 7.28689C11.1681 8.11428 10.9486 8.93555 10.5549 9.31088C10.5213 9.34295 10.4858 9.37393 10.449 9.40415C10.4885 9.39949 10.5287 9.39685 10.5697 9.39685H14.1127C14.6019 9.39685 15 9.74142 15 10.1649V15.2319C15 15.6554 14.6019 16 14.1127 16H10.5697C10.0805 16 9.68238 15.6554 9.68238 15.2319V13.1829C9.44893 13.5244 9.19374 13.8557 8.91941 14.1716C8.44904 14.7131 7.916 15.2184 7.33512 15.6748V15.873C7.33512 15.9431 7.26944 16 7.18842 16C7.1074 16 7.04172 15.9431 7.04172 15.873V15.6748C6.46085 15.2184 5.92776 14.7131 5.45743 14.1716C5.1831 13.8557 4.92794 13.5245 4.69447 13.1829V15.368C4.69447 15.7165 4.36695 16 3.96436 16H0.730105C0.327515 16 0 15.7165 0 15.368ZM11.3312 6.98242C11.3955 7.04765 11.4849 7.11108 11.5896 7.11108C11.8671 7.11108 12.1764 6.64172 12.1764 5.96823C12.1764 5.29474 11.8671 4.82538 11.5896 4.82538C11.5414 4.82538 11.4895 4.83922 11.4411 4.86404C11.4425 4.9535 11.4429 5.02649 11.4429 5.07934C11.4429 5.34893 11.433 6.14061 11.3312 6.98242ZM3.04538 6.97934C2.94386 6.13867 2.93406 5.34858 2.93406 5.07934C2.93406 5.02658 2.93443 4.95376 2.93579 4.86452C2.89423 4.84303 2.84337 4.82538 2.78736 4.82538C2.5098 4.82538 2.20055 5.29474 2.20055 5.96823C2.20055 6.64172 2.5098 7.11108 2.78736 7.11108C2.8646 7.11108 2.9549 7.06467 3.04538 6.97934ZM7.7697 14.9533L7.49906 13.0793H6.87785L6.60722 14.9533C6.79463 15.1236 6.98846 15.2886 7.18846 15.4475C7.38841 15.2886 7.58225 15.1236 7.7697 14.9533ZM8.21538 10.6666V10.1175C7.90044 10.1449 7.55844 10.1587 7.18846 10.1587C6.81847 10.1587 6.47647 10.1449 6.16153 10.1175V10.6666C6.16153 10.7604 6.13957 10.8477 6.1001 10.9292L7.18846 11.7666L8.27681 10.9292C8.23735 10.8477 8.21538 10.7604 8.21538 10.6666ZM7.4545 11.9017L8.71454 12.3974L9.04502 11.5392C8.80278 11.4294 8.58606 11.3008 8.43492 11.1474L7.4545 11.9017ZM7.18846 12.076L6.64287 12.2906L6.85335 12.8254H7.52356L7.73405 12.2906L7.18846 12.076ZM9.68241 11.7784C9.55922 11.7389 9.43426 11.6962 9.3118 11.6497L8.94138 12.6116C8.92821 12.6457 8.89894 12.6734 8.86084 12.6878C8.84213 12.6949 8.82218 12.6984 8.80219 12.6984C8.78147 12.6984 8.76079 12.6946 8.74149 12.687L8.00244 12.3962L7.77835 12.9656L8.03006 14.7086C8.25965 14.4864 8.47868 14.2564 8.68494 14.0189C9.05548 13.5923 9.39077 13.1372 9.68241 12.6661V11.7784ZM9.80465 9.77653C9.44956 9.92129 9.01873 10.0244 8.50879 10.0867V10.6666C8.50879 11.0488 9.1307 11.3226 9.68241 11.5069V10.1649C9.68241 10.0233 9.72712 9.89056 9.80465 9.77653ZM9.97582 10.1649V15.2319C9.97582 15.5154 10.2423 15.746 10.5697 15.746H14.1127C14.4402 15.746 14.7066 15.5154 14.7066 15.2319V10.1649C14.7066 9.88142 14.4402 9.65079 14.1127 9.65079H10.5697C10.2423 9.65079 9.97582 9.88142 9.97582 10.1649ZM3.26066 4.03913C3.40348 3.80576 3.59617 3.56376 3.85745 3.33862C4.0116 3.2058 4.18141 3.08592 4.36416 2.98075C4.26679 2.90561 4.18698 2.82167 4.12665 2.7292C3.93513 2.4357 3.93407 2.03948 4.1239 1.7198C4.5167 1.05844 5.73617 0.784029 7.15835 1.03698C7.50138 1.09796 7.8407 1.09311 8.16693 1.02254L8.1798 1.01974C8.25855 1.00276 8.33806 1.04412 8.35772 1.11212C8.37738 1.18015 8.32959 1.24911 8.25099 1.26612L8.23812 1.26892C7.87411 1.34771 7.48036 1.35349 7.09934 1.28574C6.01872 1.09355 5.07901 1.21707 4.6063 1.58971C4.92758 1.54498 5.25245 1.52253 5.57535 1.5239C6.34587 1.5266 7.10469 1.65793 7.83072 1.91425C7.90573 1.94072 7.94174 2.01485 7.91115 2.07977C7.88798 2.12901 7.83314 2.15882 7.77527 2.15882C7.75682 2.15882 7.73804 2.15577 7.71993 2.14939C7.02888 1.90542 6.30695 1.78041 5.57421 1.77783C5.1667 1.77568 4.75755 1.81393 4.35657 1.88875C4.24203 2.12155 4.25032 2.40215 4.38221 2.60428C4.53735 2.84202 4.89021 3.01897 5.37572 3.1025C6.22502 3.24862 7.58525 3.10357 8.56512 2.43974C8.90213 2.21142 9.18586 1.92479 9.40841 1.58783C9.43067 1.55412 9.46955 1.53107 9.51389 1.5253C9.55819 1.51945 9.60323 1.53158 9.63598 1.55812C9.9317 1.79755 10.1421 2.0712 10.2613 2.37151C10.3892 2.69361 10.3733 2.95453 10.3592 3.18475C10.3473 3.37964 10.3361 3.5637 10.4096 3.77262C10.5124 4.06481 10.7584 4.33001 11.1413 4.56335C11.094 3.06542 10.8403 1.49768 10.3377 1.0186C9.8055 0.511204 8.74593 0.253967 7.18846 0.253967C5.63098 0.253967 4.57142 0.511204 4.03925 1.01854C3.59522 1.44184 3.34542 2.7151 3.26066 4.03913ZM7.18846 9.90472C8.74593 9.90472 9.8055 9.64748 10.3377 9.14015C10.8984 8.60555 11.1494 6.71543 11.1494 5.07934C11.1494 5.01042 11.149 4.941 11.1481 4.87128C10.6099 4.58303 10.2668 4.23865 10.1289 3.84652C10.0403 3.59484 10.0535 3.37954 10.0662 3.17129C10.0801 2.94405 10.0931 2.72942 9.98378 2.45396C9.89821 2.2385 9.75738 2.03783 9.56402 1.85567C9.33916 2.16056 9.06461 2.4238 8.7459 2.63967C7.84374 3.25084 6.4344 3.54364 5.31843 3.35154C5.04872 3.30513 4.81579 3.23332 4.62299 3.1391C4.41932 3.24716 4.23165 3.37449 4.06449 3.51856C3.55777 3.95519 3.33101 4.463 3.22963 4.81671C3.22824 4.90484 3.22747 4.99246 3.22747 5.07934C3.22747 6.71543 3.47848 8.60555 4.03925 9.14015C4.57142 9.64748 5.63098 9.90472 7.18846 9.90472ZM5.33186 11.5393L5.66234 12.3975L6.92237 11.9017L5.94196 11.1474C5.79085 11.3008 5.5741 11.4295 5.33186 11.5393ZM4.6945 12.6661C4.98619 13.1372 5.32148 13.5923 5.69197 14.0189C5.89824 14.2564 6.1173 14.4864 6.34686 14.7086L6.59856 12.9656L6.37447 12.3962L5.63542 12.687C5.61613 12.6946 5.59544 12.6984 5.57472 12.6984C5.55477 12.6984 5.53478 12.6948 5.51608 12.6878C5.47793 12.6734 5.4487 12.6457 5.43554 12.6116L5.06511 11.6497C4.94265 11.6962 4.8177 11.7389 4.6945 11.7784V12.6661ZM0.293406 15.368C0.293406 15.5764 0.489292 15.746 0.730105 15.746H3.96443C4.20521 15.746 4.40113 15.5765 4.40113 15.368V11.0447C4.40113 10.8362 4.20525 10.6667 3.96443 10.6667H0.730105C0.489292 10.6667 0.293406 10.8362 0.293406 11.0447V15.368ZM0.586813 11.8095V11.0476C0.586813 10.9775 0.652499 10.9206 0.733516 10.9206H3.96099C4.042 10.9206 4.10769 10.9775 4.10769 11.0476V11.8095C4.10769 11.8796 4.042 11.9365 3.96099 11.9365H0.733516C0.652499 11.9365 0.586813 11.8796 0.586813 11.8095ZM0.880219 11.6825H3.81428V11.1746H0.880219V11.6825ZM0.586813 15.1217V12.5608C0.586813 12.4907 0.652499 12.4339 0.733516 12.4339H3.96099C4.042 12.4339 4.10769 12.4907 4.10769 12.5608V15.1217C4.10769 15.1918 4.042 15.2487 3.96099 15.2487H0.733516C0.652499 15.2487 0.586813 15.1918 0.586813 15.1217ZM3.03188 13.2487H3.81428V12.6878H3.03188V13.2487ZM3.03188 14.1799H3.81428V13.5026H3.03188V14.1799ZM3.03188 14.9947H3.81428V14.4338H3.03188V14.9947ZM1.95603 13.2487H2.73844V12.6878H1.95603V13.2487ZM1.95603 14.1799H2.73844V13.5026H1.95603V14.1799ZM1.95603 14.9947H2.73844V14.4338H1.95603V14.9947ZM0.880219 13.2487H1.66262V12.6878H0.880219V13.2487ZM0.880219 14.1799H1.66262V13.5026H0.880219V14.1799ZM0.880219 14.9947H1.66262V14.4338H0.880219V14.9947Z" fill="white"/>
</svg>
