<svg width="15" height="16" viewBox="0 0 15 16" fill="none" xmlns="http://www.w3.org/2000/svg">
<path d="M7.30403 7.35408C6.73298 7.35408 6.4903 7.10221 6.48027 7.09148C6.43375 7.04189 6.43375 6.96148 6.48027 6.91189C6.52679 6.8623 6.60218 6.8623 6.64861 6.91189C6.64932 6.91256 6.84048 7.10008 7.304 7.10008C7.76754 7.10008 7.9587 6.91256 7.96057 6.91068C8.00706 6.86107 8.08182 6.86167 8.12837 6.91129C8.17489 6.96087 8.1743 7.04189 8.12778 7.09148C8.11778 7.10221 7.87507 7.35408 7.30403 7.35408ZM6.08896 5.0858C5.88473 5.0858 5.71917 5.2624 5.71917 5.48024C5.71917 5.69808 5.88473 5.87469 6.08896 5.87469C6.29319 5.87469 6.45875 5.69808 6.45875 5.48024C6.45875 5.2624 6.29322 5.0858 6.08896 5.0858ZM8.51909 5.87469C8.72332 5.87469 8.88888 5.69808 8.88888 5.48024C8.88888 5.2624 8.72332 5.0858 8.51909 5.0858C8.31486 5.0858 8.1493 5.2624 8.1493 5.48024C8.1493 5.69808 8.31486 5.87469 8.51909 5.87469ZM7.81894 12.6367C7.81894 12.3803 8.01453 12.1717 8.25495 12.1717C8.49537 12.1717 8.69096 12.3803 8.69096 12.6367C8.69096 12.8932 8.49537 13.1018 8.25495 13.1018C8.01453 13.1018 7.81894 12.8932 7.81894 12.6367ZM8.05703 12.6367C8.05703 12.7531 8.14581 12.8478 8.25495 12.8478C8.36409 12.8478 8.45287 12.7531 8.45287 12.6367C8.45287 12.5203 8.36409 12.4256 8.25495 12.4256C8.14581 12.4256 8.05703 12.5203 8.05703 12.6367ZM7.81894 14.2145C7.81894 13.9581 8.01453 13.7494 8.25495 13.7494C8.49537 13.7494 8.69096 13.9581 8.69096 14.2145C8.69096 14.471 8.49537 14.6796 8.25495 14.6796C8.01453 14.6796 7.81894 14.471 7.81894 14.2145ZM8.05703 14.2145C8.05703 14.3309 8.14581 14.4256 8.25495 14.4256C8.36409 14.4256 8.45287 14.3309 8.45287 14.2145C8.45287 14.0981 8.36409 14.0034 8.25495 14.0034C8.14581 14.0034 8.05703 14.0981 8.05703 14.2145ZM6.35313 14.6796C6.11271 14.6796 5.91712 14.471 5.91712 14.2145C5.91712 13.9581 6.11271 13.7495 6.35313 13.7495C6.59355 13.7495 6.78914 13.9581 6.78914 14.2145C6.78914 14.471 6.59355 14.6796 6.35313 14.6796ZM6.35313 14.4257C6.46227 14.4257 6.55105 14.331 6.55105 14.2145C6.55105 14.0981 6.46227 14.0034 6.35313 14.0034C6.24399 14.0034 6.15521 14.0981 6.15521 14.2145C6.15521 14.331 6.24399 14.4257 6.35313 14.4257ZM13.056 7.04862C12.9949 7.02284 12.9257 7.05465 12.9015 7.11983L12.4331 8.37913C12.4088 8.4443 12.4387 8.51811 12.4998 8.54398C12.5142 8.55008 12.529 8.55297 12.5437 8.55297C12.591 8.55297 12.6359 8.52259 12.6544 8.47278L13.1228 7.21348C13.147 7.1483 13.1171 7.07449 13.056 7.04862ZM12.2596 6.71205C12.1966 6.69164 12.1302 6.72961 12.1111 6.79672L11.7411 8.09767C11.722 8.16478 11.7575 8.2357 11.8204 8.25605C11.832 8.25979 11.8436 8.26154 11.855 8.26154C11.9061 8.26154 11.9533 8.2262 11.9689 8.17138L12.339 6.87043C12.358 6.80332 12.3225 6.7324 12.2596 6.71205ZM14.967 7.19357C15.0322 7.41687 14.9998 7.65652 14.878 7.85103L13.9056 9.40417C13.703 9.72779 13.3098 9.85846 12.9707 9.71503L12.6917 9.59693L11.7345 12.1703C11.7504 12.2524 11.7518 12.3364 11.7391 12.419C12.2295 12.5229 12.6003 12.9852 12.6003 13.5383C12.6003 14.1676 12.1203 14.6796 11.5303 14.6796C11.3076 14.6796 11.1006 14.6066 10.9291 14.4818C10.8666 14.5477 10.7934 14.598 10.7142 14.6315V15.873C10.7142 15.9431 10.6609 16 10.5952 16C10.5295 16 10.4761 15.9431 10.4761 15.873V14.6802C10.3959 14.6801 10.3145 14.6641 10.2358 14.6307C10.0748 14.5626 9.94835 14.4317 9.87969 14.2621C9.81103 14.0926 9.80838 13.9046 9.87228 13.733L10.4968 12.0538C10.5371 11.9456 10.6003 11.8544 10.6781 11.7836C10.5787 11.6263 10.4434 11.4895 10.2734 11.3764C10.1661 11.3051 9.92475 11.2235 9.66918 11.1372C9.29692 11.0114 8.87846 10.8698 8.55745 10.6749C8.55388 10.7381 8.54034 10.8011 8.51614 10.8611L8.42992 11.0752C8.63564 11.1284 8.83852 11.1961 9.03769 11.2786C9.08067 11.2965 9.11013 11.3392 9.11332 11.3882L9.40442 15.8642C9.40897 15.9342 9.35948 15.9948 9.29391 15.9996C9.29109 15.9999 9.28832 16 9.28555 16C9.22356 16 9.17126 15.9488 9.16692 15.8818L8.88108 11.4869C8.37489 11.2872 7.84474 11.1859 7.30405 11.1859C6.76337 11.1859 6.23322 11.2872 5.72706 11.4869L5.7117 11.7228C6.14985 11.8447 6.35116 11.9863 6.36554 12.1723C6.60021 12.1794 6.78917 12.3848 6.78917 12.6367C6.78917 12.8932 6.59358 13.1018 6.35316 13.1018C6.12099 13.1018 5.93116 12.9071 5.91837 12.6628C5.83625 12.7044 5.74366 12.7451 5.64262 12.7847L5.44119 15.8818C5.43685 15.9488 5.38455 16 5.32256 16C5.31979 16 5.31699 15.9999 5.3142 15.9997C5.24863 15.9948 5.19914 15.9342 5.20369 15.8642L5.3983 12.8722C5.09595 12.9712 4.73976 13.0572 4.358 13.1184C4.34503 13.5016 4.09154 13.8327 3.72514 13.9999V15.873C3.72514 15.9431 3.67184 16 3.6061 16C3.54035 16 3.48705 15.9431 3.48705 15.873V14.0811C3.39008 14.1038 3.2883 14.1161 3.18327 14.1161C2.54684 14.1161 2.02728 13.6712 2.00856 13.1183C1.09787 12.9726 0.332276 12.6845 0.097037 12.4186C0.0284356 12.3411 -0.00403473 12.2603 0.000399813 12.1785C0.0134356 11.9391 0.332276 11.7728 1.0613 11.6282C1.07933 11.519 1.13624 11.4045 1.23005 11.2912C1.55487 10.8985 2.34981 10.4811 3.1833 10.4811C3.76625 10.4811 4.33012 10.6853 4.72771 10.9424C4.77292 10.9269 4.81914 10.9112 4.86708 10.895C5.45354 10.6968 6.33983 10.3973 6.33983 9.93185V9.4295C5.65976 9.32535 5.17482 9.09668 4.8697 8.7382C4.58711 8.40624 4.42848 7.68522 4.33949 6.95576C4.27467 6.99541 4.20577 7.01592 4.13443 7.01592C3.77145 7.01592 3.48711 6.4651 3.48711 5.76196C3.48711 5.05881 3.77145 4.50796 4.13443 4.50796C4.16723 4.50796 4.20015 4.51285 4.23265 4.52148C4.24163 4.16866 4.26324 3.71396 4.31229 3.2379C3.96321 3.00926 3.71208 2.65679 3.60113 2.23701C3.49464 1.83393 3.5358 1.41162 3.71407 1.07828C3.91041 0.711268 4.26774 0.450126 4.69437 0.361872C5.12018 0.273809 5.55923 0.372698 5.9156 0.633649C6.10676 0.427967 6.59048 0 7.30403 0C8.0176 0 8.50132 0.427967 8.69257 0.633713C9.04897 0.372761 9.48802 0.273809 9.9138 0.361936C10.3405 0.45019 10.6978 0.711332 10.8941 1.07835C11.0724 1.41165 11.1135 1.83396 11.007 2.23707C10.8961 2.65685 10.645 3.00933 10.2959 3.23793C10.3449 3.71402 10.3665 4.16872 10.3755 4.52151C10.408 4.51288 10.4409 4.50799 10.4737 4.50799C10.8367 4.50799 11.1211 5.05882 11.1211 5.76199C11.1211 6.46516 10.8367 7.01595 10.4737 7.01595C10.4024 7.01595 10.3335 6.99545 10.2687 6.9558C10.1797 7.68525 10.0211 8.40627 9.7385 8.73824C9.43335 9.09671 8.94838 9.32538 8.26834 9.42954V9.93188C8.26834 10.3974 9.15463 10.6969 9.74109 10.8951C10.0231 10.9904 10.2666 11.0726 10.3993 11.1609C10.56 11.2678 10.6946 11.394 10.8029 11.5371L11.6833 9.17014L11.4043 9.05208C11.0652 8.90855 10.863 8.52589 10.9235 8.14211L11.2139 6.3003C11.2502 6.06961 11.3806 5.87145 11.5717 5.75662C11.7628 5.64183 11.9892 5.62539 12.193 5.71167L14.5436 6.70643C14.7474 6.79272 14.9018 6.97027 14.967 7.19357ZM10.3014 6.65735C10.3454 6.71116 10.4052 6.76202 10.4737 6.76202C10.6673 6.76202 10.883 6.35132 10.883 5.76202C10.883 5.17269 10.6673 4.76199 10.4737 4.76199C10.4436 4.76199 10.4113 4.77212 10.3804 4.79021C10.3812 4.8584 10.3814 4.91974 10.3814 4.9731C10.3815 5.21193 10.3744 5.91161 10.3014 6.65735ZM4.30663 6.65735C4.23363 5.91161 4.22657 5.21193 4.22657 4.9731C4.22657 4.91974 4.22684 4.8584 4.22759 4.79021C4.19678 4.77209 4.1644 4.76199 4.13428 4.76199C3.94071 4.76199 3.72505 5.17269 3.72505 5.76202C3.72505 6.35132 3.94071 6.76202 4.13428 6.76202C4.20288 6.76202 4.26265 6.71116 4.30663 6.65735ZM1.29383 11.7193C1.3107 11.8627 1.5541 12.0134 1.94484 12.1225C2.30252 12.2223 2.77702 12.2844 3.18318 12.2844C3.58934 12.2844 4.06387 12.2223 4.42155 12.1225C4.81229 12.0134 5.05565 11.8627 5.07253 11.7193C5.08059 11.6507 5.03988 11.5584 4.95789 11.4592C4.66348 11.1033 3.91916 10.7351 3.18315 10.7351C2.44716 10.7351 1.70288 11.1033 1.40844 11.4592C1.32648 11.5584 1.28576 11.6507 1.29383 11.7193ZM4.11714 13.153C3.81321 13.192 3.49755 13.2145 3.18321 13.2145C2.86886 13.2145 2.55324 13.192 2.24931 13.153C2.28969 13.5496 2.69297 13.8622 3.18321 13.8622C3.67348 13.8621 4.07675 13.5496 4.11714 13.153ZM6.15518 12.6367C6.15518 12.7531 6.24396 12.8478 6.3531 12.8478C6.46224 12.8478 6.55102 12.7531 6.55102 12.6367C6.55102 12.5203 6.46224 12.4256 6.3531 12.4256C6.24396 12.4256 6.15518 12.5203 6.15518 12.6367ZM5.27164 11.8799C5.02244 12.4133 3.67327 12.5383 3.18318 12.5383C2.69312 12.5383 1.34398 12.4133 1.09475 11.8799C0.284329 12.0422 0.239448 12.1878 0.237901 12.1941C0.24174 12.2552 0.472455 12.4597 1.13374 12.6607C1.76055 12.8512 2.50752 12.9605 3.18318 12.9605C3.85884 12.9605 4.60586 12.8513 5.23262 12.6607C5.89393 12.4597 6.12465 12.2552 6.1284 12.1929C6.12697 12.1877 6.08209 12.0422 5.27164 11.8799ZM6.17813 11.0752L6.09191 10.8612C6.06771 10.8011 6.05417 10.7381 6.0506 10.675C5.73929 10.8639 5.33646 11.0027 4.97286 11.1257C5.03577 11.1806 5.09089 11.2362 5.13649 11.2913C5.23024 11.4046 5.28714 11.5191 5.30521 11.6282C5.36515 11.6401 5.42238 11.6522 5.47682 11.6644L5.49476 11.3883C5.49792 11.3392 5.52741 11.2965 5.57039 11.2787C5.76956 11.1961 5.97241 11.1284 6.17813 11.0752ZM4.49658 3.05863C4.53899 3.08352 4.56303 3.13333 4.55744 3.1846C4.54997 3.2531 4.54306 3.32126 4.53672 3.38882C5.1767 3.05542 6.12911 2.70479 7.30403 2.70479C8.47897 2.70479 9.43138 3.05539 10.0714 3.38879C10.065 3.3212 10.0581 3.25307 10.0506 3.18456C10.045 3.13326 10.0691 3.08345 10.1115 3.0586C10.4405 2.86558 10.6772 2.54933 10.7779 2.16815C10.8672 1.83012 10.8342 1.47879 10.6873 1.20419C10.5254 0.901522 10.227 0.685395 9.86847 0.611237C9.47475 0.529745 9.0676 0.63603 8.75144 0.90276C8.7012 0.945173 8.62858 0.937522 8.58701 0.885554C8.50269 0.780094 8.04465 0.253968 7.30403 0.253968C6.56343 0.253968 6.10539 0.780094 6.0211 0.885585C5.97956 0.937554 5.90688 0.945173 5.85667 0.902792C5.61024 0.694887 5.30848 0.584475 5.00092 0.584475C4.9139 0.584475 4.82646 0.5933 4.73964 0.611269C4.38116 0.685427 4.0827 0.901554 3.9208 1.20422C3.77389 1.47879 3.74089 1.83015 3.8302 2.16819C3.93092 2.54936 4.16756 2.86561 4.49658 3.05863ZM10.1306 4.30948C10.1235 4.11926 10.1126 3.90844 10.0963 3.6865C9.48314 3.34698 8.51674 2.95879 7.30403 2.95879C6.09137 2.95879 5.12497 3.34698 4.51181 3.6865C4.49541 3.90837 4.48455 4.1192 4.47744 4.30939C5.12765 3.96831 6.10096 3.60644 7.30403 3.60644C7.9951 3.60641 9.03183 3.73177 10.1306 4.30948ZM8.0679 3.91193C8.11688 4.31396 8.32715 4.62072 8.57195 4.62072C8.76522 4.62072 8.94543 4.4219 9.03236 4.12532C8.68945 4.01859 8.36415 3.95167 8.0679 3.91193ZM7.30403 3.86037C7.12977 3.86037 6.96072 3.8685 6.79676 3.88301C6.8389 4.29917 7.05337 4.62069 7.30403 4.62069C7.55462 4.62069 7.76906 4.29926 7.81129 3.8832C7.62688 3.86672 7.45667 3.86037 7.30403 3.86037ZM5.5758 4.12555C5.66277 4.42199 5.84295 4.62072 6.03613 4.62072C6.28075 4.62072 6.49131 4.31361 6.54021 3.91152C6.19096 3.95831 5.86842 4.03412 5.5758 4.12555ZM7.30403 9.24141C8.42183 9.24141 9.18159 9.01468 9.56225 8.56751C9.96368 8.09589 10.1434 6.42237 10.1434 4.97307C10.1434 4.8738 10.1424 4.74666 10.1392 4.59869C9.84013 4.43313 9.54501 4.30282 9.25995 4.20113C9.14099 4.60923 8.87525 4.87466 8.57195 4.87466C8.30507 4.87466 8.07165 4.66818 7.93798 4.35278C7.80432 4.66818 7.5709 4.87466 7.30403 4.87466C7.03709 4.87466 6.80367 4.66815 6.67003 4.35269C6.53631 4.66809 6.3028 4.87466 6.03613 4.87466C5.73295 4.87466 5.46729 4.60942 5.34824 4.20155C5.00559 4.32399 4.71039 4.46485 4.46887 4.59837C4.46565 4.74647 4.46467 4.87374 4.46467 4.97307C4.46467 6.42237 4.64437 8.09589 5.0458 8.56751C5.42649 9.01468 6.18622 9.24141 7.30403 9.24141ZM6.99876 10.9425L6.82974 10.523C6.78509 10.4122 6.68322 10.3406 6.57018 10.3406C6.47346 10.3406 6.38747 10.39 6.33426 10.4762C6.28107 10.5624 6.27244 10.6661 6.31063 10.7609L6.41521 11.0205C6.60768 10.9817 6.80242 10.9558 6.99876 10.9425ZM7.55959 10.4227C7.64182 10.2185 7.82956 10.0866 8.03787 10.0866C8.04159 10.0866 8.04525 10.0869 8.04897 10.087C8.03706 10.0375 8.03025 9.98601 8.03025 9.93192V9.4603C7.80703 9.48373 7.56516 9.49541 7.30403 9.49541C7.04289 9.49541 6.80105 9.48373 6.57783 9.4603V9.93192C6.57783 9.98601 6.57102 10.0375 6.55911 10.087C6.56283 10.0869 6.56649 10.0866 6.57021 10.0866C6.77849 10.0866 6.96623 10.2186 7.04849 10.4226L7.25388 10.9325C7.2706 10.9323 7.28727 10.9319 7.30403 10.9319C7.32078 10.9319 7.33748 10.9324 7.35417 10.9325L7.55959 10.4227ZM8.27379 10.4762C8.22058 10.39 8.13459 10.3406 8.03787 10.3406C7.92483 10.3406 7.82296 10.4121 7.77831 10.5229L7.60929 10.9425C7.80563 10.9557 8.00037 10.9816 8.19281 11.0205L8.29739 10.7609C8.33561 10.6661 8.32697 10.5623 8.27379 10.4762ZM10.7475 14.3151C10.5695 14.1112 10.4604 13.8382 10.4604 13.5383C10.4604 12.9196 10.9244 12.4146 11.5007 12.3978C11.518 12.3102 11.5099 12.2193 11.476 12.1354C11.4325 12.0281 11.3525 11.9453 11.2507 11.9022C11.0404 11.8132 10.8015 11.9233 10.7181 12.1475L10.0936 13.8266C10.0532 13.9353 10.0548 14.0542 10.0983 14.1615C10.1417 14.2688 10.2217 14.3516 10.3236 14.3947C10.4713 14.4572 10.6339 14.4236 10.7475 14.3151ZM11.5303 12.651C11.0716 12.651 10.6985 13.0491 10.6985 13.5383C10.6985 14.0276 11.0716 14.4257 11.5303 14.4257C11.989 14.4257 12.3622 14.0276 12.3622 13.5383C12.3622 13.0491 11.989 12.651 11.5303 12.651ZM14.7397 7.26916C14.696 7.11941 14.5925 7.00037 14.4558 6.94253L12.1052 5.94777C11.9685 5.88989 11.8167 5.90091 11.6886 5.97792C11.5605 6.05494 11.4731 6.1878 11.4487 6.34246L11.1583 8.18427C11.1163 8.45071 11.2567 8.71639 11.4921 8.81601L11.8818 8.98093C11.9429 9.00681 11.9728 9.08062 11.9485 9.14579L11.0275 11.6218C11.1298 11.6095 11.2363 11.6229 11.3385 11.6661C11.4388 11.7086 11.5256 11.7754 11.5935 11.8608L12.5143 9.38525C12.526 9.35395 12.5488 9.32887 12.5778 9.3155C12.6068 9.30217 12.6395 9.3016 12.6689 9.31408L13.0586 9.479C13.294 9.57865 13.567 9.48788 13.7077 9.26319L14.6801 7.71005C14.7617 7.57957 14.7834 7.41887 14.7397 7.26916ZM13.8521 7.38602C13.7932 7.35475 13.7218 7.38043 13.6926 7.44329L13.1257 8.66097C13.0965 8.72379 13.1205 8.79998 13.1794 8.83116C13.1965 8.84017 13.2145 8.84443 13.2323 8.84443C13.2761 8.84443 13.3182 8.81855 13.339 8.77389L13.9058 7.55621C13.9351 7.49338 13.911 7.41719 13.8521 7.38602Z" fill="white"/>
</svg>
