<svg width="14" height="16" viewBox="0 0 14 16" fill="none" xmlns="http://www.w3.org/2000/svg">
<path d="M13.5261 9.84531L13.5875 9.7056C13.653 9.55663 13.656 9.3913 13.5961 9.24004C13.5357 9.0875 13.4187 8.9677 13.2667 8.90269L12.8255 8.71393C12.514 8.58067 12.1504 8.72273 12.0151 9.03068L11.9532 9.17156C11.1614 9.18153 10.4628 9.69906 10.237 10.4536L9.80822 11.8858C9.78623 11.8789 9.76437 11.872 9.74191 11.865C9.0641 11.6531 8.03979 11.3329 8.03979 10.8313V10.2893C8.82451 10.1793 9.38347 9.93632 9.73443 9.55488C10.0606 9.20039 10.243 8.42709 10.3448 7.64675C10.4217 7.69313 10.5037 7.71719 10.5887 7.71719C11.0011 7.71719 11.3242 7.13414 11.3242 6.38982C11.3242 5.64551 11.0011 5.06246 10.5887 5.06246C10.5476 5.06246 10.5063 5.06843 10.4657 5.07954C10.4388 4.11117 10.3119 2.17174 9.73447 1.54425C9.35703 1.13401 8.71565 0.878342 7.82759 0.784061C7.57205 0.464616 7.0142 -0.151101 6.6396 0.034033C6.4463 0.129584 6.39529 0.405983 6.40442 0.705747C5.96605 0.229325 5.54992 0.0167323 5.29639 0.156694C5.07099 0.281069 5.05027 0.635147 5.08702 0.961608C3.53916 0.777394 3.24712 0.969988 3.17015 1.1855C3.09226 1.40355 3.27681 1.67081 3.76568 2.04048C3.07543 2.35767 2.4492 2.82142 2.56003 3.18566C2.63773 3.44111 3.04542 3.53961 3.52255 3.54831C3.5187 3.57958 3.51494 3.611 3.51128 3.64243C3.44946 4.17596 3.42315 4.68806 3.41258 5.07941C3.37214 5.06836 3.33097 5.06243 3.29002 5.06243C2.87758 5.06243 2.55452 5.64548 2.55452 6.38979C2.55452 7.13411 2.87758 7.71716 3.29002 7.71716C3.375 7.71716 3.457 7.6931 3.53381 7.64672C3.62138 8.31761 3.76851 8.98313 4.01533 9.38193C3.61447 9.24826 3.12195 9.14385 2.56012 9.14385C1.65194 9.14385 0.924213 9.41638 0.473625 9.64503C0.181495 9.79328 0 10.086 0 10.4089C0 10.6381 0.0903658 10.8535 0.254488 11.0154L1.76738 12.5084C1.88276 12.6222 1.9463 12.7735 1.9463 12.9344V14.1129C1.9463 14.3767 1.77368 14.6079 1.51678 14.6883C1.08779 14.8226 0.851507 15.0301 0.851507 15.2728C0.851507 15.7452 1.73184 16 2.56015 16C3.38846 16 4.2688 15.7452 4.2688 15.2728C4.2688 15.0301 4.03251 14.8226 3.60353 14.6883C3.34662 14.6079 3.174 14.3767 3.174 14.1129V12.9344C3.174 12.7736 3.23755 12.6222 3.35292 12.5084L3.47253 12.3903C3.48656 12.3812 3.50066 12.372 3.51501 12.3632C3.63958 12.2866 3.91812 12.1995 4.21302 12.1073C4.35286 12.0636 4.49844 12.018 4.64391 11.9693C4.717 12.4794 4.87823 12.9645 5.12476 13.4132C5.62728 14.3277 6.35577 14.8593 6.87836 15.1442C6.89739 15.1545 6.91839 15.1597 6.93939 15.1597C6.96039 15.1597 6.98139 15.1545 7.00042 15.1442C7.52305 14.8593 8.25148 14.3277 8.754 13.4132C9.00056 12.9644 9.16182 12.4794 9.23484 11.9693C9.38035 12.018 9.52596 12.0636 9.66583 12.1073C9.68938 12.1147 9.71238 12.1219 9.73539 12.1291L9.03123 14.4813C8.93161 14.8141 9.05519 15.1775 9.3387 15.3856C9.54202 15.5349 9.76256 15.6608 9.99427 15.7599C10.229 15.8604 10.4761 15.9337 10.7286 15.9779C10.7763 15.9862 10.8242 15.9903 10.8717 15.9903C11.1642 15.9903 11.4434 15.8364 11.5956 15.5806L13.7505 11.9589C14.1542 11.2804 14.0599 10.4221 13.5261 9.84531ZM10.4727 5.54952C10.4727 5.50044 10.4723 5.43289 10.4713 5.35041C10.5097 5.32861 10.5506 5.31638 10.5886 5.31638C10.8161 5.31638 11.0696 5.75722 11.0696 6.38979C11.0696 7.02237 10.8161 7.4632 10.5886 7.4632C10.5047 7.4632 10.4327 7.40574 10.3803 7.34587C10.4645 6.5509 10.4727 5.80414 10.4727 5.54952ZM3.29002 7.46323C3.06254 7.46323 2.80907 7.0224 2.80907 6.38982C2.80907 5.75725 3.06254 5.31642 3.29002 5.31642C3.32801 5.31642 3.36883 5.32861 3.40724 5.35035C3.40635 5.42485 3.406 5.49168 3.406 5.54955C3.406 5.80414 3.41411 6.5509 3.49833 7.34591C3.44602 7.40578 3.37395 7.46323 3.29002 7.46323ZM8.59102 11.7196L8.10397 12.5848L7.16607 12.122L8.03377 11.3609C8.17674 11.4995 8.37131 11.6169 8.59102 11.7196ZM7.87544 11.1616L6.93936 11.9827L6.00328 11.1616C6.06081 11.0615 6.09349 10.9521 6.09349 10.8313V10.3197C6.3531 10.3453 6.63482 10.3581 6.93936 10.3581C7.2439 10.3581 7.52563 10.3453 7.78524 10.3197V10.8313C7.78524 10.9521 7.81795 11.0615 7.87544 11.1616ZM6.71265 12.122L5.77472 12.5848L5.28767 11.7196C5.50738 11.6169 5.70195 11.4995 5.84495 11.3609L6.71265 12.122ZM6.93936 12.2934L7.35749 12.4998L7.10527 12.9851H6.77343L6.5212 12.4998L6.93936 12.2934ZM2.80357 3.11189C2.76519 2.98564 3.1657 2.55633 4.06831 2.18583C4.11123 2.16822 4.14114 2.12866 4.14633 2.08263C4.15151 2.0366 4.13118 1.99137 4.09325 1.96467C3.35763 1.4467 3.4074 1.27769 3.40988 1.27077C3.41933 1.24432 3.55033 1.01891 5.21999 1.23404C5.26024 1.23925 5.30011 1.22512 5.32805 1.19614C5.35602 1.16712 5.36852 1.12665 5.36184 1.08697C5.29302 0.68105 5.33877 0.42357 5.41956 0.378969C5.528 0.31913 5.94795 0.494455 6.47299 1.18487C6.50831 1.2314 6.57096 1.24785 6.62474 1.22474C6.67848 1.20166 6.70953 1.14496 6.69996 1.08738C6.62028 0.607244 6.66756 0.303544 6.75252 0.261578C6.83356 0.221357 7.16216 0.345383 7.66063 0.983004C7.68208 1.01043 7.7139 1.02789 7.74861 1.03129C8.60044 1.11458 9.20548 1.34492 9.54692 1.71598C9.87304 2.07041 10.0724 3.05846 10.162 4.15107C10.0724 4.02359 9.96044 3.89461 9.82073 3.77328C9.42267 3.42755 8.98628 3.31092 8.72504 3.27178C8.58252 3.0083 8.40262 2.84511 8.18969 2.78635C7.69388 2.64956 7.1955 3.12535 6.75583 3.54517C6.42759 3.85864 6.08801 4.18279 5.88816 4.1099C5.79897 4.07746 5.64385 3.9241 5.60666 3.26178C5.60373 3.20982 5.5693 3.1649 5.51982 3.14842C5.47019 3.13188 5.41574 3.14731 5.38217 3.18712C5.00292 3.63672 4.47473 4.08019 4.32426 3.99778C4.32299 3.99708 4.19765 3.92226 4.26762 3.4059C4.27287 3.36705 4.25989 3.32797 4.2324 3.3C4.20491 3.27204 4.16605 3.25832 4.12695 3.26277C3.26529 3.36178 2.8337 3.21077 2.80357 3.11189ZM3.66058 5.54952C3.66058 5.18198 3.67404 4.44931 3.76418 3.67154C3.76908 3.62916 3.77417 3.58685 3.77949 3.54488C3.85219 3.5418 3.92538 3.53704 3.99827 3.53079C3.9698 3.89921 4.03814 4.13092 4.20204 4.22044C4.24923 4.24621 4.3009 4.2578 4.35589 4.2578C4.67716 4.25774 5.10856 3.86074 5.3802 3.57142C5.44104 4.01267 5.57971 4.26783 5.80091 4.34837C6.14974 4.47534 6.5296 4.11257 6.93182 3.72852C7.32249 3.35549 7.765 2.93247 8.12182 3.03103C8.2776 3.07401 8.41427 3.21318 8.52805 3.4447C8.54714 3.48352 8.58472 3.50999 8.6278 3.51495C8.8464 3.54006 9.27035 3.63189 9.65355 3.96473C9.97387 4.24297 10.1283 4.56677 10.2019 4.79415C10.2127 5.04795 10.2181 5.30175 10.2181 5.54948C10.2181 7.09458 10.0106 8.87917 9.54686 9.38308C9.10668 9.8615 8.2294 10.1041 6.93933 10.1041C5.64926 10.1041 4.77195 9.8615 4.33174 9.38308C3.8681 8.87923 3.66058 7.09462 3.66058 5.54952ZM3.17391 12.3278C3.00982 12.4898 2.91945 12.7052 2.91945 12.9344V14.1129C2.91945 14.4882 3.16376 14.8168 3.52732 14.9307C3.88672 15.0431 4.01425 15.1853 4.01425 15.2728C4.01425 15.4658 3.44777 15.746 2.56015 15.746C1.67253 15.746 1.10606 15.4658 1.10606 15.2728C1.10606 15.1853 1.23359 15.0431 1.59298 14.9307C1.95658 14.8169 2.20085 14.4882 2.20085 14.1129V12.9344C2.20085 12.7051 2.11049 12.4897 1.94636 12.3278L0.433501 10.8349C0.318094 10.721 0.254552 10.5697 0.254552 10.4089C0.254552 10.182 0.382718 9.9761 0.589064 9.8714C1.01483 9.65535 1.70241 9.39781 2.56015 9.39781C3.41786 9.39781 4.13099 9.65548 4.57127 9.89362C4.75397 10.0036 4.86575 10.1971 4.86575 10.4089C4.86575 10.5697 4.80221 10.721 4.68684 10.8349L3.17391 12.3278ZM4.13688 11.865C4.07012 11.8858 4.00537 11.9061 3.9431 11.926L4.86582 11.0154C5.02994 10.8535 5.1203 10.6381 5.1203 10.4089C5.1203 10.3067 5.10201 10.2075 5.06787 10.1149C5.29525 10.191 5.55199 10.249 5.83894 10.2893V10.8313C5.83894 11.3329 4.81465 11.6531 4.13688 11.865ZM5.34794 13.2911C5.10818 12.8548 4.95392 12.3818 4.88873 11.8837C4.94403 11.8634 4.99876 11.8425 5.05275 11.8209L5.61194 12.8142C5.63517 12.8555 5.67835 12.879 5.72299 12.879C5.74198 12.879 5.7612 12.8748 5.77934 12.8658L6.29299 12.6124L6.56196 13.1299L6.28014 14.4278C5.95014 14.1483 5.61496 13.7771 5.34794 13.2911ZM6.93936 14.8874C6.80375 14.8106 6.65551 14.7168 6.50239 14.6037L6.79872 13.2391H7.08L7.37633 14.6037C7.22319 14.7168 7.07494 14.8106 6.93936 14.8874ZM8.53075 13.2911C8.26373 13.7772 7.92855 14.1483 7.59859 14.4278L7.31677 13.1299L7.58573 12.6124L8.09939 12.8658C8.11749 12.8747 8.13674 12.879 8.15574 12.879C8.20038 12.879 8.24356 12.8555 8.26678 12.8142L8.82597 11.8209C8.87994 11.8425 8.9347 11.8634 8.99 11.8837C8.9248 12.3817 8.77054 12.8548 8.53075 13.2911ZM12.2482 9.13261C12.3276 8.95189 12.5415 8.86878 12.7252 8.94735L13.1664 9.13611C13.2556 9.17426 13.3241 9.24432 13.3594 9.3334C13.3942 9.4212 13.3923 9.5172 13.3544 9.60367L13.2958 9.7369C13.093 9.71259 12.8954 9.6597 12.7074 9.57926C12.52 9.4991 12.3465 9.39343 12.1903 9.26454L12.2482 9.13261ZM11.3767 15.4509C11.2534 15.6581 11.0105 15.7694 10.7725 15.7277C10.5394 15.6869 10.3113 15.6193 10.0946 15.5266C9.88077 15.4351 9.67722 15.3189 9.48959 15.1811C9.29237 15.0363 9.20621 14.7843 9.27516 14.554L10.4165 10.7414C10.8026 11.1414 11.2714 11.4654 11.7846 11.685C12.2971 11.9042 12.8563 12.0202 13.4152 12.025L11.3767 15.4509ZM13.5653 11.7695C12.9913 11.7861 12.4117 11.6769 11.8848 11.4516C11.3586 11.2264 10.8823 10.8842 10.5024 10.46C10.7198 9.83845 11.3177 9.41911 11.9878 9.42562C12.173 9.58558 12.3809 9.71595 12.607 9.81264C12.8331 9.9094 13.0716 9.97 13.3165 9.9941C13.7777 10.4721 13.8767 11.1886 13.5653 11.7695ZM11.5123 13.5237C11.4917 13.5718 11.4447 13.6007 11.3953 13.6007C11.3786 13.6007 11.3615 13.5974 11.3452 13.5903L10.6756 13.3038C10.611 13.2762 10.581 13.2015 10.6088 13.1371C10.6364 13.0726 10.7113 13.0428 10.7759 13.0704L11.4455 13.3569C11.5101 13.3846 11.54 13.4593 11.5123 13.5237ZM11.7543 12.973C11.7336 13.0212 11.6866 13.05 11.6372 13.05C11.6205 13.05 11.6034 13.0467 11.5871 13.0397L10.9175 12.7532C10.8529 12.7256 10.8229 12.651 10.8506 12.5865C10.8783 12.522 10.9532 12.4922 11.0178 12.5198L11.6874 12.8063C11.752 12.8339 11.782 12.9086 11.7543 12.973ZM4.66281 5.40143C4.612 5.35362 4.60891 5.27426 4.65642 5.22315C4.66704 5.21169 4.9229 4.9424 5.4188 4.9424C5.9147 4.9424 6.17052 5.21166 6.18118 5.22312C6.22897 5.27458 6.22589 5.35489 6.17434 5.40257C6.14984 5.4252 6.11882 5.43641 6.08786 5.43641C6.05365 5.43641 6.01957 5.42273 5.99447 5.39574C5.98734 5.38835 5.7983 5.19636 5.41877 5.19636C5.03923 5.19636 4.85023 5.38838 4.84237 5.39657C4.79403 5.44685 4.71369 5.44923 4.66281 5.40143ZM4.50776 10.3182C4.52599 10.386 4.48574 10.4556 4.41784 10.4738C3.81248 10.636 3.18746 10.7183 2.56015 10.7183C1.93281 10.7183 1.30782 10.636 0.702499 10.4738C0.634597 10.4556 0.594346 10.386 0.612578 10.3182C0.630779 10.2505 0.700844 10.2104 0.768491 10.2285C1.35231 10.385 1.95508 10.4643 2.56015 10.4643C3.16519 10.4643 3.76797 10.3849 4.35185 10.2285C4.41949 10.2103 4.48953 10.2505 4.50776 10.3182ZM6.17733 7.61999C6.17838 7.62091 6.4006 7.82337 6.93936 7.82337C7.47812 7.82337 7.70031 7.62094 7.70251 7.61888C7.75246 7.56955 7.83249 7.57056 7.88193 7.6204C7.93135 7.67027 7.93033 7.75122 7.88034 7.80052C7.86892 7.81182 7.59235 8.0773 6.93936 8.0773C6.28634 8.0773 6.00977 7.81182 5.99835 7.80052C5.94836 7.75122 5.94792 7.67081 5.99736 7.62094C6.04678 7.57113 6.12737 7.57066 6.17733 7.61999ZM7.70391 5.4014C7.65309 5.35356 7.65004 5.27423 7.69751 5.22309C7.70817 5.21163 7.964 4.94237 8.45989 4.94237C8.95579 4.94237 9.21165 5.21166 9.22228 5.22312C9.27007 5.27454 9.26698 5.35489 9.21543 5.40257C9.19093 5.4252 9.15991 5.43641 9.12895 5.43641C9.09506 5.43641 9.06124 5.42298 9.0362 5.39644C9.0271 5.38702 8.83806 5.19633 8.45989 5.19633C8.08036 5.19633 7.89132 5.38832 7.88346 5.39651C7.8351 5.44682 7.75479 5.4492 7.70391 5.4014ZM8.76402 6.08971C8.76402 6.32176 8.57339 6.50985 8.33828 6.50985C8.10314 6.50985 7.91254 6.32173 7.91254 6.08971C7.91254 5.85769 8.10317 5.66957 8.33828 5.66957C8.57339 5.66957 8.76402 5.85766 8.76402 6.08971ZM5.96618 6.08971C5.96618 6.32176 5.77555 6.50985 5.54044 6.50985C5.3053 6.50985 5.1147 6.32173 5.1147 6.08971C5.1147 5.85769 5.30533 5.66957 5.54044 5.66957C5.77558 5.66957 5.96618 5.85766 5.96618 6.08971Z" fill="white"/>
</svg>
