<svg width="99" height="113" viewBox="0 0 99 113" fill="white" xmlns="http://www.w3.org/2000/svg">
<path d="M31.8136 70.5419C31.9363 71.0201 31.6668 71.5123 31.2117 71.6412C26.9305 72.8539 22.5103 73.4689 18.0742 73.4689C13.6381 73.4689 9.21793 72.8539 4.9367 71.6412C4.48159 71.5123 4.2121 71.0199 4.33479 70.5419C4.45769 70.0634 4.92752 69.7811 5.38093 69.9094C9.5175 71.0813 13.7881 71.6752 18.0742 71.6752C22.3603 71.6752 26.6311 71.0811 30.7675 69.9094C31.222 69.7809 31.6907 70.0634 31.8136 70.5419ZM95.6365 67.0008C99.4185 71.2995 100.093 77.7122 97.2421 82.7796L81.9891 109.886C80.9203 111.785 78.9603 112.928 76.906 112.928C76.5719 112.928 76.2352 112.898 75.8995 112.835C74.116 112.506 72.3704 111.958 70.7119 111.207C69.075 110.467 67.5169 109.526 66.0812 108.412C64.092 106.867 63.2244 104.171 63.9232 101.704L68.9222 84.0461C68.7438 83.9869 68.565 83.9277 68.3822 83.8674C67.3757 83.5347 66.3274 83.1874 65.2806 82.8163C64.7686 86.6498 63.6262 90.2952 61.8746 93.6659C58.3238 100.499 53.1754 104.472 49.4818 106.601C49.3538 106.674 49.2125 106.711 49.0713 106.711C48.93 106.711 48.7888 106.674 48.6607 106.601C44.9669 104.472 39.8188 100.499 36.2677 93.6659C34.5161 90.2954 33.374 86.65 32.8619 82.8161C31.8151 83.1874 30.7666 83.5345 29.7602 83.8672C27.67 84.5582 25.6959 85.2109 24.8092 85.7878C24.7059 85.855 24.6048 85.9241 24.5038 85.9938L23.6536 86.881C22.8272 87.7435 22.3719 88.8897 22.3719 90.1087V98.9294C22.3719 100.928 23.6075 102.679 25.4463 103.288C28.461 104.285 30.121 105.82 30.121 107.611C30.121 111.111 23.9141 113 18.0742 113C12.2343 113 6.02744 111.111 6.02744 107.611C6.02744 105.82 7.68766 104.285 10.7021 103.288C12.5409 102.679 13.7765 100.928 13.7765 98.9294V90.1087C13.7765 88.8897 13.3212 87.7435 12.4946 86.881L1.78611 75.7074C0.634344 74.5056 0 72.9075 0 71.2069C0 68.811 1.27423 66.6389 3.32534 65.5382C6.50133 63.8343 11.6258 61.805 18.0196 61.7933V32.7219C18.0196 24.1171 21.1508 15.9824 26.8362 9.81669C32.5401 3.63104 40.1595 0.14708 48.291 0.00672622C48.8082 -0.00224207 49.3337 -0.00224207 49.8509 0.00672622C57.9822 0.14708 65.6015 3.63104 71.3057 9.81669C76.9911 15.9824 80.1223 24.1169 80.1223 32.7219V62.8937C81.5231 62.3289 83.0314 62.0153 84.5902 61.9996L85.0409 60.9146C85.9878 58.6349 88.5339 57.5834 90.7173 58.571L93.8402 59.9837C94.9021 60.4642 95.7202 61.3485 96.1433 62.474C96.5642 63.5935 96.5435 64.8174 96.0854 65.9207L95.6365 67.0008ZM86.1792 62.6581C87.2957 63.6376 88.5386 64.4401 89.8813 65.0475C91.2264 65.656 92.6402 66.0546 94.092 66.2349L94.5208 65.2028C94.7961 64.5403 94.8084 63.8054 94.5556 63.133C94.3006 62.4547 93.8067 61.9211 93.1649 61.6308L90.042 60.218C88.72 59.6198 87.1775 60.2539 86.6053 61.6319L86.1792 62.6581ZM19.7265 32.7219V33.8333C20.6412 32.2197 21.87 31.2451 23.2401 31.2451C23.5454 31.2451 23.8524 31.294 24.1535 31.3868C24.2271 28.451 24.4127 24.5919 24.8536 20.5701C24.9195 19.9686 24.991 19.3684 25.0656 18.7861C25.1286 18.2951 25.5602 17.95 26.0256 18.0173C26.4926 18.0834 26.8204 18.5352 26.7572 19.026C26.6838 19.5966 26.6138 20.1852 26.5492 20.7753C26.2857 23.1808 26.1148 25.5278 26.0049 27.649C30.3608 18.6543 39.2454 12.7197 49.0708 12.7197C58.8962 12.7197 67.7811 18.6545 72.1368 27.649C72.0269 25.5278 71.8562 23.1806 71.5925 20.7753C71.5278 20.1854 71.4579 19.5968 71.3845 19.026C71.3213 18.5352 71.6488 18.0834 72.1161 18.0173C72.5847 17.9498 73.0129 18.2953 73.076 18.7861C73.1509 19.3684 73.2224 19.9686 73.2881 20.5701C73.7289 24.5919 73.9144 28.451 73.9882 31.3868C74.289 31.294 74.5961 31.2451 74.9014 31.2451C76.2714 31.2451 77.5004 32.2197 78.4151 33.8333V32.7219C78.4151 15.9438 65.5887 2.07235 49.8228 1.80016C49.3239 1.79164 48.8176 1.79164 48.3187 1.80016C32.5529 2.07235 19.7265 15.9438 19.7265 32.7219ZM52.0968 86.8319L49.0708 85.253L46.0449 86.8317L47.8685 90.5423H50.273L52.0968 86.8319ZM37.3117 80.9929L40.8086 87.5612L47.5544 84.0416L41.3226 78.2618C40.302 79.3189 38.8987 80.2128 37.3117 80.9929ZM57.3329 87.5612L60.83 80.9929C59.2432 80.2128 57.8398 79.3189 56.8189 78.2618L50.5872 84.0418L57.3329 87.5612ZM55.1057 74.3687V70.4804C53.2552 70.6755 51.2457 70.7733 49.0711 70.7733C46.8964 70.7733 44.8869 70.6757 43.0364 70.4804V74.3687C43.0364 75.2776 42.7997 76.1006 42.3835 76.8526L49.0713 83.0556L55.7589 76.8526C55.3422 76.1004 55.1057 75.2776 55.1057 74.3687ZM67.5618 63.5672C70.8532 59.7849 72.3263 46.412 72.3263 34.8371C72.3263 34.3158 72.3229 33.6961 72.3128 32.995C69.3543 22.108 59.8131 14.5132 49.0708 14.5132C38.3286 14.5132 28.7874 22.108 25.8289 32.995C25.819 33.6961 25.8154 34.3158 25.8154 34.8371C25.8154 46.412 27.2885 59.7849 30.5797 63.5672C33.7047 67.1586 39.9261 68.9796 49.0706 68.9796C58.2152 68.9796 64.4368 67.1586 67.5618 63.5672ZM24.1087 34.8371C24.1087 34.3956 24.111 33.8847 24.1179 33.3141C23.8317 33.1372 23.5251 33.0387 23.2401 33.0387C21.6076 33.0387 19.7884 36.3601 19.7884 41.1263C19.7884 45.8925 21.6074 49.2139 23.2401 49.2139C23.8584 49.2139 24.385 48.764 24.7639 48.301C24.1663 42.3449 24.1087 36.7442 24.1087 34.8371ZM19.7265 48.4191V61.8426C23.0719 62.0256 26.0305 62.7381 28.4883 63.6166C26.6907 60.6404 25.6287 55.5606 25.0025 50.4473C24.4484 50.8157 23.8552 51.0071 23.2401 51.0071C21.87 51.0074 20.6412 50.0327 19.7265 48.4191ZM73.3777 48.3007C73.7565 48.7635 74.2833 49.2137 74.9014 49.2137C76.5339 49.2137 78.3533 45.8923 78.3533 41.1261C78.3533 36.3599 76.5341 33.0385 74.9014 33.0385C74.6166 33.0385 74.3099 33.1372 74.0238 33.3138C74.0304 33.8844 74.033 34.3956 74.033 34.8369C74.0332 36.7442 73.9756 42.3449 73.3777 48.3007ZM22.4506 85.6086L33.1591 74.4346C33.9857 73.572 34.441 72.4259 34.441 71.2069C34.441 69.6031 33.6415 68.1382 32.3345 67.3054C32.3206 67.2969 32.3069 67.2882 32.2931 67.2797C32.2124 67.2294 32.1307 67.1812 32.0464 67.1359C29.0281 65.5165 24.1541 63.5861 18.0742 63.5861C11.9943 63.5861 7.1201 65.5165 4.102 67.1359C2.62464 67.9285 1.70695 69.4883 1.70695 71.2069C1.70695 72.4259 2.16227 73.572 2.98886 74.4346L13.6974 85.6086C14.8491 86.8104 15.4835 88.4085 15.4835 90.1091V98.9299C15.4835 101.715 13.768 104.154 11.2146 104.999C9.10037 105.698 7.73417 106.724 7.73417 107.611C7.73417 109.113 11.6678 111.207 18.074 111.207C24.4802 111.207 28.4138 109.113 28.4138 107.611C28.4138 106.724 27.0478 105.698 24.9334 104.999C22.38 104.154 20.6645 101.715 20.6645 98.9299V90.1091C20.6647 88.4087 21.2988 86.8106 22.4506 85.6086ZM41.3292 74.3687V70.265C39.2431 69.958 37.3817 69.5116 35.7402 68.9222C36.0042 69.6388 36.148 70.4098 36.148 71.2071C36.148 72.9075 35.5136 74.5059 34.3619 75.7076L27.6803 82.6798C28.1802 82.5101 28.7048 82.3365 29.2479 82.1569C34.3463 80.4711 41.3292 78.1625 41.3292 74.3687ZM44.4339 101.382L46.4498 91.5647L44.5159 87.6296L40.8402 89.5473C40.7183 89.6107 40.5888 89.641 40.4612 89.641C40.1614 89.641 39.8715 89.4746 39.7157 89.182L35.7375 81.7099C35.3321 81.8816 34.9205 82.048 34.5044 82.209C34.9634 85.9599 36.0586 89.5219 37.7655 92.8066C39.675 96.4809 42.0756 99.2801 44.4339 101.382ZM52.2174 102.627L50.104 92.3362H48.0377L45.9245 102.627C47.0278 103.49 48.0957 104.204 49.0708 104.787C50.0459 104.204 51.1141 103.49 52.2174 102.627ZM63.6375 82.209C63.2214 82.0478 62.8096 81.8814 62.4042 81.7096L58.4258 89.182C58.27 89.4746 57.98 89.641 57.6802 89.641C57.5524 89.641 57.4231 89.6109 57.3013 89.5473L53.6256 87.6296L51.6916 91.5647L53.7078 101.382C56.0661 99.2801 58.4667 96.4809 60.3759 92.8066C62.0833 89.5215 63.1785 85.9595 63.6375 82.209ZM69.4087 82.3269L72.4575 71.5578C73.4202 68.157 75.6059 65.401 78.4154 63.737V48.4193C77.5007 50.033 76.2717 51.0076 74.9016 51.0076C74.2867 51.0076 73.6935 50.8161 73.1394 50.4478C72.4221 56.3052 71.1333 62.1207 68.8215 64.7777C66.3385 67.6312 62.3775 69.4464 56.8127 70.2652V74.3689C56.8127 78.1627 63.7956 80.4711 68.894 82.1567C69.0681 82.2141 69.2384 82.2706 69.4087 82.3269ZM94.9939 83.2508C91.0154 83.2264 87.0318 82.3585 83.3839 80.7081C79.7333 79.0566 76.4003 76.6132 73.6615 73.5958L65.5591 102.215C65.0649 103.962 65.6822 105.872 67.0953 106.969C68.4259 108.002 69.8698 108.874 71.3868 109.56C72.9239 110.256 74.5417 110.764 76.1953 111.069C77.899 111.384 79.6369 110.542 80.5196 108.973L94.9939 83.2508ZM94.2309 68.0509C92.4966 67.8725 90.8076 67.4191 89.2062 66.6947C87.6049 65.9703 86.1331 64.9934 84.8224 63.7946C80.0444 63.7435 75.7751 66.9066 74.2361 71.6019C76.9329 74.794 80.3184 77.3685 84.059 79.0606C87.8023 80.7541 91.9216 81.5731 95.9995 81.4433C98.2332 77.0641 97.528 71.6528 94.2309 68.0509ZM82.6616 89.2002L77.9216 87.0561C77.4887 86.8601 76.9864 87.0704 76.8002 87.5251C76.6137 87.98 76.8136 88.5076 77.2465 88.7033L81.9865 90.8474C82.0966 90.8972 82.2112 90.9207 82.3236 90.9207C82.6544 90.9207 82.9689 90.7176 83.108 90.3784C83.2945 89.9237 83.0943 89.3961 82.6616 89.2002ZM80.9491 93.3218L76.2091 91.1775C75.776 90.9813 75.2739 91.1916 75.0877 91.6465C74.9012 92.1014 75.1011 92.629 75.534 92.8247L80.274 94.969C80.3841 95.0188 80.4987 95.0424 80.6111 95.0424C80.9419 95.0424 81.2564 94.8392 81.3955 94.5C81.582 94.0453 81.3818 93.5177 80.9491 93.3218ZM34.2166 33.6676C34.2725 33.6053 35.6186 32.1401 38.3207 32.1401C41.023 32.1401 42.3694 33.6053 42.4206 33.6625C42.5889 33.8562 42.8196 33.9546 43.0511 33.9546C43.2566 33.9546 43.4627 33.877 43.6263 33.7201C43.9743 33.386 43.9989 32.8188 43.6812 32.4531C43.6063 32.367 41.8103 30.3467 38.3207 30.3467C34.8313 30.3467 33.0354 32.3672 32.9605 32.4533C32.6447 32.817 32.6692 33.3777 33.0125 33.7127C33.3563 34.0474 33.8948 34.0257 34.2166 33.6676ZM59.821 30.3465C56.3313 30.3465 54.5354 32.3668 54.4605 32.4529C54.1447 32.8165 54.1693 33.3773 54.5126 33.7122C54.8561 34.0472 55.3946 34.0257 55.7166 33.6676C55.7725 33.6053 57.1187 32.1401 59.821 32.1401C62.5126 32.1401 63.859 33.5941 63.9245 33.667C64.0924 33.858 64.3213 33.9546 64.5511 33.9546C64.7566 33.9546 64.9627 33.877 65.1264 33.7201C65.4744 33.3863 65.4989 32.8188 65.1812 32.4531C65.1065 32.367 63.3106 30.3465 59.821 30.3465ZM54.4934 50.5621C54.478 50.5776 52.8993 52.1201 49.0711 52.1201C45.2428 52.1201 43.6641 50.5778 43.6558 50.5695C43.3233 50.2186 42.7831 50.2175 42.4487 50.567C42.115 50.9166 42.114 51.4845 42.4464 51.8354C42.5268 51.9201 44.4693 53.9138 49.0711 53.9138C53.6728 53.9138 55.6153 51.9201 55.6957 51.8354C56.0256 51.4874 56.0239 50.9294 55.6968 50.5787C55.3695 50.2278 54.8311 50.2229 54.4934 50.5621ZM39.1808 35.7794C38.7521 35.7794 38.345 35.8754 37.9759 36.046C37.9337 35.9032 37.897 35.7564 37.8675 35.6028C37.7745 35.1171 37.3245 34.8017 36.8626 34.9003C36.4004 34.9979 36.1013 35.4707 36.1939 35.9561C36.2862 36.4391 36.4269 36.8886 36.6121 37.3056C36.4994 37.5005 36.4057 37.7085 36.3347 37.928C35.8674 37.7543 35.4451 37.4756 35.1245 37.0433C34.8345 36.6525 34.2985 36.5823 33.9266 36.887C33.5549 37.1915 33.4883 37.7549 33.7781 38.1457C34.3785 38.9556 35.2303 39.5026 36.2749 39.7708C36.6168 41.1284 37.7864 42.1301 39.1808 42.1301C40.8432 42.1301 42.1908 40.7084 42.1908 38.9547C42.1908 37.2009 40.8434 35.7794 39.1808 35.7794ZM64.2151 36.8872C63.8434 36.5828 63.3072 36.6527 63.0172 37.0433C62.6965 37.4756 62.2745 37.7545 61.807 37.9282C61.736 37.7087 61.6423 37.5007 61.5296 37.3058C61.715 36.8888 61.8554 36.4393 61.9478 35.9563C62.0406 35.4707 61.7413 34.9981 61.2791 34.9006C60.8172 34.8019 60.3672 35.1176 60.2742 35.603C60.2449 35.7563 60.208 35.9034 60.1658 36.0462C59.7966 35.8759 59.3895 35.7797 58.9609 35.7797C57.2985 35.7797 55.9509 37.2014 55.9509 38.9549C55.9509 40.7084 57.2985 42.1303 58.9609 42.1303C60.3552 42.1303 61.5249 41.1286 61.8667 39.771C62.9112 39.5026 63.7629 38.9558 64.3636 38.1459C64.6533 37.7552 64.5868 37.1917 64.2151 36.8872Z" fill="black"/>
</svg>
