<svg width="99" height="113" viewBox="0 0 99 113" fill="white" xmlns="http://www.w3.org/2000/svg">
<path d="M48.2066 51.9382C44.4377 51.9382 42.836 50.1593 42.7698 50.0836C42.4628 49.7334 42.4628 49.1654 42.7698 48.8152C43.0768 48.465 43.5744 48.465 43.8808 48.8152C43.8855 48.8199 45.1472 50.1443 48.2064 50.1443C51.2658 50.1443 52.5274 48.8199 52.5398 48.8067C52.8466 48.4563 53.34 48.4605 53.6473 48.811C53.9543 49.1612 53.9504 49.7334 53.6433 50.0836C53.5773 50.1593 51.9755 51.9382 48.2066 51.9382ZM40.1871 35.9185C38.8392 35.9185 37.7465 37.1657 37.7465 38.7042C37.7465 40.2427 38.8392 41.49 40.1871 41.49C41.535 41.49 42.6278 40.2427 42.6278 38.7042C42.6278 37.1657 41.5352 35.9185 40.1871 35.9185ZM56.226 41.49C57.5739 41.49 58.6666 40.2427 58.6666 38.7042C58.6666 37.1657 57.5739 35.9185 56.226 35.9185C54.8781 35.9185 53.7853 37.1657 53.7853 38.7042C53.7853 40.2427 54.8781 41.49 56.226 41.49ZM51.605 89.247C51.605 87.4358 52.8959 85.9623 54.4827 85.9623C56.0694 85.9623 57.3604 87.4358 57.3604 89.247C57.3604 91.0581 56.0694 92.5316 54.4827 92.5316C52.8959 92.5316 51.605 91.0581 51.605 89.247ZM53.1764 89.247C53.1764 90.0691 53.7624 90.7379 54.4827 90.7379C55.203 90.7379 55.7889 90.0691 55.7889 89.247C55.7889 88.4248 55.203 87.756 54.4827 87.756C53.7624 87.756 53.1764 88.4248 53.1764 89.247ZM51.605 100.39C51.605 98.5788 52.8959 97.1054 54.4827 97.1054C56.0694 97.1054 57.3604 98.5788 57.3604 100.39C57.3604 102.201 56.0694 103.675 54.4827 103.675C52.8959 103.675 51.605 102.201 51.605 100.39ZM53.1764 100.39C53.1764 101.212 53.7624 101.881 54.4827 101.881C55.203 101.881 55.7889 101.212 55.7889 100.39C55.7889 99.5678 55.203 98.899 54.4827 98.899C53.7624 98.899 53.1764 99.5678 53.1764 100.39ZM41.9306 103.675C40.3439 103.675 39.053 102.201 39.053 100.39C39.053 98.5791 40.3439 97.1056 41.9306 97.1056C43.5174 97.1056 44.8083 98.5791 44.8083 100.39C44.8083 102.201 43.5174 103.675 41.9306 103.675ZM41.9306 101.881C42.651 101.881 43.2369 101.212 43.2369 100.39C43.2369 99.568 42.651 98.8992 41.9306 98.8992C41.2103 98.8992 40.6244 99.568 40.6244 100.39C40.6244 101.212 41.2103 101.881 41.9306 101.881ZM86.1698 49.7809C85.7666 49.5988 85.3097 49.8235 85.1498 50.2838L82.0582 59.1776C81.8981 59.6379 82.0953 60.1591 82.4986 60.3419C82.5937 60.3849 82.6917 60.4053 82.7883 60.4053C83.1008 60.4053 83.3967 60.1908 83.5188 59.839L86.6104 50.9452C86.7705 50.4849 86.5731 49.9636 86.1698 49.7809ZM80.9134 47.4039C80.4978 47.2597 80.0593 47.5278 79.9334 48.0018L77.491 57.1898C77.3651 57.6637 77.5996 58.1646 78.0149 58.3083C78.0909 58.3348 78.1677 58.3471 78.2431 58.3471C78.5802 58.3471 78.892 58.0976 78.9949 57.7104L81.4373 48.5224C81.563 48.0484 81.3287 47.5476 80.9134 47.4039ZM98.7822 50.8046C99.2127 52.3817 98.9988 54.0742 98.1951 55.4479L91.7771 66.417C90.4398 68.7025 87.8444 69.6253 85.6069 68.6124L83.7654 67.7783L77.4478 85.9527C77.5527 86.5323 77.5617 87.1257 77.4782 87.7094C80.7146 88.4432 83.1619 91.7083 83.1619 95.6144C83.1619 100.059 79.9939 103.675 76.1001 103.675C74.63 103.675 73.2639 103.159 72.132 102.278C71.7197 102.743 71.2363 103.098 70.714 103.335V112.103C70.714 112.598 70.3622 113 69.9283 113C69.4944 113 69.1426 112.598 69.1426 112.103V103.679C68.613 103.678 68.0758 103.565 67.556 103.33C66.4937 102.848 65.6591 101.924 65.2059 100.726C64.7528 99.5288 64.7353 98.2015 65.157 96.989L69.2789 85.1303C69.5447 84.366 69.9621 83.7214 70.4753 83.2216C69.8195 82.1107 68.9261 81.1444 67.8043 80.346C67.0964 79.8422 65.5033 79.2662 63.8166 78.6564C61.3597 77.7678 58.5979 76.7676 56.4792 75.3917C56.4556 75.8379 56.3662 76.2827 56.2065 76.7067L55.6375 78.2183C56.9952 78.594 58.3343 79.0723 59.6488 79.6554C59.9324 79.7814 60.1269 80.0828 60.1479 80.4294L62.0692 112.041C62.0992 112.535 61.7726 112.963 61.3398 112.998C61.3212 112.999 61.3029 113 61.2846 113C60.8755 113 60.5303 112.638 60.5017 112.165L58.6152 81.1264C55.2743 79.7155 51.7753 79.0005 48.2068 79.0005C44.6382 79.0005 41.1392 79.7155 37.7986 81.1264L37.6972 82.7925C40.589 83.653 41.9177 84.6534 42.0126 85.967C43.5614 86.017 44.8085 87.4674 44.8085 89.247C44.8085 91.0581 43.5176 92.5316 41.9308 92.5316C40.3985 92.5316 39.1457 91.1563 39.0612 89.431C38.5193 89.7245 37.9082 90.0126 37.2413 90.292L35.9119 112.165C35.8832 112.638 35.5381 113 35.1289 113C35.1106 113 35.0922 112.999 35.0737 112.998C34.641 112.963 34.3143 112.535 34.3444 112.041L35.6288 90.9101C33.6333 91.6094 31.2824 92.2168 28.7628 92.6484C28.6772 95.3548 27.0042 97.6932 24.586 98.8746V112.103C24.586 112.598 24.2341 113 23.8002 113C23.3663 113 23.0145 112.598 23.0145 112.103V99.4476C22.3746 99.6082 21.7028 99.6949 21.0096 99.6949C16.8091 99.6949 13.3801 96.5531 13.2565 92.6479C7.24597 91.6188 2.19302 89.5846 0.640444 87.7064C0.187675 87.1589 -0.0266292 86.5885 0.00263877 86.0108C0.0886748 84.3196 2.19302 83.1456 7.00455 82.1239C7.12359 81.3531 7.49916 80.5446 8.11831 79.744C10.2621 76.9706 15.5088 74.0227 21.0098 74.0227C24.8572 74.0227 28.5788 75.465 31.2029 77.2809C31.5012 77.1714 31.8063 77.0607 32.1227 76.9461C35.9934 75.5464 41.8428 73.431 41.8428 70.1437V66.5959C37.3544 65.8603 34.1538 64.2453 32.14 61.7136C30.2749 59.369 29.228 54.2769 28.6406 49.1251C28.2128 49.4051 27.7581 49.5499 27.2872 49.5499C24.8916 49.5499 23.0149 45.6598 23.0149 40.6938C23.0149 35.7279 24.8916 31.8375 27.2872 31.8375C27.5037 31.8375 27.721 31.872 27.9355 31.933C27.9948 29.4411 28.1374 26.2298 28.4611 22.8677C26.1572 21.2529 24.4997 18.7636 23.7674 15.7989C23.0646 12.9522 23.3363 9.96954 24.5129 7.61538C25.8087 5.02333 28.1671 3.17902 30.9829 2.55572C33.7932 1.93378 36.6909 2.63218 39.0429 4.47515C40.3046 3.02252 43.4972 0 48.2066 0C52.9162 0 56.1087 3.02252 57.371 4.4756C59.7232 2.63263 62.6209 1.93378 65.4311 2.55617C68.2471 3.17946 70.6054 5.02378 71.901 7.61583C73.0776 9.96976 73.3493 12.9524 72.6465 15.7993C71.9144 18.764 70.2569 21.2534 67.9528 22.8679C68.2765 26.2303 68.4189 29.4416 68.4784 31.9332C68.6927 31.8722 68.91 31.8377 69.1265 31.8377C71.5223 31.8377 73.399 35.7279 73.399 40.694C73.399 45.6602 71.5223 49.5502 69.1265 49.5502C68.6556 49.5502 68.2009 49.4053 67.7733 49.1253C67.1859 54.2771 66.139 59.3693 64.2741 61.7138C62.2601 64.2455 59.0593 65.8605 54.5711 66.5961V70.1439C54.5711 73.4315 60.4205 75.5466 64.2912 76.9463C66.1525 77.6194 67.7597 78.2006 68.6356 78.8238C69.6959 79.5785 70.5842 80.47 71.2992 81.4805L77.1097 64.7641L75.2682 63.9303C73.0301 62.9167 71.6956 60.2141 72.0949 57.5037L74.0115 44.4959C74.2515 42.8666 75.1123 41.4671 76.3731 40.6562C77.6342 39.8454 79.1284 39.7293 80.474 40.3387L95.9878 47.3642C97.3329 47.9736 98.3516 49.2275 98.7822 50.8046ZM67.9893 47.0175C68.2799 47.3976 68.6741 47.7568 69.1265 47.7568C70.404 47.7568 71.8276 44.8562 71.8276 40.6943C71.8276 36.5321 70.404 33.6316 69.1265 33.6316C68.9279 33.6316 68.7144 33.7031 68.5109 33.8309C68.5158 34.3125 68.5175 34.7456 68.5175 35.1225C68.5177 36.8092 68.4712 41.7507 67.9893 47.0175ZM28.4238 47.0175C27.9419 41.7507 27.8954 36.8092 27.8954 35.1225C27.8954 34.7456 27.8972 34.3125 27.9021 33.8309C27.6988 33.7029 27.4851 33.6316 27.2863 33.6316C26.0087 33.6316 24.5854 36.5321 24.5854 40.6943C24.5854 44.8562 26.0087 47.7568 27.2863 47.7568C27.739 47.7568 28.1335 47.3976 28.4238 47.0175ZM8.53926 82.7674C8.65063 83.7801 10.257 84.8447 12.8359 85.615C15.1966 86.3202 18.3283 86.7583 21.009 86.7583C23.6896 86.7583 26.8215 86.3202 29.1822 85.615C31.7611 84.8447 33.3673 83.7801 33.4787 82.7674C33.5319 82.2831 33.2632 81.6311 32.722 80.9309C30.779 78.4169 25.8665 75.8166 21.0088 75.8166C16.1513 75.8166 11.239 78.4169 9.2957 80.9309C8.75474 81.6309 8.48602 82.2833 8.53926 82.7674ZM27.1731 92.893C25.1672 93.1683 23.0839 93.3275 21.0092 93.3275C18.9345 93.3275 16.8514 93.1683 14.8454 92.893C15.112 95.6938 17.7736 97.9015 21.0092 97.9015C24.2449 97.9013 26.9066 95.6938 27.1731 92.893ZM40.6242 89.247C40.6242 90.0691 41.2101 90.7379 41.9305 90.7379C42.6508 90.7379 43.2367 90.0691 43.2367 89.247C43.2367 88.4248 42.6508 87.756 41.9305 87.756C41.2101 87.756 40.6242 88.4248 40.6242 89.247ZM34.7928 83.9019C33.1481 87.669 24.2436 88.5517 21.009 88.5517C17.7746 88.5517 8.87024 87.669 7.22534 83.9019C1.87657 85.0482 1.58036 86.076 1.57014 86.1208C1.59548 86.5527 3.1182 87.9966 7.48266 89.4162C11.6197 90.7619 16.5496 91.5339 21.009 91.5339C25.4683 91.5339 30.3987 90.7621 34.5353 89.4162C38.8999 87.9963 40.4227 86.5527 40.4474 86.1121C40.438 86.0756 40.1418 85.0482 34.7928 83.9019ZM40.7756 78.2185L40.2066 76.7069C40.0469 76.2829 39.9575 75.8381 39.9339 75.3919C37.8793 76.7262 35.2206 77.7068 32.8209 78.5754C33.2361 78.9629 33.5999 79.3554 33.9008 79.7447C34.5196 80.5453 34.8951 81.3536 35.0144 82.1244C35.41 82.2085 35.7877 82.2934 36.147 82.3795L36.2654 80.4296C36.2863 80.083 36.4809 79.7814 36.7646 79.6556C38.0791 79.0723 39.4179 78.5943 40.7756 78.2185ZM29.6774 21.6016C29.9573 21.7773 30.116 22.1291 30.0791 22.4912C30.0298 22.9751 29.9842 23.4564 29.9424 23.9335C34.1662 21.5789 40.4521 19.1026 48.2066 19.1026C55.9612 19.1026 62.2471 21.5787 66.4709 23.9333C66.4291 23.456 66.3835 22.9748 66.3342 22.491C66.2973 22.1287 66.456 21.7769 66.7359 21.6013C68.9074 20.2382 70.4693 18.0046 71.1342 15.3126C71.7237 12.9252 71.5058 10.444 70.5362 8.50458C69.4679 6.367 67.4979 4.84061 65.1319 4.31686C62.5333 3.74132 59.8462 4.49197 57.7595 6.37574C57.4279 6.67528 56.9486 6.62125 56.6742 6.25422C56.1177 5.50941 53.0947 1.79365 48.2066 1.79365C43.3186 1.79365 40.2956 5.50941 39.7393 6.25445C39.4651 6.62147 38.9854 6.67528 38.654 6.37597C37.0276 4.90764 35.036 4.12785 33.0061 4.12785C32.4317 4.12785 31.8546 4.19018 31.2816 4.31708C28.9156 4.84083 26.9459 6.36722 25.8773 8.5048C24.9077 10.444 24.6899 12.9255 25.2793 15.3128C25.9441 18.0049 27.5059 20.2384 29.6774 21.6016ZM66.8622 30.4357C66.8153 29.0923 66.7434 27.6033 66.6354 26.0359C62.5887 23.638 56.2105 20.8964 48.2066 20.8964C40.2031 20.8964 33.8248 23.638 29.778 26.0359C29.6697 27.6029 29.598 29.0918 29.5511 30.4351C33.8425 28.0262 40.2663 25.4705 48.2066 25.4705C52.7677 25.4702 59.6101 26.3556 66.8622 30.4357ZM53.2481 27.628C53.5714 30.4673 54.9592 32.6338 56.5748 32.6338C57.8505 32.6338 59.0398 31.2296 59.6136 29.1351C57.3503 28.3813 55.2034 27.9087 53.2481 27.628ZM48.2066 27.2639C47.0565 27.2639 45.9408 27.3213 44.8586 27.4237C45.1368 30.3629 46.5522 32.6336 48.2066 32.6336C49.8605 32.6336 51.2758 30.3635 51.5545 27.4251C50.3374 27.3087 49.2141 27.2639 48.2066 27.2639ZM36.8003 29.1367C37.3743 31.2303 38.5635 32.6338 39.8385 32.6338C41.4529 32.6338 42.8427 30.4649 43.1654 27.6251C40.8603 27.9556 38.7316 28.491 36.8003 29.1367ZM48.2066 65.2675C55.5841 65.2675 60.5985 63.6662 63.1108 60.508C65.7603 57.1772 66.9463 45.358 66.9463 35.1223C66.9463 34.4212 66.9398 33.5233 66.9188 32.4782C64.9449 31.309 62.9971 30.3886 61.1157 29.6705C60.3306 32.5527 58.5767 34.4273 56.5748 34.4273C54.8135 34.4273 53.2729 32.969 52.3907 30.7415C51.5085 32.969 49.9679 34.4273 48.2066 34.4273C46.4448 34.4273 44.9042 32.9688 44.0222 30.7409C43.1397 32.9684 41.5985 34.4273 39.8385 34.4273C37.8375 34.4273 36.0841 32.554 35.2984 29.6734C33.0369 30.5382 31.0885 31.533 29.4945 32.476C29.4733 33.5219 29.4668 34.4208 29.4668 35.1223C29.4668 45.358 30.6529 57.1772 33.3023 60.508C35.8148 63.6662 40.8291 65.2675 48.2066 65.2675ZM46.1918 77.2813L45.0763 74.3184C44.7816 73.5362 44.1092 73.0306 43.3632 73.0306C42.7248 73.0306 42.1573 73.3797 41.8061 73.9882C41.4551 74.5967 41.3981 75.3294 41.6502 75.9988L42.3404 77.8322C43.6107 77.558 44.8959 77.375 46.1918 77.2813ZM49.8933 73.6102C50.436 72.1683 51.6751 71.2369 53.0499 71.2369C53.0745 71.2369 53.0986 71.239 53.1232 71.2396C53.0446 70.8901 52.9996 70.5262 52.9996 70.1442V66.8134C51.5264 66.9788 49.93 67.0613 48.2066 67.0613C46.4831 67.0613 44.8869 66.9788 43.4137 66.8134V70.1442C43.4137 70.5262 43.3687 70.8899 43.2901 71.2396C43.3147 71.239 43.3389 71.2369 43.3634 71.2369C44.738 71.2369 45.9771 72.1685 46.52 73.6099L47.8756 77.2109C47.986 77.2096 48.096 77.2066 48.2066 77.2066C48.3172 77.2066 48.4273 77.2098 48.5375 77.2109L49.8933 73.6102ZM54.607 73.9879C54.2558 73.3794 53.6883 73.0304 53.0499 73.0304C52.3039 73.0304 51.6315 73.5357 51.3369 74.3182L50.2213 77.2811C51.5172 77.3748 52.8024 77.5577 54.0725 77.832L54.7628 75.9986C55.015 75.3294 54.958 74.5964 54.607 73.9879ZM70.9332 101.101C69.7588 99.6606 69.0385 97.7322 69.0385 95.6144C69.0385 91.2446 72.1012 87.6784 75.9048 87.5598C76.0188 86.941 75.9655 86.2989 75.7414 85.7063C75.4546 84.9487 74.9268 84.3637 74.2546 84.0593C72.8665 83.4304 71.2899 84.2084 70.7395 85.7919L66.6177 97.6506C66.3511 98.4179 66.3619 99.2575 66.6487 100.015C66.9355 100.773 67.4633 101.358 68.1357 101.662C69.1108 102.104 70.1835 101.867 70.9332 101.101ZM76.1001 89.3476C73.0727 89.3476 70.6099 92.1589 70.6099 95.6144C70.6099 99.0699 73.0727 101.881 76.1001 101.881C79.1275 101.881 81.5905 99.0699 81.5905 95.6144C81.5905 92.1589 79.1275 89.3476 76.1001 89.3476ZM97.282 51.3384C96.9933 50.2809 96.3105 49.4401 95.4083 49.0316L79.8945 42.0061C78.9923 41.5974 77.9903 41.6752 77.1449 42.2191C76.2993 42.763 75.7222 43.7013 75.5611 44.7936L73.6445 57.8014C73.3674 59.6832 74.2941 61.5595 75.8479 62.2631L78.4199 63.4278C78.8232 63.6106 79.0206 64.1319 78.8603 64.5921L72.7818 82.0793C73.4569 81.9921 74.1596 82.0865 74.8341 82.3921C75.4961 82.6918 76.0693 83.164 76.5173 83.7669L82.5946 66.2833C82.6714 66.0623 82.8221 65.8851 83.0134 65.7908C83.2048 65.6966 83.4208 65.6926 83.6149 65.7807L86.1867 66.9454C87.7403 67.6492 89.5423 67.0082 90.4709 65.4213L96.8888 54.4522C97.4272 53.5307 97.5706 52.3958 97.282 51.3384ZM91.4241 52.1637C91.0348 51.9429 90.5638 52.1243 90.3709 52.5682L86.6299 61.1681C86.437 61.6118 86.5955 62.1499 86.9842 62.37C87.0966 62.4337 87.2158 62.4638 87.3331 62.4638C87.622 62.4638 87.9002 62.281 88.0375 61.9656L91.7785 53.3657C91.9716 52.922 91.8129 52.3839 91.4241 52.1637Z" fill="white"/>
</svg>
