<svg width="99" height="113" viewBox="0 0 99 113" fill="white" xmlns="http://www.w3.org/2000/svg">
<path d="M54.4833 92.5318C56.0701 92.5318 57.361 91.0583 57.361 89.2471C57.361 87.436 56.0701 85.9625 54.4833 85.9625C52.8966 85.9625 51.6056 87.436 51.6056 89.2471C51.6056 91.0583 52.8966 92.5318 54.4833 92.5318ZM54.4833 87.7559C55.2036 87.7559 55.7896 88.4247 55.7896 89.2469C55.7896 90.0691 55.2036 90.7379 54.4833 90.7379C53.763 90.7379 53.177 90.0691 53.177 89.2469C53.177 88.4247 53.763 87.7559 54.4833 87.7559ZM54.4833 103.675C56.0701 103.675 57.361 102.202 57.361 100.39C57.361 98.5793 56.0701 97.1058 54.4833 97.1058C52.8966 97.1058 51.6056 98.5793 51.6056 100.39C51.6056 102.202 52.8966 103.675 54.4833 103.675ZM54.4833 98.8992C55.2036 98.8992 55.7896 99.568 55.7896 100.39C55.7896 101.212 55.2036 101.881 54.4833 101.881C53.763 101.881 53.177 101.212 53.177 100.39C53.177 99.568 53.763 98.8992 54.4833 98.8992ZM44.809 100.39C44.809 98.579 43.5181 97.1056 41.9313 97.1056C40.3446 97.1056 39.0536 98.579 39.0536 100.39C39.0536 102.201 40.3446 103.675 41.9313 103.675C43.5181 103.675 44.809 102.201 44.809 100.39ZM40.6249 100.39C40.6249 99.568 41.2108 98.8992 41.9311 98.8992C42.6514 98.8992 43.2374 99.568 43.2374 100.39C43.2374 101.212 42.6514 101.881 41.9311 101.881C41.2108 101.881 40.6249 101.212 40.6249 100.39ZM86.611 50.9453L83.5194 59.8391C83.3972 60.1909 83.1014 60.4054 82.7889 60.4054C82.6924 60.4054 82.5944 60.385 82.4991 60.342C82.0959 60.1593 81.8985 59.638 82.0587 59.1777L85.1503 50.2839C85.3102 49.8236 85.7673 49.5989 86.1704 49.781C86.5736 49.9637 86.7711 50.485 86.611 50.9453ZM81.4378 48.5223L78.9954 57.7103C78.8925 58.0975 78.5808 58.347 78.2437 58.347C78.1683 58.347 78.0915 58.3345 78.0154 58.3082C77.6002 58.1645 77.3657 57.6636 77.4916 57.1897L79.934 48.0017C80.0601 47.5279 80.4983 47.2596 80.914 47.4037C81.3292 47.5477 81.5635 48.0485 81.4378 48.5223ZM95.9885 47.3645L80.4747 40.339C79.1292 39.7296 77.635 39.8457 76.3739 40.6565C75.113 41.4676 74.2521 42.8671 74.0122 44.4962L72.4634 55.0081C72.3937 54.9732 72.3245 54.9357 72.2546 54.9021C70.639 54.1209 68.9295 53.6183 67.1614 53.3983C67.4073 52.0186 67.6089 50.5747 67.7741 49.1259C68.2017 49.4059 68.6564 49.5507 69.1273 49.5507C71.5231 49.5507 73.3998 45.6605 73.3998 40.6946C73.3998 35.7286 71.5231 31.8382 69.1273 31.8382C68.9108 31.8382 68.6935 31.8727 68.4792 31.9337C68.4199 29.4421 68.2773 26.2306 67.9536 22.8684C70.2575 21.2536 71.9152 18.7645 72.6473 15.7998C73.3501 12.9531 73.0784 9.97046 71.9018 7.61629C70.606 5.02424 68.2476 3.17992 65.4318 2.55662C62.6215 1.934 59.7238 2.63308 57.3718 4.47606C56.1091 3.02253 52.9166 0 48.2072 0C43.4978 0 40.3053 3.02253 39.043 4.47561C36.6908 2.63263 33.7931 1.93445 30.983 2.55618C28.167 3.17947 25.8086 5.02379 24.513 7.61584C23.3364 9.96978 23.0647 12.9524 23.7676 15.7994C24.4998 18.7641 26.1573 21.2534 28.4612 22.8682C28.1375 26.2303 27.9951 29.4419 27.9356 31.9335C27.7211 31.8725 27.5038 31.838 27.2874 31.838C24.8917 31.838 23.015 35.7282 23.015 40.6943C23.015 45.6605 24.8917 49.5505 27.2874 49.5505C27.7582 49.5505 28.2129 49.4057 28.6408 49.1256C28.806 50.5747 29.0075 52.0186 29.2534 53.3983C27.4856 53.6183 25.7758 54.1209 24.1602 54.9021C20.3035 56.7666 17.7857 59.8438 16.3526 62.0966C15.854 62.88 15.6737 63.8732 15.8576 64.8214C16.0426 65.7763 16.5785 66.5965 17.3274 67.0713L25.6617 72.3561C26.1184 72.6458 26.6156 72.7839 27.1072 72.7839C28.0951 72.7839 29.0603 72.2263 29.6276 71.2187L33.9671 63.5138C35.9171 65.031 38.5292 66.0534 41.8427 66.5965V70.1443C41.8427 73.4316 35.9933 75.547 32.1227 76.9467C31.8062 77.0611 31.5012 77.172 31.2028 77.2815C28.5787 75.4656 24.8573 74.0233 21.0097 74.0233C15.5087 74.0233 10.2621 76.9709 8.11828 79.7446C7.49934 80.5452 7.12377 81.3537 7.00453 82.1245C2.19301 83.1463 0.0886745 84.3202 0.00263876 86.0114C-0.0266291 86.5889 0.187675 87.1595 0.640443 87.7071C2.19301 89.5852 7.24594 91.6195 13.2565 92.6486C13.38 96.5538 16.8091 99.6956 21.0095 99.6956C21.7027 99.6956 22.3745 99.6088 23.0145 99.4483V112.103C23.0145 112.598 23.3663 113 23.8002 113C24.2341 113 24.5859 112.598 24.5859 112.103V98.8743C27.0041 97.693 28.6771 95.3547 28.7627 92.6481C31.2823 92.2167 33.6332 91.6094 35.6287 90.9101L34.3445 112.041C34.3144 112.535 34.6411 112.963 35.0738 112.998C35.0925 112.999 35.1107 113 35.129 113C35.5382 113 35.8833 112.638 35.912 112.165L37.2414 90.2919C37.9083 90.0128 38.5193 89.7245 39.0613 89.431C39.1458 91.1565 40.3986 92.5315 41.9309 92.5315C43.5177 92.5315 44.8086 91.058 44.8086 89.2469C44.8086 87.4672 43.5613 86.017 42.0126 85.967C41.9178 84.6531 40.5891 83.6527 37.6973 82.7922L37.7987 81.1264C41.1395 79.7154 44.6383 79.0005 48.2068 79.0005C51.7753 79.0005 55.2743 79.7154 58.6152 81.1264L60.5017 112.165C60.5304 112.638 60.8755 113 61.2846 113C61.3029 113 61.3214 112.999 61.3396 112.998C61.7726 112.963 62.0992 112.535 62.0692 112.041L60.1479 80.4293C60.1269 80.0829 59.9324 79.7814 59.6488 79.6554C58.3343 79.0722 56.9954 78.594 55.6375 78.2182L56.2066 76.7066C56.3663 76.2826 56.4556 75.8378 56.4792 75.3916C58.5979 76.7676 61.3597 77.7678 63.8166 78.6563C65.5033 79.2661 67.0964 79.8423 67.8043 80.3459C68.9261 81.1443 69.8195 82.1106 70.4753 83.2216C69.9619 83.7213 69.5445 84.3659 69.2789 85.1303L65.157 96.989C64.7355 98.2015 64.7528 99.5288 65.2059 100.726C65.6591 101.924 66.4937 102.848 67.556 103.33C68.0758 103.565 68.613 103.678 69.1426 103.679V112.103C69.1426 112.598 69.4944 113 69.9283 113C70.3622 113 70.714 112.598 70.714 112.103V103.335C71.2363 103.098 71.7197 102.743 72.132 102.278C73.2636 103.159 74.63 103.675 76.1001 103.675C79.9939 103.675 83.1619 100.059 83.1619 95.6146C83.1619 91.7085 80.7144 88.4434 77.4782 87.7095C77.5619 87.1259 77.5527 86.5327 77.4478 85.9529L83.7653 67.7785L85.6068 68.6125C87.8445 69.6257 90.4398 68.7027 91.777 66.4171L98.195 55.448C98.9987 54.0743 99.2129 52.3818 98.7821 50.8047C98.3513 49.2276 97.3334 47.9737 95.9885 47.3645ZM71.6417 56.5536C71.8264 56.6428 72.0108 56.737 72.1941 56.835L72.0955 57.5038C71.6961 60.214 73.0309 62.9168 75.2688 63.9304L77.1103 64.7642L76.4377 66.6994L72.8158 68.9959L69.4191 62.9652C69.1848 62.5489 68.6984 62.428 68.3335 62.6957C67.9685 62.9636 67.8628 63.5183 68.0976 63.9351L71.4394 69.8688L69.9896 70.788C69.3372 71.2017 68.5116 70.9642 68.1086 70.2486L63.6842 62.3933C63.8911 62.1744 64.0883 61.9484 64.2747 61.7139C65.3867 60.316 66.2075 57.9403 66.8139 55.1586C68.4928 55.3476 70.1139 55.815 71.6417 56.5536ZM48.2072 65.2676C40.8297 65.2676 35.8155 63.6663 33.3032 60.5081C30.9075 57.4964 29.7085 47.5452 29.5007 38.0996C30.4442 37.6364 31.6186 36.8326 32.6316 35.4524C34.0673 33.496 34.4715 31.3582 34.5666 29.9634C37.0801 28.9417 40.0108 28.0657 43.2965 27.607C43.6609 31.5017 45.7118 34.4276 48.2072 34.4276C50.7019 34.4276 52.7528 31.503 53.1179 27.6099C55.7391 27.9765 58.7093 28.6838 61.8476 29.9585C61.9421 31.353 62.3456 33.4937 63.7828 35.4526C64.796 36.8331 65.9705 37.6368 66.9139 38.1001C66.7061 47.5459 65.5071 57.4968 63.1114 60.5086C60.5991 63.6663 55.5845 65.2676 48.2072 65.2676ZM29.7787 26.0357C33.8255 23.6378 40.2035 20.8963 48.2072 20.8963C56.2111 20.8963 62.5893 23.6378 66.6359 26.0357C66.7442 27.6032 66.8159 29.0921 66.8628 30.4356C59.6107 26.3557 52.7683 25.4703 48.2072 25.4703C40.267 25.4703 33.8432 28.026 29.5518 30.4349C29.5987 29.0917 29.6704 27.6029 29.7787 26.0357ZM66.9469 35.1226C66.9469 35.4549 66.9455 35.7889 66.943 36.1241C66.3071 35.7282 65.609 35.1477 64.9873 34.3007C64.0845 33.0702 63.6844 31.7478 63.5131 30.684C64.6345 31.2039 65.7723 31.7992 66.9192 32.4785C66.9406 33.5236 66.9469 34.4215 66.9469 35.1226ZM51.5551 27.4254C51.2764 30.3638 49.8611 32.6339 48.2072 32.6339C46.5529 32.6339 45.1374 30.3631 44.8593 27.424C45.9414 27.3216 47.0571 27.2642 48.2072 27.2642C49.2147 27.2639 50.3381 27.3088 51.5551 27.4254ZM32.9007 30.6873C32.729 31.7505 32.3289 33.0713 31.4269 34.3007C30.8054 35.1477 30.1073 35.7282 29.4715 36.1241C29.4689 35.7889 29.4675 35.4549 29.4675 35.1226C29.4675 34.4211 29.474 33.5222 29.4952 32.4763C30.4941 31.8853 31.6337 31.2743 32.9007 30.6873ZM69.1273 33.6314C70.4048 33.6314 71.8283 36.532 71.8283 40.6941C71.8283 44.8561 70.4048 47.7566 69.1273 47.7566C68.6747 47.7566 68.2804 47.3974 67.9901 47.0174C68.472 41.7506 68.5185 36.8091 68.5185 35.1224C68.5185 34.7455 68.5168 34.3123 68.5118 33.8307C68.7151 33.7029 68.9287 33.6314 69.1273 33.6314ZM25.2799 15.3128C24.6904 12.9255 24.9082 10.4442 25.8778 8.50482C26.9462 6.36724 28.9162 4.84084 31.2821 4.31709C31.8551 4.19019 32.4322 4.12786 33.0066 4.12786C35.0365 4.12786 37.0281 4.90765 38.6545 6.37598C38.9861 6.6753 39.4657 6.62149 39.7398 6.25446C40.296 5.50942 43.3193 1.79365 48.2072 1.79365C53.0953 1.79365 56.1184 5.50942 56.6747 6.25446C56.9491 6.62149 57.4284 6.67552 57.7599 6.37598C59.8466 4.4922 62.5339 3.74156 65.1323 4.31709C67.4983 4.84084 69.4681 6.36724 70.5366 8.50482C71.5062 10.444 71.724 12.9255 71.1346 15.3128C70.4696 18.0049 68.9078 20.2384 66.7363 21.6016C66.4564 21.7774 66.2977 22.1292 66.3346 22.4913C66.3839 22.9751 66.4295 23.4565 66.4713 23.9336C62.2475 21.579 55.9616 19.1028 48.207 19.1028C40.4524 19.1028 34.1665 21.5792 29.9429 23.9338C29.9847 23.4565 30.0303 22.9751 30.0796 22.4915C30.1165 22.1292 29.9578 21.7774 29.6779 21.6018C27.5066 20.2384 25.9448 18.0049 25.2799 15.3128ZM27.2872 47.7568C26.0096 47.7568 24.5863 44.8563 24.5863 40.6943C24.5863 36.5322 26.0096 33.6316 27.2872 33.6316C27.4858 33.6316 27.6995 33.7031 27.903 33.8309C27.8981 34.3125 27.8963 34.7457 27.8963 35.1226C27.8963 36.8093 27.9428 41.7508 28.4247 47.0176C28.1342 47.3977 27.7397 47.7568 27.2872 47.7568ZM28.3057 70.2488C27.9028 70.9644 27.0758 71.2012 26.4246 70.7882L24.975 69.869L28.3168 63.9354C28.5516 63.5188 28.4459 62.9639 28.0809 62.6959C27.7154 62.428 27.2296 62.5486 26.9953 62.9654L23.5986 68.9961L20.9867 67.3399L23.7742 62.3908C24.009 61.9742 23.9033 61.4193 23.5383 61.1514C23.1736 60.8835 22.687 61.0041 22.4527 61.4209L19.6105 66.4671L18.0906 65.5032C17.7344 65.2775 17.4799 64.8876 17.3917 64.4335C17.3037 63.9797 17.3862 63.5239 17.6241 63.1502C18.9399 61.0812 21.2486 58.2571 24.7733 56.5534C26.3009 55.8148 27.922 55.3476 29.6007 55.1586C30.2073 57.9403 31.0282 60.316 32.1401 61.7139C32.3265 61.9482 32.5238 62.1744 32.7306 62.393L28.3057 70.2488ZM41.651 75.999C41.399 75.3295 41.456 74.5968 41.807 73.9883C42.1582 73.3798 42.7257 73.0307 43.3641 73.0307C44.1101 73.0307 44.7825 73.5363 45.0771 74.3186L46.1926 77.2815C44.8968 77.3752 43.6116 77.5581 42.3415 77.8323L41.651 75.999ZM9.29686 80.9311C11.2401 78.4171 16.1524 75.8167 21.0099 75.8167C25.8674 75.8167 30.7801 78.4171 32.7231 80.9311C33.2643 81.6313 33.533 82.2833 33.4798 82.7676C33.3684 83.7803 31.7622 84.8448 29.1833 85.6152C26.8224 86.3203 23.6908 86.7584 21.0101 86.7584C18.3294 86.7584 15.1976 86.3203 12.8371 85.6152C10.2582 84.8448 8.65178 83.7803 8.54041 82.7676C8.48678 82.2835 8.7555 81.6311 9.29686 80.9311ZM21.0099 97.9015C17.7743 97.9015 15.1127 95.694 14.8462 92.8929C16.8521 93.1683 18.9352 93.3275 21.0099 93.3275C23.0848 93.3275 25.1679 93.1683 27.1738 92.8929C26.9073 95.694 24.2457 97.9015 21.0099 97.9015ZM43.2376 89.2471C43.2376 90.0693 42.6516 90.7381 41.9313 90.7381C41.211 90.7381 40.6251 90.0693 40.6251 89.2471C40.6251 88.425 41.211 87.7562 41.9313 87.7562C42.6516 87.7562 43.2376 88.425 43.2376 89.2471ZM40.4483 86.1123C40.4235 86.5528 38.9008 87.9967 34.5362 89.4164C30.3994 90.7621 25.4692 91.534 21.0099 91.534C16.5506 91.534 11.6204 90.7623 7.48362 89.4164C3.11918 87.9965 1.59646 86.5528 1.57112 86.121C1.58134 86.0762 1.87755 85.0484 7.2263 83.902C8.87119 87.6692 17.7755 88.5519 21.0099 88.5519C24.2445 88.5519 33.149 87.6692 34.7937 83.902C40.1424 85.0484 40.4387 86.0757 40.4483 86.1123ZM36.7652 79.6556C36.4816 79.7816 36.2871 80.0829 36.2661 80.4295L36.1475 82.3795C35.7882 82.2931 35.4105 82.2082 35.0149 82.1243C34.8958 81.3535 34.5203 80.5452 33.9013 79.7446C33.6006 79.3554 33.2366 78.9628 32.8213 78.5754C35.2213 77.707 37.8798 76.7263 39.9344 75.3918C39.958 75.838 40.0474 76.2828 40.2071 76.7068L40.7761 78.2184C39.4186 78.5944 38.0797 79.0724 36.7652 79.6556ZM47.8762 77.2113L46.5207 73.6103C45.9775 72.1687 44.7387 71.2373 43.3641 71.2373C43.3395 71.2373 43.3153 71.2393 43.2908 71.24C43.3694 70.8905 43.4143 70.5266 43.4143 70.1445V66.8135C44.8876 66.979 46.4839 67.0615 48.2072 67.0615C49.9307 67.0615 51.5271 66.979 53.0003 66.8135V70.1443C53.0003 70.5263 53.0452 70.89 53.1238 71.2398C53.0993 71.2391 53.0751 71.2371 53.0506 71.2371C51.6757 71.2371 50.4365 72.1687 49.8939 73.6103L48.5384 77.2111C48.428 77.2097 48.3178 77.2068 48.2074 77.2068C48.0968 77.2068 47.9866 77.2099 47.8762 77.2113ZM50.2222 77.2815L51.3377 74.3186C51.6323 73.5363 52.3047 73.0307 53.0508 73.0307C53.6891 73.0307 54.2566 73.3798 54.6078 73.9883C54.9589 74.5968 55.0158 75.3295 54.7638 75.999L54.0736 77.8323C52.8031 77.5581 51.518 77.3752 50.2222 77.2815ZM68.6364 78.8242C67.7605 78.2009 66.1531 77.6198 64.292 76.9467C60.4213 75.547 54.5719 73.4316 54.5719 70.1443V66.5965C57.8854 66.0532 60.4976 65.031 62.4475 63.5138L66.7868 71.2185C67.3543 72.2263 68.3195 72.7837 69.3072 72.7837C69.7988 72.7837 70.2962 72.6455 70.7527 72.3559L75.523 69.3311L71.2999 81.4806C70.585 80.4706 69.6967 79.5789 68.6364 78.8242ZM68.1363 101.662C67.4639 101.358 66.9361 100.773 66.6493 100.015C66.3625 99.2577 66.3515 98.4178 66.6183 97.6506L70.7401 85.7919C71.2905 84.2083 72.8669 83.4305 74.2552 84.0592C74.9274 84.3635 75.4552 84.9484 75.742 85.7062C75.9663 86.2988 76.0193 86.9409 75.9054 87.5598C72.1018 87.6786 69.0391 91.2448 69.0391 95.6144C69.0391 97.7322 69.7594 99.6606 70.9338 101.101C70.6032 101.439 70.2098 101.672 69.7894 101.791C69.7631 101.797 69.7379 101.806 69.7126 101.814C69.2015 101.941 68.655 101.898 68.1363 101.662ZM81.591 95.6146C81.591 99.0701 79.128 101.881 76.1007 101.881C73.0733 101.881 70.6105 99.0701 70.6105 95.6146C70.6105 92.1591 73.0733 89.3478 76.1007 89.3478C79.128 89.3478 81.591 92.1591 81.591 95.6146ZM96.8889 54.4521L90.471 65.4212C89.5425 67.0081 87.7406 67.6493 86.1869 66.9453L83.615 65.7806C83.4212 65.6925 83.2049 65.6965 83.0136 65.7907C82.8223 65.885 82.6716 66.0622 82.5948 66.2832L76.5175 83.7669C76.0696 83.164 75.4963 82.6918 74.8343 82.392C74.1598 82.0867 73.4571 81.992 72.782 82.0793L78.8605 64.5921C79.0206 64.1318 78.8234 63.6105 78.4201 63.4277L75.8481 62.263C74.2943 61.5594 73.3676 59.6828 73.6447 57.8013L75.5613 44.7935C75.7222 43.7012 76.2995 42.7627 77.1451 42.219C77.9905 41.6753 78.9925 41.5975 79.8947 42.006L95.4084 49.0315C96.3106 49.44 96.9934 50.2807 97.2822 51.3383C97.5711 52.3959 97.4277 53.5308 96.8889 54.4521ZM91.779 53.3658L88.038 61.9657C87.9007 62.2812 87.6226 62.4639 87.3336 62.4639C87.2162 62.4639 87.0971 62.4338 86.9848 62.3702C86.596 62.15 86.4375 61.6117 86.6304 61.1682L90.3714 52.5683C90.5643 52.1246 91.0353 51.943 91.4247 52.1638C91.8134 52.384 91.9721 52.9221 91.779 53.3658ZM35.2056 34.161C34.8905 33.8251 34.8687 33.2655 35.1602 32.9027C35.2217 32.8263 36.6963 31.0306 39.549 31.0306C42.4018 31.0306 43.8764 32.8261 43.9378 32.9025C44.2311 33.2675 44.2095 33.835 43.8897 34.1695C43.7388 34.3273 43.5487 34.4054 43.359 34.4054C43.1464 34.4054 42.9347 34.3074 42.7797 34.1146C42.7404 34.0677 41.6789 32.8243 39.5492 32.8243C37.4195 32.8243 36.358 34.0677 36.3139 34.1206C36.0163 34.4771 35.5203 34.4968 35.2056 34.161ZM61.2542 32.9027C61.5475 33.2677 61.5259 33.8352 61.2061 34.1697C61.055 34.3276 60.8651 34.4054 60.6753 34.4054C60.4647 34.4054 60.2546 34.3092 60.1 34.1197C60.0466 34.0558 58.9851 32.824 56.8654 32.824C54.7312 32.824 53.6453 34.1013 53.6351 34.1143C53.342 34.4794 52.8447 34.504 52.5251 34.1693C52.2053 33.8345 52.1837 33.2673 52.477 32.9023C52.5385 32.8258 54.0131 31.0304 56.8656 31.0304C59.7179 31.0306 61.1927 32.8263 61.2542 32.9027ZM53.6153 48.6824C53.9223 49.0326 53.9184 49.6048 53.6114 49.955C53.5454 50.0301 51.9529 51.7988 48.207 51.7988C44.4615 51.7988 42.8689 50.0301 42.8029 49.955C42.4959 49.6045 42.4959 49.0368 42.8029 48.6866C43.1095 48.3364 43.6074 48.3364 43.9139 48.6866C43.9186 48.6913 45.1706 50.0052 48.2068 50.0052C51.243 50.0052 52.4952 48.6913 52.5076 48.6781C52.8146 48.3281 53.3085 48.3324 53.6153 48.6824ZM42.666 38.6478C42.666 40.176 41.5805 41.4149 40.2416 41.4149C39.1587 41.4149 38.2422 40.6042 37.931 39.4857C37.0444 39.2516 36.3215 38.7561 35.8135 38.0151C35.5462 37.625 35.6063 37.0613 35.9483 36.7562C36.2899 36.451 36.7839 36.5199 37.0512 36.91C37.2972 37.2685 37.6227 37.5003 37.9841 37.6454C38.0222 37.5337 38.0646 37.4247 38.1145 37.3207C37.9487 36.9315 37.8203 36.5131 37.7399 36.0582C37.6541 35.5726 37.9295 35.0997 38.3547 35.002C38.7816 34.9029 39.1945 35.2183 39.2803 35.7037C39.3027 35.8309 39.3308 35.9531 39.3628 36.0714C39.6357 35.9501 39.9313 35.8811 40.2416 35.8811C41.5805 35.8806 42.666 37.1194 42.666 38.6478ZM60.6009 38.0149C60.0929 38.7559 59.3699 39.2514 58.4834 39.4854C58.1722 40.604 57.2557 41.4147 56.1728 41.4147C54.8339 41.4147 53.7485 40.1758 53.7485 38.6476C53.7485 37.1194 54.8339 35.8804 56.1728 35.8804C56.4831 35.8804 56.7788 35.9495 57.0516 36.0708C57.0838 35.9522 57.1117 35.8302 57.1343 35.7028C57.2201 35.2174 57.6342 34.902 58.0599 35.0013C58.4853 35.0993 58.7605 35.5724 58.6747 36.0578C58.5944 36.5125 58.4657 36.9308 58.3001 37.32C58.35 37.4241 58.3924 37.533 58.4305 37.6447C58.792 37.4996 59.1174 37.268 59.3632 36.9093C59.6307 36.5192 60.1247 36.4506 60.4661 36.7555C60.8079 37.0611 60.8682 37.6247 60.6009 38.0149Z" fill="black"/>
</svg>
