<svg width="99" height="113" viewBox="0 0 99 113" fill="white" xmlns="http://www.w3.org/2000/svg">
<path d="M73.5862 71.746V73.5397H69.7132C69.1785 73.5397 68.745 73.9412 68.745 74.4365V107.619C68.745 108.114 69.1785 108.516 69.7132 108.516H92.9509C93.4856 108.516 93.9192 108.114 93.9192 107.619V74.4365C93.9192 73.9412 93.4856 73.5397 92.9509 73.5397H89.078V71.746C89.078 71.2508 88.6444 70.8492 88.1097 70.8492H74.5544C74.0197 70.8492 73.5862 71.2508 73.5862 71.746ZM89.078 77.127V75.3333H91.9827V106.722H70.6814V75.3333H73.5862V77.127C73.5862 77.6223 74.0197 78.0238 74.5544 78.0238H88.1097C88.6444 78.0238 89.078 77.6223 89.078 77.127ZM75.5226 72.6429H87.1415V76.2302H75.5226V72.6429ZM4.81868 113H26.1652C28.8221 113 30.9836 110.998 30.9836 108.537V93.1044C32.5244 95.5164 34.2086 97.8558 36.0192 100.087C39.1236 103.911 42.6417 107.48 46.4755 110.703V112.103C46.4755 112.598 46.909 113 47.4437 113C47.9784 113 48.4119 112.598 48.4119 112.103V110.703C52.2457 107.48 55.764 103.911 58.8682 100.087C60.6788 97.8558 62.3631 95.5162 63.9038 93.1044V107.576C63.9038 110.566 66.5311 113 69.7602 113H93.1436C96.3727 113 99 110.566 99 107.576V71.7895C99 68.7986 96.3727 66.3651 93.1436 66.3651H89.0545C90.3839 64.4779 91.995 61.3686 91.9827 57.3944C91.9737 54.5382 91.1541 51.8031 89.5461 49.2646C88.1836 47.1136 87.5985 44.7141 87.8546 42.3252C88.704 34.3962 88.3167 19.5499 76.1784 9.20524C65.3772 0 51.8792 0 47.4437 0C43.0082 0 29.5102 0 18.7093 9.20524C6.55352 19.5647 6.1793 34.4325 7.03813 42.373C7.29907 44.7859 6.6869 47.267 5.31418 49.3586C3.76548 51.7186 2.95482 54.1156 2.90472 56.4825C2.81467 60.7427 5.11133 63.825 7.33247 66.8059C8.94798 68.9742 10.4838 71.0373 11.1987 73.5397H4.81868C2.16159 73.5397 0 75.5418 0 78.003V108.537C0 110.998 2.16159 113 4.81868 113ZM69.7602 66.3651C69.4898 66.3651 69.224 66.3837 68.9633 66.4166C69.2063 66.2032 69.4404 65.9844 69.6624 65.7579C72.266 63.102 73.7154 57.2843 74.5215 51.4291C75.1641 51.8154 75.8281 52.0154 76.4911 52.0154C78.0827 52.0154 79.5048 50.9791 80.5442 49.2758C81.6291 50.7285 82.1795 52.1735 82.1795 53.5853C82.1795 56.0964 80.4677 57.973 78.6551 59.96C76.9404 61.8397 75.1777 63.7795 74.7684 66.3651H69.7602ZM63.9038 71.7895V81.2678C60.2625 79.9661 56.1579 78.0325 56.1579 75.3331V71.2375C59.5237 70.7974 62.3669 70.0692 64.7105 69.047C64.1988 69.8522 63.9038 70.7893 63.9038 71.7895ZM49.6554 90.5794H45.232L43.8428 86.8028L47.4437 85.2868L51.0446 86.8028L49.6554 90.5794ZM47.4437 71.7458C49.8856 71.7458 52.1428 71.6487 54.2214 71.4546V75.3331C54.2214 75.9956 54.3664 76.612 54.6268 77.1877L47.4437 83.1016L40.2606 77.1875C40.521 76.6118 40.666 75.9954 40.666 75.3329V71.4543C42.7446 71.6487 45.0018 71.7458 47.4437 71.7458ZM39.2171 78.7283L45.6878 84.0559L37.3716 87.5571L35.1904 81.4959C36.789 80.7206 38.2195 79.8123 39.2171 78.7283ZM49.1996 84.0559L55.6703 78.7283C56.6679 79.8123 58.0982 80.7206 59.697 81.4959L57.5158 87.5571L49.1996 84.0559ZM76.4909 50.222C75.9813 50.222 75.3851 49.8942 74.788 49.2918C75.458 43.3543 75.5226 37.7745 75.5226 35.8728C75.5226 35.3699 75.5188 34.8634 75.5122 34.3549C75.7862 34.2034 76.1215 34.0791 76.4909 34.0791C78.3228 34.0791 80.3638 37.394 80.3638 42.1506C80.3638 46.9071 78.3228 50.222 76.4909 50.222ZM73.5862 35.8728C73.5862 47.4277 71.9295 60.7767 68.2284 64.5524C64.7161 68.1354 57.723 69.9522 47.4437 69.9522C37.1644 69.9522 30.1713 68.1354 26.659 64.5524C22.9579 60.7765 21.3013 47.4275 21.3013 35.8728C21.3013 35.4773 21.3037 35.0208 21.3097 34.5125C22.9424 33.8964 24.4442 33.0832 25.7811 32.088C30.4734 28.5942 31.843 23.8939 33.0513 19.7467C34.0162 16.4348 34.8498 13.5743 37.2302 12.4591C39.4499 11.4191 42.726 12.0161 46.9681 14.2335C47.2634 14.3878 47.6245 14.3878 47.9198 14.2335C52.1617 12.0161 55.438 11.4188 57.6577 12.4591C60.0381 13.5746 60.8717 16.4348 61.8366 19.7467C63.0449 23.8939 64.4145 28.5939 69.1068 32.088C70.4435 33.0832 71.9455 33.8964 73.5782 34.5125C73.5837 35.0208 73.5862 35.4773 73.5862 35.8728ZM20.0994 49.2915C19.5023 49.894 18.9063 50.2218 18.3965 50.2218C16.5646 50.2218 14.5236 46.9069 14.5236 42.1503C14.5236 37.3938 16.5646 34.0789 18.3965 34.0789C18.7657 34.0789 19.1012 34.2031 19.3752 34.3547C19.3686 34.8632 19.3648 35.3697 19.3648 35.8726C19.3648 37.7743 19.4294 43.3543 20.0994 49.2915ZM18.3965 52.0156C19.0595 52.0156 19.7235 51.8157 20.3662 51.4293C21.1722 57.2845 22.6217 63.1022 25.2253 65.7581C28.0179 68.6071 32.4721 70.4194 38.7296 71.2375V75.3331C38.7296 78.0325 34.6249 79.9661 30.9836 81.2678V78.003C30.9836 75.5418 28.8221 73.5397 26.165 73.5397H17.651C19.35 71.546 20.212 69.5163 20.212 67.4861C20.212 64.3223 18.1891 62.1047 16.2325 59.96C14.42 57.973 12.7081 56.0964 12.7081 53.5853C12.7081 52.1735 13.2586 50.7285 14.3435 49.2758C15.3829 50.9791 16.805 52.0156 18.3965 52.0156ZM30.9836 89.4543V83.1853C31.7967 82.9063 32.6214 82.6048 33.4297 82.2759L35.8745 89.0693C35.9614 89.3104 36.1545 89.5061 36.406 89.6077C36.5295 89.6576 36.6612 89.6823 36.7931 89.6823C36.9298 89.6823 37.0664 89.6554 37.1937 89.602L42.0714 87.5485L43.5504 91.5697L41.8892 103.88C40.3739 102.311 38.9283 100.686 37.5669 99.0086C35.1217 95.996 32.9087 92.782 30.9836 89.4543ZM47.4437 109.098C46.124 107.976 44.8447 106.811 43.6075 105.608L45.3937 92.373H49.4937L51.2799 105.608C50.0427 106.811 48.7634 107.976 47.4437 109.098ZM57.3205 99.0086C55.9591 100.686 54.5133 102.311 52.9982 103.88L51.337 91.5697L52.816 87.5485L57.6937 89.602C57.821 89.6556 57.9576 89.6823 58.0943 89.6823C58.226 89.6823 58.3579 89.6574 58.4814 89.6077C58.7331 89.5061 58.926 89.3104 59.0129 89.0693L61.4578 82.2759C62.266 82.6048 63.0907 82.9063 63.9038 83.1853V89.4545C61.9789 92.7817 59.766 95.9957 57.3205 99.0086ZM97.0635 71.7895V107.576C97.0635 109.577 95.305 111.206 93.1436 111.206H69.7602C67.5988 111.206 65.8402 109.577 65.8402 107.576V71.7895C65.8402 69.7876 67.5988 68.1587 69.7602 68.1587H93.1436C95.305 68.1587 97.0635 69.7876 97.0635 71.7895ZM8.92619 65.7871C6.78542 62.9136 4.76301 60.1996 4.84095 56.5175C4.88428 54.4714 5.60029 52.3762 6.96914 50.2902C8.55899 47.8674 9.26774 44.9922 8.96517 42.1941C8.1424 34.5867 8.48443 20.3566 20.0205 10.5249C30.2655 1.79365 43.1951 1.79365 47.4437 1.79365C51.6923 1.79365 64.6219 1.79365 74.8671 10.5249C86.3865 20.3422 86.7414 34.5518 85.9276 42.1479C85.6308 44.9168 86.3047 47.6916 87.8759 50.1722C89.3082 52.4331 90.0385 54.8649 90.0462 57.3993C90.0595 61.7516 87.8807 64.9389 86.6784 66.3651H76.73C77.1442 64.3972 78.6014 62.7975 80.1339 61.1175C82.0914 58.9716 84.1157 56.7527 84.1157 53.5853C84.1157 51.5069 83.2153 49.4252 81.4378 47.3909C81.9856 45.8811 82.3003 44.0902 82.3003 42.1506C82.3003 36.6187 79.7485 32.2855 76.4909 32.2855C76.1491 32.2855 75.8083 32.3335 75.473 32.4249C75.3747 28.9643 75.1329 25.4734 74.7684 22.3251C74.7115 21.8328 74.2346 21.4761 73.7023 21.5292C73.1708 21.5819 72.7859 22.024 72.843 22.5166C73.2763 26.2584 73.4625 29.817 73.5382 32.5384C72.3763 32.0353 71.297 31.4178 70.32 30.69C66.1196 27.5624 64.8374 23.1619 63.706 19.2795C62.6654 15.7081 61.6826 12.3349 58.5315 10.8585C55.7921 9.57518 52.0639 10.103 47.4437 12.4273C42.8237 10.1027 39.0955 9.57473 36.3559 10.8585C33.2048 12.3349 32.222 15.7081 31.1814 19.2795C30.0503 23.1619 28.7678 27.5624 24.5674 30.69C23.5902 31.4176 22.5111 32.0353 21.3492 32.5384C21.4249 29.817 21.6111 26.2584 22.0444 22.5166C22.1015 22.024 21.7166 21.5821 21.1851 21.5292C20.653 21.4763 20.1762 21.8328 20.119 22.3251C19.7545 25.4734 19.5127 28.9643 19.4144 32.4249C19.0791 32.3337 18.7381 32.2855 18.3965 32.2855C15.1389 32.2855 12.5871 36.6187 12.5871 42.1506C12.5871 44.0902 12.9018 45.8811 13.4496 47.3909C11.6724 49.4252 10.7717 51.5069 10.7717 53.5853C10.7717 56.7527 12.7958 58.9716 14.7533 61.1175C16.5646 63.1031 18.2755 64.9786 18.2755 67.4861C18.2755 69.4609 17.1996 71.4963 15.082 73.5397H13.191C12.4465 70.5158 10.6601 68.1141 8.92619 65.7871ZM1.93648 78.003C1.93648 76.5308 3.22932 75.3333 4.81868 75.3333H12.3964C12.3968 75.3333 12.3973 75.3333 12.3976 75.3333C12.3981 75.3333 12.3985 75.3333 12.399 75.3333H26.1652C27.7543 75.3333 29.0474 76.5308 29.0474 78.003V108.537C29.0474 110.009 27.7546 111.207 26.1652 111.207H4.81868C3.22932 111.206 1.93648 110.009 1.93648 108.537V78.003ZM4.84119 84.3016H26.1424C26.6772 84.3016 27.1107 83.9 27.1107 83.4048V78.0238C27.1107 77.5285 26.6772 77.127 26.1424 77.127H4.84119C4.30648 77.127 3.87296 77.5285 3.87296 78.0238V83.4048C3.87296 83.9 4.30648 84.3016 4.84119 84.3016ZM5.80943 78.9206H25.1742V82.5079H5.80943V78.9206ZM4.84119 107.694H26.1424C26.6772 107.694 27.1107 107.292 27.1107 106.797V88.7108C27.1107 88.2156 26.6772 87.814 26.1424 87.814H4.84119C4.30648 87.814 3.87296 88.2156 3.87296 88.7108V106.797C3.87296 107.292 4.30648 107.694 4.84119 107.694ZM5.80943 101.939H10.9733V105.9H5.80943V101.939ZM18.0739 95.3624V100.145H12.9098V95.3624H18.0739ZM12.9098 93.5687V89.6077H18.0736V93.5687H12.9098ZM20.0103 95.3624H25.1742V100.145H20.0103V95.3624ZM18.0739 101.939V105.9H12.9098V101.939H18.0739ZM10.9733 100.146H5.80943V95.3626H10.9733V100.146ZM20.0103 105.9V101.939H25.1742V105.9H20.0103ZM25.1742 93.5687H20.0103V89.6077H25.1742V93.5687ZM10.9733 89.6079V93.5689H5.80943V89.6079H10.9733ZM29.3582 34.7327C28.9692 34.3971 28.9426 33.8363 29.3018 33.4733C29.3858 33.3881 31.4099 31.3889 35.3407 31.3889C39.2715 31.3889 41.2956 33.3881 41.3796 33.4731C41.741 33.8381 41.7144 34.4056 41.3203 34.7401C41.1344 34.8979 40.9001 34.976 40.6663 34.976C40.4044 34.976 40.1432 34.878 39.9524 34.6852C39.8946 34.6289 38.3805 33.1825 35.3407 33.1825C32.3012 33.1825 30.7868 34.6291 30.7239 34.6908C30.3584 35.0482 29.747 35.0686 29.3582 34.7327ZM65.5858 33.4733C65.9472 33.8383 65.9206 34.4058 65.5263 34.7406C65.3404 34.8984 65.1061 34.9762 64.8722 34.9762C64.6123 34.9762 64.3533 34.8798 64.1628 34.6899C64.0901 34.619 62.5758 33.1825 59.5467 33.1825C56.5069 33.1825 54.9928 34.6289 54.9299 34.6906C54.5644 35.0479 53.9532 35.0683 53.5639 34.7327C53.1752 34.3968 53.1483 33.8363 53.5078 33.4733C53.5918 33.3881 55.6159 31.3889 59.5467 31.3889C63.4775 31.3889 65.5016 33.3881 65.5858 33.4733ZM54.91 51.3935C55.2804 51.7448 55.2809 52.3029 54.9062 52.6502C54.8154 52.734 52.6264 54.7063 47.4437 54.7063C42.261 54.7063 40.072 52.734 39.9812 52.6502C39.6031 52.2997 39.6031 51.732 39.9812 51.3818C40.3596 51.0316 40.9725 51.0316 41.3506 51.3818C41.3598 51.3897 43.1362 52.9127 47.4437 52.9127C51.7512 52.9127 53.5276 51.3897 53.5451 51.3742C53.929 51.0354 54.5397 51.0419 54.91 51.3935ZM39.6978 39.9087C39.6978 41.6423 38.1806 43.0476 36.309 43.0476C34.7433 43.0476 33.4294 42.0629 33.0404 40.7266C31.8613 40.4614 30.8996 39.9195 30.2216 39.1168C29.8922 38.7267 29.9665 38.1631 30.3877 37.8579C30.8089 37.5525 31.4172 37.6216 31.7469 38.0117C32.1073 38.4386 32.5824 38.7135 33.1084 38.8848C33.1871 38.674 33.2893 38.474 33.4122 38.2864C33.2026 37.8727 33.0438 37.4268 32.9395 36.9474C32.8337 36.4618 33.1728 35.9889 33.6971 35.891C34.2205 35.7934 34.7319 36.1071 34.8377 36.5927C34.8706 36.7443 34.9123 36.8893 34.9597 37.0304C35.3734 36.8638 35.8294 36.7701 36.3092 36.7701C38.1806 36.7698 39.6978 38.1752 39.6978 39.9087ZM64.6658 39.1166C63.9878 39.9193 63.0261 40.4612 61.847 40.7264C61.458 42.0629 60.1441 43.0476 58.5784 43.0476C56.7068 43.0476 55.1896 41.6423 55.1896 39.9087C55.1896 38.1752 56.7068 36.7698 58.5784 36.7698C59.0585 36.7698 59.5143 36.8633 59.9279 37.0301C59.9754 36.8891 60.0168 36.7441 60.0499 36.5925C60.1557 36.1071 60.6665 35.7925 61.1905 35.8907C61.7148 35.9887 62.0539 36.4616 61.9482 36.9472C61.8438 37.4265 61.685 37.8725 61.4754 38.2861C61.5981 38.4738 61.7005 38.6738 61.7792 38.8846C62.3052 38.7133 62.7801 38.4382 63.1408 38.0113C63.4702 37.6214 64.0788 37.5523 64.5 37.8575C64.9209 38.1628 64.9952 38.7267 64.6658 39.1166Z" fill="black"/>
</svg>
