<svg width="99" height="113" viewBox="0 0 99 113" fill="white" xmlns="http://www.w3.org/2000/svg">
<path d="M35.3408 33.1824C32.3013 33.1824 30.7869 34.629 30.724 34.6906C30.3585 35.048 29.747 35.0686 29.3583 34.7328C28.9693 34.3972 28.9427 33.8364 29.3019 33.4734C29.3859 33.388 31.41 31.3888 35.3408 31.3888C39.2716 31.3888 41.2957 33.388 41.3797 33.473C41.7411 33.838 41.7145 34.4054 41.3204 34.74C41.1345 34.8978 40.9002 34.9758 40.6664 34.9758C40.4045 34.9758 40.1433 34.8778 39.9525 34.685C39.8947 34.6288 38.3806 33.1824 35.3408 33.1824ZM54.93 34.6904C54.993 34.629 56.5073 33.1824 59.5468 33.1824C62.576 33.1824 64.0903 34.6189 64.1629 34.6897C64.3534 34.8796 64.6124 34.9761 64.8724 34.9761C65.1062 34.9761 65.3405 34.898 65.5264 34.7404C65.9205 34.4057 65.9472 33.8384 65.586 33.4732C65.5018 33.388 63.4776 31.3888 59.5468 31.3888C55.616 31.3888 53.5919 33.388 53.5079 33.473C53.1487 33.836 53.1753 34.3967 53.5641 34.7323C53.9533 35.0682 54.5645 35.0478 54.93 34.6904ZM54.9063 52.6499C55.281 52.3026 55.2805 51.7446 54.9102 51.3933C54.5398 51.0417 53.9291 51.0352 53.5452 51.3742C53.5278 51.3895 51.7513 52.9125 47.4438 52.9125C43.1364 52.9125 41.3599 51.3895 41.3509 51.3814C40.9726 51.0312 40.3597 51.0312 39.9816 51.3814C39.6035 51.7318 39.6035 52.2995 39.9816 52.6497C40.0721 52.7338 42.2611 54.7061 47.4438 54.7061C52.6266 54.7061 54.8155 52.7338 54.9063 52.6499ZM36.309 36.7697C34.4374 36.7697 32.9202 38.175 32.9202 39.9086C32.9202 41.6421 34.4374 43.0474 36.309 43.0474C38.1807 43.0474 39.6979 41.6421 39.6979 39.9086C39.6979 38.175 38.1807 36.7697 36.309 36.7697ZM58.5786 36.7697C56.707 36.7697 55.1897 38.175 55.1897 39.9086C55.1897 41.6421 56.707 43.0474 58.5786 43.0474C60.4502 43.0474 61.9674 41.6421 61.9674 39.9086C61.9674 38.175 60.4502 36.7697 58.5786 36.7697ZM68.7451 107.619V74.4364C68.7451 73.9412 69.1786 73.5396 69.7134 73.5396H73.5863V71.746C73.5863 71.2507 74.0199 70.8491 74.5546 70.8491H88.1099C88.6447 70.8491 89.0782 71.2507 89.0782 71.746V73.5396H92.9511C93.4859 73.5396 93.9194 73.9412 93.9194 74.4364V107.619C93.9194 108.114 93.4859 108.516 92.9511 108.516H69.7134C69.1786 108.516 68.7451 108.114 68.7451 107.619ZM75.5228 76.2301H87.1417V72.6428H75.5228V76.2301ZM70.6816 106.722H91.9829V75.3333H89.0782V77.1269C89.0782 77.6222 88.6447 78.0237 88.1099 78.0237H74.5546C74.0199 78.0237 73.5863 77.6222 73.5863 77.1269V75.3333H70.6816V106.722ZM0 108.537V78.0029C0 75.5418 2.1616 73.5396 4.81869 73.5396H26.1653C28.8224 73.5396 30.984 75.5418 30.984 78.0029V81.2677C34.6253 79.966 38.7299 78.0325 38.7299 75.333V71.2375C32.4724 70.4193 28.0182 68.6069 25.2256 65.7581C22.6222 63.1022 21.1725 57.2847 20.3665 51.4296C19.7236 51.8157 19.0598 52.0157 18.3966 52.0157C15.1389 52.0157 12.5871 47.6824 12.5871 42.1506C12.5871 36.6188 15.1389 32.2856 18.3966 32.2856C18.7396 32.2856 19.0821 32.3327 19.4186 32.4248C19.6284 25.2177 20.6291 10.6767 25.2253 5.98785C29.175 1.95866 36.4427 0 47.4438 0C58.445 0 65.7126 1.95866 69.6623 5.98785C74.2585 10.6767 75.2592 25.2175 75.4691 32.4248C75.8058 32.3336 76.1495 32.2858 76.4911 32.2858C79.7487 32.2858 82.3005 36.619 82.3005 42.1508C82.3005 47.6827 79.7487 52.0159 76.4911 52.0159C75.8019 52.0159 75.1374 51.8271 74.5166 51.4637C73.7098 57.3071 72.2608 63.1073 69.6623 65.7581C69.4403 65.9846 69.2062 66.2034 68.9632 66.4168C69.2239 66.3839 69.4897 66.3653 69.7601 66.3653H93.1436C96.3727 66.3653 99 68.7988 99 71.7897V107.576C99 110.566 96.3727 113 93.1436 113H69.7601C66.531 113 63.9037 110.566 63.9037 107.576V93.1045C62.363 95.5162 60.6787 97.8558 58.8681 100.087C55.7637 103.911 52.2456 107.48 48.4118 110.703V112.103C48.4118 112.598 47.9783 113 47.4436 113C46.9089 113 46.4753 112.598 46.4753 112.103V110.703C42.6416 107.48 39.1232 103.911 36.0191 100.087C34.2084 97.856 32.5244 95.5165 30.9835 93.1045V108.537C30.9835 110.998 28.8219 113 26.1648 113H4.81869C2.1616 113 0 110.998 0 108.537ZM74.7857 49.3133C75.2105 49.7741 75.8002 50.222 76.4911 50.222C78.323 50.222 80.364 46.9071 80.364 42.1506C80.364 37.3941 78.323 34.0792 76.4911 34.0792C76.1732 34.0792 75.831 34.177 75.5112 34.3523C75.5204 34.9841 75.5228 35.4996 75.5228 35.8729C75.5228 37.7768 75.4579 43.3681 74.7857 49.3133ZM20.0995 49.2916C19.4295 43.3544 19.3648 37.7744 19.3648 35.8729C19.3648 35.5002 19.3672 34.9859 19.3762 34.3557C19.1019 34.2039 18.7662 34.0792 18.3966 34.0792C16.5647 34.0792 14.5236 37.3941 14.5236 42.1506C14.5236 46.9071 16.5647 50.222 18.3966 50.222C18.9064 50.222 19.5023 49.8942 20.0995 49.2916ZM51.28 105.608L49.4938 92.3729H45.3938L43.6076 105.608C44.8446 106.81 46.1239 107.976 47.4438 109.098C48.7635 107.976 50.0428 106.81 51.28 105.608ZM54.2215 75.333V71.4545C52.1429 71.6487 49.8857 71.7457 47.4438 71.7457C45.0019 71.7457 42.7447 71.6487 40.6661 71.4545V75.333C40.6661 75.9956 40.5211 76.6119 40.2607 77.1877L47.4438 83.1017L54.627 77.1877C54.3665 76.6119 54.2215 75.9956 54.2215 75.333ZM49.1997 84.0557L57.5159 87.5569L59.6972 81.4958C58.0983 80.7205 56.668 79.8122 55.6705 78.7282L49.1997 84.0557ZM47.4438 85.2866L43.8429 86.8027L45.2321 90.5792H49.6555L51.0447 86.8027L47.4438 85.2866ZM63.9039 83.1852C63.0908 82.9062 62.2661 82.6047 61.4579 82.2758L59.0131 89.0692C58.9262 89.3102 58.733 89.506 58.4815 89.6075C58.3581 89.6575 58.2264 89.6822 58.0945 89.6822C57.9577 89.6822 57.8212 89.6553 57.6939 89.6019L52.8161 87.5484L51.3371 91.5695L52.9984 103.88C54.5137 102.311 55.9593 100.686 57.3206 99.0085C59.7661 95.9954 61.9791 92.7816 63.9039 89.4542V83.1852ZM64.7107 69.0468C62.3671 70.0691 59.5236 70.7974 56.158 71.2372V75.333C56.158 78.0325 60.2626 79.966 63.9039 81.2677V71.7895C63.9039 70.7893 64.199 69.8521 64.7107 69.0468ZM65.8404 71.7895V107.575C65.8404 109.577 67.599 111.206 69.7603 111.206H93.1438C95.3052 111.206 97.0638 109.577 97.0638 107.575V71.7895C97.0638 69.7875 95.3052 68.1587 93.1438 68.1587H69.7603C67.599 68.1587 65.8404 69.7875 65.8404 71.7895ZM21.5204 28.5263C22.463 26.8782 23.7347 25.1691 25.4592 23.579C26.4766 22.6409 27.5973 21.7943 28.8035 21.0515C28.1608 20.5209 27.6341 19.9281 27.2359 19.2749C25.9719 17.2022 25.9648 14.4039 27.2177 12.1461C29.8102 7.47523 37.8587 5.5372 47.2451 7.32367C49.5091 7.75437 51.7486 7.72007 53.9017 7.22166L53.9867 7.20193C54.5064 7.08198 55.0312 7.37412 55.1609 7.85437C55.2907 8.33484 54.9753 8.82181 54.4565 8.94199L54.3716 8.96172C51.9691 9.51819 49.3704 9.559 46.8556 9.08054C39.7235 7.72321 33.5215 8.59559 30.4016 11.2273C32.522 10.9114 34.6662 10.7529 36.7973 10.7625C41.8827 10.7816 46.8909 11.7091 51.6828 13.5194C52.1778 13.7064 52.4155 14.2299 52.2136 14.6884C52.0606 15.0361 51.6988 15.2466 51.3168 15.2466C51.195 15.2466 51.0711 15.2251 50.9515 15.1801C46.3906 13.457 41.6259 12.5741 36.7898 12.556C34.1002 12.5407 31.3998 12.8109 28.7534 13.3393C27.9974 14.9834 28.0521 16.9652 28.9226 18.3927C29.9465 20.0718 32.2754 21.3215 35.4797 21.9114C41.0851 22.9434 50.0627 21.919 56.5298 17.2306C58.7541 15.6182 60.6267 13.5938 62.0955 11.2141C62.2424 10.976 62.499 10.8132 62.7916 10.7724C63.0841 10.7311 63.3813 10.8168 63.5975 11.0042C65.5492 12.6952 66.9379 14.6278 67.7246 16.7488C68.5687 19.0236 68.4636 20.8664 68.3709 22.4923C68.2925 23.8687 68.2184 25.1686 68.7035 26.6441C69.382 28.7077 71.0057 30.5807 73.5323 32.2286C73.2203 21.6495 71.5458 10.5773 68.229 7.19386C64.7163 3.61038 57.7231 1.79364 47.4438 1.79364C37.1645 1.79364 30.1714 3.61038 26.6591 7.19341C23.7284 10.183 22.0798 19.1754 21.5204 28.5263ZM47.4438 69.9521C57.7231 69.9521 64.7163 68.1354 68.2286 64.5523C71.9297 60.7767 73.5863 47.4277 73.5863 35.8729C73.5863 35.3861 73.5832 34.8958 73.5771 34.4034C70.0251 32.3676 67.7609 29.9355 66.8505 27.1661C66.2662 25.3886 66.3528 23.868 66.4368 22.3972C66.5283 20.7924 66.6148 19.2765 65.8929 17.3311C65.3282 15.8094 64.3987 14.3922 63.1225 13.1057C61.6385 15.259 59.8264 17.1181 57.7229 18.6427C51.7687 22.9591 42.4671 25.0269 35.1016 23.6703C33.3215 23.3425 31.7842 22.8353 30.5117 22.1699C29.1675 22.9331 27.9289 23.8324 26.8256 24.8498C23.4813 27.9335 21.9846 31.5199 21.3156 34.018C21.3064 34.6404 21.3013 35.2592 21.3013 35.8729C21.3013 47.4277 22.958 60.7767 26.6591 64.5523C30.1714 68.1354 37.1645 69.9521 47.4438 69.9521ZM35.1902 81.496L37.3714 87.5572L45.6877 84.056L39.2169 78.7284C38.2196 79.8122 36.7891 80.7207 35.1902 81.496ZM30.9837 89.4542C32.9088 92.7818 35.1217 95.9958 37.567 99.0085C38.9284 100.686 40.3742 102.311 41.8893 103.88L43.5505 91.5695L42.0715 87.5484L37.1938 89.6019C37.0664 89.6555 36.9299 89.6822 36.7932 89.6822C36.6615 89.6822 36.5296 89.6573 36.4061 89.6075C36.1544 89.506 35.9614 89.3102 35.8745 89.0692L33.4297 82.2758C32.6215 82.6047 31.7968 82.9062 30.9837 83.1852V89.4542ZM1.93648 108.537C1.93648 110.009 3.22933 111.206 4.81869 111.206H26.1653C27.7544 111.206 29.0475 110.009 29.0475 108.537V78.0029C29.0475 76.531 27.7546 75.3333 26.1653 75.3333H4.81869C3.22933 75.3333 1.93648 76.531 1.93648 78.0029V108.537ZM3.87296 83.4047V78.0237C3.87296 77.5285 4.30649 77.1269 4.84121 77.1269H26.1425C26.6772 77.1269 27.1108 77.5285 27.1108 78.0237V83.4047C27.1108 83.8999 26.6772 84.3015 26.1425 84.3015H4.84121C4.30649 84.3015 3.87296 83.8999 3.87296 83.4047ZM5.80945 82.5078H25.1743V78.9205H5.80945V82.5078ZM3.87296 106.797V88.7109C3.87296 88.2157 4.30649 87.8141 4.84121 87.8141H26.1425C26.6772 87.8141 27.1108 88.2157 27.1108 88.7109V106.797C27.1108 107.292 26.6772 107.694 26.1425 107.694H4.84121C4.30649 107.694 3.87296 107.292 3.87296 106.797ZM20.0104 93.5688H25.1743V89.6077H20.0104V93.5688ZM20.0104 100.145H25.1743V95.3624H20.0104V100.145ZM20.0104 105.9H25.1743V101.939H20.0104V105.9ZM12.9098 93.5688H18.0737V89.6077H12.9098V93.5688ZM12.9098 100.145H18.0737V95.3624H12.9098V100.145ZM12.9098 105.9H18.0737V101.939H12.9098V105.9ZM5.80945 93.5688H10.9733V89.6077H5.80945V93.5688ZM5.80945 100.145H10.9733V95.3624H5.80945V100.145ZM5.80945 105.9H10.9733V101.939H5.80945V105.9Z" fill="white"/>
</svg>
