<svg width="24" height="24" viewBox="0 0 24 24" fill="none" xmlns="http://www.w3.org/2000/svg">
<path d="M23.9509 13.7423C23.6573 13.4224 23.2076 11.0112 22.4489 11.4773L18.8327 13.4775C18.7338 13.5357 18.6614 13.6306 18.6308 13.742C18.6002 13.8534 18.6138 13.9724 18.6689 14.0738C18.7239 14.1751 18.8159 14.2508 18.9254 14.2847C19.0349 14.3186 19.1531 14.3081 19.255 14.2553L22.4498 12.4884L22.9622 13.6739L16.8011 16.0965C16.74 15.9684 16.6791 15.8404 16.6265 15.7086L17.7119 15.1118C17.8123 15.0545 17.8864 14.9597 17.9182 14.8477C17.9499 14.7357 17.9368 14.6157 17.8816 14.5134C17.8263 14.4112 17.7335 14.3349 17.623 14.3012C17.5126 14.2675 17.3934 14.2789 17.2913 14.3331L16.3554 14.8477C16.1942 14.1927 16.1266 13.5179 16.1546 12.8436C15.6706 10.7683 12.8238 11.9859 13.5638 14.7724C12.3071 13.7563 10.3109 14.3351 9.45053 15.6556C9.20634 14.1605 6.80906 14.8594 6.83665 16.0957L6.82202 16.6864C6.73517 17.2213 7.10085 17.9845 6.60024 17.5431C4.56099 16.3349 1.96995 18.4533 2.15736 20.6725C0.143763 21.0655 0.711622 24.0712 2.73639 23.3629L3.23348 23.1435C3.60695 23.4666 4.54863 24.348 4.91499 23.6399C4.9367 23.5859 4.94767 23.5282 4.94725 23.4699C4.94684 23.4117 4.93506 23.3541 4.91259 23.3004C4.89011 23.2467 4.85738 23.1981 4.81627 23.1572C4.77516 23.1163 4.72646 23.084 4.67298 23.0621C2.63666 22.2661 2.45637 19.1123 4.50827 18.2688C5.87398 17.6649 6.90344 18.6264 7.43953 19.9579C7.77844 20.7024 8.13758 22.704 6.15726 23.1706C4.71787 24.8281 8.55861 23.818 8.56108 21.7568C9.99947 24.1999 12.7774 22.7447 11.6221 21.1015C13.169 21.482 15.0737 20.4345 15.2486 18.7955C16.0331 20.1635 18.1743 20.8656 18.614 18.886C18.5923 18.0307 17.5676 17.602 17.2404 16.8754C17.4366 16.5818 24.6601 14.4956 23.9509 13.7423ZM1.78025 22.3122C1.60181 21.921 1.98752 21.6754 2.30689 21.5744C2.39167 21.8722 2.51517 22.1573 2.67417 22.4224C2.3858 22.5914 1.94342 22.704 1.78025 22.3122ZM10.8485 22.0653C9.07157 23.1712 6.08443 15.2558 8.58356 15.7756C8.53559 16.8988 8.73089 18.0191 9.15585 19.0583C9.58081 20.0975 10.2252 21.0307 11.0441 21.7929C11.031 21.8491 11.0069 21.9021 10.9733 21.9489C10.9398 21.9956 10.8973 22.0352 10.8485 22.0653ZM13.2636 20.0755C9.77494 21.603 8.18429 15.3877 12.016 15.1282C14.0269 15.2934 15.5968 18.9111 13.2636 20.0755ZM17.7363 18.8379C17.7036 19.1602 17.0258 19.3781 16.882 19.211C16.076 18.5587 15.4315 17.726 14.9995 16.7788C14.5675 15.8316 14.3599 14.796 14.393 13.7538L14.4076 13.1628C14.3773 12.9633 15.0277 12.5427 15.2757 12.8217C15.2302 13.9445 15.4266 15.0639 15.8514 16.1026C16.2762 17.1413 16.9193 18.0745 17.7363 18.8379Z" fill="white"/>
<path d="M11.6935 15.8724C11.2976 15.7505 9.71378 17.8179 10.9699 18.3004C11.0298 18.3004 11.0891 18.288 11.1441 18.264C11.1992 18.24 11.2487 18.2049 11.2898 18.1609C11.3309 18.1168 11.3627 18.0648 11.3832 18.008C11.4037 17.9511 11.4124 17.8907 11.409 17.8303C11.3669 17.6069 11.3997 17.3758 11.5023 17.1733C11.6049 16.9709 11.7714 16.8087 11.9754 16.7124C12.0835 16.6729 12.172 16.5922 12.2218 16.4876C12.2716 16.3831 12.2789 16.2629 12.242 16.153C12.2051 16.0431 12.127 15.9522 12.0245 15.8997C11.9219 15.8473 11.8031 15.8375 11.6935 15.8724Z" fill="white"/>
<path d="M4.90637 18.831C4.51046 18.7091 2.92667 20.7765 4.1828 21.2591C4.24273 21.259 4.30202 21.2466 4.35703 21.2226C4.41204 21.1986 4.46162 21.1635 4.50273 21.1195C4.54383 21.0755 4.5756 21.0234 4.59609 20.9666C4.61657 20.9097 4.62534 20.8493 4.62186 20.7889C4.57974 20.5656 4.61257 20.3344 4.71515 20.132C4.81774 19.9296 4.98422 19.7675 5.1883 19.6712C5.29653 19.6318 5.38512 19.5511 5.43505 19.4465C5.48499 19.3419 5.49228 19.2216 5.45538 19.1116C5.41847 19.0016 5.3403 18.9106 5.23765 18.8582C5.135 18.8057 5.01606 18.7959 4.90637 18.831Z" fill="white"/>
<path d="M8.14397 9.60955C8.18434 9.71839 8.26543 9.80688 8.3698 9.85599C8.47416 9.90509 8.59345 9.91088 8.702 9.8721C8.81055 9.83333 8.89968 9.75309 8.9502 9.64866C9.00073 9.54423 9.00862 9.42395 8.97216 9.31371C8.87058 9.1108 8.83877 8.87955 8.88174 8.65639C8.9247 8.43323 9.04 8.23083 9.20948 8.08109C9.30388 8.01386 9.36829 7.91184 9.38876 7.79708C9.40924 7.68232 9.38415 7.56403 9.31891 7.46779C8.66789 6.70328 7.62241 8.41154 8.14397 9.60955Z" fill="white"/>
<path d="M2.84984 14.647C2.92 14.6465 2.98903 14.6292 3.05122 14.5964C3.11341 14.5636 3.16696 14.5163 3.20744 14.4585C3.24792 14.4007 3.27416 14.3339 3.28398 14.2638C3.29381 14.1937 3.28694 14.1222 3.26394 14.0554C3.16227 13.8525 3.13041 13.6212 3.17338 13.398C3.21635 13.1748 3.3317 12.9724 3.50125 12.8227C3.59362 12.7542 3.65585 12.6521 3.67466 12.538C3.69348 12.4239 3.66739 12.3069 3.60197 12.2119C3.53655 12.1169 3.43696 12.0515 3.32444 12.0295C3.21191 12.0076 3.09535 12.0309 2.99958 12.0944C2.61056 12.1457 1.67448 14.2142 2.84984 14.647Z" fill="white"/>
<path d="M1.30846 17.3676C1.8008 17.4019 2.23006 17.0107 2.57733 16.706C4.56321 17.9287 7.67179 16.3406 7.3091 13.8783C9.24068 15.7479 11.6688 13.8151 10.0867 12.4032C11.6525 12.3253 13.2167 10.7887 12.9259 9.16558C14.0456 10.2552 16.3064 10.3446 16.1854 8.31176C15.9305 7.49658 14.8287 7.37127 14.3151 6.76563L17.54 4.27536C17.6305 4.20316 17.6892 4.09797 17.7035 3.98249C17.7178 3.867 17.6865 3.75047 17.6165 3.65801C17.5464 3.56556 17.4432 3.50459 17.329 3.48826C17.2149 3.47193 17.0989 3.50154 17.0062 3.57072L13.6789 6.14029C13.585 6.03459 13.4914 5.92893 13.4047 5.81719L18.1129 1.09326L18.9317 2.08639L18.3991 2.49742C18.3102 2.57013 18.2528 2.67499 18.2392 2.78972C18.2257 2.90445 18.257 3.01999 18.3265 3.11177C18.3961 3.20356 18.4983 3.26434 18.6116 3.2812C18.7248 3.29806 18.8401 3.26967 18.933 3.20206C19.1989 2.91166 20.3672 2.41432 19.9002 1.87415C19.5289 1.64833 18.436 -0.533866 17.8335 0.122655L12.9073 5.06585C12.3228 4.3628 12.4575 3.08755 11.6522 2.58178C10.7298 2.13082 9.43996 3.29393 9.72145 4.21454L9.86988 4.78665C10.3013 6.21029 10.331 5.57151 9.13946 5.60021C9.02422 5.60765 8.91651 5.66057 8.83963 5.74753C8.76275 5.8345 8.72288 5.94851 8.72864 6.06492C8.7344 6.18132 8.78533 6.29076 8.87042 6.36955C8.95551 6.44835 9.06791 6.49017 9.18331 6.48597C10.6204 6.30861 13.3637 9.26622 11.3727 10.9527C8.92749 12.9323 5.75865 9.41865 7.89209 7.13516C7.93267 7.09376 7.96477 7.0447 7.98656 6.99077C8.00835 6.93685 8.0194 6.87912 8.01908 6.82088C8.01876 6.76265 8.00707 6.70504 7.98469 6.65137C7.9623 6.59769 7.92966 6.54899 7.88862 6.50805C7.24494 5.97576 6.6732 7.32313 6.49593 7.77776C5.83037 6.40801 3.75797 7.71873 4.10337 8.92615C4.22471 9.45703 4.38565 9.97789 4.5848 10.4843C2.2031 9.5659 0.0305453 12.4011 0.863575 14.6341C-0.429893 15.2829 -0.261279 17.3354 1.30846 17.3676ZM10.965 3.43815C11.0162 3.4044 11.0753 3.38488 11.1363 3.38157C11.1973 3.37826 11.2582 3.39128 11.3126 3.4193C11.5745 4.5119 12.0696 5.53361 12.7632 6.41306C13.4569 7.29252 14.3325 8.00851 15.3288 8.51101C14.4517 10.9288 9.23397 4.51076 10.965 3.43815ZM5.34736 8.15001C5.39825 8.11605 5.45715 8.09632 5.51806 8.09283C5.57897 8.08933 5.63971 8.10219 5.69409 8.1301C5.95636 9.22272 6.45162 10.2445 7.14533 11.124C7.83904 12.0036 8.7145 12.7199 9.71067 13.2229C8.83191 15.6394 3.61438 9.22399 5.34736 8.15001ZM2.46236 11.6665C4.28021 9.98123 7.94595 13.4849 5.75355 15.6636C3.17796 17.7265 -0.0180076 13.8438 2.46236 11.6665ZM0.848004 15.9747C0.850457 15.7484 1.10422 15.5896 1.25472 15.459C1.4179 15.7214 1.61486 15.9608 1.84045 16.1709C1.54957 16.5799 0.827969 16.5905 0.848004 15.9747Z" fill="white"/>
</svg>
