<svg width="15" height="24" viewBox="0 0 15 24" fill="none" xmlns="http://www.w3.org/2000/svg">
<path d="M6.13096 22.0067L2.14026 23.2943C1.96773 23.3525 1.86271 23.5199 1.88521 23.6945C1.91522 23.8691 2.07275 24 2.25278 24H12.7546C12.9422 24 13.0922 23.8691 13.1222 23.6945C13.1522 23.5199 13.0472 23.3453 12.8672 23.2943L8.87645 22.0067C8.72642 21.9557 8.62141 21.8175 8.62141 21.6647V15.9175C10.2642 15.6775 11.772 14.9354 12.9347 13.7423C14.3674 12.2801 15.0951 10.3741 14.99 8.3298L13.8873 0.312822C13.8573 0.130949 13.6998 0 13.5123 0H1.51015C1.32261 0 1.16509 0.130949 1.13508 0.312822L0.219918 6.84571V6.85299L0.00988057 8.3589C-0.095138 10.3741 0.639992 12.2801 2.07275 13.7423C3.24295 14.9354 4.74322 15.6775 6.38601 15.9175V21.6647C6.38601 21.8175 6.28099 21.963 6.13096 22.0067ZM1.8402 0.727493H13.1897L13.9999 6.48924C11.2544 7.05668 9.00397 7.07851 7.66124 6.54016C5.92843 5.84904 3.19794 6.09639 1.03756 6.47469L1.8402 0.727493Z" fill="white"/>
</svg>
