<svg width="99" height="113" viewBox="0 0 99 113" fill="white" xmlns="http://www.w3.org/2000/svg">
<path d="M47.9208 32.2016C44.6234 32.2016 42.937 33.6369 42.9208 33.6515C42.7085 33.8425 42.4202 33.9392 42.1307 33.9392C41.8692 33.9392 41.6069 33.8602 41.4 33.7006C40.9639 33.3641 40.9376 32.7966 41.3414 32.4332C41.4331 32.3504 43.6399 30.4079 47.9208 30.4079C52.2018 30.4079 54.4086 32.3502 54.5003 32.433C54.9041 32.7964 54.8777 33.3639 54.4417 33.7002C54.0056 34.0367 53.325 34.0147 52.9212 33.6513C52.859 33.5975 51.2172 32.2016 47.9208 32.2016ZM69.2319 33.6569C69.3003 33.5975 70.9418 32.2016 74.2382 32.2016C77.5218 32.2016 79.1634 33.5867 79.2433 33.6562C79.4548 33.8441 79.741 33.9392 80.0281 33.9392C80.2895 33.9392 80.5518 33.8602 80.7587 33.7006C81.1948 33.3641 81.2212 32.7966 80.8174 32.4332C80.7256 32.3504 78.5188 30.4079 74.2379 30.4079C69.9569 30.4079 67.7502 32.3502 67.6584 32.433C67.257 32.7941 67.2834 33.3547 67.7136 33.6923C68.144 34.0297 68.8236 34.0125 69.2319 33.6569ZM69.2056 51.0555C69.6279 50.7069 69.636 50.1354 69.2177 49.7833C68.7994 49.4313 68.1228 49.4248 67.7007 49.7733C67.6818 49.7881 65.754 51.2588 61.0795 51.2588C56.405 51.2588 54.4772 49.7881 54.4678 49.7809C54.0457 49.4325 53.3642 49.4352 52.9459 49.7872C52.5278 50.1389 52.5311 50.7069 52.9534 51.0555C53.0522 51.1371 55.4381 53.0527 61.0795 53.0527C66.7209 53.0527 69.1068 51.1371 69.2056 51.0555ZM48.9735 35.6487C46.9386 35.6487 45.289 37.0101 45.289 38.6896C45.289 40.3689 46.9386 41.7303 48.9735 41.7303C51.0084 41.7303 52.658 40.3689 52.658 38.6896C52.658 37.0101 51.0084 35.6487 48.9735 35.6487ZM73.1855 35.6487C71.1506 35.6487 69.501 37.0101 69.501 38.6896C69.501 40.3689 71.1506 41.7303 73.1855 41.7303C75.2204 41.7303 76.87 40.3689 76.87 38.6896C76.87 37.0101 75.2204 35.6487 73.1855 35.6487ZM65.3139 91.2518C65.3139 93.1836 63.4143 94.755 61.0798 94.755C58.7452 94.755 56.8456 93.1836 56.8456 91.2518C56.8456 89.32 58.7452 87.7486 61.0798 87.7486C63.4143 87.7486 65.3139 89.32 65.3139 91.2518ZM63.1617 91.2518C63.1617 90.309 62.2277 89.5422 61.0798 89.5422C59.9319 89.5422 58.9978 90.309 58.9978 91.2518C58.9978 92.1946 59.9319 92.9614 61.0798 92.9614C62.2277 92.9614 63.1617 92.1946 63.1617 91.2518ZM55.8594 87.0899C55.3986 87.3434 54.8683 87.4715 54.3365 87.4715C53.8869 87.4715 53.4361 87.38 53.025 87.1957C52.1351 86.7966 51.5822 86.0278 51.5822 85.1893V79.9386C51.5822 79.1001 52.1351 78.3313 53.025 77.9322C53.9227 77.5295 55.009 77.5699 55.8597 78.038L59.2975 79.9296H62.8618L66.2999 78.038C67.15 77.5701 68.2366 77.5295 69.1346 77.9322C70.0245 78.3313 70.5773 79.1001 70.5773 79.9386V85.1893C70.5773 86.0278 70.0245 86.7966 69.1346 87.1957C68.7232 87.3802 68.2723 87.4715 67.8231 87.4715C67.2912 87.4715 66.761 87.3434 66.2999 87.0896L62.8618 85.1982H59.2975L55.8594 87.0899ZM64.2612 83.8189L67.4855 85.5931C67.7617 85.7451 68.0176 85.6599 68.1147 85.6164C68.208 85.5745 68.4251 85.4491 68.4251 85.1895V79.9388C68.4251 79.6792 68.208 79.5536 68.1147 79.5119C68.0173 79.468 67.7615 79.3832 67.4857 79.535L64.2612 81.3092V83.8189ZM60.0502 83.4046H62.1088V81.7231H60.0502V83.4046ZM54.6736 85.5931L57.8981 83.8189V81.3089L54.6738 79.5348C54.3981 79.3832 54.142 79.468 54.0446 79.5115C53.9512 79.5534 53.7341 79.6787 53.7341 79.9384V85.189C53.7341 85.4487 53.9512 85.5742 54.0446 85.6159C54.1417 85.6597 54.3981 85.7446 54.6736 85.5931ZM17.6344 74.17C17.1383 73.5963 16.8429 72.8961 16.8429 72.1382C16.8429 70.2065 18.7425 68.635 21.077 68.635C23.4119 68.635 25.3112 70.2065 25.3112 72.1382C25.3112 72.8958 25.0158 73.5963 24.5197 74.17C28.5895 74.9368 32.2834 77.0398 34.7998 80.1139C35.0105 80.3713 35.2042 80.6305 35.3877 80.8901C35.8549 80.7661 36.3373 80.6397 36.8342 80.5099C43.058 78.8826 51.5817 76.6538 51.5817 73.0073V69.0648C44.7854 68.2705 39.9457 66.5136 36.909 63.7534C34.0845 61.186 32.5072 55.5775 31.6278 49.9226C30.9574 50.2672 30.241 50.4463 29.4982 50.4463C25.9434 50.4463 23.1587 46.2362 23.1587 40.8615C23.1587 35.4869 25.9434 31.2767 29.4982 31.2767C29.862 31.2767 30.2278 31.3211 30.5867 31.4056C30.7271 27.1545 31.1863 20.3971 32.6375 14.6323C32.0469 14.388 31.4868 14.103 30.9641 13.7813C27.0469 11.3684 25.2738 7.03177 26.3364 2.46357C26.4053 2.1674 26.6482 1.9201 26.9826 1.80508C27.3173 1.69006 27.699 1.72325 27.9979 1.89275C30.1181 3.09494 32.4677 3.92607 34.9812 4.3626C36.0715 4.55205 37.1901 4.66348 38.3125 4.69442C42.8535 1.53626 50.3084 0 61.0795 0C73.0451 0 80.9513 1.89925 85.2498 5.80648C90.2471 10.3489 91.3407 24.4086 91.5715 31.4056C91.9304 31.3209 92.2965 31.2767 92.6602 31.2767C96.2151 31.2767 98.9997 35.4869 98.9997 40.8615C98.9997 46.2362 96.2154 50.4463 92.6605 50.4463C91.918 50.4463 91.2016 50.2672 90.5309 49.9226C89.6515 55.5775 88.0742 61.186 85.2498 63.7534C82.2133 66.5136 77.3736 68.2705 70.577 69.0648V73.0073C70.577 76.6538 79.1007 78.8826 85.3245 80.5099C88.1269 81.2426 90.5468 81.8753 91.8569 82.5495C96.5298 84.9539 99 88.6304 99 93.1813V112.103C99 112.598 98.5182 113 97.9239 113C97.3297 113 96.8478 112.598 96.8478 112.103V93.1811C96.8478 89.2292 94.7882 86.1655 90.7262 84.0754C89.6456 83.5194 87.2338 82.8887 84.6805 82.221C83.0473 81.7939 81.3245 81.343 79.635 80.8442L69.36 97.3054H82.1713C82.5133 97.3054 82.8442 97.343 83.1627 97.4074V92.9894C83.1627 92.4941 83.6445 92.0926 84.2388 92.0926C84.8331 92.0926 85.3149 92.4941 85.3149 92.9894V98.4851C85.9678 99.0974 86.3675 99.8985 86.3675 100.777V112.103C86.3675 112.598 85.8857 113 85.2915 113C84.6972 113 84.2154 112.598 84.2154 112.103V100.777C84.2154 99.8519 83.2983 99.099 82.1713 99.099H50.5148C49.3878 99.099 48.4707 99.8519 48.4707 100.777V112.103C48.4707 112.598 47.9889 113 47.3946 113C46.8004 113 46.3186 112.598 46.3186 112.103V101.705H43.2264C42.6354 101.705 42.1546 102.098 42.1546 102.581V112.103C42.1546 112.598 41.6728 113 41.0785 113C40.4843 113 40.0025 112.598 40.0025 112.103V103.529C39.0582 103.647 38.1683 103.878 37.3464 104.218C32.3921 106.27 31.6873 111.583 31.6235 112.183C31.5735 112.649 31.104 113 30.5528 113C30.5208 113 30.4885 112.999 30.4562 112.996C29.8644 112.952 29.4272 112.517 29.4799 112.024C29.555 111.322 30.386 105.098 36.3892 102.612C37.5595 102.128 38.8341 101.824 40.1859 101.703C40.6261 100.662 41.8213 99.912 43.2267 99.912H46.4563C46.923 98.4159 48.563 97.3056 50.5153 97.3056H52.7998L42.5251 80.8446C40.8354 81.3432 39.1125 81.7943 37.4796 82.2215C37.0986 82.321 36.7258 82.4185 36.3618 82.5147C36.8622 83.542 37.1312 84.5409 37.1559 85.4458C41.2636 86.7964 42.1554 88.3891 42.1554 89.5147C42.1554 92.1273 37.6558 93.9284 31.6243 94.8667C31.5571 98.369 28.9782 101.375 25.3123 102.708V112.103C25.3123 112.598 24.8304 113 24.2362 113C23.6419 113 23.1601 112.598 23.1601 112.103V103.271C22.4867 103.383 21.7908 103.443 21.0781 103.443C15.3173 103.443 10.6231 99.6077 10.5322 94.8662C4.49966 93.9279 0 92.1269 0 89.5142C0 88.3887 0.891807 86.7959 4.9995 85.4451C5.04362 83.8407 5.86171 81.9374 7.35452 80.1137C9.87095 77.0396 13.5649 74.9366 17.6344 74.17ZM90.8312 47.789C91.2888 48.2287 91.9212 48.6527 92.6605 48.6527C94.641 48.6527 96.8478 45.453 96.8478 40.8615C96.8478 36.27 94.641 33.0704 92.6605 33.0704C92.3229 33.0704 91.9594 33.1618 91.6191 33.3255C91.6288 33.9289 91.6315 34.4219 91.6315 34.7799C91.6312 36.6234 91.5607 42.0328 90.8312 47.789ZM31.3281 47.789C30.5985 42.0328 30.528 36.6234 30.528 34.7799C30.528 34.4078 30.531 33.9143 30.5402 33.3255C30.1996 33.1618 29.8364 33.0704 29.4988 33.0704C27.5182 33.0704 25.3114 36.27 25.3114 40.8615C25.3114 45.453 27.5182 48.6527 29.4988 48.6527C30.238 48.6527 30.8705 48.2285 31.3281 47.789ZM34.2761 13.2802C34.7659 13.4441 35.0409 13.8804 34.9249 14.3095C33.7805 18.5407 33.2167 23.4389 32.9404 27.4688C34.2182 27.343 35.792 27.0043 37.3539 26.198C40.6772 24.4831 41.8087 21.7531 42.1406 20.6588C42.2203 20.3965 42.4379 20.1779 42.733 20.0646C43.0279 19.9512 43.3687 19.9548 43.6598 20.0745C49.0421 22.2874 55.0658 23.4571 61.0795 23.4571C67.0932 23.4571 73.1169 22.2874 78.4992 20.0745C78.7906 19.9548 79.1311 19.9512 79.4262 20.0646C79.7211 20.1781 79.939 20.3965 80.0186 20.659C80.3506 21.7529 81.4816 24.4826 84.8053 26.198C86.371 27.006 87.9483 27.3444 89.2275 27.4695C88.6077 18.488 86.8211 9.88883 83.6633 7.01832C79.8492 3.55165 72.2509 1.79365 61.0795 1.79365C50.7413 1.79365 43.4516 3.30031 39.4128 6.27149C39.2126 6.41879 38.9662 6.5013 38.6867 6.49592C37.2921 6.48112 35.8977 6.35422 34.5424 6.1188C32.3114 5.73115 30.1966 5.06369 28.2352 4.12942C27.9285 7.47323 29.4197 10.5993 32.2436 12.3387C32.8605 12.7188 33.5443 13.0353 34.2761 13.2802ZM61.0795 67.7662C72.2506 67.7662 79.8492 66.0082 83.6633 62.5411C87.6806 58.8895 89.4788 45.9669 89.4788 34.7799C89.4788 32.9771 89.4317 31.1292 89.3367 29.2824C87.7482 29.1627 85.7057 28.7728 83.6722 27.7233C80.5064 26.0895 79.0009 23.7017 78.3157 22.1323C72.9337 24.1752 67.002 25.2512 61.0795 25.2512C55.157 25.2512 49.2253 24.1754 43.8433 22.1323C43.1581 23.7017 41.6521 26.0895 38.4868 27.7233C36.457 28.7708 34.4181 29.1613 32.8309 29.2817C32.7023 31.7534 32.6802 33.7378 32.6802 34.7799C32.6802 45.9669 34.4784 58.8895 38.4957 62.5411C42.3101 66.0082 49.9084 67.7662 61.0795 67.7662ZM61.0795 69.5599C58.4339 69.5599 55.9877 69.4666 53.7341 69.2798V72.5828C54.9488 73.3783 57.5201 74.7166 61.0795 74.7166C62.3485 74.7166 65.5275 74.4978 68.4249 72.5802V69.2798C66.1715 69.4666 63.7251 69.5599 61.0795 69.5599ZM44.5557 80.2119L55.2251 97.3054H66.934L77.6036 80.2119C73.454 78.8427 69.844 77.101 68.7606 74.5926C65.63 76.3026 62.434 76.5103 61.0795 76.5103C57.6831 76.5103 55.0488 75.4778 53.4016 74.5848C52.3228 77.0972 48.7096 78.8413 44.5557 80.2119ZM29.4573 95.159C26.7994 95.4675 23.9338 95.6238 21.077 95.6238C18.2206 95.6238 15.355 95.4673 12.697 95.159C12.969 98.7753 16.6226 101.649 21.077 101.649C25.5315 101.649 29.1854 98.775 29.4573 95.159ZM21.0773 91.9359C14.8522 91.9359 7.01071 90.7106 5.35192 87.2612C3.02031 88.0885 2.15217 88.9465 2.15217 89.5142C2.15217 91.3164 9.352 93.8302 21.0773 93.8302C32.8026 93.8302 40.0025 91.3164 40.0025 89.5142C40.0025 88.9479 39.1389 88.0923 36.8024 87.2621C35.1426 90.7108 27.3019 91.9359 21.0773 91.9359ZM18.9954 72.1382C18.9954 73.081 19.9294 73.8478 21.0773 73.8478C22.2255 73.8478 23.1593 73.081 23.1593 72.1382C23.1593 71.1955 22.2252 70.4287 21.0773 70.4287C19.9294 70.4287 18.9954 71.1955 18.9954 72.1382ZM9.13248 81.1246C7.47746 83.1465 6.75783 85.339 7.3416 86.5807C8.31196 88.6445 14.0887 90.1424 21.0776 90.1424C28.0662 90.1424 33.8429 88.6445 34.8133 86.5807C35.3971 85.339 34.6774 83.1465 33.0224 81.1246C30.212 77.6914 25.7467 75.6415 21.0776 75.6415C16.4084 75.6415 11.943 77.6912 9.13248 81.1246ZM57.7345 105.825V112.103C57.7345 112.598 58.2163 113 58.8106 113C59.4048 113 59.8867 112.598 59.8867 112.103V105.825C59.8867 105.33 59.4048 104.928 58.8106 104.928C58.2163 104.928 57.7345 105.33 57.7345 105.825ZM72.7997 105.825V112.103C72.7997 112.598 73.2815 113 73.8758 113C74.4701 113 74.9519 112.598 74.9519 112.103V105.825C74.9519 105.33 74.4701 104.928 73.8758 104.928C73.2815 104.928 72.7997 105.33 72.7997 105.825Z" fill="white"/>
</svg>
